<?xml version="1.0" standalone="no"?>
<!DOCTYPE svg PUBLIC "-//W3C//DTD SVG 1.1//EN" "http://www.w3.org/Graphics/SVG/1.1/DTD/svg11.dtd" >
<svg xmlns="http://www.w3.org/2000/svg">
<metadata></metadata>
<defs>
<font id="akzidenz-grotesk_bqsuper" horiz-adv-x="1323" >
<font-face units-per-em="2048" ascent="1638" descent="-410" />
<missing-glyph horiz-adv-x="641" />
<glyph horiz-adv-x="0" />
<glyph unicode="&#xd;" horiz-adv-x="641" />
<glyph unicode=" "  horiz-adv-x="641" />
<glyph unicode="&#x09;" horiz-adv-x="641" />
<glyph unicode="&#xa0;" horiz-adv-x="641" />
<glyph unicode="!" horiz-adv-x="598" d="M152 0v385h374v-385h-374zM152 1059v387h374v-391l-80 -527h-206z" />
<glyph unicode="&#x22;" horiz-adv-x="626" d="M39 1522h225l-71 -631h-80zM365 1522h223l-70 -631h-82z" />
<glyph unicode="#" horiz-adv-x="1368" d="M70 365v284h229l23 164h-201v285h239l50 348h290l-49 -348h170l47 348h291l-47 -348h182v-285h-223l-20 -164h196v-284h-237l-52 -365h-292l53 365h-168l-51 -365h-291l49 365h-188zM590 649h168l24 164h-170z" />
<glyph unicode="$" horiz-adv-x="1366" d="M49 147l217 259l68 -44q86 -53 156.5 -66t109.5 -17v270q-35 8 -70.5 16t-70.5 19q-55 14 -107.5 31.5t-98.5 43t-85 64.5t-64 94q-10 23 -21 62t-11 98q0 29 7 76t29.5 99t66.5 105.5t116 94.5q49 27 96 42t88 22t74 9t51 5v133h197v-140q37 -4 74.5 -9t74.5 -15 q117 -29 185.5 -68t109.5 -65l-213 -250q-16 12 -33.5 24.5t-36.5 22.5q-47 27 -78.5 36t-82.5 15v-229q43 -6 123.5 -21.5t181.5 -68.5q25 -14 62.5 -40t73.5 -68t61.5 -102.5t25.5 -142.5q0 -31 -8 -82t-35 -108t-75 -113.5t-130 -95.5q-72 -35 -138.5 -47t-141.5 -23 v-206h-197v206q-121 14 -199.5 29.5t-137 36t-106.5 46.5t-108 62zM461 1014q0 -20 9 -35.5t24 -26.5q23 -16 52 -22t54 -10v200q-4 0 -28.5 -4t-45.5 -14q-25 -12 -45 -36t-20 -52zM797 283q37 10 67.5 23t53.5 50q10 18 13 32t3 24t-2 18t-6 19q-12 29 -42 42t-87 27v-235 z" />
<glyph unicode="%" horiz-adv-x="2048" d="M41 944q0 100 22.5 176t58.5 130.5t78 88t81 52.5q41 18 85 24t91 6q98 2 152.5 -21.5t88.5 -51.5q57 -47 88 -106.5t45.5 -116t17.5 -100.5t3 -62q0 -96 -24.5 -184.5t-75 -155t-128 -105.5t-184.5 -39q-104 0 -180 37t-124 100.5t-71.5 148.5t-23.5 179zM326 950 q0 -8 1 -56t7 -93q4 -35 18.5 -63.5t46.5 -45.5q4 -2 17.5 -6t29.5 -4q12 0 38 6t44 35q23 31 32 90t9 145q0 164 -37 224q-6 10 -25.5 27.5t-53.5 17.5q-8 0 -21.5 -1t-30.5 -12q-47 -27 -61 -93t-14 -171zM627 0l616 1446h189l-619 -1446h-186zM1190 444q0 100 22.5 176 t58.5 130.5t78 88t81 52.5q41 18 83.5 25.5t90.5 7.5q100 0 153 -22.5t90 -53.5q57 -47 88 -105.5t45.5 -115t17.5 -101.5t3 -63q0 -96 -24.5 -183t-75 -154t-129 -106.5t-185.5 -39.5q-104 0 -179 36.5t-123 100t-71.5 148.5t-23.5 179zM1475 394.5q0 -48.5 8 -93.5 q4 -33 17 -62.5t46 -45.5q4 -2 18.5 -6.5t30.5 -4.5q10 0 36 7.5t46 35.5q20 29 29.5 89.5t9.5 146.5q0 166 -35 221q-8 10 -26.5 27.5t-55.5 17.5q-6 0 -19 -1t-30 -11q-47 -25 -61 -92.5t-14 -169.5v-58.5z" />
<glyph unicode="&#x26;" horiz-adv-x="1409" d="M35 436q0 115 31.5 177.5t66.5 99.5q29 33 54.5 56.5t53 42.5t58.5 35.5t70 35.5q-12 16 -27.5 39.5t-31 56.5t-26 75t-10.5 93q0 14 2.5 38.5t10.5 53.5t24.5 59.5t46.5 59.5q43 41 93.5 61.5t96.5 29.5t82 10t50 1q63 0 106 -7t66 -13q78 -23 124 -61t70.5 -80 t32.5 -83.5t8 -72.5q0 -41 -15 -104.5t-79 -133.5q-29 -33 -51 -50t-37 -28q-29 -20 -50 -29.5t-52 -23.5q82 -102 174 -205q8 20 14 37t12.5 36.5t12.5 44t12 63.5l309 -117q-23 -70 -39 -116t-31.5 -81t-31.5 -63.5t-39 -63.5q16 -8 46 -20.5t77 -12.5q16 0 30.5 1.5 t32.5 3.5l-2 -279q-41 -4 -83 -7t-85 -3h-24.5t-48 3t-58 10t-55.5 20q-23 12 -44 30.5t-26 20.5q-31 -18 -69 -39q-41 -20 -120 -44t-196 -24q-25 0 -67.5 2t-95 15.5t-109.5 40t-113 75.5q-57 51 -84.5 94.5t-38.5 71.5q-29 78 -28 168zM420 442q0 -10 1 -24.5t9 -36.5 q6 -16 17.5 -36.5t32 -39t51 -32t73.5 -13.5q57 0 98.5 18.5t57.5 28.5q-27 33 -51.5 63.5t-51.5 65.5q-35 43 -66.5 87t-66.5 89q-6 -4 -11 -9t-11 -9q-8 -6 -22.5 -19.5t-28 -32t-22.5 -43t-9 -57.5zM586 1135q0 -29 16 -60t51 -78q18 10 40 23.5t41.5 30t31.5 37t12 45.5 q0 20 -10 36q-8 16 -28.5 32t-63.5 16q-29 0 -47.5 -8.5t-27.5 -20.5t-12 -26.5t-3 -26.5z" />
<glyph unicode="'" horiz-adv-x="303" d="M39 1522h225l-71 -631h-80z" />
<glyph unicode="(" horiz-adv-x="704" d="M55 631q0 207 64.5 395t193.5 348q113 141 273 271l141 -144l-27 -33q-43 -55 -75.5 -99t-57 -86t-44 -83t-38.5 -88q-41 -104 -59 -217t-18 -242q0 -246 71 -448q41 -117 99.5 -206t148.5 -173l-131 -166q-16 14 -29.5 23.5t-21.5 17.5q-76 61 -136.5 118.5 t-101.5 104.5q-125 145 -188.5 323.5t-63.5 383.5z" />
<glyph unicode=")" horiz-adv-x="704" d="M-23 -205l27 33q45 55 77 99t56.5 86t44 83t37.5 90q78 209 78 459q0 268 -79 472t-241 356l132 165q16 -14 28.5 -24t22.5 -17q82 -66 137 -119t100 -106q252 -294 252 -704q0 -135 -29.5 -271.5t-87.5 -253.5q-29 -59 -65.5 -115.5t-82.5 -112.5t-104.5 -113.5 t-129.5 -120.5l-31 -27z" />
<glyph unicode="*" horiz-adv-x="894" d="M27 1042l71 244l215 -61l-2 219h256v-219l217 73l82 -241l-204 -70l124 -160l-198 -157l-139 176l-132 -178l-206 151l120 164z" />
<glyph unicode="+" horiz-adv-x="1482" d="M186 528v314h351v387h409v-387h350v-314h-350v-397h-409v397h-351z" />
<glyph unicode="," horiz-adv-x="512" d="M70 0v385h372v-309q0 -68 -9 -128.5t-33.5 -111.5t-66.5 -92t-110 -70q-37 -16 -75.5 -23t-77.5 -13v180q72 25 98.5 64.5t28.5 117.5h-127z" />
<glyph unicode="-" horiz-adv-x="765" d="M59 471v350h646v-350h-646z" />
<glyph unicode="." horiz-adv-x="512" d="M70 0v385h372v-385h-372z" />
<glyph unicode="/" horiz-adv-x="1024" d="M2 0l621 1446h395l-617 -1446h-399z" />
<glyph unicode="0" d="M41 682q0 23 2 72t12.5 112.5t32 135t59.5 139.5q31 55 68 96t72 69.5t65.5 47t53.5 28.5q66 29 134 41.5t142 10.5q25 0 63.5 -3.5t88 -14.5t102.5 -34.5t104 -66.5q39 -33 81 -84t77 -124t56.5 -169t21.5 -219q0 -113 -19.5 -205t-48 -165t-64.5 -126t-67 -86 q-23 -25 -60.5 -54.5t-92 -56t-124 -44t-157.5 -17.5q-33 0 -101.5 6t-148.5 43q-55 25 -98 58.5t-75 68.5t-52.5 66t-30.5 49q-33 57 -64.5 161.5t-31.5 264.5zM459 655q0 -35 1 -75.5t6 -82.5t15.5 -81t26.5 -70q16 -29 36.5 -47t42 -28.5t40 -13.5t30.5 -3q18 0 55.5 11 t69.5 52q35 47 56.5 139.5t21.5 229.5q0 51 -3 102.5t-7 102.5q0 6 -2 23.5t-6 42t-11.5 51t-19.5 51.5q-14 31 -34.5 49t-41 29.5t-40 14.5t-31.5 3q-47 0 -79 -22.5t-42 -32.5q-10 -12 -18.5 -25.5t-16.5 -30.5q-16 -37 -26.5 -87t-15.5 -104t-6 -106.5t-1 -91.5z" />
<glyph unicode="1" d="M225 899v318q12 0 41 -1.5t65 3t75.5 15.5t76.5 36q25 16 42.5 34.5t23.5 26.5q10 14 17 29.5t18 46.5h364v-1407h-422v934q-10 -4 -19 -7t-20 -7q-41 -12 -103 -15.5t-159 -5.5z" />
<glyph unicode="2" d="M55 0v266q86 55 169 112.5t165 117.5q72 51 139.5 103t133.5 112q29 27 56 54.5t48.5 58t35 66.5t13.5 79q0 14 -3 32.5t-7 32.5q-6 14 -15.5 31.5t-28 32t-46 25t-68.5 10.5q-31 0 -62.5 -8.5t-58 -31t-43 -63.5t-16.5 -106q0 -35 2 -53.5t12 -49.5l-415 51q0 20 1 40 t3 40q2 18 5 56.5t16 85.5t39 97t73 93q47 45 105.5 73.5t121 44t127 20.5t125.5 5q27 0 94.5 -3t143.5 -25q156 -43 238.5 -153.5t82.5 -270.5q0 -31 -4 -68t-18.5 -81t-42 -93t-76.5 -100q-35 -37 -75 -71t-94 -70.5t-123 -77.5t-157 -92q53 2 107.5 4t109.5 2h355v-328 h-1168z" />
<glyph unicode="3" d="M6 422l391 74q2 -16 3 -30.5t6 -31.5q16 -76 49.5 -106.5t64.5 -44.5q16 -6 46 -15.5t71 -7.5q18 0 52 4t69 21.5t60.5 53.5t25.5 99q0 4 -1 19.5t-7 29.5q-16 41 -51 61.5t-73 29t-69 8.5h-37q-43 0 -61.5 -2t-40.5 -9v279q23 -2 45 -4t47 -2q33 0 68 6q6 0 25.5 3 t42 10t45 23.5t36.5 45.5q14 33 14 65q0 25 -9 50.5t-30.5 47t-58.5 36t-92 14.5q-68 0 -105.5 -25.5t-57 -59.5t-26 -70t-8.5 -54l-387 25q10 53 21.5 104t34.5 100q39 80 101 131.5t136 81t156 40t162 10.5q72 0 122 -6.5t78 -12.5q18 -4 63.5 -16.5t97.5 -40t101.5 -73.5 t77.5 -116q8 -20 15.5 -51t7.5 -80q0 -18 -3 -51t-16.5 -69.5t-40 -73.5t-73.5 -68q-23 -14 -46.5 -24.5t-46.5 -20.5q12 -4 45 -12t70 -29q20 -12 48 -32.5t51.5 -52.5t40 -78t16.5 -109q0 -80 -32 -161t-89 -136q-33 -33 -68.5 -52.5t-48.5 -25.5q-92 -45 -194.5 -57.5 t-204.5 -12.5q-25 0 -50.5 1t-47.5 3q-23 2 -77 8.5t-120 28t-133.5 64.5t-116.5 119q-37 55 -53.5 109t-30.5 118z" />
<glyph unicode="4" d="M39 293v280l639 836h418v-838h178v-278h-178v-293h-402v293h-655zM375 571h319l4 324q1 67 7 133q-23 -35 -45.5 -67.5t-45.5 -65.5z" />
<glyph unicode="5" d="M33 426l418 41v-37t8 -61q4 -16 16 -38t32.5 -40.5t52.5 -30.5t77 -12q98 0 153.5 60.5t55.5 158.5q-2 104 -59.5 160.5t-155.5 56.5q-12 0 -54 -5t-77 -34q-16 -12 -23.5 -23.5t-17.5 -27.5l-353 43l80 762h1043l-29 -293h-717l-18 -197q14 8 27.5 15.5t27.5 11.5 q33 12 68 19.5t65.5 10.5t53 4t30.5 1q23 0 82.5 -6.5t126.5 -28.5q147 -49 236.5 -163.5t89.5 -274.5q0 -35 -9.5 -101.5t-54.5 -150.5q-57 -109 -142 -166t-171 -83t-158.5 -29t-103.5 -3q-104 0 -202.5 20.5t-190.5 80.5q-20 14 -62.5 51t-77.5 96q-29 53 -42 103.5 t-25 109.5z" />
<glyph unicode="6" d="M37 666q0 121 20.5 229.5t77.5 214.5q14 25 49 76t95 102q29 25 67.5 51.5t90.5 48t121 35t159 13.5q100 0 192 -22.5t174 -82.5q10 -10 37 -32.5t54 -59.5q23 -29 38 -63.5t37 -104.5l-399 -59q-4 20 -6 33.5t-13 31.5q-14 29 -34.5 45.5t-42 24.5t-40 10t-28.5 2 q-16 0 -39.5 -4t-51.5 -16.5t-55.5 -34t-52.5 -57.5q-41 -59 -49 -126t-12 -135q8 10 23.5 29t39.5 35q14 12 44 26.5t69 26.5t87 21.5t102 9.5q23 0 82 -6t124 -33q135 -53 211 -168t76 -262q0 -35 -11 -102.5t-59 -145.5q-43 -68 -103 -115t-131 -77.5t-147.5 -44 t-150.5 -13.5q-35 0 -116 8.5t-177 47.5q-104 43 -173 110.5t-108.5 151.5t-55 181t-15.5 200zM463 453q2 -92 59.5 -152.5t149.5 -60.5q39 0 64.5 8t37.5 16q37 18 58.5 45t31.5 54.5t13.5 52.5t3.5 39t-3.5 42.5t-19.5 61.5q-16 37 -41.5 58.5t-52.5 31.5t-50.5 14.5 t-37.5 4.5q-10 0 -35 -3t-53 -16q-43 -16 -67.5 -43.5t-37 -56.5t-16.5 -55.5t-4 -40.5z" />
<glyph unicode="7" d="M88 1092v319h1129v-270q-23 -23 -45.5 -47.5t-45.5 -51.5q-47 -53 -107.5 -137t-129.5 -227q-57 -117 -93 -217.5t-57.5 -184t-33 -152.5t-19.5 -124h-440q16 68 33.5 134.5t39.5 131.5q37 106 83.5 209t90.5 186.5t81.5 146t56.5 91.5q31 49 65.5 97t69.5 96h-678z" />
<glyph unicode="8" d="M37 399q0 63 17.5 114.5t42 88.5t52 61.5t46.5 36.5q16 10 33.5 18.5t52.5 22.5q-57 37 -78 56q-47 43 -70.5 106.5t-23.5 126.5q0 27 9 76t44 108q51 84 129 128t154.5 62.5t138 20.5t80.5 2h37.5t37.5 -2q16 0 64.5 -4t108 -19.5t122 -48t109.5 -89.5 q23 -27 51.5 -82.5t28.5 -147.5q0 -66 -20.5 -126t-67.5 -107q-16 -16 -29.5 -25.5t-44.5 -32.5q41 -18 63.5 -31.5t38.5 -27.5q59 -47 89 -123.5t30 -150.5q0 -78 -23.5 -136.5t-55.5 -99.5t-66.5 -67.5t-57.5 -40.5q-66 -41 -162 -68t-260 -27h-45t-45 2q-20 0 -75.5 6.5 t-125 28t-141 64.5t-123.5 116q-18 27 -41.5 77t-23.5 134zM449 412q0 -25 9 -55.5t31.5 -57.5t63.5 -45t104 -18t105.5 18t67 46t33.5 58.5t9 57.5q0 25 -9 56.5t-33.5 59t-66.5 45t-106 17.5q-12 0 -33.5 -2t-47 -10.5t-52 -24.5t-45.5 -45q-20 -31 -25 -58.5t-5 -41.5z M479 1016q0 -23 9.5 -48.5t31 -47t56 -37t88.5 -15.5q53 0 87.5 15.5t54 37t28 47t8.5 48.5q0 25 -6.5 41t-10.5 24q-23 45 -66.5 60.5t-94.5 17.5q-78 2 -114 -22.5t-52 -53.5q-12 -23 -15.5 -40t-3.5 -27z" />
<glyph unicode="9" d="M35 936q0 25 4 64.5t19.5 87t46 98.5t83.5 98q27 23 68 49.5t96.5 49t127 37t157.5 14.5q23 0 69 -3.5t104 -15.5t122.5 -37.5t126.5 -70.5q18 -14 47 -41t61 -74q70 -104 92.5 -220t22.5 -239q0 -121 -21.5 -228.5t-78.5 -213.5q-14 -25 -48 -76t-94 -104 q-29 -25 -67.5 -51.5t-92 -47t-123 -34t-157.5 -13.5q-100 0 -191.5 21.5t-172.5 81.5q-35 29 -57.5 53t-33.5 39q-23 29 -38 64.5t-37 103.5l399 59q4 -20 6 -33.5t12 -31.5q14 -29 35 -45.5t42.5 -24.5t40 -10t28.5 -2q14 0 38.5 4t52.5 16t55.5 34.5t51.5 57.5 q41 59 49.5 127t10.5 133q-6 -8 -21.5 -26.5t-40.5 -36.5q-16 -10 -44.5 -24.5t-67.5 -28t-87 -21.5t-102 -8q-25 0 -83 5t-126 32q-135 53 -210.5 168.5t-73.5 263.5zM438 946q0 -14 3 -43t20 -61q16 -37 41.5 -58.5t51.5 -33t49.5 -14.5t37.5 -3q12 0 36.5 3t53.5 14 q41 16 65.5 43.5t37 56.5t16.5 55.5t4 42.5q-2 92 -58.5 152.5t-148.5 60.5q-39 0 -64.5 -9t-37.5 -15q-37 -18 -58.5 -46t-32 -55.5t-13.5 -52.5t-3 -37z" />
<glyph unicode=":" horiz-adv-x="598" d="M152 0v385h372v-385h-372zM152 676v385h372v-385h-372z" />
<glyph unicode=";" horiz-adv-x="598" d="M152 0v385h372v-309q0 -68 -9 -128.5t-33.5 -111.5t-66.5 -92t-110 -70q-37 -16 -76 -23t-77 -13v180q72 25 98 64.5t29 117.5h-127zM152 676v385h372v-385h-372z" />
<glyph unicode="&#x3c;" horiz-adv-x="1482" d="M229 528v367l953 442v-376l-582 -236l582 -254v-397z" />
<glyph unicode="=" horiz-adv-x="1482" d="M205 254v315h1075v-315h-1075zM205 723v317h1075v-317h-1075z" />
<glyph unicode="&#x3e;" horiz-adv-x="1482" d="M287 940l2 397l950 -454v-367l-950 -442v377l581 235z" />
<glyph unicode="?" horiz-adv-x="1236" d="M94 1083q6 20 14.5 49t26 63t44 69.5t67.5 70.5q94 82 200.5 108.5t227.5 26.5q80 0 132 -7t87 -17q68 -16 126 -49t101 -79t68.5 -106.5t25.5 -134.5q0 -18 -2 -43.5t-11 -56.5t-26.5 -65.5t-50.5 -69.5q-23 -25 -52.5 -47.5t-63 -44t-66.5 -43t-59 -39.5 q-20 -14 -50 -40t-45 -48q-4 -8 -9 -19.5t-9 -32.5l-354 2q4 31 7 57.5t13 55.5q16 47 62.5 98.5t132.5 112.5q23 16 52.5 37.5t55 48.5t44 57.5t18.5 65.5q0 18 -7.5 40.5t-24.5 42t-47 34t-75 14.5q-47 0 -90 -18q-66 -31 -86 -88.5t-29 -120.5zM403 0v385h375v-385h-375z " />
<glyph unicode="@" horiz-adv-x="1740" d="M63 504q0 199 75 374t205 304t306 203.5t377 74.5q145 0 262 -43t200 -121.5t128 -191.5t45 -250q0 -145 -41 -276.5t-109.5 -229.5t-161 -155.5t-194.5 -57.5q-72 0 -122 37t-64 102q-113 -137 -254 -137q-68 0 -122 25.5t-94 72t-61.5 110t-21.5 140.5 q0 117 36.5 223.5t100 186.5t146.5 128t173 48q55 0 99 -18q39 -16 62.5 -37t58.5 -68l20 82h213l-86 -401q-16 -74 -25.5 -135.5t-9.5 -90.5q0 -51 35 -51q18 0 42 21.5t52 60.5q55 80 88 186.5t33 210.5q0 86 -16.5 149.5t-55.5 117.5q-59 86 -161.5 131t-231.5 45 q-147 0 -276 -60.5t-226.5 -163t-154 -240.5t-56.5 -294q0 -133 44.5 -239.5t124 -181.5t193.5 -115.5t253 -40.5q340 0 651 286l117 -145q-43 -37 -76 -64.5t-61.5 -49t-57 -40t-63.5 -39.5q-127 -72 -253 -106.5t-267 -34.5q-258 0 -465 119q-352 201 -353 639zM659 504 q0 -74 33 -117t90 -43q41 0 82 25.5t74 72.5q35 49 58.5 123t23.5 135v7q0 72 -36 114.5t-95 42.5q-45 0 -86 -29.5t-73 -79.5t-51.5 -116t-19.5 -135z" />
<glyph unicode="A" horiz-adv-x="1622" d="M-2 0l553 1446h520l541 -1446h-492l-63 203h-504l-64 -203h-491zM651 524h312l-154 510z" />
<glyph unicode="B" horiz-adv-x="1492" d="M90 0v1446h856q31 0 61.5 -2t61.5 -6q66 -10 134.5 -38t115.5 -75q10 -10 25.5 -31.5t31.5 -54.5q37 -74 37 -160q0 -18 -4 -50t-17.5 -70.5t-40 -79.5t-69.5 -76q-16 -12 -36.5 -24.5t-59.5 -28.5l61 -19q35 -10 61.5 -28.5t53.5 -45.5q33 -35 51.5 -70.5t26.5 -68.5 t10 -59.5t2 -44.5t-3 -53t-13.5 -77t-34 -87t-62.5 -84q-29 -29 -57.5 -44.5t-42.5 -21.5q-68 -31 -130 -39t-134 -8h-885zM545 311h286q39 0 73 11.5t59 46.5q16 25 20 47.5t4 34.5t-3 33.5t-17 43.5q-16 25 -38 38.5t-43.5 19.5t-40 7t-24.5 1h-276v-283zM547 897h252 q37 0 73.5 8t59.5 45q12 18 14 38t2 30q0 29 -6 45t-12 27q-12 20 -30.5 30t-37 15.5t-33 5.5h-20.5h-262v-244z" />
<glyph unicode="C" horiz-adv-x="1536" d="M55 715q0 33 4 85t18.5 116.5t44.5 136t83 145.5q74 104 160 164.5t167.5 91.5t154.5 38t120 7q123 0 222 -28.5t174 -69.5t127 -86t83 -80q33 -37 52.5 -67.5t41.5 -71.5l-383 -191q-4 10 -10 21.5t-10 21.5q-10 18 -28.5 52t-51.5 66t-82 55.5t-119 23.5 q-63 0 -103 -17.5t-63 -33.5q-53 -41 -81.5 -95.5t-41 -106.5t-13.5 -94t-1 -57q0 -150 40 -234.5t93 -125.5t99.5 -49t72.5 -8q59 0 103.5 17t75 42t51 51.5t30.5 44.5q8 16 15.5 32.5t17.5 49.5l391 -188q-18 -35 -33.5 -60.5t-28.5 -45t-25.5 -36t-24.5 -30.5 q-33 -37 -84 -80t-124 -80t-168 -61.5t-216 -24.5q-139 0 -261 37t-229 129q-90 76 -142 164t-78.5 171t-33 151.5t-6.5 107.5z" />
<glyph unicode="D" horiz-adv-x="1536" d="M90 0v1446h492q47 0 96 -1t96 -3q72 -4 141.5 -10.5t134 -23.5t124 -49t114.5 -83q35 -35 70 -83t62.5 -114.5t45 -152.5t17.5 -197q0 -80 -8.5 -138.5t-14.5 -86.5q-8 -35 -29.5 -100.5t-65.5 -137t-117.5 -136t-188.5 -97.5q-88 -27 -182.5 -30t-184.5 -3h-602z M549 332h174q37 0 67.5 5t65.5 21q63 31 97 88.5t49.5 116t17.5 105.5t2 55q0 4 -1 46t-13.5 97.5t-39 111.5t-77.5 89q-33 20 -66.5 30.5t-103.5 10.5h-172v-776z" />
<glyph unicode="E" d="M90 0v1446h1145v-318h-686v-215h641v-313h-643v-287h749v-313h-1206z" />
<glyph unicode="F" horiz-adv-x="1280" d="M90 0v1446h1143v-318h-688v-260h643v-313h-643v-555h-455z" />
<glyph unicode="G" horiz-adv-x="1622" d="M55 713q0 35 5.5 95t23.5 134t56 155t104 158q113 131 263 190.5t318 59.5q88 0 178.5 -16t175.5 -50t158.5 -86.5t128.5 -123.5q41 -53 58.5 -99.5t27.5 -70.5l-409 -115q-6 29 -13.5 52.5t-23.5 50.5q-27 41 -63.5 63.5t-73.5 33.5t-67 13t-40 2q-25 0 -73 -6t-103 -39 q-66 -37 -100.5 -96.5t-49 -118.5t-15.5 -106.5t-1 -61.5q0 -41 4 -86t15 -86q23 -80 79 -143.5t136 -91.5q20 -6 46.5 -12.5t73.5 -6.5q53 0 105.5 13.5t93.5 48.5q29 23 47 53q14 27 19.5 54.5t7.5 35.5h-268v291h663v-801h-340v100q-33 -23 -56.5 -38t-37.5 -23 q-51 -27 -104.5 -42t-100.5 -23.5t-84 -10.5t-53 -2q-39 0 -122 9.5t-181 54.5q-53 25 -124 77t-133.5 134.5t-106.5 200.5t-44 276z" />
<glyph unicode="H" horiz-adv-x="1536" d="M90 0v1446h457v-526h436v526h461v-1446h-461v557h-436v-557h-457z" />
<glyph unicode="I" horiz-adv-x="641" d="M90 0v1446h459v-1446h-459z" />
<glyph unicode="J" horiz-adv-x="854" d="M0 0v356q23 -4 46.5 -8t70.5 -4q78 0 115.5 18.5t54.5 55.5q8 16 12 36.5t4 55.5v936h457v-1045v-18t-1 -33.5t-3 -42t-6 -41.5q-10 -55 -30 -93t-43.5 -64.5t-49 -42t-45.5 -23.5q-25 -10 -51.5 -18.5t-58.5 -13.5t-73 -8t-94 -3h-305z" />
<glyph unicode="K" horiz-adv-x="1579" d="M90 0v1446h457v-547l454 547h558l-502 -549l538 -897h-514l-319 578l-215 -236v-342h-457z" />
<glyph unicode="L" horiz-adv-x="1110" d="M90 0v1446h457v-1081h559v-365h-1016z" />
<glyph unicode="M" horiz-adv-x="1961" d="M88 0v1446h655l236 -909l231 909h656v-1446h-436l4 1049l-289 -1049h-340l-285 1049l2 -1049h-434z" />
<glyph unicode="N" horiz-adv-x="1579" d="M90 0v1446h485l490 -842l-6 842h428v-1446h-494l-481 840l4 -840h-426z" />
<glyph unicode="O" horiz-adv-x="1662" d="M53 723q0 37 6.5 101.5t28 143.5t64.5 164t116 158q33 33 83 70t120 67.5t159 51t201 20.5q35 0 97.5 -3t138.5 -22.5t158 -59.5t157 -114q33 -31 72 -81t73 -119.5t56.5 -160.5t22.5 -204q0 -33 -5.5 -97.5t-28 -144t-66.5 -166.5t-122 -165t-161.5 -120t-160.5 -61.5 t-140.5 -23.5t-98.5 -4t-98 4t-141 23.5t-162 61.5t-158 118q-106 106 -158.5 254.5t-52.5 308.5zM512 723q0 -10 1 -43t8 -77t23.5 -92t47.5 -87q39 -49 96 -76q23 -10 56.5 -19.5t86.5 -9.5q66 0 117 20.5t94 70.5q41 45 72 120.5t31 206.5q0 14 -2 58.5t-15.5 97.5 t-45 107.5t-91.5 91.5q-49 29 -94 36t-66 7q-12 0 -36.5 -2.5t-55 -11.5t-62.5 -25.5t-61 -46.5q-39 -41 -71.5 -119t-32.5 -207z" />
<glyph unicode="P" horiz-adv-x="1449" d="M90 0v1446h825q106 0 202.5 -17.5t182.5 -91.5q55 -47 85 -100t44.5 -103.5t17.5 -92t3 -66.5q0 -23 -5 -82t-30 -125q-6 -18 -24.5 -53t-49 -73t-74.5 -75t-104 -59q-66 -25 -130 -31t-132 -6h-352v-471h-459zM549 774h260q4 0 31.5 2t50.5 10q14 6 32.5 17.5t35 32 t26.5 51.5t10 74q0 12 -3 40.5t-19 59.5t-41 47t-49.5 24.5t-46 9.5t-29.5 1h-258v-369z" />
<glyph unicode="Q" horiz-adv-x="1662" d="M55 725q0 141 33 248.5t80 186.5t102.5 131t100.5 83q109 74 225.5 100.5t245.5 26.5q16 0 49 -1t76 -5t92 -15.5t98 -29.5q109 -43 193 -116.5t140 -168t86 -203t30 -221.5q0 -18 -2 -60t-11.5 -95.5t-27 -115.5t-47.5 -120q-8 -16 -18.5 -32.5t-21 -32t-17.5 -26.5 t-7 -13q82 -55 129 -74.5t100 -24.5l-141 -317q-20 4 -52 10t-70 19.5t-81 37t-88 60.5q-18 16 -34.5 32.5t-32.5 33.5q-18 -8 -38 -16.5t-40 -14.5q-43 -14 -90 -22.5t-87 -12.5t-71 -5t-43 -1q-20 0 -55 1t-79 7t-96.5 18.5t-105.5 34.5q-111 47 -190.5 122t-132 168 t-77 200.5t-24.5 222.5zM518 717q0 -74 10.5 -123t20.5 -80q23 -68 59.5 -105.5t76.5 -58t78 -26t62 -5.5q18 0 43 2.5t53.5 11.5t59.5 27.5t59 53.5q41 45 71 119.5t30 205.5q0 84 -17.5 162t-76.5 143q-18 20 -42 39t-51 29q-41 16 -75.5 19.5t-49.5 3.5q-47 0 -77.5 -9.5 t-46.5 -17.5q-37 -18 -71 -49t-59.5 -78t-41 -112.5t-15.5 -151.5z" />
<glyph unicode="R" horiz-adv-x="1449" d="M90 0v1446h782q63 0 125 -6q25 -2 68 -9.5t93 -27t101.5 -57t90.5 -103.5q18 -33 42.5 -98.5t24.5 -161.5q0 -104 -41 -192.5t-129 -147.5q-23 -16 -48 -27.5t-79 -31.5l355 -584h-512l-281 510h-133v-510h-459zM549 807h190q31 0 64 3t61.5 13.5t51 32t34.5 55.5 q2 6 6.5 23.5t4.5 40.5q0 57 -29 102q-10 16 -23.5 24.5t-19.5 12.5q-35 20 -74 24.5t-80 4.5h-186v-336z" />
<glyph unicode="S" horiz-adv-x="1492" d="M14 276l351 224q23 -37 38 -56.5t31 -31.5q31 -27 73 -46.5t87 -31.5t91 -18.5t83 -6.5q98 0 158.5 29t60.5 82q0 12 -4 21.5t-6 13.5q-8 16 -22.5 29.5t-47.5 23.5q-39 14 -106.5 25.5t-165.5 31.5q-150 29 -236 66t-139 84q-16 14 -38.5 39.5t-42 62.5t-32 84 t-12.5 107q0 29 7.5 89t45.5 130q37 68 91.5 113.5t115 75.5t122 45.5t114.5 22.5t91 8t52 1q27 0 86.5 -3t134 -18.5t158.5 -46t162 -88.5q35 -25 58.5 -48t51.5 -52l-288 -240q-27 35 -41 47q-31 29 -73 48.5t-87 31t-91 16.5t-87 5q-8 0 -42 -2t-67 -17q-4 -2 -13 -7 t-18.5 -14t-17.5 -22.5t-8 -31.5q0 -20 10 -38t27 -28q14 -8 35.5 -15t44 -13.5t45 -10.5t37.5 -6q39 -6 130 -22.5t199 -51.5q33 -10 86.5 -33.5t104.5 -67.5t87 -115.5t36 -180.5q0 -80 -20.5 -143.5t-50.5 -109.5t-62.5 -76.5t-57.5 -49.5q-70 -51 -146.5 -78.5t-146 -40 t-123 -13.5t-75.5 -1q-158 0 -306.5 34t-277.5 130q-49 37 -83 72.5t-71 82.5z" />
<glyph unicode="T" horiz-adv-x="1193" d="M-2 1090v356h1192v-356h-367v-1090h-456v1090h-369z" />
<glyph unicode="U" horiz-adv-x="1492" d="M86 588v858h459v-903q0 -10 1 -43t13 -68q14 -41 40 -64.5t53.5 -34.5t53 -14.5t37.5 -3.5t37 3.5t52.5 14.5t54 33.5t43.5 63.5q10 29 12 54.5t2 58.5v903h461v-866q0 -70 -10.5 -130.5t-34.5 -125.5q-37 -98 -102.5 -167t-148.5 -113t-178 -63.5t-192 -19.5 q-20 0 -55 2t-81 8t-98 19.5t-106 38.5q-23 10 -59.5 29.5t-76.5 52t-78 80t-62 114.5q-10 27 -17.5 53.5t-11.5 58.5t-6 72.5t-2 98.5z" />
<glyph unicode="V" horiz-adv-x="1449" d="M0 1446h467l258 -887l256 887h469l-489 -1446h-478z" />
<glyph unicode="W" horiz-adv-x="2134" d="M-4 1446h446l205 -944l221 944h387l232 -944l199 944h444l-361 -1446h-489l-219 901l-213 -901h-492z" />
<glyph unicode="X" horiz-adv-x="1705" d="M-4 0l559 776l-469 670h537l229 -397l233 397h523l-457 -668l555 -778h-539l-315 520l-320 -520h-536z" />
<glyph unicode="Y" horiz-adv-x="1622" d="M-6 1446h528l285 -481l278 481h529l-582 -838v-608h-459v608z" />
<glyph unicode="Z" horiz-adv-x="1366" d="M4 0v289l741 811h-698v346h1292v-295l-729 -799h727v-352h-1333z" />
<glyph unicode="[" horiz-adv-x="612" d="M90 -295v1890h492v-194h-172v-1501h172v-195h-492z" />
<glyph unicode="\" horiz-adv-x="1024" d="M2 1446h399l617 -1446h-395z" />
<glyph unicode="]" horiz-adv-x="612" d="M29 -100h174v1501h-174v194h493v-1890h-493v195z" />
<glyph unicode="^" horiz-adv-x="1482" d="M115 571l446 875h377l432 -875h-403l-209 523l-217 -523h-426z" />
<glyph unicode="_" horiz-adv-x="1024" d="M-20 -231h1064v-261h-1064v261z" />
<glyph unicode="`" horiz-adv-x="641" d="M25 1483h436l155 -281h-260z" />
<glyph unicode="a" horiz-adv-x="1236" d="M39 317q0 20 4 54.5t18.5 71t44 75.5t78.5 74q66 45 146 61.5t157 26.5q45 6 91.5 12t91.5 17q20 4 40.5 9t41.5 11q0 4 -1 20.5t-6 28.5q-10 33 -37.5 53.5t-99.5 20.5q-23 0 -38 -2t-23 -4q-25 -6 -39 -18.5t-22.5 -27t-11.5 -27.5t-5 -21l-395 -11q4 16 7 31.5t7 32.5 q8 31 30.5 81t86.5 99q63 49 166.5 80t275.5 31q61 0 132 -7.5t136.5 -28t120 -60t84.5 -103.5q16 -35 23.5 -75t7.5 -113v-578q0 -29 2 -48.5t6 -32.5t11.5 -24.5t17.5 -25.5h-416v82q-12 -10 -29.5 -21.5t-48.5 -27.5q-35 -16 -104.5 -37t-169.5 -21q-20 0 -68.5 3.5 t-101.5 23.5q-104 41 -157.5 124t-53.5 191zM430 330q0 -25 22.5 -53.5t82.5 -28.5q29 0 53 8t49 20q45 25 67.5 54.5t33 59.5t11.5 58t1 46q-80 -29 -160 -50q-35 -8 -76 -21t-65 -44q-4 -4 -11.5 -17.5t-7.5 -31.5z" />
<glyph unicode="b" horiz-adv-x="1280" d="M86 0v1446h420l2 -459q25 25 55 47q47 31 101.5 44.5t111.5 13.5q201 0 330 -142q25 -27 48.5 -61.5t41.5 -82.5t30.5 -110.5t12.5 -142.5q0 -23 -4 -86.5t-27.5 -141t-72 -156.5t-136.5 -132q-53 -33 -114.5 -48.5t-124.5 -15.5q-82 0 -137.5 20.5t-83.5 39.5 q-14 10 -24.5 21.5t-20.5 23.5v-78h-408zM496 532q0 -29 2 -59.5t9 -60t21.5 -56t36.5 -45.5q10 -8 35 -20t59 -12q14 0 46 8t61 37q27 29 42 78.5t15 129.5q0 49 -8 102.5t-37 94.5t-64.5 51.5t-51.5 10.5q-12 0 -38 -5.5t-53 -25.5q-51 -41 -63 -104.5t-12 -123.5z" />
<glyph unicode="c" horiz-adv-x="1181" d="M37 537q0 27 6 85t29 128q43 129 120.5 200.5t161.5 107.5t159 43t116 7q70 0 126 -9t100 -24.5t78 -34t58 -34.5q12 -10 43 -35t60 -60q16 -23 27.5 -40t25.5 -40l-320 -180q-6 20 -11 34.5t-9 21.5q-6 12 -17.5 29.5t-31 33.5t-47 28.5t-66.5 12.5q-35 0 -57.5 -9 t-32.5 -18q-39 -27 -59.5 -67.5t-29.5 -81.5t-10 -73t-1 -38v-24.5t5 -48t15 -57t29 -54.5q6 -10 19.5 -21.5t39.5 -21.5q10 -4 28.5 -10t47.5 -6q51 0 86 25.5t56.5 56t30.5 59.5t13 39l324 -178q-23 -43 -38 -70t-30 -43q-25 -31 -64.5 -67.5t-99 -68.5t-138.5 -53.5 t-177 -21.5q-92 0 -149.5 14.5t-92.5 30.5q-115 47 -179 123t-96 154.5t-40 148.5t-8 107z" />
<glyph unicode="d" horiz-adv-x="1280" d="M39 555q0 29 4 94.5t33 143.5q12 33 40.5 84t79 98t126 82t182.5 35q12 0 34.5 -1t51 -7.5t61.5 -17.5t64 -32q14 -10 24.5 -18t32.5 -29v459h420v-1446h-408l-2 76q-4 -4 -15 -17.5t-28 -25.5q-45 -33 -106.5 -46.5t-116.5 -13.5q-86 0 -143.5 21.5t-85.5 38.5 q-61 35 -103.5 83t-70 101t-43 106.5t-22.5 99.5t-8 81t-1 51zM455 532q0 -49 11 -109.5t48 -98.5q18 -20 48 -32.5t59 -12.5q31 0 52 10t29 16q55 39 67.5 105t12.5 125q0 45 -5 89t-27 85q-14 27 -33 42t-37 24t-35.5 12.5t-28.5 3.5q-47 0 -88 -31q-35 -29 -54 -82 t-19 -146z" />
<glyph unicode="e" horiz-adv-x="1236" d="M35 537q0 82 16.5 148.5t41 117.5t53 88t51.5 59q57 55 121.5 86t124 46.5t106.5 19.5t69 4q27 0 78.5 -4t112.5 -21.5t128 -53.5t124 -97q78 -84 113 -197q23 -70 26.5 -138.5t3.5 -139.5h-739q0 -14 2 -29q2 -12 3 -26.5t5 -26.5q6 -16 16.5 -36t31 -38t49 -30.5 t71.5 -12.5q49 0 77 13.5t44 27.5q33 27 49 56.5t23 39.5l346 -145q-8 -12 -18.5 -29.5t-33.5 -42.5q-55 -66 -110 -101.5t-84 -49.5q-39 -18 -119 -43t-194 -25q-66 0 -129.5 10t-122.5 35q-82 33 -144.5 88t-105.5 126t-64.5 153t-21.5 168zM469 678h307q-2 10 -3 24.5 t-7 34.5q-10 33 -28.5 52.5t-39 30.5t-40 14.5t-31.5 3.5q-25 -2 -40.5 -7.5t-25.5 -9.5q-29 -12 -46 -33.5t-27.5 -43t-13.5 -40t-5 -26.5z" />
<glyph unicode="f" horiz-adv-x="768" d="M-2 807v229h158v105q0 8 3 54t17 87q14 39 42 73t73 59.5t108.5 40.5t147.5 15q78 0 135 -11t86 -17v-289q-29 10 -44 12t-34 2q-45 0 -68.5 -14t-32.5 -35.5t-10 -44t-1 -37.5h190v-229h-190v-807h-422v807h-158z" />
<glyph unicode="g" horiz-adv-x="1280" d="M37 561q0 18 3 63.5t15.5 100.5t40 115.5t76.5 113.5q70 74 168 105t197 31q12 0 37.5 -1.5t59.5 -7.5t70.5 -20t69.5 -41q14 -10 24.5 -21.5t30.5 -37.5l-2 100h365v-1002q-2 -16 -2 -29.5t-2 -29.5q0 -18 -4 -50t-16.5 -70t-36 -79t-66.5 -75q-45 -39 -104.5 -63.5 t-124 -38t-129 -18.5t-119.5 -5q-43 0 -86 2t-86 6q-43 6 -89 14t-89 25.5t-81 44t-65 67.5q-35 53 -42 107.5t-9 118.5h383v-16.5t3 -27t9 -29.5t21 -28q16 -14 50 -25.5t83 -11.5q4 0 20.5 1t38 5.5t45 11.5t41.5 21q20 16 31.5 38t15.5 43.5t4 38v22.5q0 35 1 66.5 t1 64.5q-14 -23 -19 -29t-17 -16q-47 -39 -113 -51.5t-125 -12.5q-86 0 -158.5 18.5t-140.5 71.5q-29 23 -60.5 57.5t-58 86t-43 120t-16.5 156.5zM438 551q0 -68 13.5 -110t33.5 -64q18 -23 52 -35q6 -4 25.5 -8t41.5 -4q12 0 32.5 2t47.5 14q31 14 50.5 39t28.5 55.5 t12 63t3 63.5q0 29 -2 59.5t-11 60.5t-26.5 54.5t-48.5 38.5q-10 4 -28 12q-15 5 -36 5h-12q-39 0 -75 -17q-45 -23 -73 -76t-28 -153z" />
<glyph unicode="h" d="M84 0v1446h420v-492q16 23 26.5 33t20.5 21q31 29 103.5 63.5t187.5 34.5q78 0 157.5 -24.5t137.5 -82.5q20 -20 46.5 -61t39.5 -109q8 -39 10 -68.5t2 -68.5v-692h-422v606q0 23 -1 32t-5 24q-6 31 -37 63.5t-108 32.5q-12 0 -34 -2t-44.5 -11.5t-43 -30t-28.5 -55.5 q-4 -16 -5 -31.5t-1 -29.5v-598h-422z" />
<glyph unicode="i" horiz-adv-x="598" d="M86 0v1061h422v-1061h-422zM86 1165v281h422v-281h-422z" />
<glyph unicode="j" horiz-adv-x="598" d="M-72 -395l2 307q6 0 25.5 -1t42.5 3q33 6 51.5 19.5t27.5 30t10 33.5t1 30v1034h422v-1045v-73.5t-4 -71.5q-2 -12 -5 -32.5t-11.5 -46t-24.5 -53.5t-45 -50q-43 -37 -106.5 -54.5t-122 -24.5t-101.5 -7h-45q-29 0 -58.5 1t-58.5 1zM88 1165v281h422v-281h-422z" />
<glyph unicode="k" d="M84 0v1446h422v-688l289 303h514l-404 -383l422 -678h-481l-230 403l-110 -106v-297h-422z" />
<glyph unicode="l" horiz-adv-x="598" d="M84 0v1446h424v-1446h-424z" />
<glyph unicode="m" horiz-adv-x="2048" d="M84 0v1061h408v-152q18 33 31.5 50.5t25.5 29.5q33 31 99.5 63.5t176.5 32.5q14 0 50 -2t82.5 -12t95.5 -33.5t88 -66.5q12 -12 24.5 -31.5t28.5 -50.5q14 33 29.5 51t25.5 29q18 18 45 39.5t64 39t86 27.5t115 10q20 0 56 -1t83 -15q20 -6 52 -18.5t66.5 -37t67.5 -63.5 t51 -96q16 -47 18.5 -91t2.5 -93v-670h-422v555q0 14 -1 45t-13.5 61.5t-43 54t-90.5 23.5q-12 0 -32.5 -3t-43 -13t-42 -30.5t-29.5 -55.5q-4 -18 -5 -34.5t-1 -37.5v-565h-422v573q0 18 -1 33t-5 33q-10 33 -28.5 53.5t-39 30.5t-41 13t-32.5 3q-10 0 -31 -3t-42.5 -13 t-42 -29.5t-30.5 -52.5q-4 -10 -7 -25.5t-3 -40.5v-575h-424z" />
<glyph unicode="n" d="M84 0v1061h397v-141q10 14 16.5 23t11.5 15.5t10 11.5l13 13q59 59 138.5 83t160.5 24q14 0 44 -2.5t68 -10.5t80 -25.5t79 -50.5q41 -35 67.5 -83t38.5 -101q6 -27 10.5 -58.5t4.5 -88.5v-670h-422v580q0 18 -1 35.5t-5 35.5q-8 29 -37 58.5t-101 29.5 q-59 0 -89.5 -20.5t-45 -49t-16.5 -58t-2 -46.5v-565h-420z" />
<glyph unicode="o" d="M41 522q0 111 35 215.5t110 186.5q27 29 69 61.5t101.5 59t137 44t174.5 17.5q20 0 68 -3t109.5 -17.5t128 -43t126.5 -79.5q45 -39 77.5 -90.5t55 -107.5t34 -117t11.5 -120q0 -23 -4 -64.5t-17.5 -94t-41 -110.5t-74.5 -112q-29 -31 -72 -64.5t-104.5 -61t-141.5 -45 t-178 -17.5q-23 0 -68 2t-101 14.5t-118.5 37t-119.5 71.5q-29 23 -64 60.5t-64.5 91t-49 125t-19.5 161.5zM461 535q0 -78 16.5 -131.5t36.5 -81.5q27 -35 64 -52q10 -4 30.5 -9t48.5 -5q37 0 70 11.5t57 35.5q29 29 48.5 87.5t19.5 148.5q0 121 -35 180t-92 80 q-23 8 -41 9t-29 1q-55 -2 -86.5 -22.5t-46.5 -36.5q-25 -27 -43 -80.5t-18 -134.5z" />
<glyph unicode="p" horiz-adv-x="1280" d="M86 -385v1446h412v-82q16 18 23 26.5t18 14.5q29 23 88 46.5t151 23.5q125 0 213 -47.5t143.5 -125t81 -180t25.5 -213.5t-26.5 -211t-83 -176t-145.5 -120t-212 -44q-12 0 -36.5 1t-56.5 6.5t-67.5 17.5t-68.5 35q-10 8 -19.5 15t-25.5 24v-457h-414zM496 524 q0 -31 2 -65.5t11 -66.5t26.5 -59.5t48.5 -43.5q25 -14 44 -16.5t29 -2.5q14 0 35 3t47 20q29 18 45.5 45t25.5 57.5t12 63t3 61.5q0 49 -7 106.5t-38 98.5q-29 37 -62.5 47t-49.5 10q-12 0 -35 -3t-47 -17q-33 -18 -50.5 -46t-26.5 -59.5t-11 -66.5t-2 -66z" />
<glyph unicode="q" horiz-adv-x="1280" d="M39 524q0 66 7 116t13 73q8 41 33 105.5t74 125t131 103.5t207 43q86 0 142 -19.5t85 -42.5q16 -10 28.5 -22.5t24.5 -26.5v82h412v-1446h-416v457q-4 -2 -17 -15.5t-28 -23.5q-31 -23 -86 -41.5t-143 -18.5q-125 0 -213 45t-144.5 120t-83 175.5t-26.5 210.5zM455 518 q0 -92 22.5 -145.5t59.5 -75.5q29 -18 50 -22.5t36 -4.5q29 0 47 8.5t28 12.5q31 18 48.5 44.5t26.5 59.5t11 66.5t2 64.5q0 59 -11 123t-62 103q-10 8 -37 20q-23 10 -54 10h-10q-23 0 -38 -5t-23 -9q-49 -25 -72.5 -84t-23.5 -166z" />
<glyph unicode="r" horiz-adv-x="854" d="M84 0v1061h405v-92q16 14 28.5 24.5t29.5 20.5q72 49 141.5 59t153.5 10v-356q-16 2 -30.5 3t-31.5 1h-48t-77 -11t-80.5 -39t-58.5 -81q-10 -27 -11 -49.5t-1 -50.5v-500h-420z" />
<glyph unicode="s" horiz-adv-x="1110" d="M-2 172l238 215q16 -14 29.5 -26.5t29.5 -24.5q12 -10 37.5 -24.5t60.5 -30t78 -25.5t92 -10q8 0 28.5 1t41.5 11q23 10 32 27.5t9 27.5t-3 16.5t-5 8.5q-20 31 -57.5 36t-96.5 15q-10 2 -31.5 6t-50.5 11.5t-62.5 16.5t-64.5 19q-74 25 -130 61t-91 111q-29 63 -29 127 q0 70 23.5 119t38.5 70q23 33 57.5 63.5t85.5 55t118.5 40t158.5 15.5q96 0 206.5 -20.5t196.5 -65.5q29 -16 52.5 -31.5t49.5 -36.5l-227 -207q-12 8 -37.5 24.5t-61.5 34t-80 31t-93 13.5q-6 0 -24.5 -1t-35.5 -9q-18 -10 -24 -23.5t-6 -21.5q0 -20 12 -29.5t16 -11.5 q14 -8 43 -14.5t68 -16.5q117 -29 189.5 -45.5t123.5 -42.5q20 -10 49 -30.5t55.5 -54.5t45 -81.5t18.5 -110.5q0 -47 -10 -89t-33 -83q-45 -82 -114.5 -127t-139 -66.5t-128 -25.5t-79.5 -4q-119 0 -235.5 33t-216.5 96q-31 18 -59.5 40t-57.5 44z" />
<glyph unicode="t" horiz-adv-x="768" d="M0 807v229h147l5 334h423l-2 -334h181v-229h-185l-6 -408q0 -16 3 -35.5t14.5 -36t35 -27.5t64.5 -11q18 0 31.5 1t44.5 7v-289q-12 -2 -40 -5t-64 -7t-78 -7t-85 -3q-84 0 -142 15t-98 41t-62.5 60.5t-34.5 75.5q-8 29 -10.5 57.5t-2.5 57.5l6 514h-145z" />
<glyph unicode="u" d="M80 416v645h424v-578q0 -18 2 -47.5t15.5 -57.5t45 -47.5t90.5 -19.5q31 0 59.5 8.5t49.5 28.5q18 18 27.5 43t12.5 48.5t3 40v20.5v561h424v-1061h-402v156q-10 -23 -23 -44.5t-48 -50.5q-37 -31 -102.5 -59.5t-176.5 -28.5q-14 0 -44.5 2t-70.5 10.5t-83 27t-82 50.5 q-23 18 -53.5 59.5t-49.5 113.5q-10 33 -14 71.5t-4 108.5z" />
<glyph unicode="v" horiz-adv-x="1150" d="M-6 1061h446l129 -655l138 655h442l-352 -1061h-449z" />
<glyph unicode="w" horiz-adv-x="1748" d="M-2 1061h430l131 -678l129 678h363l135 -676l125 676h432l-318 -1061h-419l-140 649l-129 -649h-420z" />
<glyph unicode="x" horiz-adv-x="1236" d="M-8 0l356 557l-315 504h452l131 -318l140 318h454l-321 -502l352 -559h-450l-175 344l-172 -344h-452z" />
<glyph unicode="y" horiz-adv-x="1193" d="M0 1061h440l152 -692q45 190 80 342q14 63 28.5 125.5t25.5 111.5t18.5 80t7.5 33h438l-387 -1122q-25 -72 -57.5 -139.5t-92.5 -116.5q-31 -25 -62.5 -38.5t-64 -19.5t-68.5 -7t-75 -1q-27 0 -53 -1h-11q-21 0 -43 3l-116 12v301q31 -2 60.5 -4t60.5 -2q45 0 66.5 11.5 t21.5 39.5q0 12 -10.5 43t-22.5 66z" />
<glyph unicode="z" horiz-adv-x="1110" d="M16 0v233l504 512h-440v316h1003v-242l-493 -502h489v-317h-1063z" />
<glyph unicode="{" horiz-adv-x="679" d="M16 549v201q47 4 71 10t46 20q37 20 49.5 58.5t12.5 128.5v290v15v57.5t1 43t4 34.5t7 33q12 51 47 90q20 20 40.5 34.5t48.5 22.5t64.5 11.5t92.5 3.5l155 -3v-194h-30q-51 0 -78 -31q-16 -18 -23 -45q-6 -23 -7 -49.5t-1 -95.5v-260q0 -63 -7 -107.5t-26.5 -75 t-52.5 -53t-84 -41.5q35 -10 54.5 -20.5t41.5 -28.5q41 -35 57.5 -84t16.5 -141v-260v-58.5t2 -39t3 -25.5t5 -23q10 -35 39 -56.5t70 -21.5h20v-192l-151 -2q-55 0 -94 3t-68 11t-49.5 21.5t-38.5 36.5q-35 41 -47 90q-4 16 -6 31.5t-4 35t-2 44v59.5v12v293q0 61 -5.5 93 t-15.5 54q-18 33 -54 48.5t-104 21.5z" />
<glyph unicode="|" horiz-adv-x="540" d="M111 -295v1890h319v-1890h-319z" />
<glyph unicode="}" horiz-adv-x="679" d="M25 -111h32q49 0 76 31q16 25 23 45q2 12 4 23.5t3 27t1 38v57.5v262q0 63 7 107t26.5 75t52.5 53.5t84 40.5q-35 10 -54.5 19.5t-41.5 29.5q-41 35 -57.5 84t-16.5 142v260v57.5v37.5t-2 26.5t-6 23.5q-10 35 -40 56.5t-71 21.5h-20v192h153q55 0 94 -3t67 -11 t48.5 -22.5t38.5 -34.5q35 -37 47 -88q4 -16 7 -32.5t4 -35t2 -43t1 -59.5v-13l-2 -292q0 -61 5.5 -94t17.5 -56q16 -31 52 -46t104 -21v-201q-47 -4 -70 -10.5t-47 -20.5q-35 -20 -48.5 -58t-13.5 -128l2 -293v-12q0 -35 -1 -59.5t-2 -43t-4 -34t-7 -33.5q-12 -51 -47 -88 q-20 -23 -39.5 -36.5t-47.5 -21.5t-65.5 -11t-93.5 -3h-155v194z" />
<glyph unicode="~" horiz-adv-x="1482" d="M141 758q39 51 60.5 74.5t50.5 50.5q90 78 215 78q43 0 84 -11q25 -8 68 -23.5t83 -33.5l129 -59q70 -33 101 -42.5t59 -9.5q35 0 71 12.5t66 34.5q27 20 50.5 42t64.5 73l98 -326q-47 -59 -77.5 -86.5t-71.5 -56.5q-92 -59 -186 -59q-49 0 -104.5 17.5t-145.5 60.5 l-74 34q-70 33 -118 48.5t-93 15.5q-37 0 -68 -12q-35 -14 -63.5 -40t-79.5 -87l-20 -25z" />
<glyph unicode="&#xa1;" horiz-adv-x="598" d="M66 0v393l79 525h207l88 -529v-389h-374zM66 1061v385h374v-385h-374z" />
<glyph unicode="&#xa2;" horiz-adv-x="1193" d="M47 508q0 98 27.5 195.5t86 178.5t148.5 137t215 68v238h207v-235q88 -10 154.5 -37t118 -65t87 -82t60.5 -87l-317 -180q-6 16 -16.5 43t-31 52.5t-52.5 44t-83 18.5q-90 0 -137 -73t-47 -208q0 -37 5 -80t22.5 -80t52.5 -61.5t94 -24.5q51 0 86 22.5t57.5 51.5 t33.5 58.5t18 41.5l323 -176q-10 -23 -22.5 -45t-28.5 -45q-49 -72 -108.5 -112.5t-115 -63t-97.5 -31t-56 -10.5v-262h-207v262h-14q-121 16 -208 66.5t-143.5 123t-84 164t-27.5 193.5z" />
<glyph unicode="&#xa3;" horiz-adv-x="1492" d="M31 229q0 59 19.5 95t35.5 55q35 41 78 64.5t83 34.5t72.5 14.5t49.5 3.5q37 0 68.5 -4.5t43.5 -4.5q-20 41 -35.5 63.5t-42.5 61.5h-274v207l141 2q-10 14 -25.5 35t-29.5 48.5t-23.5 65.5t-9.5 85q0 27 6.5 65.5t25.5 82.5t55 87t98 80q59 35 150 61.5t243 26.5 q16 0 51 -1t81 -5t98 -15.5t106 -29.5q16 -6 53 -22.5t76 -47.5q23 -16 53.5 -50t52.5 -95q27 -66 30 -127t1 -131h-365q2 14 3 20.5t-1 26.5q-2 31 -10 62.5t-31.5 57t-64.5 43t-109 17.5q-10 0 -34.5 -2t-53.5 -10q-37 -10 -59.5 -28.5t-33.5 -38t-15 -40t-4 -34.5 q0 -53 30.5 -101.5t61.5 -87.5h319v-207l-184 -2q12 -20 32.5 -66t20.5 -114q0 -20 -2 -35.5t-6 -50.5q14 -10 34.5 -23.5t44 -25.5t47.5 -20.5t42 -8.5q29 0 45 12.5t23.5 32t9.5 43t2 43.5q0 33 -2 49.5t-6 30.5h352q2 -102 -1 -163.5t-13 -110.5q-12 -53 -33 -89 t-45.5 -59.5t-50 -38t-45.5 -22.5q-18 -8 -59.5 -18.5t-94.5 -10.5q-20 0 -50 2t-75 15q-94 25 -160.5 67.5t-95.5 61.5q-16 -14 -31.5 -27.5t-31.5 -26.5q-35 -25 -111 -56.5t-189 -31.5q-16 0 -48.5 3t-73.5 14q-18 4 -53 18t-70 42t-60.5 72t-25.5 111zM283 227 q2 -31 25.5 -46t51.5 -15q10 0 24.5 2t33.5 12q33 14 51.5 33.5t36.5 46.5q-14 8 -47 22.5t-80 14.5q-8 0 -39 -5t-47 -32q-10 -16 -10 -33z" />
<glyph unicode="&#xa4;" horiz-adv-x="1433" d="M45 219l168 168q-47 68 -68.5 140.5t-21.5 162.5t20.5 163t67.5 151l-164 163l195 195l164 -164q137 88 313 88q86 0 155.5 -20.5t149.5 -67.5l166 166l196 -197l-165 -163q47 -78 66.5 -151t19.5 -157q0 -86 -20.5 -160.5t-67.5 -152.5l165 -168l-196 -195l-166 168 q-82 -47 -150.5 -66.5t-154.5 -19.5q-90 0 -162 20.5t-149 70.5l-166 -168zM446 694q0 -57 20.5 -107t57.5 -87t86 -57.5t107 -20.5q55 0 104 21.5t86 58.5t57.5 86t20.5 104q0 57 -20.5 108.5t-56.5 88.5t-85 58.5t-106 21.5t-106.5 -21.5t-86.5 -58.5t-57.5 -87 t-20.5 -108z" />
<glyph unicode="&#xa5;" horiz-adv-x="1622" d="M-6 1430h528l283 -488l280 488h529l-316 -451h156v-250h-332l-90 -129v-14h422v-250h-422v-336h-459v336h-405v250h405v14l-90 129h-315v250h141z" />
<glyph unicode="&#xa6;" horiz-adv-x="540" d="M111 -295v813h319v-813h-319zM111 782v813h319v-813h-319z" />
<glyph unicode="&#xa7;" horiz-adv-x="1280" d="M35 604q0 117 53 190.5t148 133.5q-33 41 -51.5 83t-18.5 95q0 86 38 150.5t99.5 105.5t138 61.5t152.5 20.5q154 0 289 -49t266 -125l-188 -215q-92 47 -179.5 81.5t-193.5 34.5q-12 0 -26.5 -1t-27 -6t-21.5 -14t-9 -24q0 -14 7 -23t17 -18q12 -10 64.5 -34.5t115 -51 t120 -51t79.5 -35.5q66 -31 126.5 -65.5t106.5 -78.5t73.5 -102.5t27.5 -138.5v-12q0 -57 -15.5 -105.5t-43 -88t-65.5 -73.5t-83 -65q37 -35 54.5 -84t17.5 -98q0 -86 -39 -148.5t-101.5 -102.5t-139 -58.5t-150.5 -18.5h-6q-82 0 -154 14.5t-139.5 40t-133 60.5t-132.5 74 l202 215q41 -25 86 -48.5t92.5 -44t96.5 -32.5t98 -12q12 0 26.5 2t28 7t22.5 14t9 26q0 16 -10 28.5t-21 22.5q-12 10 -64 34.5t-115.5 52.5t-122 53.5t-81.5 35.5q-66 31 -124 64.5t-102 80t-70.5 104.5t-26.5 138zM354 657q0 -29 16.5 -53t39.5 -43q16 -14 45.5 -30.5 t63.5 -33t66.5 -30.5t55.5 -25q53 -23 103.5 -47t103.5 -47q27 23 49.5 54.5t22.5 68.5q0 33 -29 61.5t-67 52t-78.5 41t-65.5 29.5q-66 31 -129.5 62t-126.5 63q-25 -25 -47.5 -55.5t-22.5 -67.5z" />
<glyph unicode="&#xa8;" horiz-adv-x="641" d="M-100 1239v244h340v-244h-340zM401 1239v244h340v-244h-340z" />
<glyph unicode="&#xa9;" horiz-adv-x="1705" d="M125 723q0 152 57.5 285t155.5 231t231 155.5t285 57.5q150 0 283 -56.5t232 -153.5t156.5 -227.5t57.5 -277.5q0 -160 -55 -295t-153.5 -235.5t-232.5 -156.5t-290 -56q-152 0 -284 57.5t-230 155.5t-155.5 231t-57.5 285zM240 721q0 -131 47 -246t130 -200t194.5 -134 t240.5 -49q125 0 237.5 49t196.5 133t133 196t49 239q0 137 -47 254.5t-130 204.5t-195.5 136.5t-243.5 49.5q-127 0 -238.5 -49.5t-194.5 -135.5t-131 -201.5t-48 -246.5zM383 725q0 106 36 196.5t99.5 155t152.5 100t195 35.5q59 0 109.5 -9t95.5 -28.5t88 -51t86 -76.5 l-168 -193q-53 59 -97 81.5t-108 22.5q-98 0 -157.5 -65.5t-59.5 -173.5q0 -102 58.5 -163.5t156.5 -61.5q31 0 55.5 5t49 16t49.5 30.5t55 48.5l166 -188q-92 -92 -178 -129t-201 -37q-109 0 -197.5 34.5t-152 99t-98.5 153.5t-35 198z" />
<glyph unicode="&#xaa;" horiz-adv-x="811" d="M39 971q0 12 6 52t41 81q27 31 59.5 48t68.5 27.5t70.5 15.5t63.5 9q39 6 70 12.5t71 14.5q-2 35 -16 54.5t-70 19.5q-35 0 -57 -10.5t-31 -57.5h-254q6 39 12.5 57.5t20.5 38.5q82 131 312 131q127 0 209.5 -29.5t115.5 -107.5q10 -27 13.5 -48.5t3.5 -45.5v-412 q0 -18 3 -28.5t19 -26.5h-268v53q-33 -29 -84 -49t-127 -20q-74 0 -123 21.5t-78 54t-40 71.5t-11 74zM291 979q0 -29 22.5 -41t42.5 -12q16 0 36 7t36 17q45 33 51 62.5t8 64.5q-18 -6 -36.5 -12t-38.5 -12q-47 -12 -84 -25.5t-37 -48.5z" />
<glyph unicode="&#xab;" horiz-adv-x="854" d="M66 461v375l321 256v-306l-182 -141l182 -137v-303zM461 461v375l323 256v-306l-184 -141l184 -137v-303z" />
<glyph unicode="&#xac;" horiz-adv-x="1482" d="M137 518v324h1159v-779h-409v455h-750z" />
<glyph unicode="&#xad;" horiz-adv-x="765" d="M59 471v350h646v-350h-646z" />
<glyph unicode="&#xae;" horiz-adv-x="1705" d="M125 723q0 152 57.5 285t155.5 231t231 155.5t285 57.5q150 0 283 -56.5t232 -153.5t156.5 -227.5t57.5 -277.5q0 -160 -55 -295t-153.5 -235.5t-232.5 -156.5t-290 -56q-152 0 -284 57.5t-230 155.5t-155.5 231t-57.5 285zM240 721q0 -131 47 -246t130 -200t194.5 -134 t240.5 -49q125 0 237.5 49t196.5 133t133 196t49 239q0 137 -47 254.5t-130 204.5t-195.5 136.5t-243.5 49.5q-127 0 -238.5 -49.5t-194.5 -135.5t-131 -201.5t-48 -246.5zM520 295v885h287q14 0 36.5 -1t65.5 -3q37 -2 64.5 -4.5t48 -7.5t37 -11t35.5 -16q139 -80 139 -244 q0 -84 -35 -142.5t-113 -103.5l177 -352h-277l-131 317h-76v-317h-258zM776 797h76q68 0 96.5 21.5t28.5 74.5q0 94 -127 94h-74v-190z" />
<glyph unicode="&#xaf;" horiz-adv-x="641" d="M-100 1239v191h841v-191h-841z" />
<glyph unicode="&#xb0;" horiz-adv-x="724" d="M10 1174q0 74 28 138t75 111t111.5 75t137.5 28q74 0 138.5 -28t111.5 -75t75 -111t28 -138t-28 -138.5t-76 -113t-111.5 -76t-137.5 -27.5t-137 27.5t-111 76t-76 113t-28 138.5zM250 1178q0 -47 32.5 -81t79.5 -34t81 34t34 81t-33.5 79.5t-81.5 32.5 q-47 0 -79.5 -32.5t-32.5 -79.5z" />
<glyph unicode="&#xb1;" horiz-adv-x="1482" d="M186 0v315h1108v-315h-1108zM186 1096h353v350h407v-350h350v-312h-352v-364h-407v364h-349z" />
<glyph unicode="&#xb2;" horiz-adv-x="894" d="M41 498v182q49 27 90 50.5t81 49t81 53t88 64.5l13 9q12 9 28 23.5t34.5 31t32.5 32.5q12 14 34 46t22 73q0 57 -37 81t-82 21q-20 0 -39.5 -6t-35 -19t-25 -38t-9.5 -64q0 -25 3.5 -47t5.5 -28l-281 35q2 68 14.5 132t53.5 116.5t119.5 85t213.5 34.5q39 0 88.5 -3 t98.5 -17.5t93 -45t75 -83.5q10 -20 21.5 -56.5t11.5 -85.5q0 -78 -29 -135t-76 -103t-107.5 -85t-125.5 -78h327v-225h-782z" />
<glyph unicode="&#xb3;" horiz-adv-x="894" d="M18 760l263 49q2 -20 10 -42t24.5 -40t43 -29.5t69.5 -11.5q68 0 95.5 28.5t27.5 69.5q0 29 -14.5 45.5t-35 25.5t-43 11t-38.5 2t-29.5 -1t-28.5 -1v191h44q18 0 40.5 1t43 8t35 24.5t14.5 50.5q0 35 -26 59.5t-85 24.5t-85 -25.5t-36 -83.5l-262 14q2 10 9 48.5 t28 76.5q43 86 131 126t229 40q188 0 278.5 -71.5t90.5 -188.5q0 -41 -11.5 -70.5t-28.5 -52t-37.5 -38t-41.5 -27.5q51 -18 81 -46t44 -56.5t17.5 -54.5t3.5 -40q0 -61 -20.5 -107t-39.5 -69q-98 -119 -342 -119q-160 0 -252 46t-139 147q-12 27 -18.5 53.5t-8.5 32.5z" />
<glyph unicode="&#xb4;" horiz-adv-x="641" d="M25 1202l157 281h434l-329 -281h-262z" />
<glyph unicode="&#xb5;" horiz-adv-x="1384" d="M106 -442v1501h426v-539q0 -45 4.5 -73.5t10.5 -53.5q12 -53 47 -82.5t84 -29.5q68 0 98 55q29 49 35 141q0 14 1 37t2 49.5t1 54v52.5v389h424v-674q0 -102 70 -102q14 0 25.5 2t33.5 12v-297q-49 -14 -108.5 -21.5t-114.5 -7.5q-57 0 -99 10.5t-81 32.5 q-33 18 -51.5 41t-49.5 76q-25 -80 -62.5 -113.5t-109.5 -33.5q-121 0 -168 116l6 -542h-424z" />
<glyph unicode="&#xb6;" horiz-adv-x="1304" d="M127 1006q0 207 135 329q45 43 103 68q27 12 53 20.5t57 13.5t70 7t92 2h502v-197h-74v-1591h-209v1591h-203v-1591h-211v940q-315 82 -315 408z" />
<glyph unicode="&#xb7;" horiz-adv-x="512" d="M66 403v379h380v-379h-380z" />
<glyph unicode="&#xb8;" horiz-adv-x="641" d="M109 -432l6 113q8 -2 18 -5.5t27 -3.5q18 0 43.5 6.5t38.5 22.5q6 6 6 18q0 8 -4 15q-12 18 -47 18q-23 0 -78 -12l6 72l135 200l96 -30l-49 -103q6 0 30.5 3t54.5 -1t61.5 -17.5t54.5 -45.5q6 -10 15 -31.5t9 -52.5q0 -14 -5 -39t-27 -53q-27 -37 -63 -54.5t-70.5 -25.5 t-62.5 -8h-38q-49 0 -79.5 3t-77.5 11z" />
<glyph unicode="&#xb9;" horiz-adv-x="894" d="M158 1065v217h18q51 0 86 6t58.5 20.5t39 38t25.5 56.5h246v-905h-283v583q-29 -8 -57.5 -12t-81.5 -4h-51z" />
<glyph unicode="&#xba;" horiz-adv-x="854" d="M33 1098q0 90 28.5 158.5t80 115.5t124 71.5t158.5 24.5q127 0 206 -42t121 -101t55 -125t11 -115q-6 -127 -60.5 -196.5t-123 -102t-132 -40t-87.5 -7.5q-80 0 -148.5 23.5t-121 69t-82 113t-29.5 153.5zM301 1100q0 -2 1 -30t11.5 -59.5t37 -57t79.5 -23.5q59 2 87 47 t28 129q0 170 -115 170q-20 0 -34.5 -3t-33.5 -13q-20 -12 -32.5 -34t-18.5 -44.5t-8 -45t-2 -36.5z" />
<glyph unicode="&#xbb;" horiz-adv-x="854" d="M66 205v305l184 141l-184 137v304l321 -256v-375zM461 205v305l184 141l-184 137v304l323 -256v-375z" />
<glyph unicode="&#xbc;" horiz-adv-x="2048" d="M158 1065v217h18q51 0 86 6t58.5 20.5t39 38t25.5 56.5h246v-905h-283v583q-29 -8 -57.5 -12t-81.5 -4h-51zM627 0l616 1446h189l-619 -1446h-186zM1176 182v180l415 545h279v-526h131v-197h-131v-184h-266v182h-428zM1427 381h179q2 76 3 134t5 134q-47 -78 -89 -137 t-98 -131z" />
<glyph unicode="&#xbd;" horiz-adv-x="2048" d="M158 1065v217h18q51 0 86 6t58.5 20.5t39 38t25.5 56.5h246v-905h-283v583q-29 -8 -57.5 -12t-81.5 -4h-51zM578 0l616 1446h188l-616 -1446h-188zM1192 0v182q49 27 91 50.5t82 49t80 53t87 64.5q20 16 41 33q16 14 34.5 30.5t32.5 33.5q12 14 35 46.5t23 73.5 q0 57 -38 80t-83 21q-20 0 -39.5 -6t-35 -19.5t-25 -38t-9.5 -63.5q0 -25 4.5 -47.5t4.5 -28.5l-279 35q2 68 13.5 132t52.5 116.5t119.5 85t213.5 35.5q39 0 88.5 -3.5t98.5 -17.5t93 -45t75 -84q10 -18 22.5 -55t12.5 -86q0 -78 -29 -135.5t-76 -103.5t-108.5 -85 t-126.5 -78h327v-225h-782z" />
<glyph unicode="&#xbe;" horiz-adv-x="2048" d="M18 760l263 49q2 -20 10 -42t24.5 -40t43 -29.5t69.5 -11.5q68 0 95.5 28.5t27.5 69.5q0 29 -14.5 45.5t-35 25.5t-43 11t-38.5 2t-29.5 -1t-28.5 -1v191h44q18 0 40.5 1t43 8t35 24.5t14.5 50.5q0 35 -26 59.5t-85 24.5t-85 -25.5t-36 -83.5l-262 14q2 10 9 48.5 t28 76.5q43 86 131 126t229 40q188 0 278.5 -71.5t90.5 -188.5q0 -41 -11.5 -70.5t-28.5 -52t-37.5 -38t-41.5 -27.5q51 -18 81 -46t44 -56.5t17.5 -54.5t3.5 -40q0 -61 -20.5 -107t-39.5 -69q-98 -119 -342 -119q-160 0 -252 46t-139 147q-12 27 -18.5 53.5t-8.5 32.5z M627 0l616 1446h189l-619 -1446h-186zM1176 182v180l415 545h279v-526h131v-197h-131v-184h-266v182h-428zM1427 381h179q2 76 3 134t5 134q-47 -78 -89 -137t-98 -131z" />
<glyph unicode="&#xbf;" horiz-adv-x="1236" d="M20 371q0 92 34 149.5t59 83.5q23 25 53.5 47.5t63 45t65.5 43t57 38.5q23 16 52.5 42t44.5 48q8 14 16 50h356q-4 -31 -7 -59t-13 -56q-16 -41 -49 -80t-67 -68.5t-61.5 -48t-29.5 -20.5q-23 -16 -50.5 -37t-51 -47.5t-40 -56t-16.5 -62.5q0 -18 7.5 -41t24.5 -42 t46 -33.5t74 -14.5t90 20q66 33 86 88.5t29 120.5l350 -116q-6 -20 -15.5 -49t-26 -63t-43 -71t-67.5 -71q-94 -82 -200.5 -108t-227.5 -26q-80 0 -133 8.5t-86 16.5q-68 18 -126 50t-102 78t-70 106.5t-26 134.5zM459 1061v385h372v-385h-372z" />
<glyph unicode="&#xc0;" horiz-adv-x="1622" d="M-2 0l553 1446h520l541 -1446h-492l-63 203h-504l-64 -203h-491zM424 1790h444l131 -246h-268zM651 524h312l-154 510z" />
<glyph unicode="&#xc1;" horiz-adv-x="1622" d="M-2 0l553 1446h520l541 -1446h-492l-63 203h-504l-64 -203h-491zM625 1544l131 246h444l-307 -246h-268zM651 524h312l-154 510z" />
<glyph unicode="&#xc2;" horiz-adv-x="1622" d="M-2 0l553 1446h520l541 -1446h-492l-63 203h-504l-64 -203h-491zM461 1538l190 252h330l195 -252h-293l-70 109l-63 -109h-289zM651 524h312l-154 510z" />
<glyph unicode="&#xc3;" horiz-adv-x="1622" d="M-2 0l553 1446h520l541 -1446h-492l-63 203h-504l-64 -203h-491zM428 1548l12 56q2 10 9.5 34.5t23.5 52t43 54.5t68 41q20 8 38.5 9t39.5 1q23 0 40 -1t35.5 -4t44 -7t62.5 -12q39 -8 57.5 -12.5t40.5 -4.5q33 0 45 13.5t17 27.5h217q-8 -41 -12.5 -61.5t-12.5 -42.5 q-8 -23 -21.5 -47.5t-38 -47t-62.5 -37t-93 -14.5q-43 0 -83 7.5t-116 23.5q-35 8 -58.5 13t-39.5 5q-25 0 -35 -12t-14 -35h-207zM651 524h312l-154 510z" />
<glyph unicode="&#xc4;" horiz-adv-x="1622" d="M-2 0l553 1446h520l541 -1446h-492l-63 203h-504l-64 -203h-491zM406 1550v244h339v-244h-339zM651 524h312l-154 510zM877 1550v244h340v-244h-340z" />
<glyph unicode="&#xc5;" horiz-adv-x="1622" d="M-2 0l553 1446h520l541 -1446h-492l-63 203h-504l-64 -203h-491zM569 1700q0 8 2 26.5t11 40.5q29 72 90 105t135 33q16 0 47 -4.5t70 -20.5t62.5 -42t36.5 -51.5t17 -50t4 -38.5q0 -27 -11 -61.5t-38.5 -66.5t-74 -54.5t-115.5 -22.5q-10 0 -28.5 1t-42 7t-50.5 18.5 t-49 32.5q-43 39 -54.5 82t-11.5 66zM651 524h312l-154 510zM733 1698q0 -18 9.5 -32.5t13.5 -18.5q4 -6 17 -14.5t34 -8.5q31 0 52.5 22.5t21.5 53.5t-22.5 51.5t-51.5 20.5q-33 0 -53.5 -21.5t-20.5 -52.5z" />
<glyph unicode="&#xc6;" horiz-adv-x="2260" d="M-35 0l846 1446h1348v-313h-666v-218h614v-317h-614v-281h737v-317h-1179v205h-465l-105 -205h-516zM750 520h303l6 613z" />
<glyph unicode="&#xc7;" horiz-adv-x="1536" d="M55 696q-4 158 46.5 302.5t146.5 256t236.5 178t316.5 66.5q113 0 207 -23.5t171.5 -61.5t137 -87t100.5 -98q39 -45 59.5 -81t30.5 -52l-383 -191q-12 29 -33.5 70t-56.5 79t-87 64.5t-126 26.5q-61 0 -115.5 -23.5t-95.5 -73t-65.5 -124t-24.5 -176.5 q0 -106 22.5 -185.5t62.5 -132.5t95.5 -79.5t120.5 -26.5q12 0 43 2t69 17t79 46t73 90q14 25 19.5 42.5t13.5 39.5l391 -188q-4 -8 -27.5 -50t-51.5 -81q-53 -72 -115 -119t-117 -77t-99 -43t-63 -19q-66 -16 -117 -20.5t-73 -8.5l-35 -92q20 4 39.5 8t42.5 6 q53 2 87 -16.5t52.5 -45t25.5 -54t7 -46.5q0 -84 -68.5 -143t-210.5 -59q-43 0 -74.5 3t-74.5 9l-2 119q4 -2 24.5 -5.5t42.5 -3.5q37 0 59.5 12.5t22.5 41.5q0 18 -16 30.5t-45 12.5q-25 0 -46.5 -7.5t-43.5 -17.5l-2 92l102 158l-18 2q-156 18 -278 84t-206 165t-129 224 t-47 264z" />
<glyph unicode="&#xc8;" d="M90 0v1446h1145v-318h-686v-215h641v-313h-643v-287h749v-313h-1206zM274 1790h445l131 -246h-268z" />
<glyph unicode="&#xc9;" d="M90 0v1446h1145v-318h-686v-215h641v-313h-643v-287h749v-313h-1206zM475 1544l131 246h445l-306 -246h-270z" />
<glyph unicode="&#xca;" d="M90 0v1446h1145v-318h-686v-215h641v-313h-643v-287h749v-313h-1206zM311 1538l191 252h329l197 -252h-295l-69 109l-64 -109h-289z" />
<glyph unicode="&#xcb;" d="M90 0v1446h1145v-318h-686v-215h641v-313h-643v-287h749v-313h-1206zM262 1550v244h338v-244h-338zM731 1550v244h340v-244h-340z" />
<glyph unicode="&#xcc;" horiz-adv-x="641" d="M-68 1790h445l133 -246h-270zM90 0v1446h459v-1446h-459z" />
<glyph unicode="&#xcd;" horiz-adv-x="641" d="M90 0v1446h459v-1446h-459zM133 1544l133 246h445l-308 -246h-270z" />
<glyph unicode="&#xce;" horiz-adv-x="641" d="M-31 1538l191 252h332l194 -252h-293l-71 109l-62 -109h-291zM90 0v1446h459v-1446h-459z" />
<glyph unicode="&#xcf;" horiz-adv-x="641" d="M-80 1550v244h340v-244h-340zM90 0v1446h459v-1446h-459zM389 1550v244h340v-244h-340z" />
<glyph unicode="&#xd0;" horiz-adv-x="1536" d="M0 614v269h90v563h492q57 0 126.5 -1t141.5 -6t141.5 -17.5t124.5 -35.5q94 -39 158.5 -100t105.5 -130t62.5 -138.5t30 -128t9.5 -97.5t1 -47v-47t-8.5 -108.5t-30 -146.5t-66.5 -158.5t-117.5 -143t-181.5 -102.5q-80 -29 -169 -34t-169 -5h-651v614h-90zM549 332h174 q35 0 69.5 6t69.5 24q51 29 83 75t49.5 97.5t22.5 101.5t5 87q0 33 -5 80t-19.5 96t-41 95t-69.5 75q-23 14 -50.5 22.5t-52 12.5t-43 4h-20.5h-172v-225h295v-269h-295v-282z" />
<glyph unicode="&#xd1;" horiz-adv-x="1579" d="M90 0v1446h485l490 -842l-6 842h428v-1446h-494l-481 840l4 -840h-426zM408 1548q4 14 5 27.5t5 28.5q2 10 10 34.5t24.5 52t43 54.5t67.5 41q20 8 37.5 9t40.5 1t40 -1t35.5 -4t43 -7t61.5 -12q41 -8 59.5 -12.5t41.5 -4.5q33 0 44 13.5t15 27.5h219l-12 -61.5 t-12 -42.5q-8 -23 -22.5 -47.5t-39 -47t-62.5 -37t-94 -14.5q-41 0 -80.5 7.5t-115.5 23.5q-35 8 -58.5 13t-39.5 5q-27 0 -36.5 -12t-13.5 -35h-206z" />
<glyph unicode="&#xd2;" horiz-adv-x="1662" d="M53 723q0 37 6.5 101.5t28 143.5t64.5 164t116 158q33 33 83 70t120 67.5t159 51t201 20.5q35 0 97.5 -3t138.5 -22.5t158 -59.5t157 -114q33 -31 72 -81t73 -119.5t56.5 -160.5t22.5 -204q0 -33 -5.5 -97.5t-28 -144t-66.5 -166.5t-122 -165t-161.5 -120t-160.5 -61.5 t-140.5 -23.5t-98.5 -4t-98 4t-141 23.5t-162 61.5t-158 118q-106 106 -158.5 254.5t-52.5 308.5zM444 1790h445l133 -246h-270zM512 723q0 -10 1 -43t8 -77t23.5 -92t47.5 -87q39 -49 96 -76q23 -10 56.5 -19.5t86.5 -9.5q66 0 117 20.5t94 70.5q41 45 72 120.5t31 206.5 q0 14 -2 58.5t-15.5 97.5t-45 107.5t-91.5 91.5q-49 29 -94 36t-66 7q-12 0 -36.5 -2.5t-55 -11.5t-62.5 -25.5t-61 -46.5q-39 -41 -71.5 -119t-32.5 -207z" />
<glyph unicode="&#xd3;" horiz-adv-x="1662" d="M53 723q0 37 6.5 101.5t28 143.5t64.5 164t116 158q33 33 83 70t120 67.5t159 51t201 20.5q35 0 97.5 -3t138.5 -22.5t158 -59.5t157 -114q33 -31 72 -81t73 -119.5t56.5 -160.5t22.5 -204q0 -33 -5.5 -97.5t-28 -144t-66.5 -166.5t-122 -165t-161.5 -120t-160.5 -61.5 t-140.5 -23.5t-98.5 -4t-98 4t-141 23.5t-162 61.5t-158 118q-106 106 -158.5 254.5t-52.5 308.5zM512 723q0 -10 1 -43t8 -77t23.5 -92t47.5 -87q39 -49 96 -76q23 -10 56.5 -19.5t86.5 -9.5q66 0 117 20.5t94 70.5q41 45 72 120.5t31 206.5q0 14 -2 58.5t-15.5 97.5 t-45 107.5t-91.5 91.5q-49 29 -94 36t-66 7q-12 0 -36.5 -2.5t-55 -11.5t-62.5 -25.5t-61 -46.5q-39 -41 -71.5 -119t-32.5 -207zM645 1544l133 246h445l-308 -246h-270z" />
<glyph unicode="&#xd4;" horiz-adv-x="1662" d="M53 723q0 37 6.5 101.5t28 143.5t64.5 164t116 158q33 33 83 70t120 67.5t159 51t201 20.5q35 0 97.5 -3t138.5 -22.5t158 -59.5t157 -114q33 -31 72 -81t73 -119.5t56.5 -160.5t22.5 -204q0 -33 -5.5 -97.5t-28 -144t-66.5 -166.5t-122 -165t-161.5 -120t-160.5 -61.5 t-140.5 -23.5t-98.5 -4t-98 4t-141 23.5t-162 61.5t-158 118q-106 106 -158.5 254.5t-52.5 308.5zM481 1538l191 252h332l194 -252h-293l-71 109l-62 -109h-291zM512 723q0 -10 1 -43t8 -77t23.5 -92t47.5 -87q39 -49 96 -76q23 -10 56.5 -19.5t86.5 -9.5q66 0 117 20.5 t94 70.5q41 45 72 120.5t31 206.5q0 14 -2 58.5t-15.5 97.5t-45 107.5t-91.5 91.5q-49 29 -94 36t-66 7q-12 0 -36.5 -2.5t-55 -11.5t-62.5 -25.5t-61 -46.5q-39 -41 -71.5 -119t-32.5 -207z" />
<glyph unicode="&#xd5;" horiz-adv-x="1662" d="M53 723q0 37 6.5 101.5t28 143.5t64.5 164t116 158q33 33 83 70t120 67.5t159 51t201 20.5q35 0 97.5 -3t138.5 -22.5t158 -59.5t157 -114q33 -31 72 -81t73 -119.5t56.5 -160.5t22.5 -204q0 -33 -5.5 -97.5t-28 -144t-66.5 -166.5t-122 -165t-161.5 -120t-160.5 -61.5 t-140.5 -23.5t-98.5 -4t-98 4t-141 23.5t-162 61.5t-158 118q-106 106 -158.5 254.5t-52.5 308.5zM451 1548q2 14 4 27.5t6 28.5q2 10 9 34.5t23.5 52t44 54.5t68.5 41q18 6 37 8t41 2q23 0 40 -1t35.5 -4t43 -7t61.5 -12q41 -8 58.5 -12.5t40.5 -4.5q35 0 46 13.5t15 27.5 h219q-8 -41 -13 -61.5t-13 -42.5q-8 -23 -21.5 -47.5t-38 -47t-62.5 -37t-94 -14.5q-41 0 -81.5 7.5t-116.5 23.5q-35 8 -58.5 13t-39.5 5q-25 0 -35.5 -12t-12.5 -35h-206zM512 723q0 -10 1 -43t8 -77t23.5 -92t47.5 -87q39 -49 96 -76q23 -10 56.5 -19.5t86.5 -9.5 q66 0 117 20.5t94 70.5q41 45 72 120.5t31 206.5q0 14 -2 58.5t-15.5 97.5t-45 107.5t-91.5 91.5q-49 29 -94 36t-66 7q-12 0 -36.5 -2.5t-55 -11.5t-62.5 -25.5t-61 -46.5q-39 -41 -71.5 -119t-32.5 -207z" />
<glyph unicode="&#xd6;" horiz-adv-x="1662" d="M53 723q0 37 6.5 101.5t28 143.5t64.5 164t116 158q33 33 83 70t120 67.5t159 51t201 20.5q35 0 97.5 -3t138.5 -22.5t158 -59.5t157 -114q33 -31 72 -81t73 -119.5t56.5 -160.5t22.5 -204q0 -33 -5.5 -97.5t-28 -144t-66.5 -166.5t-122 -165t-161.5 -120t-160.5 -61.5 t-140.5 -23.5t-98.5 -4t-98 4t-141 23.5t-162 61.5t-158 118q-106 106 -158.5 254.5t-52.5 308.5zM428 1550v244h340v-244h-340zM512 723q0 -10 1 -43t8 -77t23.5 -92t47.5 -87q39 -49 96 -76q23 -10 56.5 -19.5t86.5 -9.5q66 0 117 20.5t94 70.5q41 45 72 120.5t31 206.5 q0 14 -2 58.5t-15.5 97.5t-45 107.5t-91.5 91.5q-49 29 -94 36t-66 7q-12 0 -36.5 -2.5t-55 -11.5t-62.5 -25.5t-61 -46.5q-39 -41 -71.5 -119t-32.5 -207zM899 1550v244h338v-244h-338z" />
<glyph unicode="&#xd7;" horiz-adv-x="1482" d="M201 899l276 301l285 -262l237 260l230 -211l-238 -260l293 -268l-274 -301l-293 268l-238 -258l-229 211l235 258z" />
<glyph unicode="&#xd8;" horiz-adv-x="1662" d="M29 102l159 152q-27 37 -49 84q-25 51 -53.5 146.5t-28.5 238.5q0 39 5.5 107.5t29 151.5t72.5 172t137 167q72 66 137.5 96.5t100.5 42.5q92 31 170.5 36t111.5 5q14 0 55.5 -1t94.5 -8t114.5 -21.5t116.5 -40.5q27 -12 57.5 -32t81.5 -59l164 154l135 -145l-170 -160 q16 -23 31 -47.5t27 -48.5q41 -80 59.5 -171.5t18.5 -181.5q0 -121 -33 -237.5t-95.5 -216t-154.5 -176t-211 -115.5q-92 -31 -169 -37t-112 -6q-102 0 -214.5 22.5t-202.5 69.5q-35 18 -59.5 37.5t-35.5 28.5l-157 -148zM510 729q0 -41 4 -81t8 -81l520 490q-10 14 -14 18 t-12 10q-25 20 -52.5 31.5t-53 17t-45 6.5t-27.5 1q-12 0 -38 -2t-57.5 -11.5t-65.5 -27t-65 -47.5q-37 -39 -69.5 -118t-32.5 -206zM616 385q29 -23 74 -48.5t129 -25.5q59 0 97 13.5t61 25.5q35 18 65.5 49t54 77t38 109.5t14.5 147.5q0 37 -3 74t-7 72z" />
<glyph unicode="&#xd9;" horiz-adv-x="1492" d="M86 588v858h459v-903q0 -10 1 -43t13 -68q14 -41 40 -64.5t53.5 -34.5t53 -14.5t37.5 -3.5t37 3.5t52.5 14.5t54 33.5t43.5 63.5q10 29 12 54.5t2 58.5v903h461v-866q0 -70 -10.5 -130.5t-34.5 -125.5q-37 -98 -102.5 -167t-148.5 -113t-178 -63.5t-192 -19.5 q-20 0 -55 2t-81 8t-98 19.5t-106 38.5q-23 10 -59.5 29.5t-76.5 52t-78 80t-62 114.5q-10 27 -17.5 53.5t-11.5 58.5t-6 72.5t-2 98.5zM360 1790h445l131 -246h-270z" />
<glyph unicode="&#xda;" horiz-adv-x="1492" d="M86 588v858h459v-903q0 -10 1 -43t13 -68q14 -41 40 -64.5t53.5 -34.5t53 -14.5t37.5 -3.5t37 3.5t52.5 14.5t54 33.5t43.5 63.5q10 29 12 54.5t2 58.5v903h461v-866q0 -70 -10.5 -130.5t-34.5 -125.5q-37 -98 -102.5 -167t-148.5 -113t-178 -63.5t-192 -19.5 q-20 0 -55 2t-81 8t-98 19.5t-106 38.5q-23 10 -59.5 29.5t-76.5 52t-78 80t-62 114.5q-10 27 -17.5 53.5t-11.5 58.5t-6 72.5t-2 98.5zM561 1544l131 246h445l-308 -246h-268z" />
<glyph unicode="&#xdb;" horiz-adv-x="1492" d="M86 588v858h459v-903q0 -10 1 -43t13 -68q14 -41 40 -64.5t53.5 -34.5t53 -14.5t37.5 -3.5t37 3.5t52.5 14.5t54 33.5t43.5 63.5q10 29 12 54.5t2 58.5v903h461v-866q0 -70 -10.5 -130.5t-34.5 -125.5q-37 -98 -102.5 -167t-148.5 -113t-178 -63.5t-192 -19.5 q-20 0 -55 2t-81 8t-98 19.5t-106 38.5q-23 10 -59.5 29.5t-76.5 52t-78 80t-62 114.5q-10 27 -17.5 53.5t-11.5 58.5t-6 72.5t-2 98.5zM395 1538l191 252h332l194 -252h-293l-69 109l-64 -109h-291z" />
<glyph unicode="&#xdc;" horiz-adv-x="1492" d="M86 588v858h459v-903q0 -10 1 -43t13 -68q14 -41 40 -64.5t53.5 -34.5t53 -14.5t37.5 -3.5t37 3.5t52.5 14.5t54 33.5t43.5 63.5q10 29 12 54.5t2 58.5v903h461v-866q0 -70 -10.5 -130.5t-34.5 -125.5q-37 -98 -102.5 -167t-148.5 -113t-178 -63.5t-192 -19.5 q-20 0 -55 2t-81 8t-98 19.5t-106 38.5q-23 10 -59.5 29.5t-76.5 52t-78 80t-62 114.5q-10 27 -17.5 53.5t-11.5 58.5t-6 72.5t-2 98.5zM340 1550v244h340v-244h-340zM811 1550v244h338v-244h-338z" />
<glyph unicode="&#xdd;" horiz-adv-x="1622" d="M-6 1446h528l285 -481l278 481h529l-582 -838v-608h-459v608zM625 1544l131 246h444l-307 -246h-268z" />
<glyph unicode="&#xde;" horiz-adv-x="1449" d="M90 0v1446h459v-205h366q63 0 141.5 -7t141.5 -36q98 -43 150.5 -111.5t75 -136t24.5 -120t2 -62.5q-2 -119 -30.5 -194.5t-69.5 -127.5q-41 -55 -90.5 -91t-102.5 -56q-66 -23 -129 -28t-127 -5h-352v-266h-459zM549 569h260q35 0 54.5 4.5t35.5 12.5q37 16 57.5 42.5 t28.5 53.5t9 47.5t1 26.5q0 66 -22.5 102.5t-53 54t-62.5 21.5t-50 4h-258v-369z" />
<glyph unicode="&#xdf;" horiz-adv-x="1280" d="M84 0v932q0 92 11 175t67 161q41 59 98 96t123 58.5t135.5 29.5t136.5 8q14 0 56.5 -1t95.5 -10t112.5 -30.5t108.5 -62.5q14 -10 38 -36t46 -67q27 -53 32 -100t5 -68q0 -53 -15.5 -109t-56.5 -95q-12 -12 -23.5 -20.5t-37.5 -24.5q31 -8 55.5 -16.5t48.5 -26.5 q47 -37 79 -116t32 -212q0 -16 -2 -60.5t-14.5 -100.5t-39 -115.5t-77.5 -108.5q-43 -41 -92.5 -62.5t-94.5 -31t-81.5 -11.5t-53.5 -2q-78 0 -119 13.5t-73 29.5v267q10 -6 37.5 -23.5t66.5 -17.5q41 0 63.5 16t32.5 27q43 53 43 196q0 51 -4 79t-12 50q-16 53 -56 75 t-134 22v225q6 -2 17 -4t28 0q33 4 65.5 32.5t32.5 102.5q0 66 -31 103.5t-96 37.5q-45 0 -71.5 -15t-40 -40t-17.5 -57.5t-4 -67.5v-1024h-420z" />
<glyph unicode="&#xe0;" horiz-adv-x="1236" d="M39 317q0 20 4 54.5t18.5 71t44 75.5t78.5 74q66 45 146 61.5t157 26.5q45 6 91.5 12t91.5 17q20 4 40.5 9t41.5 11q0 4 -1 20.5t-6 28.5q-10 33 -37.5 53.5t-99.5 20.5q-23 0 -38 -2t-23 -4q-25 -6 -39 -18.5t-22.5 -27t-11.5 -27.5t-5 -21l-395 -11q4 16 7 31.5t7 32.5 q8 31 30.5 81t86.5 99q63 49 166.5 80t275.5 31q61 0 132 -7.5t136.5 -28t120 -60t84.5 -103.5q16 -35 23.5 -75t7.5 -113v-578q0 -29 2 -48.5t6 -32.5t11.5 -24.5t17.5 -25.5h-416v82q-12 -10 -29.5 -21.5t-48.5 -27.5q-35 -16 -104.5 -37t-169.5 -21q-20 0 -68.5 3.5 t-101.5 23.5q-104 41 -157.5 124t-53.5 191zM270 1483h437l155 -281h-260zM430 330q0 -25 22.5 -53.5t82.5 -28.5q29 0 53 8t49 20q45 25 67.5 54.5t33 59.5t11.5 58t1 46q-80 -29 -160 -50q-35 -8 -76 -21t-65 -44q-4 -4 -11.5 -17.5t-7.5 -31.5z" />
<glyph unicode="&#xe1;" horiz-adv-x="1236" d="M39 317q0 20 4 54.5t18.5 71t44 75.5t78.5 74q66 45 146 61.5t157 26.5q45 6 91.5 12t91.5 17q20 4 40.5 9t41.5 11q0 4 -1 20.5t-6 28.5q-10 33 -37.5 53.5t-99.5 20.5q-23 0 -38 -2t-23 -4q-25 -6 -39 -18.5t-22.5 -27t-11.5 -27.5t-5 -21l-395 -11q4 16 7 31.5t7 32.5 q8 31 30.5 81t86.5 99q63 49 166.5 80t275.5 31q61 0 132 -7.5t136.5 -28t120 -60t84.5 -103.5q16 -35 23.5 -75t7.5 -113v-578q0 -29 2 -48.5t6 -32.5t11.5 -24.5t17.5 -25.5h-416v82q-12 -10 -29.5 -21.5t-48.5 -27.5q-35 -16 -104.5 -37t-169.5 -21q-20 0 -68.5 3.5 t-101.5 23.5q-104 41 -157.5 124t-53.5 191zM430 330q0 -25 22.5 -53.5t82.5 -28.5q29 0 53 8t49 20q45 25 67.5 54.5t33 59.5t11.5 58t1 46q-80 -29 -160 -50q-35 -8 -76 -21t-65 -44q-4 -4 -11.5 -17.5t-7.5 -31.5zM471 1202l158 281h434l-330 -281h-262z" />
<glyph unicode="&#xe2;" horiz-adv-x="1236" d="M39 317q0 20 4 54.5t18.5 71t44 75.5t78.5 74q66 45 146 61.5t157 26.5q45 6 91.5 12t91.5 17q20 4 40.5 9t41.5 11q0 4 -1 20.5t-6 28.5q-10 33 -37.5 53.5t-99.5 20.5q-23 0 -38 -2t-23 -4q-25 -6 -39 -18.5t-22.5 -27t-11.5 -27.5t-5 -21l-395 -11q4 16 7 31.5t7 32.5 q8 31 30.5 81t86.5 99q63 49 166.5 80t275.5 31q61 0 132 -7.5t136.5 -28t120 -60t84.5 -103.5q16 -35 23.5 -75t7.5 -113v-578q0 -29 2 -48.5t6 -32.5t11.5 -24.5t17.5 -25.5h-416v82q-12 -10 -29.5 -21.5t-48.5 -27.5q-35 -16 -104.5 -37t-169.5 -21q-20 0 -68.5 3.5 t-101.5 23.5q-104 41 -157.5 124t-53.5 191zM248 1200l217 283h319l213 -283h-292l-84 135l-82 -135h-291zM430 330q0 -25 22.5 -53.5t82.5 -28.5q29 0 53 8t49 20q45 25 67.5 54.5t33 59.5t11.5 58t1 46q-80 -29 -160 -50q-35 -8 -76 -21t-65 -44q-4 -4 -11.5 -17.5 t-7.5 -31.5z" />
<glyph unicode="&#xe3;" horiz-adv-x="1236" d="M39 317q0 20 4 54.5t18.5 71t44 75.5t78.5 74q66 45 146 61.5t157 26.5q45 6 91.5 12t91.5 17q20 4 40.5 9t41.5 11q0 4 -1 20.5t-6 28.5q-10 33 -37.5 53.5t-99.5 20.5q-23 0 -38 -2t-23 -4q-25 -6 -39 -18.5t-22.5 -27t-11.5 -27.5t-5 -21l-395 -11q4 16 7 31.5t7 32.5 q8 31 30.5 81t86.5 99q63 49 166.5 80t275.5 31q61 0 132 -7.5t136.5 -28t120 -60t84.5 -103.5q16 -35 23.5 -75t7.5 -113v-578q0 -29 2 -48.5t6 -32.5t11.5 -24.5t17.5 -25.5h-416v82q-12 -10 -29.5 -21.5t-48.5 -27.5q-35 -16 -104.5 -37t-169.5 -21q-20 0 -68.5 3.5 t-101.5 23.5q-104 41 -157.5 124t-53.5 191zM231 1204q6 47 15.5 97.5t31 92.5t59.5 68.5t99 26.5q35 0 87 -10.5t130 -32.5q35 -10 59.5 -16.5t39.5 -6.5q6 0 25.5 5.5t29.5 27.5q4 10 3 15.5t-1 9.5h184q-2 -18 -4 -37t-6 -35q-10 -63 -29.5 -104t-44 -66t-54.5 -34 t-62 -9q-31 0 -68 6t-69.5 14.5t-56.5 15.5t-26 7q-37 10 -65.5 15.5t-44.5 5.5q-29 0 -38 -16.5t-13 -41.5zM430 330q0 -25 22.5 -53.5t82.5 -28.5q29 0 53 8t49 20q45 25 67.5 54.5t33 59.5t11.5 58t1 46q-80 -29 -160 -50q-35 -8 -76 -21t-65 -44q-4 -4 -11.5 -17.5 t-7.5 -31.5z" />
<glyph unicode="&#xe4;" horiz-adv-x="1236" d="M39 317q0 20 4 54.5t18.5 71t44 75.5t78.5 74q66 45 146 61.5t157 26.5q45 6 91.5 12t91.5 17q20 4 40.5 9t41.5 11q0 4 -1 20.5t-6 28.5q-10 33 -37.5 53.5t-99.5 20.5q-23 0 -38 -2t-23 -4q-25 -6 -39 -18.5t-22.5 -27t-11.5 -27.5t-5 -21l-395 -11q4 16 7 31.5t7 32.5 q8 31 30.5 81t86.5 99q63 49 166.5 80t275.5 31q61 0 132 -7.5t136.5 -28t120 -60t84.5 -103.5q16 -35 23.5 -75t7.5 -113v-578q0 -29 2 -48.5t6 -32.5t11.5 -24.5t17.5 -25.5h-416v82q-12 -10 -29.5 -21.5t-48.5 -27.5q-35 -16 -104.5 -37t-169.5 -21q-20 0 -68.5 3.5 t-101.5 23.5q-104 41 -157.5 124t-53.5 191zM233 1239v244h342v-244h-342zM430 330q0 -25 22.5 -53.5t82.5 -28.5q29 0 53 8t49 20q45 25 67.5 54.5t33 59.5t11.5 58t1 46q-80 -29 -160 -50q-35 -8 -76 -21t-65 -44q-4 -4 -11.5 -17.5t-7.5 -31.5zM737 1239v244h338v-244 h-338z" />
<glyph unicode="&#xe5;" horiz-adv-x="1236" d="M39 317q0 20 4 54.5t18.5 71t44 75.5t78.5 74q66 45 146 61.5t157 26.5q45 6 91.5 12t91.5 17q20 4 40.5 9t41.5 11q0 4 -1 20.5t-6 28.5q-10 33 -37.5 53.5t-99.5 20.5q-23 0 -38 -2t-23 -4q-25 -6 -39 -18.5t-22.5 -27t-11.5 -27.5t-5 -21l-395 -11q4 16 7 31.5t7 32.5 q8 31 30.5 81t86.5 99q63 49 166.5 80t275.5 31q61 0 132 -7.5t136.5 -28t120 -60t84.5 -103.5q16 -35 23.5 -75t7.5 -113v-578q0 -29 2 -48.5t6 -32.5t11.5 -24.5t17.5 -25.5h-416v82q-12 -10 -29.5 -21.5t-48.5 -27.5q-35 -16 -104.5 -37t-169.5 -21q-20 0 -68.5 3.5 t-101.5 23.5q-104 41 -157.5 124t-53.5 191zM430 330q0 -25 22.5 -53.5t82.5 -28.5q29 0 53 8t49 20q45 25 67.5 54.5t33 59.5t11.5 58t1 46q-80 -29 -160 -50q-35 -8 -76 -21t-65 -44q-4 -4 -11.5 -17.5t-7.5 -31.5zM430 1411q0 47 18.5 89t49 73t71.5 48t88 17t89 -18 t73 -49t48.5 -73t17.5 -89t-18.5 -88t-49.5 -71.5t-71.5 -48t-88.5 -17.5q-94 0 -161 67q-45 45 -55.5 91.5t-10.5 68.5zM584 1411q0 -31 22 -53q14 -14 28.5 -17.5t22.5 -3.5q33 0 52.5 22.5t19.5 51.5q0 33 -21.5 53.5t-50.5 20.5q-31 -2 -52 -23.5t-21 -50.5z" />
<glyph unicode="&#xe6;" horiz-adv-x="1921" d="M35 307q0 18 3 46t13 62t30.5 69.5t57.5 68.5q66 59 146 78.5t166 30.5q53 8 107 15t108 17q23 4 43 9.5t43 11.5q0 20 -2 44.5t-15.5 45t-41 34t-79.5 13.5q-47 0 -73.5 -9t-41 -24.5t-20.5 -35t-8 -40.5l-397 -8q4 41 11 71t24 64q45 88 122.5 136.5t156.5 69 t142.5 23.5t77.5 3q12 0 44 -1t76 -5t93 -13.5t94 -25.5q31 -10 51.5 -22.5t32.5 -20.5q39 25 80 43q31 14 93.5 30.5t150.5 16.5q29 0 76 -4t103.5 -20.5t117.5 -50.5t119 -93q20 -23 54 -69t60 -117q8 -27 15.5 -54.5t11.5 -61.5t6 -77t0 -100h-737q0 -4 1 -30t5 -48 q10 -43 33.5 -67.5t50.5 -37t52.5 -15.5t37.5 -3q61 0 98 24.5t52 41.5q12 14 21 29.5t26 45.5l344 -143q-31 -47 -58.5 -81t-70.5 -71q-27 -23 -65 -48t-89 -46.5t-117.5 -36t-150.5 -14.5q-20 0 -55 2t-78 10t-93.5 24.5t-99.5 45.5q-18 10 -34.5 22.5t-32.5 24.5 q-31 -16 -74 -38.5t-99.5 -42t-128 -34t-157.5 -14.5q-127 0 -210 34t-132 86t-69.5 113.5t-20.5 116.5zM426 328q0 -14 4 -24.5t8 -16.5q10 -16 24.5 -24.5t29 -12.5t25.5 -5t18 -1q45 0 90 20.5t75 52.5q35 37 46.5 77t15.5 89q-27 -8 -52.5 -16t-52.5 -14 q-29 -8 -57.5 -13.5t-56.5 -13.5q-90 -23 -109 -61q-8 -20 -8 -37zM1157 678h299q0 6 -1 23.5t-7 35.5q-10 33 -28.5 51.5t-39 27.5t-40 11t-29.5 2q-47 -2 -84 -22.5t-56 -61.5q-8 -16 -10 -33.5t-4 -33.5z" />
<glyph unicode="&#xe7;" horiz-adv-x="1181" d="M37 537q0 47 9 107.5t32.5 123.5t65.5 124.5t107.5 109t159 77t218.5 29.5q12 0 62 -1t118 -18.5t143.5 -58.5t141.5 -119q18 -23 33.5 -49t19.5 -31l-320 -180q-4 14 -14 41t-29.5 53.5t-53.5 46t-83 19.5q-90 0 -142 -78t-50 -213q0 -2 1 -40t16 -82t52 -80.5 t111 -36.5q53 0 88 23.5t56.5 54t31.5 60.5l14 42l324 -176q-16 -33 -31.5 -61.5t-38.5 -57.5q-55 -70 -121.5 -110t-126 -60.5t-102.5 -26.5t-55 -8l-41 -82q14 2 28.5 3t30.5 1q49 0 81 -15t50.5 -38t26.5 -48.5t8 -45.5q0 -10 -4 -39t-33 -62q-25 -29 -52.5 -45t-57 -24 t-58 -10t-53.5 -2q-61 0 -98 5t-66 9l4 113q8 -2 19.5 -5.5t27.5 -3.5q35 0 61.5 12.5t26.5 34.5q0 23 -20 28t-31 5q-23 0 -49 -6t-31 -6l7 72l100 149q-16 0 -56 4t-87 21q-104 33 -176 93t-115 136t-61.5 160t-18.5 162z" />
<glyph unicode="&#xe8;" horiz-adv-x="1236" d="M35 537q0 82 16.5 148.5t41 117.5t53 88t51.5 59q57 55 121.5 86t124 46.5t106.5 19.5t69 4q27 0 78.5 -4t112.5 -21.5t128 -53.5t124 -97q78 -84 113 -197q23 -70 26.5 -138.5t3.5 -139.5h-739q0 -6 1 -32t9 -50q6 -16 16.5 -36t31 -38t49 -30.5t71.5 -12.5 q49 0 77 13.5t44 27.5q33 27 49 56.5t23 39.5l346 -145q-8 -12 -18.5 -29.5t-33.5 -42.5q-55 -66 -110 -101.5t-84 -49.5q-39 -18 -119 -43t-194 -25q-66 0 -129.5 10t-122.5 35q-82 33 -144.5 88t-105.5 126t-64.5 153t-21.5 168zM238 1483h436l155 -281h-260zM469 678h307 q-2 10 -3 24.5t-7 34.5q-10 33 -28.5 52.5t-39 30.5t-40 14.5t-31.5 3.5q-25 -2 -40.5 -7.5t-25.5 -9.5q-29 -12 -46 -33.5t-27.5 -43t-13.5 -40t-5 -26.5z" />
<glyph unicode="&#xe9;" horiz-adv-x="1236" d="M35 537q0 82 16.5 148.5t41 117.5t53 88t51.5 59q57 55 121.5 86t124 46.5t106.5 19.5t69 4q27 0 78.5 -4t112.5 -21.5t128 -53.5t124 -97q78 -84 113 -197q23 -70 26.5 -138.5t3.5 -139.5h-739q0 -6 1 -32t9 -50q6 -16 16.5 -36t31 -38t49 -30.5t71.5 -12.5 q49 0 77 13.5t44 27.5q33 27 49 56.5t23 39.5l346 -145q-8 -12 -18.5 -29.5t-33.5 -42.5q-55 -66 -110 -101.5t-84 -49.5q-39 -18 -119 -43t-194 -25q-66 0 -129.5 10t-122.5 35q-82 33 -144.5 88t-105.5 126t-64.5 153t-21.5 168zM418 1202l157 281h435l-330 -281h-262z M469 678h307q-2 10 -3 24.5t-7 34.5q-10 33 -28.5 52.5t-39 30.5t-40 14.5t-31.5 3.5q-25 -2 -40.5 -7.5t-25.5 -9.5q-29 -12 -46 -33.5t-27.5 -43t-13.5 -40t-5 -26.5z" />
<glyph unicode="&#xea;" horiz-adv-x="1236" d="M35 537q0 82 16.5 148.5t41 117.5t53 88t51.5 59q57 55 121.5 86t124 46.5t106.5 19.5t69 4q27 0 78.5 -4t112.5 -21.5t128 -53.5t124 -97q78 -84 113 -197q23 -70 26.5 -138.5t3.5 -139.5h-739q0 -6 1 -32t9 -50q6 -16 16.5 -36t31 -38t49 -30.5t71.5 -12.5 q49 0 77 13.5t44 27.5q33 27 49 56.5t23 39.5l346 -145q-8 -12 -18.5 -29.5t-33.5 -42.5q-55 -66 -110 -101.5t-84 -49.5q-39 -18 -119 -43t-194 -25q-66 0 -129.5 10t-122.5 35q-82 33 -144.5 88t-105.5 126t-64.5 153t-21.5 168zM248 1200l217 283h319l213 -283h-292 l-84 135l-82 -135h-291zM469 678h307q-2 10 -3 24.5t-7 34.5q-10 33 -28.5 52.5t-39 30.5t-40 14.5t-31.5 3.5q-25 -2 -40.5 -7.5t-25.5 -9.5q-29 -12 -46 -33.5t-27.5 -43t-13.5 -40t-5 -26.5z" />
<glyph unicode="&#xeb;" horiz-adv-x="1236" d="M35 537q0 82 16.5 148.5t41 117.5t53 88t51.5 59q57 55 121.5 86t124 46.5t106.5 19.5t69 4q27 0 78.5 -4t112.5 -21.5t128 -53.5t124 -97q78 -84 113 -197q23 -70 26.5 -138.5t3.5 -139.5h-739q0 -6 1 -32t9 -50q6 -16 16.5 -36t31 -38t49 -30.5t71.5 -12.5 q49 0 77 13.5t44 27.5q33 27 49 56.5t23 39.5l346 -145q-8 -12 -18.5 -29.5t-33.5 -42.5q-55 -66 -110 -101.5t-84 -49.5q-39 -18 -119 -43t-194 -25q-66 0 -129.5 10t-122.5 35q-82 33 -144.5 88t-105.5 126t-64.5 153t-21.5 168zM199 1239v244h340v-244h-340zM469 678h307 q-2 10 -3 24.5t-7 34.5q-10 33 -28.5 52.5t-39 30.5t-40 14.5t-31.5 3.5q-25 -2 -40.5 -7.5t-25.5 -9.5q-29 -12 -46 -33.5t-27.5 -43t-13.5 -40t-5 -26.5zM700 1239v244h338v-244h-338z" />
<glyph unicode="&#xec;" horiz-adv-x="598" d="M-82 1483h436l156 -281h-260zM86 0v1061h422v-1061h-422z" />
<glyph unicode="&#xed;" horiz-adv-x="598" d="M86 0v1061h422v-1061h-422zM98 1202l156 281h436l-332 -281h-260z" />
<glyph unicode="&#xee;" horiz-adv-x="598" d="M-72 1200l217 283h320l211 -283h-291l-86 135l-82 -135h-289zM86 0v1061h422v-1061h-422z" />
<glyph unicode="&#xef;" horiz-adv-x="598" d="M-123 1239v244h340v-244h-340zM86 0v1061h422v-1061h-422zM381 1239v244h338v-244h-338z" />
<glyph unicode="&#xf0;" d="M41 514q0 20 3 79.5t28.5 135.5t82 157t160.5 142q47 29 90.5 45.5t80 23.5t65.5 9t45 2q55 0 98 -11.5t78 -30.5t62.5 -45t50.5 -52q-41 92 -81 157.5t-69 100.5l-344 -78l-31 111l291 67q-23 27 -40 46.5t-40 43.5l293 66q10 -10 18.5 -20.5t18.5 -20.5l41 -47l186 41 l37 -113l-141 -31q35 -45 80 -114.5t84 -157.5t65.5 -194.5t26.5 -225.5q0 -27 -5 -100.5t-36 -157.5q-27 -74 -76 -143.5t-123.5 -122.5t-175 -85t-229.5 -32h-36t-75 7t-100 22.5t-111.5 45t-108.5 79t-93 120.5q-25 45 -39.5 90.5t-21.5 83t-8 65.5t-1 42zM461 539 q0 -39 6 -88.5t26.5 -92.5t59.5 -72.5t104 -29.5q66 0 105 29.5t59.5 75t25.5 94.5t5 90q-2 141 -53 203.5t-144 60.5q-35 -2 -68.5 -14.5t-56.5 -34.5q-29 -29 -43 -67t-20 -71.5t-6 -57.5v-25z" />
<glyph unicode="&#xf1;" d="M84 0v1061h397v-141q10 14 16.5 23t11.5 15.5t10 11.5l13 13q59 59 138.5 83t160.5 24q14 0 44 -2.5t68 -10.5t80 -25.5t79 -50.5q41 -35 67.5 -83t38.5 -101q6 -27 10.5 -58.5t4.5 -88.5v-670h-422v580q0 18 -1 35.5t-5 35.5q-8 29 -37 58.5t-101 29.5 q-59 0 -89.5 -20.5t-45 -49t-16.5 -58t-2 -46.5v-565h-420zM272 1204q6 47 16.5 97.5t32 92.5t59.5 68.5t99 26.5q35 0 87 -10.5t130 -32.5q33 -10 57.5 -16.5t41.5 -6.5q6 0 24.5 5.5t28.5 27.5q4 10 4 15.5v9.5h184q-4 -18 -5 -37t-5 -35q-10 -63 -29.5 -104t-44 -66 t-55.5 -34t-63 -9q-31 0 -68 6t-68.5 14.5t-55.5 15.5t-26 7q-37 10 -65.5 15.5t-44.5 5.5q-29 0 -38 -16.5t-13 -41.5z" />
<glyph unicode="&#xf2;" d="M41 522q0 111 35 215.5t110 186.5q27 29 69 61.5t101.5 59t137 44t174.5 17.5q20 0 68 -3t109.5 -17.5t128 -43t126.5 -79.5q45 -39 77.5 -90.5t55 -107.5t34 -117t11.5 -120q0 -23 -4 -64.5t-17.5 -94t-41 -110.5t-74.5 -112q-29 -31 -72 -64.5t-104.5 -61t-141.5 -45 t-178 -17.5q-23 0 -68 2t-101 14.5t-118.5 37t-119.5 71.5q-29 23 -64 60.5t-64.5 91t-49 125t-19.5 161.5zM281 1483h436l155 -281h-260zM461 535q0 -78 16.5 -131.5t36.5 -81.5q27 -35 64 -52q10 -4 30.5 -9t48.5 -5q37 0 70 11.5t57 35.5q29 29 48.5 87.5t19.5 148.5 q0 121 -35 180t-92 80q-23 8 -41 9t-29 1q-55 -2 -86.5 -22.5t-46.5 -36.5q-25 -27 -43 -80.5t-18 -134.5z" />
<glyph unicode="&#xf3;" d="M41 522q0 111 35 215.5t110 186.5q27 29 69 61.5t101.5 59t137 44t174.5 17.5q20 0 68 -3t109.5 -17.5t128 -43t126.5 -79.5q45 -39 77.5 -90.5t55 -107.5t34 -117t11.5 -120q0 -23 -4 -64.5t-17.5 -94t-41 -110.5t-74.5 -112q-29 -31 -72 -64.5t-104.5 -61t-141.5 -45 t-178 -17.5q-23 0 -68 2t-101 14.5t-118.5 37t-119.5 71.5q-29 23 -64 60.5t-64.5 91t-49 125t-19.5 161.5zM461 535q0 -78 16.5 -131.5t36.5 -81.5q27 -35 64 -52q10 -4 30.5 -9t48.5 -5q37 0 70 11.5t57 35.5q29 29 48.5 87.5t19.5 148.5q0 121 -35 180t-92 80 q-23 8 -41 9t-29 1q-55 -2 -86.5 -22.5t-46.5 -36.5q-25 -27 -43 -80.5t-18 -134.5zM461 1202l155 281h437l-332 -281h-260z" />
<glyph unicode="&#xf4;" d="M41 522q0 111 35 215.5t110 186.5q27 29 69 61.5t101.5 59t137 44t174.5 17.5q20 0 68 -3t109.5 -17.5t128 -43t126.5 -79.5q45 -39 77.5 -90.5t55 -107.5t34 -117t11.5 -120q0 -23 -4 -64.5t-17.5 -94t-41 -110.5t-74.5 -112q-29 -31 -72 -64.5t-104.5 -61t-141.5 -45 t-178 -17.5q-23 0 -68 2t-101 14.5t-118.5 37t-119.5 71.5q-29 23 -64 60.5t-64.5 91t-49 125t-19.5 161.5zM291 1200l217 283h319l211 -283h-290l-84 135l-82 -135h-291zM461 535q0 -78 16.5 -131.5t36.5 -81.5q27 -35 64 -52q10 -4 30.5 -9t48.5 -5q37 0 70 11.5t57 35.5 q29 29 48.5 87.5t19.5 148.5q0 121 -35 180t-92 80q-23 8 -41 9t-29 1q-55 -2 -86.5 -22.5t-46.5 -36.5q-25 -27 -43 -80.5t-18 -134.5z" />
<glyph unicode="&#xf5;" d="M41 522q0 111 35 215.5t110 186.5q27 29 69 61.5t101.5 59t137 44t174.5 17.5q20 0 68 -3t109.5 -17.5t128 -43t126.5 -79.5q45 -39 77.5 -90.5t55 -107.5t34 -117t11.5 -120q0 -23 -4 -64.5t-17.5 -94t-41 -110.5t-74.5 -112q-29 -31 -72 -64.5t-104.5 -61t-141.5 -45 t-178 -17.5q-23 0 -68 2t-101 14.5t-118.5 37t-119.5 71.5q-29 23 -64 60.5t-64.5 91t-49 125t-19.5 161.5zM272 1204q6 47 16.5 97.5t32 92.5t59.5 68.5t99 26.5q35 0 87 -10.5t130 -32.5q33 -10 57.5 -16.5t41.5 -6.5q6 0 25.5 5.5t27.5 27.5q4 10 4 15.5v9.5h184 q-4 -18 -5 -37t-5 -35q-10 -63 -29.5 -104t-44 -66t-55.5 -34t-63 -9q-31 0 -68 6t-68.5 14.5t-55.5 15.5t-26 7q-37 10 -65.5 15.5t-44.5 5.5q-29 0 -38 -16.5t-13 -41.5zM461 535q0 -78 16.5 -131.5t36.5 -81.5q27 -35 64 -52q10 -4 30.5 -9t48.5 -5q37 0 70 11.5t57 35.5 q29 29 48.5 87.5t19.5 148.5q0 121 -35 180t-92 80q-23 8 -41 9t-29 1q-55 -2 -86.5 -22.5t-46.5 -36.5q-25 -27 -43 -80.5t-18 -134.5z" />
<glyph unicode="&#xf6;" d="M41 522q0 111 35 215.5t110 186.5q27 29 69 61.5t101.5 59t137 44t174.5 17.5q20 0 68 -3t109.5 -17.5t128 -43t126.5 -79.5q45 -39 77.5 -90.5t55 -107.5t34 -117t11.5 -120q0 -23 -4 -64.5t-17.5 -94t-41 -110.5t-74.5 -112q-29 -31 -72 -64.5t-104.5 -61t-141.5 -45 t-178 -17.5q-23 0 -68 2t-101 14.5t-118.5 37t-119.5 71.5q-29 23 -64 60.5t-64.5 91t-49 125t-19.5 161.5zM240 1239v244h340v-244h-340zM461 535q0 -78 16.5 -131.5t36.5 -81.5q27 -35 64 -52q10 -4 30.5 -9t48.5 -5q37 0 70 11.5t57 35.5q29 29 48.5 87.5t19.5 148.5 q0 121 -35 180t-92 80q-23 8 -41 9t-29 1q-55 -2 -86.5 -22.5t-46.5 -36.5q-25 -27 -43 -80.5t-18 -134.5zM741 1239v244h338v-244h-338z" />
<glyph unicode="&#xf7;" horiz-adv-x="1482" d="M162 514v336h1157v-336h-1157zM557 59v359h361v-359h-361zM559 946v359h361v-359h-361z" />
<glyph unicode="&#xf8;" d="M8 80l123 106q-14 27 -30.5 57.5t-31 68.5t-23.5 88.5t-9 117.5q0 141 45 252t126 187.5t195.5 117.5t253.5 41q127 0 216.5 -25.5t132.5 -48.5q20 -10 69 -45l113 99l92 -107l-109 -94q10 -18 21.5 -35.5t21.5 -36.5q20 -39 45 -113.5t25 -185.5q0 -35 -11 -114.5 t-59 -169.5q-57 -106 -142 -166t-170 -87.5t-157.5 -33.5t-103.5 -6q-16 0 -50 1t-77 7t-92 20.5t-96 40.5q-23 10 -42.5 23.5t-58.5 42.5l-127 -111zM457 508.5q0 -19.5 2 -41.5l342 295q0 8 -17 20q-23 23 -57.5 33t-67.5 10q-61 0 -100 -23.5t-62.5 -62.5t-31.5 -88 t-8 -100v-42.5zM506 322q10 -16 14 -23.5t12 -15.5q23 -23 60 -34t70 -11q76 0 117.5 42t60 93t21.5 96t3 51q0 29 -2 54.5t-6 54.5z" />
<glyph unicode="&#xf9;" d="M80 416v645h424v-578q0 -18 2 -47.5t15.5 -57.5t45 -47.5t90.5 -19.5q31 0 59.5 8.5t49.5 28.5q18 18 27.5 43t12.5 48.5t3 40v20.5v561h424v-1061h-402v156q-10 -23 -23 -44.5t-48 -50.5q-37 -31 -102.5 -59.5t-176.5 -28.5q-14 0 -44.5 2t-70.5 10.5t-83 27t-82 50.5 q-23 18 -53.5 59.5t-49.5 113.5q-10 33 -14 71.5t-4 108.5zM281 1483h436l155 -281h-260z" />
<glyph unicode="&#xfa;" d="M80 416v645h424v-578q0 -18 2 -47.5t15.5 -57.5t45 -47.5t90.5 -19.5q31 0 59.5 8.5t49.5 28.5q18 18 27.5 43t12.5 48.5t3 40v20.5v561h424v-1061h-402v156q-10 -23 -23 -44.5t-48 -50.5q-37 -31 -102.5 -59.5t-176.5 -28.5q-14 0 -44.5 2t-70.5 10.5t-83 27t-82 50.5 q-23 18 -53.5 59.5t-49.5 113.5q-10 33 -14 71.5t-4 108.5zM461 1202l155 281h437l-332 -281h-260z" />
<glyph unicode="&#xfb;" d="M80 416v645h424v-578q0 -18 2 -47.5t15.5 -57.5t45 -47.5t90.5 -19.5q31 0 59.5 8.5t49.5 28.5q18 18 27.5 43t12.5 48.5t3 40v20.5v561h424v-1061h-402v156q-10 -23 -23 -44.5t-48 -50.5q-37 -31 -102.5 -59.5t-176.5 -28.5q-14 0 -44.5 2t-70.5 10.5t-83 27t-82 50.5 q-23 18 -53.5 59.5t-49.5 113.5q-10 33 -14 71.5t-4 108.5zM291 1200l217 283h319l211 -283h-290l-84 135l-82 -135h-291z" />
<glyph unicode="&#xfc;" d="M80 416v645h424v-578q0 -18 2 -47.5t15.5 -57.5t45 -47.5t90.5 -19.5q31 0 59.5 8.5t49.5 28.5q18 18 27.5 43t12.5 48.5t3 40v20.5v561h424v-1061h-402v156q-10 -23 -23 -44.5t-48 -50.5q-37 -31 -102.5 -59.5t-176.5 -28.5q-14 0 -44.5 2t-70.5 10.5t-83 27t-82 50.5 q-23 18 -53.5 59.5t-49.5 113.5q-10 33 -14 71.5t-4 108.5zM233 1239v244h342v-244h-342zM737 1239v244h338v-244h-338z" />
<glyph unicode="&#xfd;" horiz-adv-x="1193" d="M0 1061h440l152 -692q45 190 80 342q14 63 28.5 125.5t25.5 111.5t18.5 80t7.5 33h438l-387 -1122q-25 -72 -57.5 -139.5t-92.5 -116.5q-31 -25 -62.5 -38.5t-64 -19.5t-68.5 -7t-75 -1q-27 0 -53.5 -1t-53.5 3l-116 12v301q31 -2 60.5 -4t60.5 -2q45 0 66.5 11.5 t21.5 39.5q0 12 -10.5 43t-22.5 66zM397 1202l156 281h436l-332 -281h-260z" />
<glyph unicode="&#xfe;" horiz-adv-x="1280" d="M86 -385v1831h412v-467q20 23 27 31t22 18q35 25 94 44.5t145 17.5q129 -4 215 -54.5t139.5 -128.5t77 -176t23.5 -196q2 -109 -23.5 -212.5t-83 -182.5t-149.5 -125t-225 -42q-100 4 -156.5 30t-103.5 69v-457h-414zM496 530q0 -35 2 -68.5t10 -64t24.5 -57.5t45.5 -47 q10 -6 32.5 -14.5t51.5 -8.5t50 9.5t31 17.5q53 39 67.5 97t14.5 124q0 31 -3 76t-18.5 86t-47 70.5t-88.5 31.5q-66 4 -113 -43q-23 -20 -35 -47.5t-17 -56.5t-6 -56.5t-1 -48.5z" />
<glyph unicode="&#xff;" horiz-adv-x="1193" d="M0 1061h440l152 -692q45 190 80 342q14 63 28.5 125.5t25.5 111.5t18.5 80t7.5 33h438l-387 -1122q-25 -72 -57.5 -139.5t-92.5 -116.5q-31 -25 -62.5 -38.5t-64 -19.5t-68.5 -7t-75 -1q-27 0 -53.5 -1t-53.5 3l-116 12v301q31 -2 60.5 -4t60.5 -2q45 0 66.5 11.5 t21.5 39.5q0 12 -10.5 43t-22.5 66zM176 1239v244h340v-244h-340zM678 1239v244h340v-244h-340z" />
<glyph unicode="&#x152;" horiz-adv-x="2260" d="M63 721q0 141 39 270t129 238q96 117 233.5 179t289.5 62q84 0 146.5 -16t90.5 -29q14 -6 29.5 -14t40.5 -25v60h1098v-316h-660v-212h615v-316h-615v-287h729v-315h-1167v51q-25 -16 -57 -33q-35 -16 -95.5 -32.5t-152.5 -16.5q-16 0 -48 1t-72 7.5t-86 18.5t-93 35 q-55 27 -124 78t-129.5 135t-100.5 201.5t-40 275.5zM518 721q0 -41 5 -84t16 -82q6 -23 22.5 -61.5t48 -76.5t82.5 -65.5t127 -27.5q45 0 84 9t70 21.5t53.5 25.5t34.5 19v650q-16 12 -35.5 24t-45.5 22.5t-59.5 16.5t-78.5 6q-41 0 -66.5 -4t-44.5 -10q-41 -12 -80 -40 t-68.5 -74t-47 -112.5t-17.5 -156.5z" />
<glyph unicode="&#x153;" horiz-adv-x="2048" d="M39 528q0 76 14.5 139.5t36 112.5t46 84t42.5 58q25 29 67 61.5t102.5 60t137 46t172.5 18.5q61 0 115.5 -8t101 -18.5t81 -22.5t53.5 -21q35 -14 69 -37q33 20 70 41q18 8 47 19.5t66.5 23t85 18.5t100.5 7q86 0 170 -22.5t155.5 -65.5t127 -106.5t86.5 -147.5 q10 -31 18 -59.5t12 -64.5t7 -80t6 -105h-746q2 -27 6 -51.5t13.5 -48t24.5 -43t42 -33.5q10 -6 33.5 -15.5t58.5 -9.5q41 0 72 12t52.5 29.5t36.5 36t24.5 34t15.5 25.5l346 -145q-10 -14 -35.5 -50t-64.5 -71q-25 -25 -68 -53.5t-101.5 -55t-133 -44t-164.5 -17.5 q-74 0 -133.5 12.5t-107.5 30.5t-83 38.5t-59 35.5q-18 -12 -37 -24.5t-39 -22.5q-45 -23 -124 -45.5t-202 -22.5q-102 0 -170.5 16.5t-105.5 30.5q-82 33 -145.5 86t-106.5 121t-65.5 147.5t-22.5 165.5zM461 532q0 -74 13 -123t32 -77q25 -35 61 -51q39 -18 88 -19 q31 0 66 10q29 10 61.5 39t53.5 95q8 23 13 57.5t5 87.5q0 49 -10 104.5t-43 96.5q-27 33 -64 45q-10 4 -30.5 10t-49.5 4q-16 0 -54 -8t-71 -41q-31 -29 -51 -83t-20 -147zM1290 682h303q0 8 -1 24.5t-7 35t-18.5 38t-36.5 33.5q-10 6 -31.5 15.5t-52.5 9.5q-49 0 -87 -27 t-54 -70q-6 -16 -8.5 -29.5t-6.5 -29.5z" />
<glyph unicode="&#x178;" horiz-adv-x="1622" d="M-6 1446h528l285 -481l278 481h529l-582 -838v-608h-459v608zM410 1550v244h340v-244h-340zM881 1550v244h340v-244h-340z" />
<glyph unicode="&#x2c6;" horiz-adv-x="641" d="M-55 1200l217 283h319l215 -283h-293l-84 135l-81 -135h-293z" />
<glyph unicode="&#x2dc;" horiz-adv-x="641" d="M-61 1204q6 47 15 97.5t30.5 92.5t59.5 68.5t99 26.5q35 0 87.5 -10.5t129.5 -32.5q35 -10 59.5 -16.5t39.5 -6.5q6 0 26.5 5.5t28.5 27.5q4 10 3 15.5t-1 9.5h186h-2q0 -18 -3 -37t-5 -35q-12 -63 -30.5 -104t-43 -66t-54 -34t-62.5 -9q-31 0 -68 6t-69.5 14.5t-56 15.5 t-25.5 7q-37 10 -66 15.5t-45 5.5q-29 0 -38 -16.5t-13 -41.5z" />
<glyph unicode="&#x2000;" horiz-adv-x="952" />
<glyph unicode="&#x2001;" horiz-adv-x="1905" />
<glyph unicode="&#x2002;" horiz-adv-x="952" />
<glyph unicode="&#x2003;" horiz-adv-x="1905" />
<glyph unicode="&#x2004;" horiz-adv-x="635" />
<glyph unicode="&#x2005;" horiz-adv-x="476" />
<glyph unicode="&#x2006;" horiz-adv-x="317" />
<glyph unicode="&#x2007;" horiz-adv-x="317" />
<glyph unicode="&#x2008;" horiz-adv-x="238" />
<glyph unicode="&#x2009;" horiz-adv-x="381" />
<glyph unicode="&#x200a;" horiz-adv-x="105" />
<glyph unicode="&#x2010;" horiz-adv-x="765" d="M59 471v350h646v-350h-646z" />
<glyph unicode="&#x2011;" horiz-adv-x="765" d="M59 471v350h646v-350h-646z" />
<glyph unicode="&#x2012;" horiz-adv-x="765" d="M59 471v350h646v-350h-646z" />
<glyph unicode="&#x2013;" horiz-adv-x="1288" d="M59 471v350h1170v-350h-1170z" />
<glyph unicode="&#x2014;" horiz-adv-x="1941" d="M59 471v350h1821v-350h-1821z" />
<glyph unicode="&#x2018;" horiz-adv-x="512" d="M70 702v308q0 68 9 129t32.5 112.5t66.5 92t111 69.5q37 16 75.5 24.5t77.5 14.5v-182q-74 -23 -99.5 -65t-27.5 -118h127v-385h-372z" />
<glyph unicode="&#x2019;" horiz-adv-x="512" d="M70 698v181q72 25 98.5 64.5t28.5 117.5h-127v385h372v-309q0 -68 -9 -128.5t-33.5 -111.5t-66.5 -92t-110 -70q-37 -16 -75.5 -23t-77.5 -14z" />
<glyph unicode="&#x201a;" horiz-adv-x="512" d="M70 0v385h372v-309q0 -68 -9 -128.5t-33.5 -111.5t-66.5 -92t-110 -70q-37 -16 -75.5 -23t-77.5 -13v180q72 25 98.5 64.5t28.5 117.5h-127z" />
<glyph unicode="&#x201c;" horiz-adv-x="1067" d="M84 702v308q0 68 9 128t33 112.5t67 93t110 69.5q37 16 76 24.5t80 14.5v-182q-74 -23 -99.5 -65t-27.5 -118h127v-385h-375zM606 702v308q0 68 9.5 129t33 112.5t66.5 92t110 69.5q37 16 76 24.5t78 14.5v-182q-74 -23 -99.5 -65t-27.5 -118h127v-385h-373z" />
<glyph unicode="&#x201d;" horiz-adv-x="1067" d="M84 698v181q72 25 98.5 64.5t28.5 117.5h-127v385h375v-309q0 -68 -9.5 -128.5t-34 -111.5t-66.5 -92t-109 -70q-37 -16 -77 -23t-79 -14zM606 698v181q72 25 98.5 64.5t28.5 117.5h-127v385h373v-309q0 -68 -9 -128.5t-34 -111.5t-67 -92t-109 -70q-37 -16 -76 -23z" />
<glyph unicode="&#x201e;" horiz-adv-x="1067" d="M84 0v385h375v-309q0 -68 -9.5 -128.5t-34 -111.5t-66.5 -92t-109 -70q-37 -16 -77 -23t-79 -13v180q72 25 98.5 64.5t28.5 117.5h-127zM606 0v385h373v-309q0 -68 -9 -128.5t-34 -111.5t-67 -92t-109 -70q-37 -16 -76 -23t-78 -13v180q72 25 98.5 64.5t28.5 117.5h-127z " />
<glyph unicode="&#x2022;" horiz-adv-x="681" d="M78 449v528h526v-528h-526z" />
<glyph unicode="&#x2026;" horiz-adv-x="2048" d="M195 0v287h290v-287h-290zM881 0v287h288v-287h-288zM1561 0v287h290v-287h-290z" />
<glyph unicode="&#x202f;" horiz-adv-x="381" />
<glyph unicode="&#x2039;" horiz-adv-x="468" d="M72 461v375l321 256v-306l-182 -141l182 -137v-303z" />
<glyph unicode="&#x203a;" horiz-adv-x="468" d="M72 205v305l184 141l-184 137v304l321 -256v-375z" />
<glyph unicode="&#x205f;" horiz-adv-x="476" />
<glyph unicode="&#x20ac;" horiz-adv-x="1466" d="M68 498l57 166h86l2 81l-137 -2l57 168h103q27 131 91 231.5t156 169t208 103.5t247 35q68 0 128 -6t115.5 -20.5t110 -41t109.5 -65.5l-129 -348q-61 70 -130 103.5t-161 33.5q-98 0 -172 -48t-102 -147h544l-61 -168l-510 2q-6 -41 -6 -81h487l-61 -166h-395 q14 -49 45.5 -84t71.5 -57.5t87 -33t95 -10.5q92 0 179 39t146 111l2 -426q-88 -45 -181 -63.5t-192 -18.5q-76 0 -151.5 8t-146 29.5t-135 58.5t-119.5 94q-70 72 -114 163t-63 190h-161z" />
<glyph unicode="&#x2122;" horiz-adv-x="1533" d="M31 1296v150h547v-150h-166v-530h-209v530h-172zM649 766l2 680h291l96 -436l97 436h290l2 -680h-196l8 471l-119 -471h-164l-112 469l4 -469h-199z" />
<glyph unicode="&#x25fc;" horiz-adv-x="1060" d="M0 0v1060h1060v-1060h-1060z" />
</font>
</defs>
</svg>
