<?xml version="1.0" standalone="no"?>
<!DOCTYPE svg PUBLIC "-//W3C//DTD SVG 1.1//EN" "http://www.w3.org/Graphics/SVG/1.1/DTD/svg11.dtd" >
<svg xmlns="http://www.w3.org/2000/svg">
<metadata></metadata>
<defs>
<font id="akzidenz-grotesk_bqmedium" horiz-adv-x="1150" >
<font-face units-per-em="2048" ascent="1638" descent="-410" />
<missing-glyph horiz-adv-x="589" />
<glyph horiz-adv-x="0" />
<glyph unicode="&#xd;" horiz-adv-x="589" />
<glyph unicode=" "  horiz-adv-x="589" />
<glyph unicode="&#x09;" horiz-adv-x="589" />
<glyph unicode="&#xa0;" horiz-adv-x="589" />
<glyph unicode="!" horiz-adv-x="512" d="M164 0v283h268v-283h-268zM164 893v553h268v-553l-78 -533h-114z" />
<glyph unicode="&#x22;" horiz-adv-x="679" d="M72 1522h196l-61 -613h-72zM410 1522h198l-63 -613h-70z" />
<glyph unicode="#" horiz-adv-x="1366" d="M86 438v205h276l27 193h-258v204h285l55 406h213l-57 -406h200l56 406h207l-56 -406h242v-204h-268l-29 -193h252v-205h-277l-63 -438h-207l64 438h-203l-62 -438h-209l62 438h-250zM569 643h205l27 193h-203z" />
<glyph unicode="$" horiz-adv-x="1280" d="M72 272l207 158q18 -27 50.5 -62.5t94.5 -76.5q23 -14 42 -23.5t30 -11.5q8 -4 19 -6t30 -4v391q-160 16 -245 61t-130 109q-16 27 -37.5 75t-21.5 124q0 16 2 43.5t11 62.5t26.5 73t48.5 75q20 25 50 50t71.5 48.5t97 42t127.5 26.5v222h188v-222q92 -8 164 -34.5 t126 -59.5t92 -67.5t61 -61.5l-195 -153q-35 45 -68.5 72.5t-65.5 43t-60.5 23.5t-53.5 14v-327q12 -2 47 -8.5t81 -20.5t97.5 -35.5t94.5 -52.5q53 -41 82.5 -85t44 -87t17.5 -78.5t3 -60.5q0 -90 -27.5 -163t-91.5 -136q-47 -47 -90 -71t-65 -34q-35 -14 -77 -24.5 t-116 -20.5v-233h-188v233q-90 16 -158 35.5t-143 70.5q-16 10 -45 33t-64 58q-20 20 -63 75zM379 1047q0 -59 41 -91q16 -12 47 -25t78 -22v295q-4 -2 -19.5 -5t-29.5 -7q-8 -4 -27.5 -12.5t-39 -25.5t-35 -44t-15.5 -63zM733 242q10 2 24.5 4t37.5 12q10 4 32.5 16.5 t45 33t40 52t17.5 74.5q0 53 -29 87t-63.5 52.5t-66.5 25.5t-38 9v-366z" />
<glyph unicode="%" horiz-adv-x="1792" d="M53 928q0 86 13.5 170t60.5 159q31 47 67.5 75t73.5 41t70 17.5t53 4.5q125 0 202 -71t105 -187q14 -51 17.5 -98.5t3.5 -100.5q2 -88 -10.5 -173t-61.5 -163q-12 -20 -32.5 -45t-52.5 -46.5t-76 -35.5t-103 -14q-55 0 -97 13t-72 32.5t-49.5 41t-31.5 38.5 q-14 20 -31.5 55t-29.5 88q-8 31 -13.5 77t-5.5 122zM238 922q0 -18 1 -63.5t13 -102.5q4 -14 15.5 -51t49.5 -64q8 -4 26.5 -12t43.5 -8q16 0 49 11t56 46t33 97.5t10 152.5q0 168 -35 237q-23 45 -57.5 59.5t-55.5 14.5q-23 0 -57.5 -14.5t-57.5 -61.5q-10 -23 -17 -54.5 t-11 -66t-5 -66.5t-1 -54zM487 -12l646 1401l139 -66l-643 -1399zM1075 459v42.5t4 66.5t14.5 81t30.5 86q10 23 31 54.5t54.5 60.5t83.5 49.5t122 20.5q51 0 90 -12.5t66.5 -30t47 -38t32.5 -36.5q37 -49 52 -93t19 -65q8 -33 12.5 -74.5t6.5 -113.5v-29.5t-2 -50.5 t-5 -60.5t-12 -62.5q-6 -27 -23.5 -72t-53 -89t-93 -75.5t-145.5 -31.5q-20 0 -53 3t-69 17t-72.5 42t-67.5 75q-49 78 -59.5 164t-10.5 172zM1260 444q0 -18 1 -63t13 -102q4 -14 15 -51.5t50 -63.5q8 -4 26.5 -12.5t43.5 -8.5q16 0 49 11.5t55 46.5q23 35 33 97.5 t10 152.5q0 168 -34 237q-23 45 -57.5 59.5t-55.5 14.5q-23 0 -57.5 -14.5t-57.5 -61.5q-10 -23 -17 -54.5t-11 -66.5t-5 -66.5t-1 -54.5z" />
<glyph unicode="&#x26;" horiz-adv-x="1323" d="M88 377q0 18 4 57t23 88q20 51 51 92t68.5 74t80.5 61.5t86 57.5q-18 29 -39.5 79t-21.5 134q0 14 2 40.5t10 58.5t24.5 67t47.5 67q47 53 112.5 78t137.5 25q53 0 88 -9.5t55 -17.5q84 -35 137.5 -110.5t53.5 -169.5q0 -37 -12.5 -82t-43 -91.5t-83 -87t-134.5 -69.5 q23 -41 51.5 -81t55.5 -81q20 -29 39.5 -57.5t42.5 -55.5q51 72 61 131.5t14 96.5l236 -2q-2 -16 -5 -38t-7 -38t-14.5 -52t-29 -82t-46 -98.5t-64.5 -97.5q35 -35 63.5 -49t79.5 -14q6 0 18.5 1t26.5 3v-205q-33 -4 -50 -5t-50 -1q-55 0 -95 6t-70.5 17.5t-53.5 26.5 t-45 32q-23 -16 -54.5 -34.5t-73.5 -34t-96.5 -27t-121.5 -11.5q-16 0 -52 2t-80 12.5t-93.5 30t-94.5 56.5q-68 57 -103.5 139t-35.5 168zM336 393q0 -35 8 -59.5t16 -36.5q8 -14 23.5 -33.5t40.5 -38t58.5 -31t78.5 -12.5q31 0 85 13.5t114 64.5l-248 363 q-10 -4 -29.5 -16.5t-42.5 -28.5q-66 -53 -85 -97.5t-19 -87.5zM571 1055q0 -31 13.5 -66t48.5 -88l37 12q8 2 27.5 10.5t41 26t38 43t16.5 62.5q0 49 -33 78.5t-80 29.5t-79 -30.5t-30 -77.5z" />
<glyph unicode="'" horiz-adv-x="339" d="M72 1522h196l-61 -613h-72z" />
<glyph unicode="(" horiz-adv-x="667" d="M72 647q0 186 56 366.5t161 327.5q57 80 129 154l37.5 37.5t36 33t40 33t52.5 39.5l94 -104q-31 -33 -53.5 -55.5t-39 -43t-31.5 -39t-32 -40.5q-98 -137 -148 -312.5t-50 -373.5q0 -137 24.5 -267.5t70.5 -244t112.5 -208.5t150.5 -165l-90 -121q-35 25 -49 37 q-68 55 -127.5 114.5t-106.5 121.5q-119 154 -178 333t-59 377z" />
<glyph unicode=")" horiz-adv-x="671" d="M-2 -231q31 33 53.5 55t38.5 42.5t31.5 39t32.5 41.5q98 137 149 313t51 375q0 137 -24.5 266t-70.5 242.5t-111.5 209t-149.5 165.5l90 120q16 -12 27.5 -21t19.5 -15q72 -57 128 -114.5t106 -121.5q117 -154 177 -332t60 -379q0 -186 -56 -365t-163 -329 q-59 -84 -126.5 -151.5t-168.5 -145.5z" />
<glyph unicode="*" horiz-adv-x="774" d="M41 1126l51 170l201 -57v211h178v-213l205 70l57 -166l-201 -70l123 -162l-139 -108l-131 170l-119 -170l-143 104l115 164z" />
<glyph unicode="+" horiz-adv-x="1482" d="M190 532v220h418v436h266v-436h418v-220h-418v-442h-266v442h-418z" />
<glyph unicode="," horiz-adv-x="425" d="M76 0v281h272v-301v-9q0 -111 -58.5 -166t-162.5 -81q-20 -4 -35 -9v119q35 4 56.5 19.5t34 38t16.5 50t4 58.5h-127z" />
<glyph unicode="-" horiz-adv-x="761" d="M84 506v231h592v-231h-592z" />
<glyph unicode="." horiz-adv-x="425" d="M76 0v281h270v-281h-270z" />
<glyph unicode="/" horiz-adv-x="980" d="M27 0l686 1446h243l-686 -1446h-243z" />
<glyph unicode="0" d="M74 688q0 137 16 239.5t48 178.5t77 129t102 90q33 23 100.5 51.5t170.5 28.5q18 0 50 -2t71 -12.5t82 -30t83 -53.5q68 -55 109 -128t63.5 -153t29.5 -165t7 -165q0 -127 -14 -223t-41 -169t-63.5 -126t-85.5 -92q-45 -37 -90.5 -57.5t-85 -31.5t-73.5 -13t-55 -2 q-29 0 -72.5 4t-96 22.5t-106.5 54t-101 99.5q-31 39 -53.5 88t-39 112.5t-24.5 143.5t-8 182zM338 684q0 -82 5 -140.5t9 -90.5q2 -8 6 -34t16.5 -57.5t34 -65.5t56.5 -56q35 -23 67.5 -27t47.5 -4q12 0 42.5 4t59.5 20q27 14 45 36t30.5 43.5t19.5 39t9 25.5 q8 29 14.5 70.5t10.5 86t5 86t1 72.5v71t-3 81t-9 80t-19 69q-2 10 -9 33t-21 49q-8 12 -20.5 30.5t-33 34t-49 27t-69.5 11.5q-23 0 -67 -9.5t-83 -54.5q-53 -59 -74.5 -162.5t-21.5 -267.5z" />
<glyph unicode="1" d="M154 961v157h26q66 0 124 8.5t116 49.5q55 41 78.5 92t40.5 114h204v-1382h-251v791v89.5t-23 55.5q-20 20 -43 22.5t-49 2.5h-223z" />
<glyph unicode="2" d="M117 0v201q88 63 164.5 125.5t138 119t106.5 102.5t74 77q12 14 37 43.5t50.5 73.5t44 99.5t18.5 121.5q0 86 -45.5 146t-137.5 60q-49 0 -77.5 -15t-43.5 -28q-29 -27 -44 -61.5t-21 -71.5t-7 -74.5t-1 -70.5l-256 24q-2 135 30.5 224.5t67.5 134.5q16 25 48 54.5t78 56 t108.5 45t140.5 18.5q61 0 111.5 -11.5t89 -28.5t66.5 -36.5t46 -36.5q66 -59 98.5 -146t30.5 -175q0 -31 -8 -92.5t-45 -137.5q-31 -66 -75 -121t-94 -105t-105.5 -95t-106.5 -90q-37 -31 -73 -60.5t-74 -56.5h606v-213h-940z" />
<glyph unicode="3" d="M96 453h273q-2 -10 -4.5 -39t6.5 -58q6 -23 18 -48t37 -48.5t62.5 -39t93.5 -15.5q16 0 46.5 4t65.5 22q37 18 57.5 47t32 58t13.5 52.5t2 35.5q0 16 -5.5 51t-31.5 72q-37 53 -92.5 67.5t-114.5 12.5l-66 -2v215q31 0 66 -2t68.5 2t63.5 18t52 45q23 29 26 58.5t3 39.5 q0 78 -49 127.5t-127 49.5q-23 0 -65 -10.5t-81 -57.5q-18 -23 -34.5 -60.5t-18.5 -103.5l-270 58q6 29 17.5 75.5t40 99t78.5 101.5t130 82q70 29 127 36t84 7q39 0 63.5 -3t41.5 -7q27 -6 83 -22.5t112 -56.5t98 -106.5t42 -171.5q0 -16 -3 -45.5t-15 -66.5t-36.5 -74 t-67.5 -66q-27 -16 -52.5 -26t-54.5 -19q74 -14 121 -49t65 -55q23 -27 49.5 -84t26.5 -145q0 -66 -15.5 -117t-38 -90t-47 -67t-42.5 -42q-20 -16 -52 -35.5t-76 -36t-100.5 -27.5t-123.5 -11q-14 0 -55.5 2t-93.5 14t-108.5 37.5t-101.5 70.5q-47 45 -71.5 99.5t-36 103.5 t-13.5 88t-2 56z" />
<glyph unicode="4" d="M35 317v181l606 884h252v-854h178v-211h-178v-317h-252v317h-606zM299 528h342l14 549z" />
<glyph unicode="5" d="M76 387l284 19q4 -88 55.5 -146.5t143.5 -56.5q41 0 69.5 9t41.5 17q31 18 52 47t35.5 64t20.5 72t6 69q0 12 -3 41t-13 64q-6 18 -20.5 44.5t-39 51.5t-62.5 42t-91 17q-14 0 -42 -3t-58.5 -16t-60 -39t-46.5 -71l-229 15l96 759h768l-20 -231h-537l-47 -305 q12 12 18 19.5t15 11.5q33 25 68.5 39t67.5 21t57.5 9t39.5 2q23 0 57.5 -3t74.5 -16t84 -39t85 -71q63 -70 90 -153.5t27 -175.5q0 -70 -12.5 -125.5t-31 -97.5t-40 -73.5t-39.5 -52.5q-53 -59 -110.5 -92t-111.5 -49t-99.5 -19t-71.5 -3q-18 0 -53 2t-79 11t-92.5 27.5 t-93.5 53.5q-78 61 -112.5 138t-40.5 173z" />
<glyph unicode="6" d="M98 651q0 16 1 69.5t10.5 124t29 150.5t54.5 152q37 76 96 131q45 45 92 70.5t90 38t80 15.5t59 3q18 0 51 -2t74 -12.5t85 -31t87 -56.5q37 -33 60.5 -68t38 -67.5t19.5 -61.5t9 -47l-262 -35q0 20 -2 33.5t-10 32.5q-20 45 -61.5 67.5t-88.5 22.5q-20 0 -46.5 -5.5 t-53.5 -20.5t-51.5 -44t-42.5 -74q-12 -29 -20.5 -65.5t-14.5 -75.5t-10 -77t-4 -66q16 20 28.5 33.5t32.5 29.5q29 23 86 49.5t143 26.5q18 0 48 -3t66 -13.5t75 -31t78 -55.5q20 -18 42.5 -46.5t41 -68.5t31 -92t12.5 -120q0 -92 -27 -173t-86 -151q-18 -23 -49 -49.5 t-74 -50t-100.5 -39.5t-128.5 -16q-18 0 -47 2t-65 10t-77 24.5t-80 44.5q-49 35 -89 85.5t-69.5 121t-45 164.5t-15.5 217zM389 434q0 -88 35 -136t65 -65q14 -8 38 -15t63 -7q12 0 30.5 1t40 8t44 21.5t40.5 39.5q18 23 33 58.5t15 96.5q0 37 -8.5 73t-28.5 66 q-18 31 -42 47.5t-45.5 24.5t-41 10t-31.5 2q-102 0 -154.5 -66.5t-52.5 -158.5z" />
<glyph unicode="7" d="M131 1145v241h918v-225q-37 -45 -71 -92t-67 -96q-43 -68 -78.5 -132.5t-64.5 -130t-54.5 -135t-47.5 -145.5q-31 -106 -51.5 -212.5t-30.5 -217.5h-338q29 221 95.5 402.5t143 324.5t150.5 247.5t121 170.5h-625z" />
<glyph unicode="8" d="M59 397q0 104 50 183q35 57 86 93t92 52q-37 18 -59.5 36.5t-34.5 31.5q-10 12 -24.5 32.5t-28 50t-22.5 66.5t-9 82q0 68 19 116t32 68q20 33 55 68t87 63.5t122 47t162 18.5q23 0 78 -3t118 -26q29 -10 75 -32.5t90 -64.5t76 -107.5t32 -157.5q0 -72 -19.5 -121 t-47 -83t-59.5 -53.5t-55 -31.5q16 -8 44 -24.5t61 -47.5q14 -14 33.5 -35.5t36 -52t27.5 -72t11 -94.5q0 -27 -8 -85t-49 -121q-23 -35 -60.5 -73t-95 -69t-132 -50t-171.5 -19q-29 0 -87 5t-130 27q-29 8 -79 33t-98 70t-83 113.5t-35 166.5zM348 406q0 -59 23.5 -93 t40.5 -51q25 -20 64.5 -35.5t107.5 -15.5q45 0 87 11t73.5 36t50 62t18.5 88q0 45 -15.5 78.5t-36 55t-43 34t-36.5 16.5q-16 4 -40 9t-60 5q-31 0 -56.5 -3t-54.5 -13q-14 -6 -35.5 -19.5t-41 -35t-33 -53t-13.5 -76.5zM371 993q0 -53 16 -81.5t33 -45.5q18 -16 35.5 -25.5 t25.5 -13.5q31 -12 61.5 -13t41.5 -1q10 0 36.5 2t55.5 12q14 6 33.5 17.5t37 31t28.5 48t11 69.5q0 16 -6 54t-39 73q-8 8 -22 20.5t-41 22.5q-16 6 -38 11.5t-60 5.5q-33 0 -54.5 -4.5t-33.5 -8.5q-16 -6 -38 -17t-40.5 -30.5t-30.5 -50.5t-12 -76z" />
<glyph unicode="9" d="M102 332l281 39q2 -10 6 -32t14 -44q6 -12 16.5 -26.5t29 -29t43 -22.5t59.5 -8q51 0 88 22q41 27 68.5 74t43 101.5t20.5 109.5t5 98q-16 -25 -35.5 -41t-46.5 -30q-47 -27 -94 -38t-100 -11q-72 0 -135.5 19t-120.5 67q-80 68 -111 156.5t-31 191.5q0 25 6.5 87 t34.5 128q14 35 46 81t84.5 86t126 67.5t171.5 27.5q14 0 41 -2t61 -8t71.5 -18.5t72.5 -35.5q18 -12 44 -31.5t59 -60.5q23 -29 35 -49t18 -33q35 -66 60.5 -162.5t25.5 -256.5q0 -133 -21.5 -264.5t-93.5 -254.5q-45 -80 -108 -137q-47 -41 -89 -59.5t-67 -26.5 q-20 -6 -62.5 -15t-99.5 -9q-23 0 -65.5 4t-92 21.5t-100.5 52t-92 96.5q-35 53 -48.5 103t-17.5 73zM369 952q0 -29 3 -51t5 -31q4 -16 14 -42.5t31.5 -51t55.5 -43t85 -18.5q45 0 78 14t53.5 35.5t31.5 43t17 38.5q6 20 9.5 45.5t3.5 48.5q0 12 -1 39t-12 61 q-14 45 -37.5 73t-49 43t-51 20.5t-44.5 5.5q-12 0 -36.5 -4t-53.5 -21q-39 -23 -59.5 -52.5t-29.5 -60t-11 -56t-2 -36.5z" />
<glyph unicode=":" horiz-adv-x="512" d="M160 0v281h270v-281h-270zM160 760v282h270v-282h-270z" />
<glyph unicode=";" horiz-adv-x="512" d="M160 0v281h272v-299q0 -66 -17.5 -110t-51 -74.5t-82 -50t-107.5 -34.5v123q63 8 88 46t25 98v20h-127zM160 760v282h272v-282h-272z" />
<glyph unicode="&#x3c;" horiz-adv-x="1482" d="M231 526v252l953 467v-254l-709 -332l709 -335v-267z" />
<glyph unicode="=" horiz-adv-x="1482" d="M203 303v219h1077v-219h-1077zM203 719v219h1077v-219h-1077z" />
<glyph unicode="&#x3e;" horiz-adv-x="1482" d="M291 977l2 266l952 -469v-252l-952 -467v254l708 332z" />
<glyph unicode="?" d="M109 997q4 49 12 96.5t26 94.5q29 74 77 128t108.5 88t131.5 50t148 16q94 0 182.5 -27.5t155 -81.5t106.5 -134.5t40 -184.5q0 -190 -152 -313q-18 -16 -37.5 -28.5t-40.5 -26.5q-43 -29 -68.5 -51.5t-41 -49t-20.5 -59.5t-5 -84v-28.5t2 -28.5h-241v51q0 33 2 74t8 83 t17 80.5t30 65.5q31 45 77 76t87 61.5t70.5 71.5t29.5 106q0 43 -18.5 79t-48 61.5t-68.5 40t-80 14.5q-59 0 -104 -21.5t-76 -57.5t-46.5 -85t-15.5 -104zM477 0v281h273v-281h-273z" />
<glyph unicode="@" horiz-adv-x="1835" d="M141 481q0 197 72 375t198 311t298 212t374 79q135 0 248 -41t193 -118.5t125 -188.5t45 -248q0 -104 -25 -205q-25 -111 -70 -204q-27 -53 -65.5 -108.5t-87.5 -100.5t-107.5 -74t-124.5 -29q-76 0 -121.5 40t-56.5 118q-53 -66 -119.5 -112t-156.5 -46q-72 0 -124 29 t-86 76t-50.5 107.5t-16.5 125.5q0 92 30 194.5t86 189.5t138 144.5t187 57.5q80 0 135 -39t90 -108l25 104h161l-67 -315q-8 -35 -17.5 -81t-18.5 -93.5t-15.5 -92.5t-6.5 -78q0 -25 10.5 -50t41.5 -25q33 0 59.5 22.5t46.5 42.5q43 43 77 104.5t57.5 131t34.5 140.5 t11 130q0 111 -34.5 198t-98 145.5t-151.5 89t-195 30.5q-168 0 -311.5 -70.5t-249 -187.5t-165.5 -267.5t-60 -312.5q0 -145 49 -256.5t136 -187.5t205 -116t257 -40q193 0 365.5 82t308.5 217l82 -104q-154 -154 -345.5 -243t-410.5 -89q-82 0 -167 16.5t-163 44.5 q-229 90 -344 261.5t-115 412.5zM670 489q0 -53 16 -100t68 -74q29 -16 61 -16h8q68 6 117 50t83 106.5t50.5 132.5t16.5 127q0 35 -9.5 69.5t-28 62t-48 45t-68.5 17.5q-68 0 -118 -45t-83 -109.5t-49 -137t-16 -128.5z" />
<glyph unicode="A" horiz-adv-x="1323" d="M12 0l490 1446h307l494 -1446h-289l-84 283h-543l-84 -283h-291zM459 520h399l-199 666z" />
<glyph unicode="B" horiz-adv-x="1409" d="M164 0v1446h518q53 0 108.5 -1t108.5 -5q16 -2 46 -6t64.5 -16.5t73.5 -35t74 -59.5q12 -12 27.5 -32.5t30 -50.5t24.5 -66.5t10 -81.5q0 -16 -3 -48t-16 -70t-40 -76t-72 -67q-27 -16 -52.5 -24t-55.5 -14q14 -4 44.5 -11.5t65.5 -27.5q27 -14 62 -41t64.5 -68t50 -99 t20.5 -136q0 -111 -46 -200t-145 -144q-96 -53 -193 -59.5t-202 -6.5h-567zM432 233h303h69t69.5 6.5t65.5 21.5t56 46q14 16 29.5 45t15.5 82q0 14 -3 39t-15 52.5t-35.5 54t-62.5 47.5q-55 27 -134 31t-206 4h-152v-429zM432 864h94h107.5t109.5 4q51 4 98.5 14.5 t84.5 51.5q12 12 28.5 39t16.5 74q0 12 -6.5 41.5t-28.5 58.5q-27 33 -61.5 49t-74.5 22.5t-80 6.5h-77h-211v-361z" />
<glyph unicode="C" horiz-adv-x="1409" d="M76 727q0 29 2 80t14 115.5t40 136t77 143.5q27 37 72 86t112.5 92t158.5 73t210 30q104 0 184 -22.5t139.5 -57.5t99.5 -75t64 -75q35 -53 58.5 -106t42.5 -111l-269 -69q-2 14 -9 45.5t-28 68.5q-40 78 -116 117q-72 37 -154 37h-8q-61 0 -103 -14.5t-65 -24.5 q-41 -20 -81 -57t-73.5 -93.5t-54 -134t-20.5 -178.5q0 -16 2 -53t10 -85t25.5 -101.5t48.5 -102.5q45 -68 104 -106q66 -45 124 -55.5t87 -10.5q86 0 149.5 33t116.5 98q23 27 38.5 53.5t19.5 34.5q6 14 11 28.5l15 43.5l256 -107q-23 -55 -47 -101t-61 -93 q-25 -33 -68 -75t-106.5 -80t-148.5 -64.5t-193 -26.5q-37 0 -117 9.5t-174 52.5q-61 29 -129 82t-125 138t-94 203.5t-37 278.5z" />
<glyph unicode="D" horiz-adv-x="1449" d="M145 0v1446h519q49 0 105 -3t103 -13q27 -6 68 -18.5t88 -37t97.5 -64.5t95.5 -98q25 -31 50 -78t47.5 -108t37 -140t14.5 -175q0 -109 -21.5 -213.5t-70.5 -194.5t-127 -158.5t-190 -105.5q-94 -29 -176.5 -34t-178.5 -5h-461zM416 244h71q111 0 179.5 2t117.5 10 q14 2 39 7t54.5 17.5t60.5 33t59 55.5q33 43 51.5 99t25.5 108.5t8 91.5t1 45q0 162 -42 254t-97 141q-18 16 -55 38.5t-96 39.5q-27 6 -48.5 10t-47 5t-58.5 1h-80h-143v-958z" />
<glyph unicode="E" horiz-adv-x="1280" d="M160 0v1446h1028v-242h-762v-340h698v-233h-698v-387h813v-244h-1079z" />
<glyph unicode="F" d="M166 0v1446h956v-242h-688v-360h604v-232h-604v-612h-268z" />
<glyph unicode="G" horiz-adv-x="1536" d="M94 709q0 139 42 275t128 247q25 31 70 74t110.5 82.5t152.5 67.5t198 28q31 0 95 -7.5t142 -35.5q35 -14 84 -41t101.5 -71t101.5 -110.5t84 -160.5l-258 -103q-10 27 -30.5 74t-60.5 94t-103.5 82t-157.5 35q-18 0 -48 -3t-65 -13.5t-73 -31t-75 -56.5q-27 -27 -52 -65 t-45.5 -88t-33 -115.5t-12.5 -149.5q0 -23 3 -71t18.5 -107.5t49.5 -123t95 -114.5q53 -45 113.5 -63.5t130.5 -18.5q109 0 196.5 51.5t128.5 153.5q10 23 17.5 51.5t13.5 77.5h-360v238h608v-791h-232l-2 123q-88 -82 -181 -121t-216 -39q-33 0 -85 4t-114.5 22.5 t-130 55.5t-133.5 100q-31 31 -68.5 81t-70.5 120t-54.5 160t-21.5 203z" />
<glyph unicode="H" horiz-adv-x="1492" d="M164 0v1446h272v-545h621v545h272v-1446h-272v657h-621v-657h-272z" />
<glyph unicode="I" horiz-adv-x="598" d="M164 0v1446h266v-1446h-266z" />
<glyph unicode="J" horiz-adv-x="811" d="M53 -12v266q55 -12 84 -16.5t60 -4.5q49 0 81.5 10.5t49.5 20.5q35 20 53 50t25.5 66t7.5 72.5v69.5v924h266v-1098q0 -14 -1 -40.5t-9 -58.5t-23.5 -69t-44.5 -69q-23 -27 -55.5 -52.5t-79.5 -45t-107.5 -32t-138.5 -12.5q-27 0 -67.5 2t-100.5 17z" />
<glyph unicode="K" horiz-adv-x="1366" d="M164 0v1446h268v-664l580 664h317l-473 -545l506 -901h-309l-385 680l-236 -270v-410h-268z" />
<glyph unicode="L" horiz-adv-x="1067" d="M168 0v1446h272v-1200h574v-246h-846z" />
<glyph unicode="M" horiz-adv-x="1662" d="M156 0v1446h393l282 -1073l279 1073h391v-1446h-264l27 1188l-314 -1188h-243l-314 1188l27 -1188h-264z" />
<glyph unicode="N" horiz-adv-x="1449" d="M168 0v1446h244l641 -1020l-33 1020h266v-1446h-237l-633 1014l16 -1014h-264z" />
<glyph unicode="O" horiz-adv-x="1579" d="M98 721q0 35 6.5 111.5t36.5 168.5q35 109 97.5 198t147.5 151.5t187.5 97.5t219.5 35q104 0 188 -24.5t147.5 -60.5t107.5 -76t69 -69q29 -33 60.5 -81t58 -113.5t44 -148.5t17.5 -187q0 -35 -4 -96.5t-24.5 -137t-60.5 -158.5t-112 -161l-33.5 -33.5t-52.5 -45t-71 -46 t-89 -41.5q-35 -12 -97 -26.5t-155 -14.5q-154 0 -273.5 53.5t-221.5 169.5q-102 117 -147.5 250t-45.5 285zM377 731q0 -20 3 -75.5t22.5 -123t61.5 -137t118 -119.5q66 -43 125 -52t88 -9q23 0 67.5 5t98.5 30q39 18 82.5 52t80.5 87t61.5 128t26.5 177v17q0 83 -17 165 q-19 92 -69 168q-57 92 -141 141.5t-194 49.5q-68 0 -115 -16.5t-70 -26.5q-39 -20 -79 -57t-73.5 -92.5t-55 -133.5t-21.5 -178z" />
<glyph unicode="P" horiz-adv-x="1280" d="M168 0v1446h487q27 0 53 1h17q17 0 35 -1q25 -2 67.5 -7t95 -21.5t107.5 -49.5t105 -90q39 -45 60.5 -92t32.5 -89t13 -77t2 -55q0 -84 -19.5 -149.5t-48 -113t-62.5 -79t-62 -50.5q-94 -59 -194.5 -70t-207.5 -11h-211v-492h-270zM438 713h195q14 0 28.5 1t28.5 1 q104 4 156.5 33.5t79.5 72.5q10 18 24.5 57.5t14.5 94.5q0 35 -8.5 69.5t-24.5 65.5q-23 39 -55.5 61.5t-71.5 31.5t-80 11t-80 2h-207v-501z" />
<glyph unicode="Q" horiz-adv-x="1579" d="M74 723q0 141 40 278.5t132 247.5q68 82 143.5 129t145 69.5t130 29t97.5 6.5q29 0 77 -3t106.5 -17.5t124 -44t128.5 -81.5q66 -53 114 -121.5t79.5 -145.5t47 -160t15.5 -165q0 -41 -5 -90t-14.5 -99t-22.5 -98t-30 -87q-4 -6 -13 -24.5t-19 -39.5q10 -25 36 -45 q14 -12 38 -23.5t49.5 -20.5t50 -14t45.5 -5h12t16 4l-75 -260q-10 4 -25.5 7t-38.5 11q-39 16 -103.5 54t-142.5 106q-63 -55 -132.5 -87t-133 -47.5t-114 -19.5t-76.5 -4q-102 0 -182 22.5t-141.5 55.5t-104.5 69.5t-68 65.5q-29 31 -61.5 81t-60 118.5t-46 155.5 t-18.5 192zM362 715q0 -23 4.5 -69t20.5 -105q18 -68 54 -126.5t86.5 -101.5t112.5 -67.5t136 -24.5q156 0 254 111q20 23 43 58.5t43.5 84.5t33.5 111.5t13 138.5q0 25 -4 79t-23.5 118.5t-62.5 131t-121 113.5q-23 12 -74 35t-122 23q-23 0 -52.5 -4t-65.5 -17.5t-73 -38 t-73 -65.5q-18 -23 -41 -58.5t-42.5 -83t-33 -109t-13.5 -134.5z" />
<glyph unicode="R" horiz-adv-x="1323" d="M166 0v1446h592q25 0 70.5 -4t100 -20.5t112 -52.5t106.5 -99q31 -41 49 -84t26.5 -81t10.5 -68.5t2 -49.5q0 -16 -4 -63t-23 -99q-8 -23 -26.5 -55.5t-49 -66t-75.5 -64.5t-107 -49l322 -590h-309l-285 537h-244v-537h-268zM434 762h96q119 0 196 4t126 31 q14 8 33.5 22.5t36 38t28 56t11.5 75.5q0 14 -2.5 36t-11.5 46.5t-26.5 50t-50.5 47.5q-35 23 -83 33t-134 10h-219v-450z" />
<glyph unicode="S" horiz-adv-x="1366" d="M47 272l227 158q25 -35 60 -74t88 -70.5t127 -52t174 -20.5q10 0 42 1t64 9q12 2 40 11.5t57.5 30t52 54t22.5 84.5q0 10 -4 36t-22 50q-18 25 -50 41.5t-68 27.5t-71.5 18.5t-62.5 13.5l-172 39q-55 12 -112.5 26.5t-106.5 40.5q-25 12 -60.5 38t-68.5 66t-55.5 97 t-22.5 135q0 25 8 86.5t47 126.5q25 41 68 84t105.5 77t147.5 55.5t195 21.5q49 0 118 -7.5t147.5 -37t160.5 -88t158 -160.5l-223 -166q-16 27 -45 63.5t-74 70.5t-107.5 57.5t-148.5 23.5q-6 0 -38 -1t-73 -11t-81.5 -33t-63.5 -66q-16 -31 -16 -65q0 -35 18 -66 q27 -45 87 -64.5t161 -41.5l149 -33q51 -12 104.5 -26.5t103.5 -35t95.5 -50t81.5 -72.5q31 -35 57.5 -89.5t26.5 -154.5q0 -98 -32.5 -175t-108.5 -142q-66 -55 -138.5 -86t-139 -44.5t-118.5 -16.5t-77 -3q-33 0 -96.5 4t-142.5 24.5t-163.5 63.5t-160.5 123 q-18 20 -37 45t-33 49z" />
<glyph unicode="T" d="M45 1202v244h1063v-244h-399v-1202h-271v1202h-393z" />
<glyph unicode="U" horiz-adv-x="1492" d="M164 485v101v860h272v-889q0 -66 2 -96.5t13 -63.5q10 -33 30.5 -63.5t55 -55t87 -39t124.5 -14.5q12 0 51 2t85 17.5t90 49.5t66 95q12 35 15.5 73t3.5 109v875h270v-834v-107t-2 -83t-7 -66.5t-15 -60.5q-18 -55 -59.5 -113.5t-110 -106.5t-167 -80t-231.5 -32 q-129 0 -248.5 37t-209.5 135q-14 14 -44 55t-49 101q-8 27 -13 55.5t-7 62t-2 76.5z" />
<glyph unicode="V" horiz-adv-x="1236" d="M16 1446h285l324 -1141l315 1141h279l-412 -1446h-365z" />
<glyph unicode="W" horiz-adv-x="1705" d="M25 1446h276l197 -1102l225 1102h252l229 -1102l203 1102h279l-318 -1446h-315l-203 1006l-209 -1006h-315z" />
<glyph unicode="X" horiz-adv-x="1323" d="M18 0l486 784l-416 662h311l263 -414l251 414h314l-408 -662l490 -784h-310l-337 535l-330 -535h-314z" />
<glyph unicode="Y" horiz-adv-x="1280" d="M20 1446h308l313 -598l315 598h304l-488 -875v-571h-268v571z" />
<glyph unicode="Z" horiz-adv-x="1236" d="M49 0v221l791 983h-723v242h1061v-229l-760 -973h760v-244h-1129z" />
<glyph unicode="[" horiz-adv-x="583" d="M121 -295v1890h420v-149h-199v-1593h199v-148h-420z" />
<glyph unicode="\" horiz-adv-x="980" d="M27 1446h243l686 -1446h-243z" />
<glyph unicode="]" horiz-adv-x="583" d="M41 -145h199v1593h-199v147h420v-1890h-420v150z" />
<glyph unicode="^" horiz-adv-x="1482" d="M188 582l428 864h258l422 -864h-268l-278 630l-283 -630h-279z" />
<glyph unicode="_" horiz-adv-x="1024" d="M-20 -266h1064v-189h-1064v189z" />
<glyph unicode="`" horiz-adv-x="555" d="M72 1446h305l106 -272h-182z" />
<glyph unicode="a" horiz-adv-x="1110" d="M53 285v12q0 20 4 52t18.5 67t42 70.5t75.5 66.5q63 43 124.5 58.5t133.5 29.5q57 12 97 20.5t71.5 15.5t58.5 15t55 19q0 20 -2 42.5t-12 41.5q-16 29 -55 49t-107 20q-72 0 -116 -18.5t-64 -44.5q-23 -27 -25 -53.5t-2 -36.5l-250 14q0 16 4.5 44t14.5 59.5t32.5 66.5 t59.5 66q47 39 126 66.5t212 27.5q127 0 204.5 -22.5t125.5 -57.5q33 -23 50 -46.5t23 -35.5q20 -41 23.5 -90t3.5 -92v-545q0 -29 1 -49.5t6 -38t13.5 -35.5t24.5 -43h-291l-6 80q-29 -25 -53.5 -38t-40.5 -19q-51 -23 -100.5 -35.5t-106.5 -12.5q-18 0 -58 3.5t-88.5 18.5 t-97.5 47t-84 89q-12 19 -30 61q-15 35 -15 85v6zM313 307q0 -47 38 -84t130 -37q51 0 91 11.5t70 29t49.5 38t27.5 38.5q12 25 13 47.5t1 46.5v113q-31 -16 -75 -30.5t-119 -26.5q-41 -8 -84 -14.5t-82 -28.5q-27 -16 -43.5 -42t-16.5 -61z" />
<glyph unicode="b" horiz-adv-x="1193" d="M131 0v1446h244l2 -508q8 8 16 15.5t17 13.5q39 29 77.5 46t73.5 26.5t63.5 12.5t45.5 3q23 0 56.5 -4t73.5 -18.5t83 -39t84 -67.5q23 -25 49 -61t50 -86t39 -115.5t15 -145.5q0 -72 -15 -143.5t-46 -136t-78 -118.5t-113 -91q-68 -39 -126 -49.5t-87 -10.5 q-41 0 -102 15.5t-133 76.5q-25 20 -45 45v-106h-244zM373 530q0 -37 4 -75.5t15 -75.5t31.5 -70t53.5 -57q16 -10 53 -29.5t93 -19.5q14 0 36.5 3t49 14t52 30.5t48.5 54.5q20 31 31.5 66t17.5 65.5t8 54t2 31.5v33t-6 51.5t-17 60t-32 60.5q-35 49 -88 76.5t-113 27.5 q-96 0 -159 -67q-31 -31 -47.5 -66.5t-23.5 -68.5t-8 -59.5t-1 -39.5z" />
<glyph unicode="c" horiz-adv-x="1058" d="M49 512q0 94 26.5 182t84.5 162q18 25 52 58.5t84 65.5t117.5 53.5t153.5 21.5q100 0 191 -37q23 -10 54.5 -28.5t67 -49.5t69.5 -74t59 -102l-220 -102q-12 41 -31.5 67.5t-29.5 36.5q-23 23 -61.5 46.5t-110.5 23.5q-109 0 -176 -80q-29 -33 -44.5 -70t-22.5 -69.5 t-8 -59.5t-1 -39q0 -41 5 -68.5t9 -43.5q23 -90 84.5 -148.5t159.5 -58.5q66 0 111 24.5t72.5 58t43 67.5t21.5 50l209 -110q-12 -33 -27.5 -64.5t-38.5 -60.5q-70 -94 -175 -144.5t-222 -50.5q-29 0 -86 8.5t-127 38.5q-102 47 -160.5 118t-88.5 144.5t-37 137t-7 96.5z " />
<glyph unicode="d" horiz-adv-x="1193" d="M74 492q0 117 28.5 206.5t71.5 154.5t93 105.5t93 61.5q25 10 69 22.5t110 12.5q27 0 77 -6.5t109 -38.5q10 -6 21.5 -12.5t29.5 -20.5q14 -10 23.5 -21.5t13.5 -15.5v506h244v-1446h-244v98q-8 -8 -14 -16t-15 -16q-29 -29 -92 -63t-164 -34q-27 0 -78 7.5t-112 35.5 q-41 18 -88 54t-86 93.5t-64.5 139.5t-25.5 193zM330 518q0 -57 12 -114.5t42 -104.5t76 -76.5t113 -29.5q98 0 160 69q47 52 63 114q15 55 15 117v15q0 49 -9 106.5t-36 104.5q-10 16 -24.5 34.5t-28.5 28.5q-31 25 -65 35t-73 10q-16 0 -51 -6t-73 -30q-43 -29 -68 -71 t-37 -83t-14 -74t-2 -45z" />
<glyph unicode="e" d="M70 518q0 66 10 126.5t35 119.5q16 39 50 89t90 95t137 76t192 31q86 0 152.5 -19.5t115.5 -49.5t82 -64.5t53 -63.5q35 -53 65.5 -149.5t34.5 -245.5h-757q4 -23 15 -66t50 -90q12 -16 31.5 -33.5t46.5 -32t62.5 -23.5t82.5 -9q94 0 151.5 33.5t82.5 60.5q12 12 35 47 l209 -121q-12 -16 -35 -43.5t-60 -62.5q-23 -20 -58.5 -47t-86.5 -50.5t-115.5 -40t-144.5 -16.5q-25 0 -66 3t-90 17.5t-104 41t-107 75.5q-88 84 -123.5 187.5t-35.5 224.5zM338 643h479q0 14 -4 29q-6 25 -16 55q-8 18 -23.5 41t-40 43t-60.5 33.5t-85 13.5 q-41 0 -63.5 -6t-39.5 -12q-43 -18 -70.5 -46t-44 -57.5t-23.5 -55.5t-9 -38z" />
<glyph unicode="f" horiz-adv-x="641" d="M8 850v174h154v119v44t6 75q14 88 87 137t237 49q35 0 69.5 -3t69.5 -7v-209q-4 2 -30 4t-48 2q-55 0 -85 -14.5t-43 -37t-15 -49t-2 -51.5v-59h223v-174h-223v-850h-246v850h-154z" />
<glyph unicode="g" horiz-adv-x="1193" d="M70 547q0 25 4 88t30 131q53 135 168 212t260 77q12 0 37 -2t53.5 -8.5t62.5 -19.5t65 -36q29 -20 47 -41.5t24 -32.5v109h244v-842q0 -45 1 -93v-16q0 -40 -4 -80q-5 -48 -19.5 -94t-43.5 -85q-47 -66 -150.5 -111t-277.5 -45q-172 0 -265 43t-140 111 q-18 29 -32.5 65.5t-31.5 102.5l271 -3q4 -16 9 -26t15 -25q20 -29 49 -44t56.5 -22t50 -8.5t29.5 -1.5q92 0 142 30t71 67q20 39 23 87t3 134q-43 -39 -89 -60.5t-89 -33t-78 -13.5t-53 -2q-47 0 -95 8.5t-91 28.5q-41 18 -86 51t-83 86.5t-62.5 131t-24.5 182.5zM322 553 q0 -12 1 -33.5t7 -48.5t19 -56.5t38 -56.5q8 -8 24.5 -22t41.5 -27q16 -8 45.5 -17t76.5 -9q74 0 117 23.5t66 45.5q27 27 41 55.5t20 55t7 48.5t1 34q0 43 -5 70.5t-11 43.5q-6 20 -20.5 51t-42 59t-70.5 47.5t-105 19.5q-27 0 -80 -12.5t-102 -65.5q-27 -29 -41 -60.5 t-20 -59.5t-7 -50.5t-1 -34.5z" />
<glyph unicode="h" horiz-adv-x="1193" d="M129 0v1446h246v-526q16 16 36.5 34.5t61.5 40.5q29 16 84 38t141 22t169 -32t134 -103q47 -68 55.5 -138.5t8.5 -148.5v-633h-242v563q0 61 -7 115.5t-58 99.5q-16 14 -46 28.5t-81 14.5q-123 0 -203 -98q-33 -39 -45 -86q-6 -23 -7 -43.5t-1 -44.5v-549h-246z" />
<glyph unicode="i" horiz-adv-x="512" d="M133 0v1024h244v-1024h-244zM133 1184v248h244v-248h-244z" />
<glyph unicode="j" horiz-adv-x="512" d="M2 -106q8 2 38 5t56 19q35 23 38 55.5t3 98.5v952h242v-1108v-29.5t-5 -43t-16.5 -49t-35.5 -48.5q-31 -29 -96.5 -54.5t-166.5 -25.5q-16 0 -29.5 1t-27.5 3v224zM137 1186v250h242v-250h-242z" />
<glyph unicode="k" horiz-adv-x="1110" d="M131 0v1446h244v-813l399 391h313l-391 -391l430 -633h-299l-309 459l-143 -142v-317h-244z" />
<glyph unicode="l" horiz-adv-x="512" d="M133 0v1446h250v-1446h-250z" />
<glyph unicode="m" horiz-adv-x="1792" d="M129 0v1024h246l2 -115q12 16 18 23.5t15 13.5q12 12 38.5 30.5t64.5 36t85 30t100 12.5q88 0 165 -39t120 -117q14 16 33.5 37.5t60.5 50.5q33 23 88.5 45.5t147.5 22.5q117 0 211 -53.5t127 -174.5q10 -35 12 -72.5t2 -107.5v-647h-244v627q0 14 -4 47t-20.5 66.5 t-51 59t-96.5 25.5q-14 0 -36.5 -4t-48 -14t-51.5 -31.5t-46 -54.5q-35 -55 -42 -116.5t-7 -123.5v-481h-244v573q0 16 -1 34t-1 34t-7 60t-48 83q-31 29 -63.5 34t-47.5 5q-18 0 -54 -8t-75 -41q-37 -33 -58.5 -74t-30.5 -87t-11 -93t-2 -90v-430h-246z" />
<glyph unicode="n" d="M129 0v1024h248v-121q4 4 16.5 20.5t28.5 32.5q37 33 78 53.5t79.5 30t69.5 12.5t43 3q57 0 102.5 -13.5t79 -32t56 -40t35.5 -39.5q25 -35 37 -76t17 -84t5 -86v-82v-602h-242v522q0 59 -1 94t-9 64q-10 45 -31.5 71.5t-46 41t-49 18.5t-43.5 4q-20 0 -55 -7t-74 -40 q-55 -47 -75.5 -118.5t-20.5 -205.5v-444h-248z" />
<glyph unicode="o" horiz-adv-x="1193" d="M72 516q0 84 17 142.5t28 86.5q16 39 50 92.5t91 101.5t140 82t198 34q29 0 91.5 -7.5t133.5 -39.5q41 -18 93.5 -54t98.5 -94.5t78.5 -143.5t32.5 -200q0 -29 -6 -93.5t-35 -135.5q-16 -39 -50 -93.5t-91 -104.5t-140 -85t-198 -35q-33 0 -94 6.5t-137 40.5 q-41 18 -92.5 55.5t-98.5 96.5t-78.5 145t-31.5 203zM328 522q0 -37 4 -70.5t16 -68.5q6 -18 23.5 -50t48.5 -62.5t76 -53t108 -22.5q70 0 121 27.5t84 73.5t47 104q12 51 12 105v15q-2 59 -19.5 115.5t-52 100.5t-86 71t-118.5 27q-16 0 -57 -6.5t-82 -32.5 q-20 -12 -42 -35t-40.5 -56.5t-30.5 -78.5t-12 -103z" />
<glyph unicode="p" horiz-adv-x="1193" d="M131 -334v1358h246v-92q14 16 38.5 37.5t58.5 40t79 32t104 13.5q25 0 63 -4t82 -19.5t92 -45.5t91 -81q20 -25 44 -61.5t44.5 -86.5t34.5 -113.5t14 -139.5q0 -20 -2 -58t-12 -84.5t-30.5 -99.5t-57.5 -104q-45 -63 -97.5 -101.5t-101.5 -57.5t-93 -24.5t-73 -5.5 q-23 0 -53.5 3t-67 15.5t-76.5 35t-81 61.5v-418h-246zM373 518q0 -66 14 -121q23 -86 84 -140t154 -54q33 0 65.5 9t61.5 28q45 29 81.5 94t36.5 182q0 14 -2 52t-16 79q-27 76 -89.5 124t-144.5 48q-47 0 -78.5 -13t-47.5 -24q-41 -29 -78 -89t-41 -175z" />
<glyph unicode="q" d="M51 502q0 29 5 88t28 131q23 70 64.5 131t97 106.5t123 71t145.5 25.5q61 0 122.5 -20.5t108.5 -61.5q16 -16 26.5 -27.5t25.5 -30.5v109h243v-1358h-243l-2 430q-18 -18 -43 -40.5t-60 -41t-81 -32t-107 -13.5q-25 0 -63 3t-82 17.5t-91 43t-90 80.5q-23 25 -45 60.5 t-40.5 82.5t-30 107.5t-11.5 138.5zM303 504q0 -57 13.5 -112.5t43 -99.5t76.5 -70.5t115 -26.5q18 0 58 7t81 38q41 29 75 94q32 61 32 164v12q0 53 -11.5 103.5t-40.5 93.5q-8 10 -22 29.5t-41 37.5q-16 12 -49 26.5t-84 14.5q-16 0 -54 -6t-79 -35t-77 -93.5t-36 -176.5z " />
<glyph unicode="r" horiz-adv-x="724" d="M131 0v1024h238v-145q12 23 27.5 45t33.5 39q31 31 69 47t72.5 24t63.5 10.5t39 2.5h20v-252q-18 0 -60 -3.5t-90 -20.5t-91 -56t-66 -109q-14 -43 -16 -83t-2 -85v-438h-238z" />
<glyph unicode="s" horiz-adv-x="1067" d="M45 154l184 149q6 -8 16.5 -21.5t30.5 -29.5q33 -29 72 -45.5t75 -23.5t63.5 -9t37.5 -2q47 0 95.5 13.5t78.5 47.5q27 27 27 60q0 6 -3 17.5t-13 25.5q-20 29 -49 36t-87 19q-51 10 -101 18.5t-99 20.5q-16 4 -62.5 19.5t-95.5 48t-87 86t-38 137.5q0 59 18.5 100 t28.5 58q18 31 51 61.5t81 56t112.5 42t148.5 16.5q31 0 81.5 -5.5t111.5 -23.5t125.5 -56t122.5 -106l-174 -162q-16 33 -34 52.5t-30 29.5q-47 41 -99 57.5t-116 16.5q-8 0 -49 -4t-76 -27q-29 -18 -37 -39.5t-8 -35.5q2 -27 15.5 -43.5t17.5 -20.5q20 -16 67.5 -28.5 t108.5 -22.5q41 -8 83 -14.5t83 -16.5t84 -24.5t78 -38.5q14 -10 33.5 -28.5t37 -46.5t29.5 -65t12 -84q0 -74 -34 -139q-18 -35 -52 -72.5t-86.5 -68.5t-123 -50.5t-164.5 -19.5q-72 0 -133.5 11.5t-111.5 27t-87 33.5t-62 33q-53 33 -98 80z" />
<glyph unicode="t" horiz-adv-x="641" d="M8 850v174h150v365h245v-365h220v-174h-220v-465v-36.5t1.5 -42t6.5 -41t17 -32.5q10 -12 25.5 -18t30 -9t25.5 -3h13q53 0 101 12v-207q-25 -4 -69 -10t-108 -6q-102 0 -158.5 22.5t-86.5 59.5q-16 18 -22.5 34.5t-8.5 24.5q-8 25 -10 76t-2 119v522h-150z" />
<glyph unicode="u" horiz-adv-x="1193" d="M127 434v590h248v-553q0 -31 1 -64.5t8 -65.5t23.5 -58.5t49.5 -44.5q25 -16 57.5 -23.5t60.5 -7.5q45 0 79 12t57.5 30.5t39 38t23.5 34.5q14 29 22.5 63.5t12.5 69t4 69.5v66v434h246v-1024h-246l-2 104q-18 -18 -48 -39.5t-70 -42t-92 -34t-120 -13.5q-63 0 -111 12.5 t-84 32t-60.5 44t-39.5 47.5q-49 72 -54 155.5t-5 167.5z" />
<glyph unicode="v" horiz-adv-x="980" d="M27 1024h254l213 -705l208 705h256l-337 -1024h-263z" />
<glyph unicode="w" horiz-adv-x="1536" d="M35 1024h256l178 -700l190 700h220l188 -700l182 700h256l-307 -1024h-244l-184 653l-195 -653h-243z" />
<glyph unicode="x" horiz-adv-x="1024" d="M18 0l353 549l-312 475h289l168 -258l162 258h293l-309 -475l350 -549h-283l-213 324l-205 -324h-293z" />
<glyph unicode="y" horiz-adv-x="980" d="M25 1024h264l229 -764l193 764h252l-261 -893q-14 -47 -31.5 -108.5t-40 -121t-50 -111.5t-64.5 -81q-47 -39 -98 -50t-111 -11q-59 0 -88 4t-57 10v213q39 -5 70 -5q27 0 48 4q44 9 72 32q23 23 31 43t12 31z" />
<glyph unicode="z" horiz-adv-x="1024" d="M63 0v188l553 617h-497v219h821v-190l-541 -617h541v-217h-877z" />
<glyph unicode="{" horiz-adv-x="614" d="M29 573v154q47 4 69.5 9t44.5 20q35 23 48.5 60.5t13.5 127.5l-2 316v12v59.5t2 43t5 33.5t7 34q14 53 45 88q35 41 83 56.5t136 15.5h107l2 -148h-35q-68 0 -96 -31q-16 -25 -23 -45q-6 -23 -7 -48t-1 -97v-307q0 -63 -7 -107.5t-26.5 -76t-52.5 -53t-82 -42.5 q35 -10 53.5 -19.5t40.5 -29.5q41 -35 57.5 -83t16.5 -140v-309v-58.5t1 -39t2 -26t5 -20.5q23 -78 125 -78h29v-147h-107q-90 0 -138 15.5t-83 56.5q-33 39 -45 88q-4 18 -7 33.5t-5 35t-2 44v59.5v10l2 317q0 61 -6 94t-17 54q-18 33 -53 48t-100 21z" />
<glyph unicode="|" horiz-adv-x="505" d="M139 -293v1888h223v-1888h-223z" />
<glyph unicode="}" horiz-adv-x="614" d="M25 -156l34 -2q35 -2 56.5 7.5t38.5 25.5q18 23 24 45q6 23 7 48.5t1 97.5v307q0 63 7.5 107t27 75t52 53.5t81.5 42.5q-35 10 -54 18.5t-42 28.5q-41 37 -56.5 85t-15.5 141v309v57.5t-2 37.5t-4 26.5t-4 21.5q-18 78 -123 78h-28v148h106q90 0 137 -16.5t82 -55.5 q35 -41 47 -88q8 -35 11.5 -69t3.5 -103v-10l-2 -318q0 -61 4 -94t16 -55q16 -31 53 -46.5t103 -21.5v-154q-47 -4 -69.5 -9t-45.5 -19q-35 -23 -48 -61t-13 -128l2 -315v-12q0 -70 -3 -104t-12 -66q-12 -51 -47 -88q-35 -41 -82 -56.5t-135 -15.5h-108v147z" />
<glyph unicode="~" horiz-adv-x="1482" d="M147 651q39 51 59.5 76t49.5 49q92 80 215 80q27 0 51.5 -3t54 -12.5t66.5 -24.5t88 -38l105 -47q70 -33 101.5 -42t59.5 -9q35 0 71 12.5t65 34.5q14 10 26 19.5t24.5 21.5t27 29.5t34.5 42.5l92 -205q-47 -59 -77.5 -87t-71.5 -56q-92 -59 -189 -60q-49 0 -102 16.5 t-145 61.5l-72 35q-72 35 -120 48t-93 13q-37 0 -68 -12q-35 -14 -62.5 -40t-78.5 -85l-20 -25z" />
<glyph unicode="&#xa1;" horiz-adv-x="512" d="M82 0v555l78 532h114l76 -532v-555h-268zM82 1163v283h268v-283h-268z" />
<glyph unicode="&#xa2;" horiz-adv-x="1024" d="M45 522q0 94 24.5 182.5t78 161t135.5 125.5t198 78v203h160v-203q84 -10 143.5 -41t101.5 -73t69.5 -87t48.5 -82l-218 -102q-23 55 -52 92t-52 53q-14 10 -45 17v-631q47 12 77.5 40t49 57.5t28 56t11.5 37.5l209 -113q-14 -35 -26.5 -61.5t-35.5 -61.5 q-33 -49 -70.5 -81t-72.5 -52.5t-63.5 -30.5t-45.5 -14q-16 -4 -29.5 -5t-29.5 -5v-203h-160v203q-102 14 -174 54t-120 93t-76.5 113.5t-42 116t-17.5 99.5t-4 64zM297 532q0 -37 6 -84t25.5 -91t54.5 -80.5t94 -53.5v625q-16 -8 -33.5 -17.5t-31.5 -21.5 q-39 -31 -61.5 -65.5t-35 -70.5t-15.5 -72t-3 -69z" />
<glyph unicode="&#xa3;" horiz-adv-x="1280" d="M100 217q0 12 4.5 47t24.5 70q29 53 85 79.5t116 26.5q23 0 60.5 -6t88.5 -22q6 20 6 32t-5 39t-25 56q-6 8 -12.5 13t-14.5 11h-266v217h164q-23 29 -54.5 90.5t-31.5 157.5q0 57 12 102.5t30.5 79t40 57t39.5 38.5q20 16 52 36.5t75 39t98.5 30.5t121.5 12q29 0 92 -8 t137 -43q66 -31 109 -74t68.5 -96t35.5 -115.5t10 -132.5v-32.5t-2 -32.5h-266q4 14 7 34.5t3 51.5q0 49 -14 90q-23 59 -75 94t-114 35q-12 0 -32.5 -2t-49.5 -14q-14 -6 -32.5 -19.5t-36 -34t-28.5 -50.5t-11 -70q0 -41 13.5 -79t30.5 -67t33.5 -49.5t22.5 -28.5h252v-217 h-160q8 -57 10.5 -85.5t2.5 -61.5q0 -37 -2 -61.5t-11 -61.5q31 -23 66 -41.5t76 -18.5q39 0 63 27q35 35 40 80t5 86v49h265q0 -16 -1.5 -56t-7.5 -89q0 -6 -6 -39t-20.5 -76t-38 -89t-58.5 -79q-23 -20 -66.5 -41.5t-115.5 -21.5q-55 0 -100 14t-60 18q-35 14 -67.5 30.5 t-65.5 33.5q-66 -37 -126 -66.5t-138 -29.5q-14 0 -46 3t-67 19q-66 29 -99.5 86.5t-33.5 124.5zM295 205q0 -10 13.5 -27.5t43.5 -15.5q16 0 39 10t39 45q-27 20 -44 27.5t-36 7.5q-31 0 -43 -17.5t-12 -29.5z" />
<glyph unicode="&#xa4;" horiz-adv-x="1363" d="M63 221l160 158q-53 76 -76.5 149.5t-23.5 165.5t22.5 163t77.5 153l-157 155l143 144l158 -156q74 53 149.5 76.5t167.5 23.5q88 0 162 -23.5t149 -76.5l160 158l145 -146l-159 -157q55 -88 76.5 -158t21.5 -156q0 -88 -23.5 -160.5t-76.5 -156.5l159 -160l-145 -143 l-160 159q-47 -29 -85 -47t-73.5 -28.5t-72.5 -15.5t-82 -5q-90 0 -160.5 21.5t-152.5 77.5l-160 -158zM346 696q0 -72 25.5 -134t71.5 -108t108.5 -72t134.5 -26q70 0 130.5 26t105.5 71t70.5 106t25.5 131q0 74 -25.5 136.5t-70.5 108.5t-106.5 72.5t-133.5 26.5 t-133.5 -25.5t-106.5 -71.5t-70.5 -107.5t-25.5 -133.5z" />
<glyph unicode="&#xa5;" horiz-adv-x="1236" d="M6 1405h305l305 -584l314 584h301l-297 -524h172v-203h-291l-70 -125h361v-203h-361v-350h-264v350h-362v203h360l-63 125h-297v203h182z" />
<glyph unicode="&#xa6;" horiz-adv-x="505" d="M141 -295v821h224v-821h-224zM141 770v823h224v-823h-224z" />
<glyph unicode="&#xa7;" horiz-adv-x="1323" d="M88 770q0 55 17.5 100t47 82t68.5 67t84 56q-39 35 -59.5 81t-20.5 99q0 80 37 136.5t93.5 93.5t127 53t138.5 16q127 0 253.5 -35.5t231.5 -101.5l-115 -172q-82 37 -167 71t-177 34q-16 0 -40.5 -2t-48 -10.5t-41 -21.5t-17.5 -34q0 -23 13 -38t31.5 -27.5t39 -21.5 t37.5 -15l190 -82q70 -31 145.5 -67t138 -85t102.5 -114.5t40 -155.5q0 -111 -60.5 -196t-158.5 -132q39 -41 61.5 -85t22.5 -103q0 -80 -39 -135.5t-98.5 -90t-131 -51t-137.5 -16.5q-63 0 -131.5 11t-135.5 31.5t-129 50.5t-114 69l119 168q86 -55 182.5 -90t200.5 -35 q20 0 45 4t45.5 13t34.5 25.5t14 43.5q0 35 -54 66.5t-137 66.5t-178.5 76t-178 97t-137 131t-54.5 175zM348 811q0 -37 16.5 -64.5t42 -48t56.5 -36t59 -27.5q29 -14 57.5 -26.5t57.5 -24.5q59 -29 117.5 -56.5t117.5 -56.5q37 29 64 71t27 89q0 53 -27 88 q-27 37 -87.5 71.5t-131 65.5t-138 56.5t-110.5 43.5q-47 -16 -84 -53t-37 -92z" />
<glyph unicode="&#xa8;" horiz-adv-x="555" d="M-45 1202v244h231v-244h-231zM365 1202v244h235v-244h-235z" />
<glyph unicode="&#xa9;" horiz-adv-x="1675" d="M109 723q0 152 57 285t155.5 231t231.5 155.5t287 57.5q150 0 281.5 -56.5t231 -153.5t157 -227.5t57.5 -277.5q0 -160 -55.5 -295t-153.5 -235.5t-232.5 -156.5t-289.5 -56q-152 0 -284 57.5t-230.5 155.5t-155.5 231t-57 285zM193 721q0 -137 50 -256t137 -207 t204.5 -138t253.5 -50q131 0 248.5 51t206.5 138t140.5 203t51.5 247q0 143 -49.5 265t-136.5 211t-205.5 140t-255.5 51q-133 0 -251 -51t-206 -140t-138 -209t-50 -255zM424 719q0 102 31.5 190t88 151.5t134.5 99.5t168 36q109 0 184.5 -38t159.5 -132l-129 -133 q-59 70 -105.5 95.5t-105.5 25.5q-100 0 -160.5 -80t-60.5 -213q0 -135 59.5 -213t159.5 -78q66 0 113 25.5t100 89.5l129 -129q-84 -94 -162 -133t-182 -39q-94 0 -172 34.5t-133.5 97t-86 149.5t-30.5 194z" />
<glyph unicode="&#xaa;" horiz-adv-x="681" d="M80 1044q0 47 18.5 79t38.5 48q25 20 68 34t91 24t91 18t68 19v10q0 35 -20.5 55.5t-76.5 20.5q-63 0 -85.5 -22.5t-22.5 -61.5l-144 10q0 4 6.5 36t24.5 58q29 41 81 64.5t132 25.5q20 0 52 -3t65 -12t62.5 -26.5t48.5 -48.5q6 -10 11 -28.5t5 -43.5v-337q0 -29 4 -45.5 t20 -45.5h-141q-4 14 -8 22.5t-6 23.5q-59 -41 -109.5 -49.5t-72.5 -8.5q-39 0 -75 12.5t-63.5 35t-45 57t-17.5 79.5zM229 1044q0 -27 20.5 -43t61.5 -16l23 1q22 1 48 10.5t47.5 30t21.5 58.5v62q-27 -8 -47.5 -13.5t-47.5 -11.5q-23 -4 -42 -7t-42 -13 q-10 -4 -26.5 -17.5t-16.5 -40.5z" />
<glyph unicode="&#xab;" horiz-adv-x="894" d="M121 500v288l291 230v-230l-181 -147l181 -141v-228zM492 500v288l292 234v-234l-176 -145l176 -143v-230z" />
<glyph unicode="&#xac;" horiz-adv-x="1482" d="M141 528v224h1159v-719h-266v495h-893z" />
<glyph unicode="&#xad;" horiz-adv-x="761" d="M84 506v231h592v-231h-592z" />
<glyph unicode="&#xae;" horiz-adv-x="1693" d="M119 723q0 152 57 285t155.5 231t231.5 155.5t285 57.5q150 0 283 -56.5t232 -153.5t156.5 -227.5t57.5 -277.5q0 -160 -55.5 -295t-153.5 -235.5t-232.5 -156.5t-289.5 -56q-152 0 -284 57.5t-230.5 155.5t-155.5 231t-57 285zM201 721q0 -135 50 -254t138 -207 t205 -139t252 -51q133 0 250.5 51t207 138t140.5 204t51 248q0 141 -49 263t-136 211t-206 140t-258 51q-133 0 -251 -51t-206 -140t-138 -209t-50 -255zM539 274v914h301q55 0 114.5 -6t106.5 -35q57 -35 90 -101.5t33 -146.5q0 -88 -36 -145.5t-120 -100.5l160 -379h-209 l-129 347h-119l-2 -347h-190zM729 780h119q76 0 109.5 29t33.5 90q0 117 -137 117h-125v-236z" />
<glyph unicode="&#xaf;" horiz-adv-x="555" d="M-72 1200v184h699v-184h-699z" />
<glyph unicode="&#xb0;" horiz-adv-x="724" d="M10 1192q0 74 28 138.5t75 112.5t111.5 75.5t137.5 27.5q74 0 138.5 -27.5t111.5 -75.5t75 -112.5t28 -138.5q0 -72 -28 -136.5t-76 -112.5t-112.5 -75.5t-136.5 -27.5t-136 27.5t-112 75.5t-76 112.5t-28 136.5zM215 1192q0 -59 44 -103.5t103 -44.5t103.5 44.5 t44.5 103.5q0 61 -44 103t-104 42q-61 0 -104 -42t-43 -103z" />
<glyph unicode="&#xb1;" horiz-adv-x="1482" d="M190 0v219h1102v-219h-1102zM190 748v219h418v407h266v-407h418v-219h-418v-416h-266v416h-418z" />
<glyph unicode="&#xb2;" horiz-adv-x="768" d="M70 1042q2 14 4 46t11 71t26.5 80t50.5 76t84 57.5t127 22.5q61 0 116.5 -16.5t95.5 -51.5t64.5 -86t24.5 -119q2 -80 -28 -145.5t-80 -124.5t-116.5 -114.5t-140.5 -114.5h383v-146h-618v135q25 16 44 30.5t42 31.5q100 78 173 154.5t101 121.5q35 53 42 96.5t7 61.5 q0 37 -11 61.5t-27.5 39t-36 20.5t-35.5 6q-49 0 -74 -22.5t-35 -55.5t-12 -68.5t-4 -60.5z" />
<glyph unicode="&#xb3;" horiz-adv-x="768" d="M43 778h178q0 -10 3 -36.5t15.5 -55.5t40 -51.5t80.5 -24.5q63 -4 102.5 35t43.5 103q2 49 -19.5 76.5t-49 41t-54.5 15.5t-35 2h-51v145h55h23.5t46 8t45 29.5t20.5 62.5q0 39 -14 60.5t-34.5 33t-40 14.5t-29.5 3q-37 0 -60.5 -13.5t-37 -35t-20.5 -48t-11 -52.5 l-174 38q2 10 12 51.5t37 82.5q51 78 124.5 105.5t139.5 27.5q98 2 159.5 -35t94.5 -86q18 -29 27.5 -62.5t9.5 -64.5q0 -6 -1 -24.5t-9.5 -42t-27 -49t-50.5 -46.5q-14 -10 -29.5 -15t-30.5 -9q27 -10 55.5 -22.5t53 -36t41 -60.5t16.5 -92q0 -72 -26.5 -126.5t-71.5 -90 t-102.5 -54t-120.5 -18.5q-39 0 -83 7t-86 27.5t-78 54.5t-57 87q-16 39 -18 70.5t-2 70.5z" />
<glyph unicode="&#xb4;" horiz-adv-x="555" d="M74 1174l102 272h305l-221 -272h-186z" />
<glyph unicode="&#xb5;" horiz-adv-x="1222" d="M154 -442v1464h252v-473q0 -61 2 -106.5t6 -77t12 -54t20 -41.5q23 -35 64 -56t88 -21q96 0 148.5 79.5t52.5 225.5v94v430h250v-713q0 -72 14 -99.5t55 -27.5q14 0 24.5 3t33.5 14v-201q-72 -18 -136 -18q-92 0 -145 45q-25 18 -37 40.5t-31 75.5q-41 -90 -92 -125.5 t-137 -35.5q-72 0 -118 27.5t-87 90.5l6 -540h-245z" />
<glyph unicode="&#xb6;" horiz-adv-x="1310" d="M145 1028q0 92 31 170t90 135q55 51 129 80q47 18 95.5 25.5t132.5 7.5h477v-143h-72v-1645h-151v1645h-263v-1645h-151v979q-39 8 -54.5 12t-35.5 13q-106 41 -167 139t-61 227z" />
<glyph unicode="&#xb7;" horiz-adv-x="448" d="M88 444v299h272v-299h-272z" />
<glyph unicode="&#xb8;" horiz-adv-x="555" d="M72 -188l204 213h93l-93 -119q45 4 87.5 -8.5t52.5 -16.5q31 -16 49 -43.5t18 -62.5q0 -31 -11 -50.5t-17 -27.5q-35 -41 -105.5 -59.5t-183.5 -18.5h-42.5t-41.5 2l2 64q4 0 9 -2t16 0q16 -2 48.5 1t47.5 7q4 2 23.5 11t19.5 34q-2 35 -42 42t-93 7q-10 0 -20.5 -1 t-20.5 -3v31z" />
<glyph unicode="&#xb9;" horiz-adv-x="768" d="M131 1096v121l43 2q18 0 50 3t65 19t59.5 51t32.5 101h145v-916h-174v527q0 23 1 40t-7 27t-27.5 16.5t-58.5 6.5z" />
<glyph unicode="&#xba;" horiz-adv-x="681" d="M49 1155q0 61 20.5 117.5t57.5 97.5t90 66.5t121 25.5q70 2 124 -22.5t93 -66.5t58.5 -99.5t19.5 -120.5q0 -49 -17 -104q-10 -31 -31.5 -67t-55 -64.5t-81 -48t-110.5 -19.5q-68 0 -121 24.5t-90 66.5t-57.5 97.5t-20.5 116.5zM199 1157q0 -16 2 -32.5t6 -32.5 q4 -14 12 -34t24.5 -37t40 -29.5t58.5 -12.5q25 0 51.5 10t47 31.5t33.5 56.5t13 84q0 27 -7 56.5t-22.5 55t-42 43t-65.5 19.5q-25 0 -51.5 -8t-49 -29.5t-36.5 -56.5t-14 -84z" />
<glyph unicode="&#xbb;" horiz-adv-x="894" d="M106 264v232l177 147l-177 141v232l293 -232v-288zM481 268v228l178 149l-178 139v230l291 -230v-288z" />
<glyph unicode="&#xbc;" horiz-adv-x="1792" d="M131 1096v121l43 2q18 0 50 3t65 19t59.5 51t32.5 101h145v-916h-174v527q0 23 1 40t-7 27t-27.5 16.5t-58.5 6.5zM487 -12l646 1401l139 -66l-643 -1399zM1069 207v129l397 569h170v-555h115v-147h-121v-203h-164v207h-397zM1251 352h222l4 346z" />
<glyph unicode="&#xbd;" horiz-adv-x="1792" d="M131 1096v121l43 2q18 0 50 3t65 19t59.5 51t32.5 101h145v-916h-174v527q0 23 1 40t-7 27t-27.5 16.5t-58.5 6.5zM469 -12l645 1401l139 -66l-643 -1399zM1096 565q0 14 2 47t10 72t26.5 80t52.5 75.5t85 56.5t127 24q90 0 148.5 -29t91 -72t46 -90t13.5 -82 q2 -63 -14.5 -116.5t-58.5 -111t-113.5 -123t-180.5 -151.5h385v-145h-618v137q68 45 128 95.5t107 96.5t80 85t49 65q31 51 38 93t7 59q0 37 -11 61.5t-27.5 38.5t-36 20.5t-35.5 6.5q-37 0 -59.5 -12.5t-34 -33t-16.5 -46t-9 -50.5q0 -2 -1 -11t-2 -20.5t-2 -20.5t-1 -11z " />
<glyph unicode="&#xbe;" horiz-adv-x="1792" d="M43 778h178q0 -10 3 -36.5t15.5 -55.5t40 -51.5t80.5 -24.5q63 -4 102.5 35t43.5 103q2 49 -19.5 76.5t-49 41t-54.5 15.5t-35 2h-51v145h55h23.5t46 8t45 29.5t20.5 62.5q0 39 -14 60.5t-34.5 33t-40 14.5t-29.5 3q-37 0 -60.5 -13.5t-37 -35t-20.5 -48t-11 -52.5 l-174 38q2 10 12 51.5t37 82.5q51 78 124.5 105.5t139.5 27.5q98 2 159.5 -35t94.5 -86q18 -29 27.5 -62.5t9.5 -64.5q0 -6 -1 -24.5t-9.5 -42t-27 -49t-50.5 -46.5q-14 -10 -29.5 -15t-30.5 -9q27 -10 55.5 -22.5t53 -36t41 -60.5t16.5 -92q0 -72 -26.5 -126.5t-71.5 -90 t-102.5 -54t-120.5 -18.5q-39 0 -83 7t-86 27.5t-78 54.5t-57 87q-16 39 -18 70.5t-2 70.5zM537 -12l645 1401l137 -66l-641 -1399zM1069 207v129l397 569h170v-555h115v-147h-121v-203h-164v207h-397zM1251 352h222l4 346z" />
<glyph unicode="&#xbf;" d="M55 403q0 104 43 183.5t121 140.5q31 23 62.5 43.5t60.5 44.5q18 14 32.5 30.5t25 40t16.5 54.5t6 76q0 12 -1 24.5t-5 34.5h241q2 -84 -2 -139t-10 -88q-12 -70 -31.5 -105.5t-42.5 -60.5q-35 -35 -69.5 -54.5t-71.5 -47.5q-8 -6 -24.5 -21.5t-32 -37t-26.5 -50.5 t-11 -65q0 -31 8 -52.5t12 -31.5q29 -55 84.5 -84t116.5 -29q10 0 30.5 2t45 10t50.5 23.5t48 42.5q16 23 36.5 72t25.5 120l247 -30q0 -12 -2 -35t-8 -53.5t-16 -65.5t-27 -68q-18 -39 -52 -83t-87 -81.5t-129 -62.5t-178 -25q-94 0 -181 27q-137 41 -221 147.5t-84 253.5z M399 1165v281h273v-281h-273z" />
<glyph unicode="&#xc0;" horiz-adv-x="1323" d="M12 0l490 1446h307l494 -1446h-289l-84 283h-543l-84 -283h-291zM379 1833h291l110 -248h-182zM459 520h399l-199 666z" />
<glyph unicode="&#xc1;" horiz-adv-x="1323" d="M12 0l490 1446h307l494 -1446h-289l-84 283h-543l-84 -283h-291zM459 520h399l-199 666zM547 1587l110 246h293l-221 -246h-182z" />
<glyph unicode="&#xc2;" horiz-adv-x="1323" d="M12 0l490 1446h307l494 -1446h-289l-84 283h-543l-84 -283h-291zM336 1583l207 250h239l215 -250h-247l-86 115l-86 -115h-242zM459 520h399l-199 666z" />
<glyph unicode="&#xc3;" horiz-adv-x="1323" d="M12 0l490 1446h307l494 -1446h-289l-84 283h-543l-84 -283h-291zM303 1575q2 4 5 35.5t11 56.5q4 12 16.5 40t36 55.5t59.5 48t87 20.5q27 0 54.5 -5t51 -12.5t40 -14.5t20.5 -9q43 -16 70.5 -25.5t50.5 -9.5q14 0 24.5 4t14.5 8q23 14 26.5 28.5t10.5 37.5l157 -2 q0 -8 -3 -35t-14 -60.5t-30.5 -69.5t-54.5 -60q-12 -10 -38 -21.5t-67 -11.5q-45 0 -88 13t-84 30q-47 18 -73.5 27.5t-48.5 7.5q-4 0 -13.5 -1t-19.5 -5q-20 -10 -28.5 -31t-12.5 -39h-160zM459 520h399l-199 666z" />
<glyph unicode="&#xc4;" horiz-adv-x="1323" d="M12 0l490 1446h307l494 -1446h-289l-84 283h-543l-84 -283h-291zM350 1581v252h230v-252h-230zM459 520h399l-199 666zM760 1581v252h231v-252h-231z" />
<glyph unicode="&#xc5;" horiz-adv-x="1323" d="M12 0l490 1446h307l494 -1446h-289l-84 283h-543l-84 -283h-291zM459 520h399l-199 666zM461 1765q0 43 16.5 80t44 65.5t66.5 45t82 16.5t80.5 -16.5t65.5 -45t44.5 -66.5t16.5 -81t-16.5 -80.5t-44.5 -65.5t-66.5 -44.5t-81.5 -16.5t-81 16.5t-65.5 44.5t-44 66.5 t-16.5 81.5zM582 1763q2 -35 27.5 -60.5t60.5 -25.5q35 2 59.5 26.5t24.5 61.5q0 35 -26 59.5t-60 24.5q-35 0 -60.5 -25.5t-25.5 -60.5z" />
<glyph unicode="&#xc6;" horiz-adv-x="2134" d="M12 0l856 1446h1186v-242h-754v-344h656v-237h-656v-377h785v-246h-1057v338h-508l-192 -338h-316zM657 582h371v661z" />
<glyph unicode="&#xc7;" horiz-adv-x="1409" d="M76 748q0 14 1 43.5t6 68.5t14 84t26 92q43 117 111.5 202t153.5 139.5t182.5 80t195.5 25.5q92 0 168 -20.5t136 -52.5t105.5 -74t75.5 -87q23 -33 40.5 -67.5t29.5 -64.5t19.5 -52.5l9.5 -28.5l-269 -69q-4 33 -21.5 80t-54 88t-95 70.5t-144.5 29.5 q-70 0 -140.5 -27.5t-127 -88t-93 -155t-36.5 -227.5q0 -135 33.5 -232t89 -160.5t127 -94.5t147.5 -31q88 0 151.5 34t105.5 81t65.5 96t31.5 80l256 -107l-8 -20q-59 -150 -142 -230.5t-167 -120.5t-158 -49.5t-117 -15.5l-49 -61h17q25 0 56.5 -5t61 -18.5t51 -38 t23.5 -63.5q0 -10 -3 -32.5t-26 -49.5q-35 -47 -109.5 -63.5t-176.5 -16.5h-13h-45t-28 2v64q10 -4 20 -3t12 1q23 0 46.5 2t42 7t31 15t12.5 27q0 37 -43 44t-93 7h-19t-22 -4v31l154 157q-70 12 -140.5 27.5t-140.5 56.5q-68 39 -128 103.5t-105 151.5t-70.5 196.5 t-23.5 243.5z" />
<glyph unicode="&#xc8;" horiz-adv-x="1280" d="M160 0v1446h1028v-242h-762v-340h698v-233h-698v-387h813v-244h-1079zM356 1833h291l113 -248h-185z" />
<glyph unicode="&#xc9;" horiz-adv-x="1280" d="M160 0v1446h1028v-242h-762v-340h698v-233h-698v-387h813v-244h-1079zM526 1587l109 246h295l-221 -246h-183z" />
<glyph unicode="&#xca;" horiz-adv-x="1280" d="M160 0v1446h1028v-242h-762v-340h698v-233h-698v-387h813v-244h-1079zM315 1583l207 250h240l215 -250h-248l-88 115l-86 -115h-240z" />
<glyph unicode="&#xcb;" horiz-adv-x="1280" d="M160 0v1446h1028v-242h-762v-340h698v-233h-698v-387h813v-244h-1079zM322 1581v252h229v-252h-229zM731 1581v252h234v-252h-234z" />
<glyph unicode="&#xcc;" horiz-adv-x="598" d="M16 1833h291l111 -248h-182zM164 0v1446h266v-1446h-266z" />
<glyph unicode="&#xcd;" horiz-adv-x="598" d="M164 0v1446h266v-1446h-266zM184 1587l111 246h293l-221 -246h-183z" />
<glyph unicode="&#xce;" horiz-adv-x="598" d="M-27 1583l207 250h240l215 -250h-248l-86 115l-86 -115h-242zM164 0v1446h266v-1446h-266z" />
<glyph unicode="&#xcf;" horiz-adv-x="598" d="M-20 1581v252h229v-252h-229zM164 0v1446h266v-1446h-266zM389 1581v252h234v-252h-234z" />
<glyph unicode="&#xd0;" horiz-adv-x="1449" d="M6 668v184h139v594h476q57 0 101 -1t79 -4t63.5 -9.5t57.5 -14.5q90 -27 172 -84t143 -144t97 -206.5t36 -273.5q0 -80 -16.5 -178.5t-59.5 -191.5t-118.5 -172t-194.5 -122q-88 -33 -176 -39t-174 -6h-486v668h-139zM416 244h114q111 0 181.5 4t119.5 18 q129 35 190.5 140.5t61.5 304.5q0 61 -9 131.5t-37.5 136t-82 119t-139.5 82.5q-47 14 -99 18t-98 4h-202v-350h315v-184h-315v-424z" />
<glyph unicode="&#xd1;" horiz-adv-x="1449" d="M168 0v1446h244l641 -1020l-33 1020h266v-1446h-237l-633 1014l16 -1014h-264zM367 1575q2 4 6 35.5t12 56.5q4 12 16.5 40t35 55.5t58 48t87.5 20.5q27 0 54.5 -5t51 -12.5t39.5 -14.5t23 -9q41 -16 68.5 -25.5t49.5 -9.5q14 0 24.5 4t14.5 8q23 14 27 28.5t10 37.5 l160 -2q0 -8 -4 -35t-14.5 -60.5t-31 -69.5t-55.5 -60q-12 -10 -37.5 -21.5t-66.5 -11.5q-45 0 -88 13t-84 30q-47 18 -73.5 27.5t-49.5 7.5q-4 0 -13 -1t-20 -5q-20 -10 -28.5 -31t-12.5 -39h-159z" />
<glyph unicode="&#xd2;" horiz-adv-x="1579" d="M98 721q0 35 6.5 111.5t36.5 168.5q35 109 97.5 198t147.5 151.5t187.5 97.5t219.5 35q104 0 188 -24.5t147.5 -60.5t107.5 -76t69 -69q29 -33 60.5 -81t58 -113.5t44 -148.5t17.5 -187q0 -35 -4 -96.5t-24.5 -137t-60.5 -158.5t-112 -161l-33.5 -33.5t-52.5 -45t-71 -46 t-89 -41.5q-35 -12 -97 -26.5t-155 -14.5q-154 0 -273.5 53.5t-221.5 169.5q-102 117 -147.5 250t-45.5 285zM377 731q0 -20 3 -75.5t22.5 -123t61.5 -137t118 -119.5q66 -43 125 -52t88 -9q23 0 67.5 5t98.5 30q39 18 82.5 52t80.5 87t61.5 128t26.5 177q2 90 -17 181.5 t-69 168.5q-57 92 -141 141.5t-194 49.5q-68 0 -115 -16.5t-70 -26.5q-39 -20 -79 -57t-73.5 -92.5t-55 -133.5t-21.5 -178zM506 1833h291l110 -248h-182z" />
<glyph unicode="&#xd3;" horiz-adv-x="1579" d="M98 721q0 35 6.5 111.5t36.5 168.5q35 109 97.5 198t147.5 151.5t187.5 97.5t219.5 35q104 0 188 -24.5t147.5 -60.5t107.5 -76t69 -69q29 -33 60.5 -81t58 -113.5t44 -148.5t17.5 -187q0 -35 -4 -96.5t-24.5 -137t-60.5 -158.5t-112 -161l-33.5 -33.5t-52.5 -45t-71 -46 t-89 -41.5q-35 -12 -97 -26.5t-155 -14.5q-154 0 -273.5 53.5t-221.5 169.5q-102 117 -147.5 250t-45.5 285zM377 731q0 -20 3 -75.5t22.5 -123t61.5 -137t118 -119.5q66 -43 125 -52t88 -9q23 0 67.5 5t98.5 30q39 18 82.5 52t80.5 87t61.5 128t26.5 177q2 90 -17 181.5 t-69 168.5q-57 92 -141 141.5t-194 49.5q-68 0 -115 -16.5t-70 -26.5q-39 -20 -79 -57t-73.5 -92.5t-55 -133.5t-21.5 -178zM676 1587l108 246h293l-219 -246h-182z" />
<glyph unicode="&#xd4;" horiz-adv-x="1579" d="M98 721q0 35 6.5 111.5t36.5 168.5q35 109 97.5 198t147.5 151.5t187.5 97.5t219.5 35q104 0 188 -24.5t147.5 -60.5t107.5 -76t69 -69q29 -33 60.5 -81t58 -113.5t44 -148.5t17.5 -187q0 -35 -4 -96.5t-24.5 -137t-60.5 -158.5t-112 -161l-33.5 -33.5t-52.5 -45t-71 -46 t-89 -41.5q-35 -12 -97 -26.5t-155 -14.5q-154 0 -273.5 53.5t-221.5 169.5q-102 117 -147.5 250t-45.5 285zM377 731q0 -20 3 -75.5t22.5 -123t61.5 -137t118 -119.5q66 -43 125 -52t88 -9q23 0 67.5 5t98.5 30q39 18 82.5 52t80.5 87t61.5 128t26.5 177q2 90 -17 181.5 t-69 168.5q-57 92 -141 141.5t-194 49.5q-68 0 -115 -16.5t-70 -26.5q-39 -20 -79 -57t-73.5 -92.5t-55 -133.5t-21.5 -178zM465 1583l205 250h241l215 -250h-247l-88 115l-86 -115h-240z" />
<glyph unicode="&#xd5;" horiz-adv-x="1579" d="M98 721q0 35 6.5 111.5t36.5 168.5q35 109 97.5 198t147.5 151.5t187.5 97.5t219.5 35q104 0 188 -24.5t147.5 -60.5t107.5 -76t69 -69q29 -33 60.5 -81t58 -113.5t44 -148.5t17.5 -187q0 -35 -4 -96.5t-24.5 -137t-60.5 -158.5t-112 -161l-33.5 -33.5t-52.5 -45t-71 -46 t-89 -41.5q-35 -12 -97 -26.5t-155 -14.5q-154 0 -273.5 53.5t-221.5 169.5q-102 117 -147.5 250t-45.5 285zM377 731q0 -20 3 -75.5t22.5 -123t61.5 -137t118 -119.5q66 -43 125 -52t88 -9q23 0 67.5 5t98.5 30q39 18 82.5 52t80.5 87t61.5 128t26.5 177q2 90 -17 181.5 t-69 168.5q-57 92 -141 141.5t-194 49.5q-68 0 -115 -16.5t-70 -26.5q-39 -20 -79 -57t-73.5 -92.5t-55 -133.5t-21.5 -178zM432 1575q0 4 4 35.5t13 56.5q4 12 15 40t34.5 55.5t59.5 48t87 20.5q27 0 54.5 -5t51 -12.5t40 -14.5t22.5 -9q43 -16 69.5 -25.5t49.5 -9.5 q16 0 25.5 4t13.5 8q23 14 26.5 28.5t10.5 37.5l159 -2q0 -8 -3 -35t-14 -60.5t-30.5 -69.5t-54.5 -60q-14 -10 -40 -21.5t-67 -11.5q-45 0 -88 13t-84 30q-45 18 -71.5 27.5t-48.5 7.5q-4 0 -14.5 -1t-20.5 -5q-18 -10 -27.5 -31t-13.5 -39h-158z" />
<glyph unicode="&#xd6;" horiz-adv-x="1579" d="M98 721q0 35 6.5 111.5t36.5 168.5q35 109 97.5 198t147.5 151.5t187.5 97.5t219.5 35q104 0 188 -24.5t147.5 -60.5t107.5 -76t69 -69q29 -33 60.5 -81t58 -113.5t44 -148.5t17.5 -187q0 -35 -4 -96.5t-24.5 -137t-60.5 -158.5t-112 -161l-33.5 -33.5t-52.5 -45t-71 -46 t-89 -41.5q-35 -12 -97 -26.5t-155 -14.5q-154 0 -273.5 53.5t-221.5 169.5q-102 117 -147.5 250t-45.5 285zM377 731q0 -20 3 -75.5t22.5 -123t61.5 -137t118 -119.5q66 -43 125 -52t88 -9q23 0 67.5 5t98.5 30q39 18 82.5 52t80.5 87t61.5 128t26.5 177q2 90 -17 181.5 t-69 168.5q-57 92 -141 141.5t-194 49.5q-68 0 -115 -16.5t-70 -26.5q-39 -20 -79 -57t-73.5 -92.5t-55 -133.5t-21.5 -178zM471 1581v252h231v-252h-231zM881 1581v252h233v-252h-233z" />
<glyph unicode="&#xd7;" horiz-adv-x="1482" d="M264 930l185 190l315 -305l291 301l155 -151l-290 -301l317 -308l-186 -190l-318 307l-291 -301l-155 152l291 301z" />
<glyph unicode="&#xd8;" horiz-adv-x="1579" d="M47 203l143 127q-16 27 -24 44t-14 29q-18 43 -38 120t-20 194q0 139 31 245.5t77 184.5t100 131t101 86q25 18 62 38.5t86 38t110.5 30t137.5 12.5q96 0 172 -20.5t133 -51.5t97 -64.5t67 -60.5l127 113l121 -137l-136 -121q14 -29 34 -68t35 -91t26.5 -116.5 t11.5 -144.5q0 -29 -4 -91.5t-25 -137.5q-23 -82 -60.5 -158t-92 -140.5t-123 -113.5t-150.5 -78q-35 -12 -95 -25.5t-151 -13.5q-106 0 -184 21.5t-136 54.5t-99 72t-72 71l-131 -114zM365 745q0 -61 10 -109t16 -71q6 -18 10.5 -25.5t8.5 -17.5l665 594q-16 14 -39.5 36 t-57.5 41t-79 32.5t-102 13.5q-29 0 -80 -8t-113 -43q-59 -33 -104 -82t-75 -107.5t-45 -123t-15 -130.5zM500 362q12 -20 34.5 -46.5t56.5 -49t82 -39t111 -16.5q23 0 75 7t110 36q35 18 78 53t80.5 90.5t63.5 132.5t26 179q0 14 -1.5 39.5t-6.5 58.5t-14 70.5t-26 76.5z " />
<glyph unicode="&#xd9;" horiz-adv-x="1492" d="M164 485v101v860h272v-889q0 -66 2 -96.5t13 -63.5q10 -33 30.5 -63.5t55 -55t87 -39t124.5 -14.5q12 0 51 2t85 17.5t90 49.5t66 95q12 35 15.5 73t3.5 109v875h270v-834v-107t-2 -83t-7 -66.5t-15 -60.5q-18 -55 -59.5 -113.5t-110 -106.5t-167 -80t-231.5 -32 q-129 0 -248.5 37t-209.5 135q-14 14 -44 55t-49 101q-8 27 -13 55.5t-7 62t-2 76.5zM465 1833h289l112 -248h-184z" />
<glyph unicode="&#xda;" horiz-adv-x="1492" d="M164 485v101v860h272v-889q0 -66 2 -96.5t13 -63.5q10 -33 30.5 -63.5t55 -55t87 -39t124.5 -14.5q12 0 51 2t85 17.5t90 49.5t66 95q12 35 15.5 73t3.5 109v875h270v-834v-107t-2 -83t-7 -66.5t-15 -60.5q-18 -55 -59.5 -113.5t-110 -106.5t-167 -80t-231.5 -32 q-129 0 -248.5 37t-209.5 135q-14 14 -44 55t-49 101q-8 27 -13 55.5t-7 62t-2 76.5zM633 1587l108 246h295l-221 -246h-182z" />
<glyph unicode="&#xdb;" horiz-adv-x="1492" d="M164 485v101v860h272v-889q0 -66 2 -96.5t13 -63.5q10 -33 30.5 -63.5t55 -55t87 -39t124.5 -14.5q12 0 51 2t85 17.5t90 49.5t66 95q12 35 15.5 73t3.5 109v875h270v-834v-107t-2 -83t-7 -66.5t-15 -60.5q-18 -55 -59.5 -113.5t-110 -106.5t-167 -80t-231.5 -32 q-129 0 -248.5 37t-209.5 135q-14 14 -44 55t-49 101q-8 27 -13 55.5t-7 62t-2 76.5zM422 1583l207 250h239l215 -250h-247l-86 115l-88 -115h-240z" />
<glyph unicode="&#xdc;" horiz-adv-x="1492" d="M164 485v101v860h272v-889q0 -66 2 -96.5t13 -63.5q10 -33 30.5 -63.5t55 -55t87 -39t124.5 -14.5q12 0 51 2t85 17.5t90 49.5t66 95q12 35 15.5 73t3.5 109v875h270v-834v-107t-2 -83t-7 -66.5t-15 -60.5q-18 -55 -59.5 -113.5t-110 -106.5t-167 -80t-231.5 -32 q-129 0 -248.5 37t-209.5 135q-14 14 -44 55t-49 101q-8 27 -13 55.5t-7 62t-2 76.5zM426 1581v252h231v-252h-231zM836 1581v252h233v-252h-233z" />
<glyph unicode="&#xdd;" horiz-adv-x="1280" d="M20 1446h308l313 -598l315 598h304l-488 -875v-571h-268v571zM526 1587l109 246h295l-221 -246h-183z" />
<glyph unicode="&#xde;" horiz-adv-x="1280" d="M168 0v1446h270v-205h217q55 0 119 -3t127.5 -20.5t126 -53.5t115.5 -101q37 -45 57.5 -92t29.5 -89t11 -72t2 -42q0 -70 -16.5 -145.5t-63.5 -143.5t-105.5 -106.5t-121 -57t-124.5 -23.5t-114 -5h-260v-287h-270zM438 508h195q125 0 196.5 26.5t110.5 110.5 q18 41 21.5 79t3.5 48q0 47 -10.5 80t-24.5 53q-43 66 -109.5 85.5t-175.5 19.5h-207v-502z" />
<glyph unicode="&#xdf;" d="M133 0v1012v67.5t2 50t5 40t10 38.5q20 70 63 119t100.5 81t124 47t131.5 15q23 0 67 -3t99 -19q59 -18 113.5 -48t94.5 -73t62.5 -98t22.5 -121q0 -131 -96 -211q-29 -27 -51.5 -37t-36.5 -14q29 -14 56.5 -28.5t51.5 -35.5q43 -39 85 -119.5t42 -213.5 q0 -96 -25.5 -181.5t-76.5 -149t-129 -99t-182 -35.5q-6 0 -27 1t-49.5 4t-60 9t-58.5 18v238q6 -4 11 -7t12 -7q12 -6 43.5 -18.5t72.5 -12.5q45 0 83 19.5t67 52.5q23 27 35 55.5t18 53t7 45t1 32.5q0 10 -2 34.5t-9 54.5t-23.5 62.5t-47.5 59.5q-29 27 -66.5 41 t-71.5 21.5t-60.5 8.5t-34.5 1h-18.5t-16.5 -2v184q8 0 34.5 -3t61.5 0t72 17.5t68 44.5q29 31 35 62.5t6 46.5q0 10 -3.5 33.5t-19.5 46.5q-16 25 -51 48t-101 23q-14 0 -43.5 -4t-62.5 -22q-35 -18 -53.5 -48t-25.5 -64t-7 -70.5v-69.5v-973h-248z" />
<glyph unicode="&#xe0;" horiz-adv-x="1110" d="M53 297q0 20 4 52t18.5 67t42 70.5t75.5 66.5q63 43 124.5 58.5t133.5 29.5q57 12 97 20.5t71.5 15.5t58.5 15t55 19q0 20 -2 42.5t-12 41.5q-16 29 -55 49t-107 20q-72 0 -116 -18.5t-64 -44.5q-23 -27 -25 -53.5t-2 -36.5l-250 14q0 16 4.5 44t14.5 59.5t32.5 66.5 t59.5 66q47 39 126 66.5t212 27.5q127 0 204.5 -22.5t125.5 -57.5q33 -23 50 -46.5t23 -35.5q20 -41 23.5 -90t3.5 -92v-545q0 -29 1 -49.5t6 -38t13.5 -35.5t24.5 -43h-291l-6 80q-29 -25 -53.5 -38t-40.5 -19q-51 -23 -100.5 -35.5t-106.5 -12.5q-18 0 -58 3.5t-88.5 18.5 t-97.5 47t-84 89q-12 20 -29.5 61.5t-15.5 102.5zM303 1446h303l107 -272h-185zM313 307q0 -47 38 -84t130 -37q51 0 91 11.5t70 29t49.5 38t27.5 38.5q12 25 13 47.5t1 46.5v113q-31 -16 -75 -30.5t-119 -26.5q-41 -8 -84 -14.5t-82 -28.5q-27 -16 -43.5 -42t-16.5 -61z " />
<glyph unicode="&#xe1;" horiz-adv-x="1110" d="M53 297q0 20 4 52t18.5 67t42 70.5t75.5 66.5q63 43 124.5 58.5t133.5 29.5q57 12 97 20.5t71.5 15.5t58.5 15t55 19q0 20 -2 42.5t-12 41.5q-16 29 -55 49t-107 20q-72 0 -116 -18.5t-64 -44.5q-23 -27 -25 -53.5t-2 -36.5l-250 14q0 16 4.5 44t14.5 59.5t32.5 66.5 t59.5 66q47 39 126 66.5t212 27.5q127 0 204.5 -22.5t125.5 -57.5q33 -23 50 -46.5t23 -35.5q20 -41 23.5 -90t3.5 -92v-545q0 -29 1 -49.5t6 -38t13.5 -35.5t24.5 -43h-291l-6 80q-29 -25 -53.5 -38t-40.5 -19q-51 -23 -100.5 -35.5t-106.5 -12.5q-18 0 -58 3.5t-88.5 18.5 t-97.5 47t-84 89q-12 20 -29.5 61.5t-15.5 102.5zM313 307q0 -47 38 -84t130 -37q51 0 91 11.5t70 29t49.5 38t27.5 38.5q12 25 13 47.5t1 46.5v113q-31 -16 -75 -30.5t-119 -26.5q-41 -8 -84 -14.5t-82 -28.5q-27 -16 -43.5 -42t-16.5 -61zM449 1174l102 272h303l-221 -272 h-184z" />
<glyph unicode="&#xe2;" horiz-adv-x="1110" d="M53 297q0 20 4 52t18.5 67t42 70.5t75.5 66.5q63 43 124.5 58.5t133.5 29.5q57 12 97 20.5t71.5 15.5t58.5 15t55 19q0 20 -2 42.5t-12 41.5q-16 29 -55 49t-107 20q-72 0 -116 -18.5t-64 -44.5q-23 -27 -25 -53.5t-2 -36.5l-250 14q0 16 4.5 44t14.5 59.5t32.5 66.5 t59.5 66q47 39 126 66.5t212 27.5q127 0 204.5 -22.5t125.5 -57.5q33 -23 50 -46.5t23 -35.5q20 -41 23.5 -90t3.5 -92v-545q0 -29 1 -49.5t6 -38t13.5 -35.5t24.5 -43h-291l-6 80q-29 -25 -53.5 -38t-40.5 -19q-51 -23 -100.5 -35.5t-106.5 -12.5q-18 0 -58 3.5t-88.5 18.5 t-97.5 47t-84 89q-12 20 -29.5 61.5t-15.5 102.5zM207 1171l227 275h242l227 -275h-250l-98 138l-100 -138h-248zM313 307q0 -47 38 -84t130 -37q51 0 91 11.5t70 29t49.5 38t27.5 38.5q12 25 13 47.5t1 46.5v113q-31 -16 -75 -30.5t-119 -26.5q-41 -8 -84 -14.5t-82 -28.5 q-27 -16 -43.5 -42t-16.5 -61z" />
<glyph unicode="&#xe3;" horiz-adv-x="1110" d="M53 297q0 20 4 52t18.5 67t42 70.5t75.5 66.5q63 43 124.5 58.5t133.5 29.5q57 12 97 20.5t71.5 15.5t58.5 15t55 19q0 20 -2 42.5t-12 41.5q-16 29 -55 49t-107 20q-72 0 -116 -18.5t-64 -44.5q-23 -27 -25 -53.5t-2 -36.5l-250 14q0 16 4.5 44t14.5 59.5t32.5 66.5 t59.5 66q47 39 126 66.5t212 27.5q127 0 204.5 -22.5t125.5 -57.5q33 -23 50 -46.5t23 -35.5q20 -41 23.5 -90t3.5 -92v-545q0 -29 1 -49.5t6 -38t13.5 -35.5t24.5 -43h-291l-6 80q-29 -25 -53.5 -38t-40.5 -19q-51 -23 -100.5 -35.5t-106.5 -12.5q-18 0 -58 3.5t-88.5 18.5 t-97.5 47t-84 89q-12 20 -29.5 61.5t-15.5 102.5zM197 1196q0 6 4 37t12 57q4 12 16.5 39t36 54.5t59 49t87.5 21.5q31 0 67.5 -11t98.5 -30q20 -10 43 -18q18 -6 39.5 -11.5t37.5 -5.5t36 9.5t28 25.5q6 12 6 14.5t6 18.5h158q-4 -25 -7 -51.5t-14 -53.5q-4 -12 -15 -36.5 t-33.5 -49t-56.5 -43t-81 -18.5q-45 0 -88 14.5t-84 30.5q-47 18 -73.5 26.5t-49.5 8.5q-4 0 -13 -2t-20 -6q-20 -10 -28.5 -29.5t-12.5 -40.5h-159zM313 307q0 -47 38 -84t130 -37q51 0 91 11.5t70 29t49.5 38t27.5 38.5q12 25 13 47.5t1 46.5v113q-31 -16 -75 -30.5 t-119 -26.5q-41 -8 -84 -14.5t-82 -28.5q-27 -16 -43.5 -42t-16.5 -61z" />
<glyph unicode="&#xe4;" horiz-adv-x="1110" d="M53 297q0 20 4 52t18.5 67t42 70.5t75.5 66.5q63 43 124.5 58.5t133.5 29.5q57 12 97 20.5t71.5 15.5t58.5 15t55 19q0 20 -2 42.5t-12 41.5q-16 29 -55 49t-107 20q-72 0 -116 -18.5t-64 -44.5q-23 -27 -25 -53.5t-2 -36.5l-250 14q0 16 4.5 44t14.5 59.5t32.5 66.5 t59.5 66q47 39 126 66.5t212 27.5q127 0 204.5 -22.5t125.5 -57.5q33 -23 50 -46.5t23 -35.5q20 -41 23.5 -90t3.5 -92v-545q0 -29 1 -49.5t6 -38t13.5 -35.5t24.5 -43h-291l-6 80q-29 -25 -53.5 -38t-40.5 -19q-51 -23 -100.5 -35.5t-106.5 -12.5q-18 0 -58 3.5t-88.5 18.5 t-97.5 47t-84 89q-12 20 -29.5 61.5t-15.5 102.5zM221 1202v244h230v-244h-230zM313 307q0 -47 38 -84t130 -37q51 0 91 11.5t70 29t49.5 38t27.5 38.5q12 25 13 47.5t1 46.5v113q-31 -16 -75 -30.5t-119 -26.5q-41 -8 -84 -14.5t-82 -28.5q-27 -16 -43.5 -42t-16.5 -61z M631 1202v244h233v-244h-233z" />
<glyph unicode="&#xe5;" horiz-adv-x="1110" d="M53 297q0 20 4 52t18.5 67t42 70.5t75.5 66.5q63 43 124.5 58.5t133.5 29.5q57 12 97 20.5t71.5 15.5t58.5 15t55 19q0 20 -2 42.5t-12 41.5q-16 29 -55 49t-107 20q-72 0 -116 -18.5t-64 -44.5q-23 -27 -25 -53.5t-2 -36.5l-250 14q0 16 4.5 44t14.5 59.5t32.5 66.5 t59.5 66q47 39 126 66.5t212 27.5q127 0 204.5 -22.5t125.5 -57.5q33 -23 50 -46.5t23 -35.5q20 -41 23.5 -90t3.5 -92v-545q0 -29 1 -49.5t6 -38t13.5 -35.5t24.5 -43h-291l-6 80q-29 -25 -53.5 -38t-40.5 -19q-51 -23 -100.5 -35.5t-106.5 -12.5q-18 0 -58 3.5t-88.5 18.5 t-97.5 47t-84 89q-12 20 -29.5 61.5t-15.5 102.5zM313 307q0 -47 38 -84t130 -37q51 0 91 11.5t70 29t49.5 38t27.5 38.5q12 25 13 47.5t1 46.5v113q-31 -16 -75 -30.5t-119 -26.5q-41 -8 -84 -14.5t-82 -28.5q-27 -16 -43.5 -42t-16.5 -61zM334 1356q0 43 16.5 81t45 65.5 t66.5 44t81 16.5q53 0 102 -27q59 -35 82 -87t23 -93q0 -43 -16.5 -82t-45.5 -66.5t-65.5 -44t-79.5 -16.5t-81 16.5t-66.5 44t-45 66.5t-16.5 82zM455 1354q0 -35 25.5 -60.5t60.5 -25.5q37 0 61.5 25.5t24.5 60.5q0 37 -26 61.5t-60 24.5q-23 0 -43 -10q-23 -12 -33 -34 t-10 -42z" />
<glyph unicode="&#xe6;" horiz-adv-x="1792" d="M59 281q0 33 13.5 89t70.5 113q51 51 137.5 86t235.5 66q63 12 116.5 24.5t112.5 38.5q-4 41 -13 75t-42 63q-31 25 -65.5 33t-71.5 8q-12 0 -55 -4.5t-84 -30.5q-18 -12 -28.5 -24.5t-14.5 -20.5q-16 -27 -19.5 -51.5t-3.5 -34.5h-237q2 33 16 93t70 124q41 49 118.5 88 t216.5 39h40t68 -5.5t81 -17.5t80 -37q23 -14 38 -27.5t50 -45.5q20 18 49 41.5t69 44t93 34t123 13.5q18 0 51 -2t74 -10.5t87 -28t91 -51.5q39 -31 75.5 -72t64.5 -100.5t45.5 -139.5t21.5 -186h-748q6 -72 24.5 -114t41.5 -68q20 -29 69 -62t140 -33q12 0 32.5 2.5 t44 8.5t50 19t53.5 36q23 20 43 45t24 29l195 -121q-25 -31 -64 -72t-96 -78t-136 -62.5t-183 -25.5q-47 0 -117 11.5t-162 66.5q-18 10 -42.5 27.5t-59.5 46.5q-27 -25 -68 -51q-51 -37 -100 -57.5t-93 -30t-80 -11.5t-59 -2q-76 0 -131 12.5t-95 33t-66.5 48t-45.5 58.5 q-31 53 -38 95t-7 65zM319 285q0 -23 9.5 -46.5t29 -44t53 -32.5t83.5 -12q45 0 78.5 11t59 27.5t42 34t26.5 31.5q27 39 34 92.5t11 145.5q-41 -16 -73.5 -25.5t-65.5 -17t-66.5 -14.5t-74.5 -15q-6 -2 -29.5 -8t-49.5 -20.5t-46.5 -40t-20.5 -66.5zM987 641h455 q-18 92 -75.5 153.5t-156.5 61.5q-25 0 -70.5 -10t-90.5 -58q-39 -43 -49.5 -84.5t-12.5 -62.5z" />
<glyph unicode="&#xe7;" horiz-adv-x="1058" d="M49 512q0 106 36 204.5t103.5 174.5t162.5 120t214 44q96 0 171 -29t128.5 -72t89 -94t54.5 -96l-220 -102q-20 59 -53 94t-66.5 52t-63.5 22.5t-44 5.5q-74 2 -123 -29t-79.5 -78t-43 -103.5t-12.5 -107.5t13.5 -107.5t44 -104.5t79.5 -77.5t123 -29.5q61 0 103.5 21.5 t70 52t44 65.5t28.5 61l209 -110q-6 -16 -24.5 -58.5t-59.5 -89.5t-81 -76.5t-80 -47t-82 -26.5t-85 -18l-53 -67h14q23 0 55.5 -5t62.5 -18.5t51.5 -38t23.5 -63.5q2 -33 -11.5 -55.5t-23.5 -34.5q-37 -41 -108.5 -56.5t-172.5 -15.5h-12h-45t-29 2v64q10 -4 20.5 -3 t12.5 1q23 0 46.5 2t42 7t30.5 15t12 27q0 18 -12 28.5t-30.5 15.5t-42 6t-48.5 1h-21.5t-21.5 -4v31l158 161q-47 10 -98.5 21.5t-98.5 38.5q-76 41 -126 100.5t-78.5 125t-41 132t-12.5 121.5z" />
<glyph unicode="&#xe8;" d="M70 518q0 66 10 126.5t35 119.5q16 39 50 89t90 95t137 76t192 31q86 0 152.5 -19.5t115.5 -49.5t82 -64.5t53 -63.5q35 -53 65.5 -149.5t34.5 -245.5h-757q4 -23 15 -66t50 -90q12 -16 31.5 -33.5t46.5 -32t62.5 -23.5t82.5 -9q94 0 151.5 33.5t82.5 60.5q12 12 35 47 l209 -121q-12 -16 -35 -43.5t-60 -62.5q-23 -20 -58.5 -47t-86.5 -50.5t-115.5 -40t-144.5 -16.5q-25 0 -66 3t-90 17.5t-104 41t-107 75.5q-88 84 -123.5 187.5t-35.5 224.5zM283 1446h303l104 -272h-182zM338 643h479q0 14 -4 29q-6 25 -16 55q-8 18 -23.5 41t-40 43 t-60.5 33.5t-85 13.5q-41 0 -63.5 -6t-39.5 -12q-43 -18 -70.5 -46t-44 -57.5t-23.5 -55.5t-9 -38z" />
<glyph unicode="&#xe9;" d="M70 518q0 66 10 126.5t35 119.5q16 39 50 89t90 95t137 76t192 31q86 0 152.5 -19.5t115.5 -49.5t82 -64.5t53 -63.5q35 -53 65.5 -149.5t34.5 -245.5h-757q4 -23 15 -66t50 -90q12 -16 31.5 -33.5t46.5 -32t62.5 -23.5t82.5 -9q94 0 151.5 33.5t82.5 60.5q12 12 35 47 l209 -121q-12 -16 -35 -43.5t-60 -62.5q-23 -20 -58.5 -47t-86.5 -50.5t-115.5 -40t-144.5 -16.5q-25 0 -66 3t-90 17.5t-104 41t-107 75.5q-88 84 -123.5 187.5t-35.5 224.5zM338 643h479q0 14 -4 29q-6 25 -16 55q-8 18 -23.5 41t-40 43t-60.5 33.5t-85 13.5 q-41 0 -63.5 -6t-39.5 -12q-43 -18 -70.5 -46t-44 -57.5t-23.5 -55.5t-9 -38zM469 1174l102 272h306l-222 -272h-186z" />
<glyph unicode="&#xea;" d="M70 518q0 66 10 126.5t35 119.5q16 39 50 89t90 95t137 76t192 31q86 0 152.5 -19.5t115.5 -49.5t82 -64.5t53 -63.5q35 -53 65.5 -149.5t34.5 -245.5h-757q4 -23 15 -66t50 -90q12 -16 31.5 -33.5t46.5 -32t62.5 -23.5t82.5 -9q94 0 151.5 33.5t82.5 60.5q12 12 35 47 l209 -121q-12 -16 -35 -43.5t-60 -62.5q-23 -20 -58.5 -47t-86.5 -50.5t-115.5 -40t-144.5 -16.5q-25 0 -66 3t-90 17.5t-104 41t-107 75.5q-88 84 -123.5 187.5t-35.5 224.5zM227 1171l228 275h241l230 -275h-252l-96 138l-103 -138h-248zM338 643h479q0 14 -4 29 q-6 25 -16 55q-8 18 -23.5 41t-40 43t-60.5 33.5t-85 13.5q-41 0 -63.5 -6t-39.5 -12q-43 -18 -70.5 -46t-44 -57.5t-23.5 -55.5t-9 -38z" />
<glyph unicode="&#xeb;" d="M70 518q0 66 10 126.5t35 119.5q16 39 50 89t90 95t137 76t192 31q86 0 152.5 -19.5t115.5 -49.5t82 -64.5t53 -63.5q35 -53 65.5 -149.5t34.5 -245.5h-757q4 -23 15 -66t50 -90q12 -16 31.5 -33.5t46.5 -32t62.5 -23.5t82.5 -9q94 0 151.5 33.5t82.5 60.5q12 12 35 47 l209 -121q-12 -16 -35 -43.5t-60 -62.5q-23 -20 -58.5 -47t-86.5 -50.5t-115.5 -40t-144.5 -16.5q-25 0 -66 3t-90 17.5t-104 41t-107 75.5q-88 84 -123.5 187.5t-35.5 224.5zM256 1202v244h231v-244h-231zM338 643h479q0 14 -4 29q-6 25 -16 55q-8 18 -23.5 41t-40 43 t-60.5 33.5t-85 13.5q-41 0 -63.5 -6t-39.5 -12q-43 -18 -70.5 -46t-44 -57.5t-23.5 -55.5t-9 -38zM666 1202v244h233v-244h-233z" />
<glyph unicode="&#xec;" horiz-adv-x="512" d="M-39 1446h303l107 -272h-183zM133 0v1024h244v-1024h-244z" />
<glyph unicode="&#xed;" horiz-adv-x="512" d="M133 0v1024h244v-1024h-244zM150 1174l102 272h303l-221 -272h-184z" />
<glyph unicode="&#xee;" horiz-adv-x="512" d="M-92 1171l227 275h242l227 -275h-250l-96 138l-102 -138h-248zM133 0v1024h244v-1024h-244z" />
<glyph unicode="&#xef;" horiz-adv-x="512" d="M-63 1202v244h229v-244h-229zM133 0v1024h244v-1024h-244zM346 1202v244h234v-244h-234z" />
<glyph unicode="&#xf0;" horiz-adv-x="1193" d="M72 510q-2 90 15 154.5t34 99.5q18 41 54 92t90 95t128 75t170 31q82 0 127 -22.5t82 -55.5q-16 72 -49 125t-53 80l-334 -90l-39 108l293 80q-29 27 -49.5 48.5t-48.5 47.5l229 99q35 -33 59.5 -63t57.5 -64l188 51l41 -109l-156 -43q20 -33 45 -73.5t58 -108.5 q14 -31 33.5 -80t37 -112.5t29.5 -139t12 -157.5q0 -166 -38.5 -269.5t-102.5 -177.5q-31 -35 -66.5 -64.5t-81.5 -51t-104.5 -34t-132.5 -12.5q-141 0 -229 44t-146 104q-55 55 -80.5 106t-33.5 74q-10 29 -23.5 84t-15.5 129zM328 518q0 -57 16 -114.5t50 -103.5t85 -75.5 t123 -29.5q74 -2 125 27.5t83 77.5t46 106.5t12 113.5q-4 78 -30 146q-25 57 -60 91t-69.5 50t-64.5 21.5t-44 5.5q-72 2 -123 -26t-85 -73t-49 -102.5t-15 -114.5z" />
<glyph unicode="&#xf1;" d="M129 0v1024h248v-121q4 4 16.5 20.5t28.5 32.5q37 33 78 53.5t79.5 30t69.5 12.5t43 3q57 0 102.5 -13.5t79 -32t56 -40t35.5 -39.5q25 -35 37 -76t17 -84t5 -86v-82v-602h-242v522q0 59 -1 94t-9 64q-10 45 -31.5 71.5t-46 41t-49 18.5t-43.5 4q-20 0 -55 -7t-74 -40 q-55 -47 -75.5 -118.5t-20.5 -205.5v-444h-248zM217 1196q2 6 5 37t14 57q4 12 15 39t34.5 54.5t59.5 49t87 21.5q31 0 69 -9t97 -32q20 -10 43 -18q18 -6 39.5 -11.5t38.5 -5.5q16 0 36.5 9.5t28.5 25.5q6 12 6.5 14.5t4.5 18.5h159q-6 -25 -9 -51.5t-13 -53.5 q-4 -12 -16.5 -36.5t-34 -49t-55 -43t-81.5 -18.5q-45 0 -88 14.5t-84 30.5q-47 18 -72.5 26.5t-49.5 8.5q-4 0 -13.5 -2t-19.5 -6q-20 -10 -28.5 -29.5t-12.5 -40.5h-160z" />
<glyph unicode="&#xf2;" horiz-adv-x="1193" d="M72 516q0 84 17 142.5t28 86.5q16 39 50 92.5t91 101.5t140 82t198 34q29 0 91.5 -7.5t133.5 -39.5q41 -18 93.5 -54t98.5 -94.5t78.5 -143.5t32.5 -200q0 -29 -6 -93.5t-35 -135.5q-16 -39 -50 -93.5t-91 -104.5t-140 -85t-198 -35q-33 0 -94 6.5t-137 40.5 q-41 18 -92.5 55.5t-98.5 96.5t-78.5 145t-31.5 203zM303 1446h303l107 -272h-185zM328 522q0 -37 4 -70.5t16 -68.5q6 -18 23.5 -50t48.5 -62.5t76 -53t108 -22.5q70 0 121 27.5t84 73.5t47 104.5t12 119.5q-2 59 -19.5 115.5t-52 100.5t-86 71t-118.5 27q-16 0 -57 -6.5 t-82 -32.5q-20 -12 -42 -35t-40.5 -56.5t-30.5 -78.5t-12 -103z" />
<glyph unicode="&#xf3;" horiz-adv-x="1193" d="M72 516q0 84 17 142.5t28 86.5q16 39 50 92.5t91 101.5t140 82t198 34q29 0 91.5 -7.5t133.5 -39.5q41 -18 93.5 -54t98.5 -94.5t78.5 -143.5t32.5 -200q0 -29 -6 -93.5t-35 -135.5q-16 -39 -50 -93.5t-91 -104.5t-140 -85t-198 -35q-33 0 -94 6.5t-137 40.5 q-41 18 -92.5 55.5t-98.5 96.5t-78.5 145t-31.5 203zM328 522q0 -37 4 -70.5t16 -68.5q6 -18 23.5 -50t48.5 -62.5t76 -53t108 -22.5q70 0 121 27.5t84 73.5t47 104.5t12 119.5q-2 59 -19.5 115.5t-52 100.5t-86 71t-118.5 27q-16 0 -57 -6.5t-82 -32.5q-20 -12 -42 -35 t-40.5 -56.5t-30.5 -78.5t-12 -103zM492 1174l102 272h303l-221 -272h-184z" />
<glyph unicode="&#xf4;" horiz-adv-x="1193" d="M72 516q0 84 17 142.5t28 86.5q16 39 50 92.5t91 101.5t140 82t198 34q29 0 91.5 -7.5t133.5 -39.5q41 -18 93.5 -54t98.5 -94.5t78.5 -143.5t32.5 -200q0 -29 -6 -93.5t-35 -135.5q-16 -39 -50 -93.5t-91 -104.5t-140 -85t-198 -35q-33 0 -94 6.5t-137 40.5 q-41 18 -92.5 55.5t-98.5 96.5t-78.5 145t-31.5 203zM250 1171l227 275h242l227 -275h-250l-98 138l-100 -138h-248zM328 522q0 -37 4 -70.5t16 -68.5q6 -18 23.5 -50t48.5 -62.5t76 -53t108 -22.5q70 0 121 27.5t84 73.5t47 104.5t12 119.5q-2 59 -19.5 115.5t-52 100.5 t-86 71t-118.5 27q-16 0 -57 -6.5t-82 -32.5q-20 -12 -42 -35t-40.5 -56.5t-30.5 -78.5t-12 -103z" />
<glyph unicode="&#xf5;" horiz-adv-x="1193" d="M72 516q0 84 17 142.5t28 86.5q16 39 50 92.5t91 101.5t140 82t198 34q29 0 91.5 -7.5t133.5 -39.5q41 -18 93.5 -54t98.5 -94.5t78.5 -143.5t32.5 -200q0 -29 -6 -93.5t-35 -135.5q-16 -39 -50 -93.5t-91 -104.5t-140 -85t-198 -35q-33 0 -94 6.5t-137 40.5 q-41 18 -92.5 55.5t-98.5 96.5t-78.5 145t-31.5 203zM240 1196q0 6 4 37t12 57q4 12 16.5 39t36 54.5t59 49t87.5 21.5q29 0 66.5 -11t99.5 -30q20 -10 43 -18q18 -6 39.5 -11.5t37.5 -5.5t35 9.5t29 25.5q6 12 6 14.5t6 18.5h158q-4 -25 -8 -51.5t-15 -53.5 q-4 -12 -15 -36.5t-32.5 -49t-55.5 -43t-81 -18.5q-45 0 -89 14.5t-83 30.5q-47 18 -73.5 26.5t-49.5 8.5q-4 0 -13 -2t-20 -6q-20 -10 -28.5 -29.5t-12.5 -40.5h-159zM328 522q0 -37 4 -70.5t16 -68.5q6 -18 23.5 -50t48.5 -62.5t76 -53t108 -22.5q70 0 121 27.5t84 73.5 t47 104.5t12 119.5q-2 59 -19.5 115.5t-52 100.5t-86 71t-118.5 27q-16 0 -57 -6.5t-82 -32.5q-20 -12 -42 -35t-40.5 -56.5t-30.5 -78.5t-12 -103z" />
<glyph unicode="&#xf6;" horiz-adv-x="1193" d="M72 516q0 84 17 142.5t28 86.5q16 39 50 92.5t91 101.5t140 82t198 34q29 0 91.5 -7.5t133.5 -39.5q41 -18 93.5 -54t98.5 -94.5t78.5 -143.5t32.5 -200q0 -29 -6 -93.5t-35 -135.5q-16 -39 -50 -93.5t-91 -104.5t-140 -85t-198 -35q-33 0 -94 6.5t-137 40.5 q-41 18 -92.5 55.5t-98.5 96.5t-78.5 145t-31.5 203zM281 1202v244h231v-244h-231zM328 522q0 -37 4 -70.5t16 -68.5q6 -18 23.5 -50t48.5 -62.5t76 -53t108 -22.5q70 0 121 27.5t84 73.5t47 104.5t12 119.5q-2 59 -19.5 115.5t-52 100.5t-86 71t-118.5 27q-16 0 -57 -6.5 t-82 -32.5q-20 -12 -42 -35t-40.5 -56.5t-30.5 -78.5t-12 -103zM690 1202v244h234v-244h-234z" />
<glyph unicode="&#xf7;" horiz-adv-x="1482" d="M162 526v230h1159v-230h-1159zM616 127v274h248v-274h-248zM616 879v276h250v-276h-250z" />
<glyph unicode="&#xf8;" horiz-adv-x="1193" d="M18 162l115 92q-23 37 -47.5 99.5t-24.5 164.5q0 29 5.5 81t29.5 120q14 41 49 99.5t94.5 110.5t146.5 89t210 37q74 0 131 -14.5t101 -35t76 -45t54 -45.5l105 84l94 -114l-115 -92q23 -41 50.5 -106.5t27.5 -178.5q0 -25 -3 -66t-16.5 -90t-40 -104t-71.5 -109 q-25 -29 -59.5 -59.5t-83.5 -55t-114.5 -40t-153.5 -15.5q-119 0 -199 37t-162 121l-108 -86zM303 524q0 -20 3 -49t13 -74l459 369q-8 10 -12 15.5t-21 17.5q-31 25 -73.5 39t-83.5 12q-14 0 -38 -3t-51.5 -12.5t-58 -27.5t-57.5 -49q-31 -35 -46 -71t-23.5 -67.5t-9.5 -58 t-1 -41.5zM393 272q10 -12 26.5 -29.5t42 -32.5t59.5 -26.5t77 -11.5q39 0 71.5 9t57.5 23.5t42 30t28 25.5q31 33 48 69t24.5 68.5t8.5 59.5t1 43q0 55 -7.5 85.5t-17.5 55.5z" />
<glyph unicode="&#xf9;" horiz-adv-x="1193" d="M127 434v590h248v-553q0 -31 1 -64.5t8 -65.5t23.5 -58.5t49.5 -44.5q25 -16 57.5 -23.5t60.5 -7.5q45 0 79 12t57.5 30.5t39 38t23.5 34.5q14 29 22.5 63.5t12.5 69t4 69.5v66v434h246v-1024h-246l-2 104q-18 -18 -48 -39.5t-70 -42t-92 -34t-120 -13.5q-63 0 -111 12.5 t-84 32t-60.5 44t-39.5 47.5q-49 72 -54 155.5t-5 167.5zM303 1446h303l107 -272h-185z" />
<glyph unicode="&#xfa;" horiz-adv-x="1193" d="M127 434v590h248v-553q0 -31 1 -64.5t8 -65.5t23.5 -58.5t49.5 -44.5q25 -16 57.5 -23.5t60.5 -7.5q45 0 79 12t57.5 30.5t39 38t23.5 34.5q14 29 22.5 63.5t12.5 69t4 69.5v66v434h246v-1024h-246l-2 104q-18 -18 -48 -39.5t-70 -42t-92 -34t-120 -13.5q-63 0 -111 12.5 t-84 32t-60.5 44t-39.5 47.5q-49 72 -54 155.5t-5 167.5zM492 1174l102 272h303l-221 -272h-184z" />
<glyph unicode="&#xfb;" horiz-adv-x="1193" d="M127 434v590h248v-553q0 -31 1 -64.5t8 -65.5t23.5 -58.5t49.5 -44.5q25 -16 57.5 -23.5t60.5 -7.5q45 0 79 12t57.5 30.5t39 38t23.5 34.5q14 29 22.5 63.5t12.5 69t4 69.5v66v434h246v-1024h-246l-2 104q-18 -18 -48 -39.5t-70 -42t-92 -34t-120 -13.5q-63 0 -111 12.5 t-84 32t-60.5 44t-39.5 47.5q-49 72 -54 155.5t-5 167.5zM250 1171l227 275h242l227 -275h-250l-98 138l-100 -138h-248z" />
<glyph unicode="&#xfc;" horiz-adv-x="1193" d="M127 434v590h248v-553q0 -31 1 -64.5t8 -65.5t23.5 -58.5t49.5 -44.5q25 -16 57.5 -23.5t60.5 -7.5q45 0 79 12t57.5 30.5t39 38t23.5 34.5q14 29 22.5 63.5t12.5 69t4 69.5v66v434h246v-1024h-246l-2 104q-18 -18 -48 -39.5t-70 -42t-92 -34t-120 -13.5q-63 0 -111 12.5 t-84 32t-60.5 44t-39.5 47.5q-49 72 -54 155.5t-5 167.5zM274 1202v244h230v-244h-230zM684 1202v244h234v-244h-234z" />
<glyph unicode="&#xfd;" horiz-adv-x="980" d="M25 1024h264l229 -764l193 764h252l-261 -893q-14 -47 -31.5 -108.5t-40 -121t-50 -111.5t-64.5 -81q-47 -39 -98 -50t-111 -11q-59 0 -88 4t-57 10v213q74 -10 118 -1t72 32q23 23 31 43t12 31zM385 1174l102 272h304l-222 -272h-184z" />
<glyph unicode="&#xfe;" horiz-adv-x="1193" d="M131 -334v1780h246v-514q23 23 50.5 45t62 40.5t77.5 29t99 8.5q119 -2 204.5 -53.5t142 -131t83 -177t26.5 -189.5q0 -96 -28.5 -191.5t-86 -172.5t-145.5 -124t-205 -47q-106 0 -170.5 37t-109.5 78v-418h-246zM373 518q-2 -41 5 -80t21 -76q33 -84 92.5 -121.5 t131.5 -37.5q45 0 89 16.5t78.5 53t57 95t22.5 142.5q0 82 -22.5 140.5t-57 95t-78.5 54t-87 19.5q-41 0 -85 -15.5t-81 -51t-60.5 -93t-25.5 -141.5z" />
<glyph unicode="&#xff;" horiz-adv-x="980" d="M25 1024h264l229 -764l193 764h252l-261 -893q-14 -47 -31.5 -108.5t-40 -121t-50 -111.5t-64.5 -81q-47 -39 -98 -50t-111 -11q-59 0 -88 4t-57 10v213q74 -10 118 -1t72 32q23 23 31 43t12 31zM172 1202v244h229v-244h-229zM582 1202v244h233v-244h-233z" />
<glyph unicode="&#x152;" horiz-adv-x="2260" d="M96 694q0 23 2 64t13 96q6 39 23.5 105.5t56 143.5t105 153.5t171.5 136.5q76 43 162 66.5t172 23.5q61 0 112.5 -11.5t92.5 -26.5t71.5 -31.5t50.5 -29.5v62h1033v-246h-764v-346h665v-233h-665v-377h809v-244h-1078l-2 51q-47 -27 -132 -57.5t-218 -30.5q-29 0 -74 3 t-100 17.5t-116.5 43t-123.5 77.5q-39 31 -85 81.5t-85.5 122t-67.5 167.5t-28 219zM385 698q0 -88 17.5 -165.5t68.5 -151.5q16 -25 45 -55.5t71 -58t100 -46t134 -18.5q96 0 153.5 26.5t90.5 55.5q37 31 48 54t15 46v547v84.5t-14 56.5q-23 39 -56.5 68.5t-74.5 48t-86 28 t-88 9.5q-27 0 -80 -8.5t-115 -42.5q-41 -23 -81.5 -61t-73.5 -95t-53.5 -137t-20.5 -185z" />
<glyph unicode="&#x153;" horiz-adv-x="1878" d="M70 502q0 123 37.5 229.5t130.5 192.5q49 47 99 73.5t96 39t84 15.5t63 3q74 0 132 -16.5t103 -40t76 -49t51 -46.5q55 51 105.5 81t95.5 45t85 20.5t75 5.5q102 0 198 -37q29 -12 68 -36t78 -61.5t74.5 -94t58.5 -134.5q6 -23 11 -46t9 -51t7 -62.5t5 -79.5h-735 q2 -10 6 -39t17 -58q31 -78 95.5 -123t150.5 -45q20 0 49.5 5.5t63.5 20.5t68 42t64 72l199 -121q-33 -47 -61.5 -72.5t-45.5 -40.5q-86 -68 -164.5 -96.5t-189.5 -28.5q-90 0 -158.5 19.5t-138.5 77.5q-35 29 -52 50t-30 38q-20 -29 -39.5 -49.5t-48.5 -43.5 q-66 -51 -136.5 -71.5t-154.5 -20.5q-70 0 -124 12.5t-96 31t-72.5 41t-53.5 42.5q-57 53 -88 114.5t-46 118t-18 102.5t-3 71zM317 510q0 -12 1 -39t10 -59q4 -20 18 -57.5t43 -74t75 -62t116 -25.5q43 0 76.5 11t58 26.5t40 33t25.5 29.5q23 31 42.5 79t19.5 132 q0 16 -4 56t-21 85q-29 82 -91 131t-151 49q-68 0 -115.5 -27.5t-79.5 -71.5t-47.5 -101.5t-15.5 -114.5zM1077 627h451q-4 14 -8 30q-4 12 -9.5 27.5t-9.5 28.5q-6 14 -20.5 35.5t-39 42t-59 36t-82.5 15.5q-16 0 -40.5 -4t-52 -16.5t-54.5 -36t-47 -62.5 q-12 -23 -18.5 -46.5t-10.5 -49.5z" />
<glyph unicode="&#x178;" horiz-adv-x="1280" d="M20 1446h308l313 -598l315 598h304l-488 -875v-571h-268v571zM322 1581v252h229v-252h-229zM731 1581v252h234v-252h-234z" />
<glyph unicode="&#x2c6;" horiz-adv-x="555" d="M-72 1171l228 275h241l230 -275h-252l-96 138l-103 -138h-248z" />
<glyph unicode="&#x2dc;" horiz-adv-x="555" d="M-90 1196q0 6 4 37t12 57q4 12 16.5 39t35 54.5t58.5 49t87 21.5q31 0 67.5 -11t98.5 -30q20 -10 43 -18q18 -6 39.5 -11.5t38.5 -5.5q16 0 35.5 9.5t27.5 25.5q6 12 6 14.5t6 18.5h162q-6 -25 -10 -51.5t-12 -53.5q-4 -12 -16.5 -36.5t-34 -49t-55.5 -43t-81 -18.5 q-45 0 -89 14.5t-83 30.5q-47 18 -73.5 26.5t-49.5 8.5q-4 0 -13 -1t-19 -7q-20 -10 -28.5 -29.5t-12.5 -40.5h-160z" />
<glyph unicode="&#x2000;" horiz-adv-x="986" />
<glyph unicode="&#x2001;" horiz-adv-x="1972" />
<glyph unicode="&#x2002;" horiz-adv-x="986" />
<glyph unicode="&#x2003;" horiz-adv-x="1972" />
<glyph unicode="&#x2004;" horiz-adv-x="657" />
<glyph unicode="&#x2005;" horiz-adv-x="493" />
<glyph unicode="&#x2006;" horiz-adv-x="328" />
<glyph unicode="&#x2007;" horiz-adv-x="328" />
<glyph unicode="&#x2008;" horiz-adv-x="246" />
<glyph unicode="&#x2009;" horiz-adv-x="394" />
<glyph unicode="&#x200a;" horiz-adv-x="109" />
<glyph unicode="&#x2010;" horiz-adv-x="761" d="M84 506v231h592v-231h-592z" />
<glyph unicode="&#x2011;" horiz-adv-x="761" d="M84 506v231h592v-231h-592z" />
<glyph unicode="&#x2012;" horiz-adv-x="761" d="M84 506v231h592v-231h-592z" />
<glyph unicode="&#x2013;" horiz-adv-x="1249" d="M84 506v231h1081v-231h-1081z" />
<glyph unicode="&#x2014;" horiz-adv-x="1828" d="M84 506v231h1661v-231h-1661z" />
<glyph unicode="&#x2018;" horiz-adv-x="425" d="M74 887v307q0 20 1 44t7 42q12 39 37.5 68.5t59.5 51t73 35t78 17.5v-121q-35 -4 -56.5 -18.5t-34 -37t-16.5 -50t-4 -58.5h127v-280h-272z" />
<glyph unicode="&#x2019;" horiz-adv-x="425" d="M80 1165v281h268v-305q0 -117 -71.5 -181.5t-182.5 -80.5v114q27 12 46.5 22.5t33.5 26t21.5 37t7.5 54.5v16t-2 16h-121z" />
<glyph unicode="&#x201a;" horiz-adv-x="425" d="M76 0v281h272v-301v-9q0 -111 -58.5 -166t-162.5 -81q-20 -4 -35 -9v119q35 4 56.5 19.5t34 38t16.5 50t4 58.5h-127z" />
<glyph unicode="&#x201c;" horiz-adv-x="768" d="M76 893v297q0 127 62.5 188.5t185.5 85.5v-114q-39 -16 -60.5 -30.5t-31 -33t-11.5 -45.5t-2 -65h123v-283h-266zM426 893v311q0 66 16.5 110t69.5 85q37 29 79 41t87 16v-108q-37 -14 -59.5 -27.5t-35 -31t-15.5 -44t-3 -69.5h127v-283h-266z" />
<glyph unicode="&#x201d;" horiz-adv-x="768" d="M76 1161v285h266v-318q0 -63 -17.5 -106t-68.5 -82q-35 -27 -78 -43t-88 -14v108q113 29 113 142q0 8 -1 14t-1 14h-125zM426 1161v285h266v-293q0 -129 -61.5 -193.5t-188.5 -87.5v115q39 12 60.5 27.5t32 35t12.5 47t2 64.5h-123z" />
<glyph unicode="&#x201e;" horiz-adv-x="768" d="M76 0v285h266v-299q0 -27 -1 -58.5t-11 -54.5q-29 -70 -97.5 -112t-142.5 -42v109q113 29 113 143q0 8 -1 14.5t-1 14.5h-125zM426 0v285h266v-295q0 -129 -60.5 -193.5t-189.5 -87.5v115q55 18 81 46t26 87v43h-123z" />
<glyph unicode="&#x2022;" horiz-adv-x="681" d="M96 477v488h490v-488h-490z" />
<glyph unicode="&#x2026;" horiz-adv-x="2048" d="M225 0v227h230v-227h-230zM909 0v227h230v-227h-230zM1591 0v227h232v-227h-232z" />
<glyph unicode="&#x202f;" horiz-adv-x="394" />
<glyph unicode="&#x2039;" horiz-adv-x="512" d="M115 500v288l291 234v-234l-177 -145l177 -143v-230z" />
<glyph unicode="&#x203a;" horiz-adv-x="512" d="M102 264v232l177 147l-177 141v232l291 -232v-288z" />
<glyph unicode="&#x205f;" horiz-adv-x="493" />
<glyph unicode="&#x20ac;" horiz-adv-x="1429" d="M68 516l55 148h88l4 81h-147l55 148h108q59 254 232.5 392t433.5 138q137 0 246.5 -31.5t218.5 -119.5l-94 -273q-72 94 -154 139.5t-203 45.5q-145 0 -245.5 -75t-139.5 -216h707l-55 -148h-672q-2 -10 -2 -19v-19v-21.5t2 -21.5h647l-55 -148h-574q41 -147 140.5 -228 t255.5 -81q115 0 219 47t180 133v-305q-98 -66 -205.5 -95.5t-224.5 -29.5q-276 0 -441 146.5t-221 412.5h-159z" />
<glyph unicode="&#x2122;" horiz-adv-x="1406" d="M16 1327v119h521v-119h-181v-561h-147v561h-193zM621 766l2 680h217l116 -477l113 477h215l2 -680h-135l2 539l-139 -539h-119l-143 547l8 -547h-139z" />
<glyph unicode="&#x25fc;" horiz-adv-x="1025" d="M0 0v1025h1025v-1025h-1025z" />
</font>
</defs>
</svg>
