<?xml version="1.0" standalone="no"?>
<!DOCTYPE svg PUBLIC "-//W3C//DTD SVG 1.1//EN" "http://www.w3.org/Graphics/SVG/1.1/DTD/svg11.dtd" >
<svg xmlns="http://www.w3.org/2000/svg">
<metadata></metadata>
<defs>
<font id="engrvrsoldeng_bd_btbold" horiz-adv-x="1151" >
<font-face units-per-em="2048" ascent="1638" descent="-410" />
<missing-glyph horiz-adv-x="606" />
<glyph horiz-adv-x="0" />
<glyph unicode="&#xd;" horiz-adv-x="606" />
<glyph unicode=" "  horiz-adv-x="606" />
<glyph unicode="&#x09;" horiz-adv-x="606" />
<glyph unicode="&#xa0;" horiz-adv-x="606" />
<glyph unicode="!" horiz-adv-x="539" d="M63 1253q69 44 127 93t99 100q29 -81 92 -127.5t156 -56.5q-38 -32 -75.5 -54t-76.5 -37l-111 -819l-119 826q-25 15 -48 34t-44 41zM119 94q43 37 83 77.5t79 86.5q31 -31 70 -66t100 -86q-49 -36 -90.5 -76.5t-77.5 -86.5q-46 47 -85.5 83.5t-78.5 67.5z" />
<glyph unicode="&#x22;" horiz-adv-x="694" d="M84 1354q0 52 24.5 80t69.5 28q47 0 71.5 -27.5t24.5 -80.5q0 -16 -0.5 -24.5t-1.5 -15.5l-73 -458h-39l-74 459q-1 7 -1.5 15.5t-0.5 23.5zM420 1354q0 51 25.5 79.5t70.5 28.5t70.5 -28t25.5 -78q0 -13 -3 -36q-1 -4 -1 -5l-73 -459h-39l-74 458q-1 8 -1.5 16.5 t-0.5 23.5z" />
<glyph unicode="#" horiz-adv-x="1575" d="M70 428l59 168h301l92 262h-319l61 166h318l155 436h183l-156 -436h268l156 436h182l-156 -436h291l-59 -166h-291l-92 -262h307l-59 -168h-307l-154 -434h-184l155 434h-268l-154 -434h-184l156 434h-301zM608 594h275l94 264h-275z" />
<glyph unicode="$" horiz-adv-x="1214" d="M-2 11q4 119 84 234.5t328 327.5h-291q27 29 39 67t12 97v332q0 51 -14 83.5t-47 59.5q24 -3 53.5 -4.5t91.5 -1.5q94 0 175 12t144 35v217h45v-202q43 17 87.5 41t91.5 55q51 -50 88 -70t73 -20q47 0 81.5 27t36.5 63h38q-15 -116 -94.5 -235.5t-255.5 -282.5h346 q-22 -30 -31.5 -58t-9.5 -67v-426q0 -53 13 -88t42 -62q-58 17 -117 25t-120 8q-70 0 -135 -12.5t-134 -38.5v-283h-45v265q-36 -20 -74 -47.5t-73 -61.5q-81 81 -134 112t-106 31q-63 0 -101 -33.5t-50 -99.5zM84 186q78 56 148.5 81.5t144.5 25.5q45 0 93 -12t103 -37v432 q-47 -53 -225.5 -205t-263.5 -285zM408 686h135l30 31v504l-165 -37v-498zM618 223l46 -41l163 31v506h-194l-15 -17v-479zM618 760l166 166q15 14 43 42q163 161 197 253q-54 -51 -106.5 -75t-110.5 -24q-59 0 -104.5 24t-84.5 75v-461z" />
<glyph unicode="%" horiz-adv-x="1792" d="M0 549q16 26 39 46t57 36v499q0 46 -9.5 74.5t-33.5 52.5q18 -1 33.5 -1.5t28.5 -0.5q92 0 176.5 27.5t146.5 77.5q61 -54 126 -78.5t152 -28.5q-11 -16 -27.5 -29.5t-41.5 -27.5v-494q0 -35 8.5 -60t28.5 -56q-104 -2 -199.5 -35.5t-183.5 -99.5q-60 49 -125.5 72.5 t-144.5 23.5q-1 0 -10.5 1t-20.5 1zM270 1249l1 -598q45 -3 85 -24.5t82 -65.5q10 6 18.5 9.5t16.5 5.5v585q-56 13 -94.5 38t-65.5 65q-17 -8 -26.5 -11t-16.5 -4zM379 -57l897 1417h127l-895 -1417h-129zM1040 41q17 27 41.5 47.5t57.5 34.5v500q0 44 -11 73.5t-34 53.5 h30h33q92 0 175.5 27t146.5 77q61 -54 127 -79.5t153 -29.5q-10 -12 -25 -24.5t-46 -32.5v-493q0 -36 8 -61t28 -56q-104 -2 -198.5 -35.5t-184.5 -99.5q-59 50 -124 74t-144 24h-33zM1313 146q45 -4 84 -25t83 -67q2 0 6 2q20 10 30 12v585q-57 13 -96.5 38t-65.5 64 q-12 -4 -21.5 -7t-19.5 -5v-597z" />
<glyph unicode="&#x26;" horiz-adv-x="1462" d="M0 268l465 439q-70 123 -150.5 213t-154.5 127l532 399l15 -21q146 -213 282 -348l-332 -262q63 -110 106 -194.5t62 -135.5l316 334q13 -56 44 -88.5t70 -32.5q32 0 55.5 15t47.5 49q-22 -112 -97 -184t-165 -72q-40 0 -69.5 20t-49.5 60l-129 -137q92 -172 169.5 -243 t168.5 -71q55 0 103.5 24.5t84.5 69.5q-19 -128 -104 -206t-203 -78q-106 0 -191 76t-186 268l-348 -344q-144 153 -218.5 223t-123.5 100zM186 395q74 -58 144 -125t139 -147l203 201q-12 26 -64 122t-123 224zM367 1163q96 -85 163.5 -163t108.5 -150l162 129l-250 317z " />
<glyph unicode="'" horiz-adv-x="358" d="M84 1354q0 52 24.5 80t69.5 28q47 0 71.5 -27.5t24.5 -80.5q0 -16 -0.5 -24.5t-1.5 -15.5l-73 -458h-39l-74 459q-1 7 -1.5 15.5t-0.5 23.5z" />
<glyph unicode="(" horiz-adv-x="696" d="M125 459q0 287 147.5 551t405.5 438v-43q-200 -168 -308 -372.5t-108 -411.5q0 -174 80.5 -336.5t249.5 -329.5l24 33l31 -25l-168 -235l-30 20l12 27q-162 132 -249 309.5t-87 374.5z" />
<glyph unicode=")" horiz-adv-x="696" d="M20 -229q198 165 306 370.5t108 415.5q0 173 -80 334.5t-250 329.5l-24 -33l-31 24l170 236l31 -21l-14 -26q162 -134 249.5 -311.5t87.5 -372.5q0 -287 -146.5 -550.5t-406.5 -438.5v43z" />
<glyph unicode="*" horiz-adv-x="1024" d="M66 1030l75 238l322 -185l-78 363h254l-78 -363l322 185l75 -238l-366 -39l272 -252l-200 -145l-152 340l-152 -340l-200 145l272 252z" />
<glyph unicode="+" horiz-adv-x="1706" d="M254 528v166h514v527h170v-527h514v-166h-514v-528h-170v528h-514z" />
<glyph unicode="," horiz-adv-x="606" d="M143 70l162 186q69 -98 91 -155.5t22 -120.5q0 -78 -44 -146t-126 -118q9 27 13.5 54.5t4.5 55.5q0 76 -26.5 130t-96.5 114z" />
<glyph unicode="-" horiz-adv-x="797" d="M43 377l84 215q11 -15 24 -22t31 -7h482q34 0 53 6.5t37 22.5l-86 -215q-15 15 -31.5 22t-36.5 7h-477q-24 0 -43 -7t-37 -22z" />
<glyph unicode="." horiz-adv-x="606" d="M117 70l143 186q46 -72 82.5 -101.5t77.5 -29.5q11 0 26 4t35 12q-44 -97 -89.5 -139.5t-104.5 -42.5q-49 0 -94 29t-76 82z" />
<glyph unicode="/" horiz-adv-x="530" d="M-41 -190l479 1636h133l-479 -1636h-133z" />
<glyph unicode="0" horiz-adv-x="1214" d="M35 109q27 44 62.5 75t84.5 54v768q0 70 -15.5 114.5t-51.5 81.5q17 -1 37 -1.5t59 -0.5q144 0 273 41.5t225 118.5q102 -85 204 -124.5t217 -39.5h8q-14 -19 -36.5 -38t-71.5 -50v-762q0 -53 12.5 -91.5t44.5 -88.5q-161 -2 -308 -53.5t-281 -153.5q-96 78 -194.5 114 t-219.5 36h-49zM434 269q81 -5 150 -38.5t137 -101.5q15 8 30 14t29 9v901q-92 18 -160.5 57.5t-113.5 99.5q-18 -7 -35.5 -12t-35.5 -8z" />
<glyph unicode="1" horiz-adv-x="799" d="M55 1135v39q73 21 150 67.5t160 118.5q98 -59 136 -127t38 -197v-778q36 -12 66.5 -31.5t60.5 -50.5l106 62l16 -35q-61 -35 -142.5 -101.5t-172.5 -156.5q-60 63 -138.5 99t-154.5 36q-21 0 -44 -4t-50 -13q31 70 85 119.5t126 73.5v621q0 154 -51 205t-191 53z" />
<glyph unicode="2" horiz-adv-x="985" d="M29 1278q24 -14 47.5 -20.5t48.5 -6.5q55 0 121.5 28.5t132.5 80.5q105 -87 203.5 -128.5t195.5 -41.5q24 0 59 3t81 9q-31 -35 -44.5 -73t-13.5 -105v-270q0 -70 13.5 -112t44.5 -73q-69 18 -128.5 26.5t-117.5 8.5q-260 0 -417 -105.5t-157 -279.5v-4q93 10 179 15.5 t167 5.5q126 0 227.5 -10.5t192.5 -32.5l58 57l22 -27q-63 -64 -109 -122t-77 -111q-89 26 -187 38.5t-215 12.5q-69 0 -144 -4.5t-155 -13.5q-5 37 -7.5 72t-2.5 65q0 196 89 309.5t288 173.5q31 9 79 21q107 26 107 151v365l-32 12q-76 -58 -144 -86.5t-133 -28.5 q-102 0 -175 54t-97 147z" />
<glyph unicode="3" horiz-adv-x="1034" d="M-57 98q57 94 136.5 143.5t172.5 49.5q90 0 159 -45.5t126 -143.5l75 27v448q-61 10 -114.5 42t-65.5 32q-20 0 -43.5 -19.5t-64.5 -74.5v155q13 -8 28 -13t29 -5q18 0 94.5 32.5t136.5 51.5v402l-53 20q-57 -78 -119.5 -115.5t-132.5 -37.5q-82 0 -155.5 47.5 t-120.5 132.5q38 -6 57 -8t33 -2q74 0 132.5 34t111.5 109q76 -80 205 -123.5t339 -58.5q-27 -21 -38 -50t-11 -86v-200q0 -23 13 -44t36 -36q-154 -9 -253 -30t-171 -58q78 -45 188.5 -69.5t235.5 -24.5q-24 -21 -36.5 -49t-12.5 -64v-195q0 -55 12 -98.5t37 -79.5 q-39 4 -70 6t-48 2q-144 0 -261.5 -40t-205.5 -119q-67 78 -144 120.5t-151 42.5q-18 0 -40 -2t-46 -6z" />
<glyph unicode="4" horiz-adv-x="1128" d="M0 379v231q192 182 355.5 369.5t299.5 382.5q69 -79 125.5 -113.5t114.5 -34.5q18 0 39.5 4t50.5 13q-10 -65 -43 -109t-94 -73v-621h98q41 0 68 13.5t76 64.5q-9 -20 -13 -40.5t-4 -45.5q0 -32 4 -60.5t13 -56.5q-28 39 -63 57.5t-79 18.5h-100v-127q56 -17 96 -50 t74 -89q-81 -27 -148.5 -70t-117.5 -100q-45 71 -92 104t-105 33q-23 0 -49.5 -6t-59.5 -19q25 69 60 110.5t90 67.5v146h-596zM236 428h360v614l-78 64l-282 -324v-354z" />
<glyph unicode="5" horiz-adv-x="1073" d="M0 94q56 109 129 161t170 52q94 0 166.5 -47t128.5 -145l53 14v459q-58 6 -106.5 38t-96.5 97q-57 -21 -122 -40t-138 -36q-4 -39 -19.5 -60.5t-39.5 -21.5q-18 0 -29.5 12t-11.5 31q0 21 14.5 37.5t42.5 30.5q18 175 30 341t20 345q117 -53 229.5 -79t224.5 -26 q100 0 168.5 25t128.5 80q-34 -172 -146.5 -260t-295.5 -88q-77 0 -144.5 18.5t-130.5 57.5l-39 -402q104 22 205 61t271 132q89 -81 156 -115.5t132 -34.5q8 0 19 1t30 3q-15 -40 -41 -70.5t-67 -54.5v-342q0 -59 13 -99.5t42 -76.5q-57 8 -93.5 11t-66.5 3 q-105 0 -205.5 -33t-203.5 -102q-64 76 -128 113t-134 37q-25 0 -52.5 -6.5t-62.5 -20.5z" />
<glyph unicode="6" horiz-adv-x="1214" d="M60 121q15 36 42 64t70 53v733q0 81 -16 120.5t-55 73.5q12 -1 25.5 -1.5t41.5 -0.5q151 0 290 49.5t265 147.5q42 -77 110 -121.5t142 -44.5q19 0 42.5 4.5t59.5 15.5q-48 -100 -119 -151t-161 -51q-72 0 -145.5 44t-147.5 132l-76 -25v-501q96 36 192 87t193 117 q64 -66 117 -95.5t106 -29.5q23 0 46 7t44 20q-6 -56 -31 -93t-73 -61v-335q0 -68 13.5 -107t43.5 -70h-12q-159 0 -308 -38t-315 -121q-84 92 -175 134t-209 44zM428 268q84 -18 149 -63t109 -115l92 27v452q-48 11 -91 42t-83 85q-45 -24 -89 -44.5t-87 -37.5v-346z" />
<glyph unicode="7" horiz-adv-x="995" d="M0 973l188 389q153 -65 270.5 -95t219.5 -30q78 0 140 19.5t112 60.5l37 -33q-285 -442 -364 -612t-79 -287q0 -85 39.5 -138.5t98.5 -53.5q26 0 52 16t58 53l27 -29q-81 -77 -152.5 -149t-136.5 -141q-133 52 -196.5 134.5t-63.5 201.5q0 228 508 813q77 89 119 137 q-149 -112 -285.5 -161.5t-284.5 -49.5q-61 0 -114 10.5t-105 32.5l-55 -105z" />
<glyph unicode="8" horiz-adv-x="1214" d="M51 103q22 50 54 81.5t83 53.5v192q0 65 -7 91.5t-23 47.5q99 2 201.5 26t203.5 71q-72 38 -171 63t-228 37q26 25 38.5 58t12.5 79v107q0 60 -17 101.5t-54 76.5q182 1 340 44.5t288 127.5q66 -89 156.5 -131.5t212.5 -42.5q-25 -33 -56 -57.5t-69 -41.5v-186 q0 -50 13 -86t44 -70q-144 0 -238.5 -19t-166.5 -62q93 -50 187 -74.5t194 -24.5h24q-20 -32 -29.5 -66.5t-9.5 -82.5v-183q0 -35 9.5 -61.5t29.5 -46.5q-191 -11 -350.5 -56.5t-292.5 -125.5q-78 84 -152.5 125t-148.5 41q-11 0 -29.5 -1.5t-48.5 -4.5zM432 258 q67 -21 120.5 -61t104.5 -109l136 45v426l-179 82l-182 -68v-315zM455 760l166 -68l153 74v295q-75 29 -127.5 69.5t-77.5 88.5l-114 -35v-424z" />
<glyph unicode="9" horiz-adv-x="1214" d="M72 90q46 94 125 147.5t170 53.5q81 0 160.5 -44.5t156.5 -133.5l84 28v504q-97 -38 -191.5 -89.5t-189.5 -117.5q-69 70 -120.5 98.5t-102.5 28.5q-22 0 -44 -6.5t-48 -21.5q6 56 30.5 93t71.5 60v336q0 70 -12.5 107t-42.5 67h12q156 0 307 39t314 121 q84 -92 176.5 -134t210.5 -42q-16 -36 -43 -64t-70 -53v-735q0 -83 15.5 -122t54.5 -73q-21 1 -41.5 1.5t-42.5 0.5q-138 0 -277.5 -50.5t-261.5 -145.5q-46 83 -116.5 126.5t-157.5 43.5q-28 0 -58.5 -5.5t-68.5 -17.5zM418 733q46 -10 88 -39.5t88 -85.5q57 30 97 49 t77 33v346q-95 22 -157 64.5t-101 113.5l-92 -28v-453z" />
<glyph unicode=":" horiz-adv-x="653" d="M141 70l144 186q46 -72 82.5 -101.5t76.5 -29.5q11 0 24.5 3.5t34.5 12.5q-44 -98 -88.5 -140t-103.5 -42q-49 0 -93.5 29t-76.5 82zM141 823l144 187q45 -71 81.5 -100t77.5 -29q14 0 28.5 3.5t31.5 10.5q-45 -99 -89.5 -140.5t-103.5 -41.5q-49 0 -93.5 29t-76.5 81z " />
<glyph unicode=";" horiz-adv-x="653" d="M141 823l144 187q45 -71 81.5 -100t77.5 -29q14 0 28.5 3.5t31.5 10.5q-45 -99 -89.5 -140.5t-103.5 -41.5q-49 0 -93.5 29t-76.5 81zM166 70l164 186q67 -95 88.5 -153.5t21.5 -122.5q0 -78 -43 -146t-124 -118q8 26 13 54.5t5 55.5q0 75 -27.5 129t-97.5 115z" />
<glyph unicode="&#x3c;" horiz-adv-x="1706" d="M264 530v160l1178 486v-185l-934 -381l934 -381v-182z" />
<glyph unicode="=" horiz-adv-x="1706" d="M254 322v165h1198v-165h-1198zM254 733v168h1198v-168h-1198z" />
<glyph unicode="&#x3e;" horiz-adv-x="1706" d="M264 47v182l934 381l-934 381v185l1178 -486v-160z" />
<glyph unicode="?" horiz-adv-x="934" d="M23 1317q26 -14 46.5 -20.5t39.5 -6.5q51 0 101 38t103 118q88 -60 216.5 -90.5t293.5 -30.5h33q-21 -30 -32 -75t-11 -99v-262q0 -41 9 -83.5t28 -92.5h-55q-219 0 -302.5 -71.5t-115.5 -281.5q-14 80 -20.5 138t-6.5 102q0 119 40.5 172t154.5 88v455l-56 10 q-43 -88 -101.5 -132t-131.5 -44q-69 0 -130 44t-103 124zM221 96q44 38 84.5 78.5t79.5 83.5q34 -32 76 -69t96 -80q-54 -35 -96 -75t-76 -89q-37 43 -77.5 80t-86.5 71z" />
<glyph unicode="@" horiz-adv-x="2019" d="M139 537q0 203 86 381t250 313q135 111 297.5 168t345.5 57q348 0 557 -188.5t209 -501.5q0 -159 -59 -297.5t-168 -237.5q-62 -54 -129 -82t-133 -28q-98 0 -152.5 52.5t-60.5 152.5q-64 -105 -137.5 -154t-165.5 -49q-134 0 -212.5 92t-78.5 248q0 112 49 219t141 195 q68 65 147.5 99t161.5 34q90 0 145.5 -47.5t72.5 -139.5l51 170h172l-172 -616l-2 -6q-15 -59 -15 -90q0 -49 22 -76t60 -27q34 0 84 22t92 56q110 88 169 222t59 296q0 279 -191 450t-504 171q-173 0 -328.5 -65t-273.5 -185q-122 -125 -183.5 -286t-61.5 -357 q0 -172 59.5 -306.5t179.5 -234.5q106 -88 247 -135t302 -47q166 0 321 51.5t304 157.5l37 -47q-148 -111 -315 -167.5t-347 -56.5q-188 0 -347 46.5t-275 134.5q-151 113 -230.5 277t-79.5 362zM772 367q0 -83 36.5 -133t94.5 -50q62 0 115.5 41.5t107.5 132.5 q56 96 89.5 210t33.5 204q0 83 -37.5 132.5t-99.5 49.5q-64 0 -117 -45t-106 -147q-57 -107 -87 -209.5t-30 -185.5z" />
<glyph unicode="A" horiz-adv-x="1473" d="M-49 -57q52 143 139 220t211 91l227 489q-28 53 -68.5 79t-94.5 26q-45 0 -84.5 -19t-79.5 -59q10 138 85.5 218.5t192.5 80.5q50 0 90.5 -17.5t77.5 -54.5l60 125q-30 51 -76 77t-109 26q-82 0 -162.5 -35.5t-150.5 -102.5q33 153 161 258t277 105q101 0 171 -52.5 t114 -160.5l373 -932q26 -64 72.5 -95.5t115.5 -31.5h6v-33q-49 -42 -95.5 -92.5t-90.5 -109.5q-91 15 -144 65.5t-108 198.5l-82 213h-557l-76 -160q5 0 16.5 1t16.5 1q61 0 120 -16t117 -49l76 63l31 -27q-80 -67 -144.5 -138.5t-113.5 -147.5q-64 34 -130.5 50.5 t-137.5 16.5q-68 0 -128 -17.5t-118 -53.5zM516 621h385l-174 456z" />
<glyph unicode="B" horiz-adv-x="1565" d="M47 559q0 98 48.5 148.5t144.5 50.5h6q0 131 76 214.5t241 131.5q-25 -36 -37 -78.5t-12 -97.5v-410q0 -144 -82 -238t-260 -153q40 34 57 68t17 96v26v207h-78q-43 0 -65.5 -24t-28.5 -78q-14 41 -20.5 74.5t-6.5 62.5zM51 1151q50 136 142 216.5t194 80.5 q59 0 160.5 -40t150.5 -40q40 0 78 13t80 40q-78 -119 -180 -188.5t-195 -69.5q-40 0 -132 33t-140 33q-40 0 -78 -19t-80 -59zM123 -55q102 139 246.5 216t304.5 77q70 0 146.5 -11.5t166.5 -36.5v768h37v-157q99 46 157 132t58 185q0 85 -52.5 142t-131.5 57 q-89 0 -130.5 -66t-41.5 -211v-391q0 -194 -66.5 -253.5t-269.5 -104.5q37 33 52 73t15 138v434q0 81 44.5 151t148.5 148q129 98 237 151.5t175 53.5q89 0 153 -71.5t64 -174.5q0 -119 -83 -221t-235 -170q178 -17 242.5 -78.5t64.5 -212.5v-209q0 -59 13.5 -107.5 t39.5 -88.5q-35 3 -70 4.5t-69 1.5q-119 0 -247.5 -43t-262.5 -127q-76 40 -152 58.5t-159 18.5q-87 0 -185.5 -18.5t-209.5 -56.5zM1024 178l106 -43l95 21v147q-34 14 -57.5 20.5t-43.5 6.5q-17 0 -40.5 -6.5t-59.5 -20.5v-125zM1024 340q29 13 53 19t47 6q25 0 49 -6 t52 -19v205q-27 -13 -51.5 -19t-49.5 -6q-22 0 -47.5 6.5t-52.5 18.5v-205zM1024 584q30 -13 56 -20t44 -7q20 0 43.5 6.5t57.5 20.5v88q0 60 -26 79.5t-142 30.5l-33 -10v-188z" />
<glyph unicode="C" horiz-adv-x="1475" d="M59 635q0 318 215 542.5t539 245.5q-235 -133 -334.5 -290t-99.5 -390q0 -270 146.5 -440t375.5 -170q36 0 77.5 5.5t92.5 17.5v995q-42 20 -74 49.5t-59 73.5l-31 -17v-665q0 -156 -73.5 -223t-249.5 -72q21 32 30 74.5t9 126.5v583l-93 -55l-14 31l633 389 q35 -58 79.5 -87.5t96.5 -29.5q22 0 49 9.5t62 29.5q-37 -112 -109 -168.5t-178 -56.5q-16 0 -24.5 0.5t-14.5 0.5v-976q67 15 151.5 61.5t221.5 145.5q-103 -214 -282.5 -323t-426.5 -109q-318 0 -516.5 192.5t-198.5 499.5z" />
<glyph unicode="D" horiz-adv-x="1489" d="M55 -57q116 162 269.5 245.5t334.5 83.5h7v912q-92 -12 -158 -17.5t-113 -5.5q-168 0 -249 69.5t-82 213.5q68 -21 136.5 -31t141.5 -10q102 0 292.5 21.5t276.5 21.5q215 0 314.5 -122.5t99.5 -389.5v-576q0 -46 12.5 -88.5t40.5 -93.5q-188 -20 -336.5 -77t-263.5 -154 q-99 50 -183.5 74t-162.5 24q-100 0 -196 -25.5t-181 -74.5zM63 592q0 101 49 151t148 50h19q6 121 79.5 197.5t231.5 125.5q-22 -33 -31.5 -71t-9.5 -105v-395q0 -115 -85.5 -189t-264.5 -114q43 31 61.5 63.5t18.5 93.5v19v141h-95q-45 0 -67.5 -23.5t-28.5 -76.5 q-12 35 -18.5 68.5t-6.5 64.5zM702 268q92 -9 163.5 -42.5t133.5 -96.5l62 23v348q-43 27 -86.5 40t-93.5 13q-46 0 -90 -13t-89 -40v-232zM702 535q45 27 89 40t90 13q48 0 91.5 -11t88.5 -34v352q-43 -26 -87 -38.5t-93 -12.5q-51 0 -94 11.5t-85 37.5v-358zM702 934 q46 -28 89.5 -41.5t89.5 -13.5q48 0 92 13.5t88 41.5v67q0 104 -50 152.5t-157 48.5q-26 0 -63 -3t-89 -9v-256z" />
<glyph unicode="E" horiz-adv-x="1497" d="M25 1153q50 135 141.5 214t195.5 79q59 0 159 -39t151 -39q39 0 77 13t80 40q-76 -115 -179 -185.5t-189 -70.5q-46 0 -139.5 34t-139.5 34q-36 0 -74.5 -19.5t-82.5 -60.5zM82 594q0 94 58 147.5t161 53.5h21v96q0 111 65.5 165t243.5 85q-19 -27 -27 -69.5t-8 -121.5 v-438q0 -153 -67.5 -225t-260.5 -127q28 37 41 81t13 101v221q-16 0 -32.5 1t-17.5 1q-59 0 -97.5 -25t-59.5 -79q-17 35 -25 67.5t-8 65.5zM180 -51q120 113 254 193t273 120v713q0 221 124.5 346t344.5 125q53 0 111 -16t118 -48l37 43l31 -30q-48 -59 -95.5 -131 t-97.5 -160q-56 57 -129 89t-150 32q-132 0 -194 -67.5t-62 -213.5v-254q68 95 151 142t183 47q42 0 80.5 -10.5t79.5 -32.5l53 51l37 -27q-66 -79 -118.5 -156.5t-94.5 -156.5q-56 52 -114 77t-121 25q-35 0 -68 -5.5t-68 -16.5v-348q62 15 125 22.5t134 7.5 q82 0 173.5 -21t198.5 -65l68 78l33 -33q-65 -77 -124.5 -158.5t-113.5 -166.5q-128 55 -261.5 83.5t-264.5 28.5q-125 0 -257.5 -26.5t-275.5 -79.5z" />
<glyph unicode="F" horiz-adv-x="1475" d="M-110 -57q3 153 85 249.5t205 96.5q117 0 248 -110q37 -31 55 -44q52 -36 108.5 -58t96.5 -22q78 0 109.5 49t31.5 199v723q0 71 21 111.5t76 79.5l329 229q37 -56 70 -80.5t72 -24.5q37 0 68 19t57 57v-6q0 -117 -52 -187t-149 -83v-1075h-39v550h-190v-229 q0 -143 -50 -210t-172 -114l-219 -81q-59 -23 -98 -31t-80 -8q-114 0 -256 56t-170 56q-47 0 -85 -27t-72 -85zM141 1153q50 135 142 214t196 79q59 0 157.5 -39t149.5 -39q41 0 79.5 12.5t78.5 38.5q-76 -114 -178 -184t-188 -70q-47 0 -140 33t-139 33q-37 0 -76 -19 t-82 -59zM213 608q0 95 58 149t161 54h21v80q0 111 65 165t244 87q-19 -28 -27 -71.5t-8 -121.5v-274q0 -151 -67.5 -223t-262.5 -127q29 39 42.5 83t13.5 99v72h-50q-60 0 -98 -25t-59 -78q-17 36 -25 67.5t-8 63.5zM1092 834h190v306q-52 4 -96.5 31t-93.5 86v-423z" />
<glyph unicode="G" horiz-adv-x="1612" d="M57 637q0 291 202.5 491t574.5 275q-231 -111 -339 -299t-108 -477q0 -296 119.5 -467.5t322.5 -171.5q23 0 52.5 2t62.5 6v758l-98 -115v-246q0 -94 -82.5 -151.5t-220.5 -57.5q21 33 30 69t9 103v35v674l-54 -21l-4 35q181 76 323.5 166.5t254.5 200.5q53 -66 99 -94.5 t99 -28.5q35 0 60 12.5t47 40.5l33 -28l-402 -480q255 -27 391 -140t136 -296q0 -232 -184 -360.5t-517 -128.5q-380 0 -593.5 183.5t-213.5 510.5zM846 690l442 531q-64 -47 -117 -69t-102 -22q-54 0 -98.5 23t-83.5 72l-41 -25v-510zM981 6q109 32 172 99.5t82 170.5 q-38 17 -70 25t-59 8t-57.5 -5t-67.5 -15v-283zM981 326q37 10 69 15t62 5q28 0 58.5 -7t70.5 -24q10 42 13 65.5t3 45.5q0 29 -3.5 63t-12.5 76q-37 -17 -69.5 -25t-63.5 -8q-34 0 -66 7t-61 20v-233zM981 596q37 -14 69 -20.5t60 -6.5q35 0 62.5 9t56.5 28 q-19 79 -73.5 139t-139.5 95l-35 -39v-205z" />
<glyph unicode="H" horiz-adv-x="1683" d="M47 561q0 98 49 148.5t144 50.5h6q0 130 75.5 211.5t241.5 130.5q-25 -36 -37 -78t-12 -96v-406q0 -142 -82 -234.5t-260 -152.5q40 34 57 67.5t17 94.5v27v204h-78q-43 0 -65.5 -24t-28.5 -78q-14 42 -20.5 74t-6.5 61zM51 1147q50 136 142 215.5t196 79.5 q59 0 158.5 -39t150.5 -39q41 0 79.5 12.5t78.5 38.5q-77 -115 -180 -185.5t-189 -70.5q-46 0 -139 34t-139 34q-36 0 -75 -19.5t-83 -60.5zM154 -57q106 144 255 221.5t320 77.5q63 0 126 -13t132 -41v517l-104 -52q1 -11 1.5 -23t0.5 -36q0 -130 -70.5 -192.5 t-267.5 -104.5q37 32 52 71.5t15 137.5v430q0 81 44.5 149.5t148.5 145.5q136 100 241.5 151.5t178.5 51.5q67 0 139.5 -37.5t163.5 -120.5l47 20l12 -39q-81 -37 -144 -76t-116 -85q-77 103 -152 161t-133 58q-74 0 -117.5 -74t-43.5 -203v-342l104 52v210h37v-188l326 174 q31 -50 88 -76.5t149 -33.5q-21 -24 -44 -43.5t-50 -36.5v-535q0 -67 11.5 -103t39.5 -65q-46 11 -90.5 17t-85.5 6q-78 0 -124 -27t-46 -70q0 -39 69 -88q20 -14 31 -22q32 -24 50 -57.5t18 -69.5q0 -63 -46 -105.5t-112 -42.5q-1 0 -17.5 2t-28.5 3q32 27 48.5 61.5 t16.5 75.5q0 47 -38 117t-38 102q0 47 37 96t37 103v157q-34 14 -57.5 20.5t-43.5 6.5q-17 0 -40.5 -6.5t-59.5 -20.5v-143l45 -35l61 33l17 -37q-83 -48 -148.5 -93t-119.5 -93q-68 52 -149.5 77t-188.5 25q-100 0 -191 -23.5t-196 -76.5zM1024 348q28 13 53 19t47 6 q25 0 49.5 -6t51.5 -19v201q-27 -13 -51.5 -19t-49.5 -6q-22 0 -47 6t-53 19v-201zM1024 586q36 -14 59.5 -20.5t40.5 -6.5q20 0 43 6t58 21v119q-33 12 -56.5 30t-42.5 43l-102 -53v-139z" />
<glyph unicode="I" horiz-adv-x="1233" d="M-168 -51q21 118 110 193t205 75q113 0 238 -103q11 -9 17 -14q70 -58 119.5 -80t103.5 -22q109 0 160 66.5t51 209.5v801q0 123 84 202.5t270 131.5q-48 -32 -67 -74.5t-19 -148.5v-871q0 -120 -28.5 -182t-98.5 -106q-49 -33 -180 -59.5t-267 -26.5q-148 0 -298.5 48 t-182.5 48q-50 0 -102 -21t-115 -67zM57 1155q50 135 142 214t196 79q59 0 159 -39t151 -39q40 0 78.5 12.5t78.5 38.5q-76 -114 -179 -184t-189 -70q-47 0 -140 33t-139 33q-37 0 -76 -19t-82 -59zM221 666q0 82 54.5 130t148.5 48h26q-1 9 -1 17.5v23.5q0 108 77.5 178 t241.5 108q-23 -29 -33 -63.5t-10 -97.5v-451q0 -169 -81.5 -249t-260.5 -91q40 31 57 79t17 144v203q-12 1 -22.5 1.5t-20.5 0.5q-68 0 -102.5 -19t-49.5 -63q-21 19 -31 42.5t-10 58.5z" />
<glyph unicode="J" horiz-adv-x="1204" d="M-14 102q0 83 51.5 138t128.5 55q70 0 116 -45t46 -115q0 -60 -36 -92.5t-102 -32.5q-22 0 -40.5 4t-36.5 13q25 -73 108.5 -112.5t212.5 -39.5q100 0 190.5 25t137.5 63q42 34 60 85t18 165v862q0 151 77.5 231.5t268.5 127.5q-43 -42 -60.5 -83.5t-17.5 -125.5v-13 v-956q0 -101 -14 -156t-47 -96q-67 -84 -217.5 -134t-340.5 -50q-225 0 -364 79t-139 203zM35 1151q21 136 114 215.5t232 79.5q69 0 195.5 -45t173.5 -45q38 0 78.5 19t86.5 59q-37 -132 -139 -207.5t-241 -75.5q-51 0 -103 12q-10 2 -12 2q-12 0 -87.5 29t-133.5 29 q-33 0 -75 -18.5t-89 -53.5zM221 596q0 86 61 133t173 47h14v84q0 98 77 169.5t220 105.5q-15 -34 -22 -69t-7 -87v-18v-715q0 -158 -61 -221.5t-201 -63.5q-13 0 -30.5 1.5t-40.5 4.5q37 13 51 34.5t14 84.5v12v465h-25q-74 0 -111.5 -21.5t-53.5 -72.5q-29 20 -43.5 51.5 t-14.5 75.5z" />
<glyph unicode="K" horiz-adv-x="1612" d="M51 1147q50 136 142 215.5t196 79.5q59 0 158.5 -39t150.5 -39q41 0 79.5 12.5t78.5 38.5q-77 -115 -180 -185.5t-189 -70.5q-46 0 -139 34t-139 34q-36 0 -75 -19.5t-83 -60.5zM76 543q0 95 58 143.5t171 48.5h14v25q0 136 60 210t215 130q-23 -33 -33 -71t-10 -97v-43 v-385q0 -122 -64 -197.5t-235 -146.5q35 41 51 85.5t16 100.5v154h-57q-65 0 -98 -23t-39 -71q-26 31 -37.5 63.5t-11.5 73.5zM160 -55q127 157 273.5 240t297.5 83q97 0 170.5 -26t138.5 -84l74 55q-55 180 -105.5 282t-107.5 152v-117q0 -106 -65 -151t-250 -62 q37 32 52 74.5t15 140.5v371q0 171 69.5 257t250.5 157q-39 -44 -55.5 -94t-16.5 -146v-334l371 648q37 -40 75 -60t72 -20q32 0 67 20t85 68q-12 -155 -81 -239.5t-183 -84.5q-38 0 -74 12t-76 37l-143 -252q159 -83 264 -343q15 -37 22 -56q63 -152 128 -221.5t143 -69.5 q14 0 33.5 3.5t48.5 11.5q-89 -100 -132.5 -156.5t-60.5 -93.5q-134 3 -208.5 57.5t-118.5 183.5q-76 -60 -145 -121.5t-130 -123.5q-76 34 -153 50.5t-158 16.5q-89 0 -183 -16t-204 -49z" />
<glyph unicode="L" horiz-adv-x="1507" d="M-12 1155q50 135 141.5 214t196.5 79q58 0 158 -39t151 -39q41 0 79 12.5t79 38.5q-77 -114 -179.5 -184t-189.5 -70q-46 0 -139.5 33t-139.5 33q-37 0 -76 -19t-81 -59zM37 594q0 94 58 147.5t161 53.5h20v96q0 111 66 165t244 85q-19 -27 -27 -69.5t-8 -121.5v-438 q0 -153 -67.5 -225t-260.5 -127q28 37 40.5 81t12.5 101v221q-15 0 -31.5 1t-17.5 1q-60 0 -98 -25t-59 -79q-17 35 -25 67.5t-8 65.5zM180 -57q194 178 399.5 269t415.5 91q56 0 114 -5.5t118 -16.5v450q-21 11 -30 24.5t-9 35.5q0 27 14 43t39 16q24 0 38.5 -16t14.5 -41 q0 -22 -6 -35t-22 -27v-459q38 -14 71 -28t64 -29l65 86l39 -33q-55 -72 -108 -150t-105 -165q-134 45 -272 67.5t-285 22.5q-159 0 -296.5 -25t-258.5 -75zM592 305q38 38 54 78.5t16 114.5v47v424q0 118 31.5 176t113.5 119l123 92q63 46 126.5 68t135.5 22 q46 0 108.5 -13t174.5 -47l47 33l18 -28q-84 -68 -145.5 -131t-108.5 -132q-9 11 -25 32q-149 183 -223 183q-62 0 -86 -39.5t-24 -162.5v-582q0 -121 -63.5 -171t-272.5 -83z" />
<glyph unicode="M" horiz-adv-x="2034" d="M25 -41q25 132 112 212.5t203 80.5q62 0 146.5 -23.5t105.5 -23.5q78 0 108.5 43.5t30.5 163.5v829q-82 -29 -109.5 -58t-27.5 -120v-475q0 -138 -56 -198t-182 -60q-16 0 -39 2.5t-57 7.5q41 18 57.5 45.5t16.5 85.5v139h-25q-75 0 -113 -27.5t-44 -84.5 q-27 29 -39.5 65.5t-12.5 85.5q0 83 52.5 132.5t140.5 49.5q16 0 25 -0.5t16 -0.5v147q0 66 45.5 116t150.5 99l557 254q35 -89 95.5 -136.5t138.5 -47.5q15 0 23 0.5t14 1.5v166h41v-160q89 26 168.5 69.5t152.5 106.5q43 -73 93 -105t118 -32q15 0 52 3q5 1 8 1 q-13 -50 -45 -87t-95 -69v-799q0 -95 38 -134t165 -68q-81 -38 -141.5 -90.5t-97.5 -118.5q-97 23 -150 86.5t-66 171.5q-95 -29 -205.5 -95.5t-224.5 -164.5q-51 52 -114.5 79t-136.5 27q-25 0 -51 -3t-54 -9q22 62 62 110.5t96 79.5v381h-203v-291q0 -185 -68 -276.5 t-206 -91.5q-68 0 -183.5 29.5t-156.5 29.5q-30 0 -60 -11.5t-69 -39.5zM768 829h203v330q-39 17 -74 46t-74 77l-55 -29v-424zM1217 244q40 -10 75.5 -25.5t67.5 -38.5v1016q-36 -21 -71.5 -32t-71.5 -13v-907zM1399 170q51 27 101 49t97 39v352h-198v-440zM1399 829h198 v310q-43 22 -76.5 50.5t-58.5 63.5l-63 -36v-388z" />
<glyph unicode="N" horiz-adv-x="1503" d="M41 -57q35 115 122 198.5t210 118.5v311h-54q-67 0 -100.5 -24.5t-38.5 -77.5q-25 28 -37 60t-12 69q0 102 53 153.5t158 51.5h31l-1 377q-28 5 -47 7.5t-30 2.5q-84 0 -131 -59.5t-53 -172.5q-26 33 -38 72.5t-12 91.5q0 144 86 232t228 88q175 0 313.5 -142t267.5 -454 q49 -6 86 -9t66 -3q41 0 83 7t87 21v243q-62 3 -111 26t-96 71l-74 -51l-24 37q78 60 151.5 124t143.5 134q70 -83 118.5 -114.5t100.5 -31.5q19 1 38.5 4.5t38.5 10.5q-17 -83 -81 -136.5t-166 -72.5v-1149h-17q-132 0 -234 116.5t-235 438.5q-49 21 -98.5 31t-107.5 10 q-54 0 -108 -12.5t-107 -36.5v-238q30 4 54.5 6t35.5 2q79 0 140 -24.5t116 -77.5l71 57l27 -39l-5 -4q-176 -149 -241 -235q-71 31 -144.5 46t-152.5 15q-78 0 -143.5 -17t-126.5 -52zM410 543q57 23 114 35t117 12q38 0 76.5 -7t83.5 -22q-130 312 -216 443.5t-175 164.5 v-626zM979 811q99 -239 169 -366t130 -179v555q-39 -11 -85 -16.5t-103 -5.5q-29 0 -56 3t-55 9z" />
<glyph unicode="O" horiz-adv-x="1675" d="M55 674q0 264 159 465.5t448 304.5q-145 -143 -212 -324.5t-67 -429.5q0 -333 120 -521.5t328 -188.5q37 0 71.5 5t68.5 15v1290l-121 -53v-768q0 -127 -67 -181.5t-244 -84.5q20 28 31.5 70t11.5 89v762l-80 -28v47q183 68 284.5 109t184.5 79v131h37v-108 q54 25 104 51.5t98 56.5q205 -98 306.5 -262.5t101.5 -396.5q0 -174 -53.5 -325.5t-157.5 -272.5q-118 -138 -256.5 -202t-319.5 -64q-337 0 -556.5 209.5t-219.5 525.5zM1008 8q115 50 189.5 147t114.5 249q-44 11 -80 15.5t-73 4.5q-35 0 -73 -4.5t-78 -14.5v-397z M1008 443q43 8 85 13t78 5q38 0 75 -5.5t77 -17.5q14 53 21.5 112.5t7.5 125.5q0 124 -25 198q-2 6 -2 7q0 2 2 2q0 -2 2 -2q-30 -10 -65.5 -14.5t-81.5 -4.5q-50 0 -93 5t-81 16v-440zM1008 924q35 -13 78.5 -19t101.5 -6q45 0 75 4.5t58 14.5q-48 136 -127.5 232.5 t-185.5 147.5v-374z" />
<glyph unicode="P" horiz-adv-x="1493" d="M37 1182q0 107 88.5 184.5t210.5 77.5q120 0 193 -81.5t83 -227.5l119 77v127h37v-102l354 233q55 -73 141.5 -117t215.5 -65l-142 -123v-772q0 -42 11.5 -82t35.5 -84h-6q-136 0 -248 -66t-194 -196q-34 25 -74 45t-90 35v-451h-18q-71 0 -135.5 31t-112.5 88 q-48 -62 -108.5 -93.5t-131.5 -31.5q-5 0 -16 1t-17 1q65 72 92 141t27 160v213h-8q-94 0 -166.5 -34.5t-130.5 -107.5q5 166 85.5 267t219.5 115v289q-8 1 -15.5 1.5t-23.5 0.5q-69 0 -107.5 -28t-45.5 -85q-26 48 -37.5 87.5t-11.5 76.5q0 82 56 131t150 49q15 0 22 -0.5 t13 -0.5v204q0 76 -38.5 122t-100.5 46q-69 0 -107.5 -39t-47.5 -118q-11 32 -16 56t-5 46zM616 -100q0 -140 25.5 -189.5t89.5 -68.5v1532l-115 -76v-1198zM772 350q67 -15 137.5 -49.5t171.5 -105.5v325q-40 22 -78.5 32.5t-76.5 10.5q-35 0 -73 -8.5t-81 -26.5v-178z M772 567q42 16 79.5 23.5t72.5 7.5q40 0 78 -9t79 -28v340q-41 -16 -81.5 -23.5t-84.5 -7.5q-39 0 -73.5 7.5t-69.5 23.5v-334zM772 944q41 -19 78 -28t74 -9q38 0 77.5 10t79.5 29v207q-69 0 -117 30t-77 91l-115 -76v-254z" />
<glyph unicode="Q" horiz-adv-x="1675" d="M55 672q0 264 159 466.5t448 305.5q-145 -143 -212 -324.5t-67 -429.5q0 -306 98 -486t285 -218q-22 64 -56.5 100t-88.5 53q37 23 75 33t84 10q59 0 104.5 -16.5t86.5 -52.5v1177l-121 -53v-768q0 -127 -67 -181.5t-244 -84.5q20 28 31.5 70t11.5 89v762l-80 -28v47 q183 68 284.5 109t184.5 79v131h37v-108q54 25 104 51.5t98 56.5q205 -98 306.5 -262.5t101.5 -396.5q0 -288 -140 -504.5t-396 -326.5q2 -5 7 -12q89 -128 150 -128q24 0 50.5 13t64.5 44q-14 -106 -94 -174.5t-189 -68.5q-100 0 -170.5 71t-118.5 222 q-320 18 -523.5 224.5t-203.5 508.5zM1008 78q11 -14 20 -26t17 -25q98 51 164.5 144t102.5 233q-44 11 -80 15.5t-73 4.5q-35 0 -73 -4.5t-78 -14.5v-327zM1008 443q43 8 85 13t78 5q38 0 75 -5.5t77 -17.5q14 53 21.5 112.5t7.5 125.5q0 124 -25 198q-2 6 -2 7q0 2 2 2 q0 -2 2 -2q-30 -10 -65.5 -14.5t-81.5 -4.5q-50 0 -93 5t-81 16v-440zM1008 924q35 -13 78.5 -19t101.5 -6q45 0 75 4.5t58 14.5q-48 136 -127.5 232.5t-185.5 147.5v-374z" />
<glyph unicode="R" horiz-adv-x="1518" d="M55 541q0 92 55.5 143t155.5 51h17v84q0 104 73 169.5t240 109.5q-37 -22 -51.5 -56t-14.5 -131v-370q0 -142 -81 -232t-267 -153q50 51 75.5 109t25.5 120v123h-27q-69 0 -105 -26t-45 -80q-26 34 -38.5 67.5t-12.5 71.5zM135 1147q50 136 142 215.5t196 79.5 q59 0 158.5 -39t150.5 -39q39 0 75.5 11t82.5 40q-77 -115 -180 -185.5t-189 -70.5q-46 0 -139 34t-139 34q-36 0 -75 -19.5t-83 -60.5zM141 -49q119 164 258.5 244.5t307.5 80.5q94 0 166 -21.5t135 -68.5l92 74q-32 232 -79 325t-128 93q-3 0 -9.5 -1t-11.5 -1v-115 q0 -111 -68 -162.5t-249 -76.5q41 30 58.5 76.5t17.5 136.5v362q0 83 17 116t93 89l285 207q1 0 2 1q68 54 150 136q111 -60 158.5 -131t47.5 -174q0 -143 -84.5 -242.5t-277.5 -183.5q108 -8 171.5 -50.5t111.5 -140.5q22 -46 54 -131q67 -182 159 -182q8 0 21 2t42 8 q-67 -86 -114 -152.5t-70 -109.5q-111 18 -179.5 81.5t-107.5 184.5q-89 -74 -159.5 -146.5t-114.5 -135.5q-74 38 -150 56.5t-158 18.5q-103 0 -198 -16.5t-189 -50.5zM872 719q124 21 193.5 95t69.5 185q0 103 -115 262v1q-90 -63 -119 -111t-29 -147v-285z" />
<glyph unicode="S" horiz-adv-x="1716" d="M47 -55q101 172 296 270t437 98q129 0 238.5 -29.5t185.5 -84.5q21 21 59 61q195 198 195 297q0 123 -118 178t-424 68l-97 -107q271 -8 378.5 -55t107.5 -152q0 -56 -37 -111t-105 -97q6 26 8.5 37t2.5 16q0 59 -88.5 85t-467.5 46q-100 -104 -199 -158.5t-186 -54.5 q-62 0 -95.5 27.5t-33.5 78.5q0 46 30 76.5t75 30.5q51 0 78.5 -34t27.5 -97v-18q56 3 123.5 43.5t130.5 109.5q-224 18 -317.5 79t-93.5 185q0 56 18 98.5t60 81.5q0 -2 -1.5 -7t-1.5 -7q0 -86 137 -137.5t398 -63.5l94 109q-323 12 -433 68t-110 190q0 172 160 276.5 t428 104.5q130 0 237.5 -27t217.5 -88l57 33l27 -35l-6 -4q-240 -164 -353 -287q280 -30 405.5 -118t125.5 -252q0 -149 -251 -387q-41 -39 -62 -60q-54 -52 -118 -120t-143 -156q-161 62 -296.5 92.5t-251.5 30.5q-133 0 -247 -31.5t-202 -91.5zM463 1206q0 -133 481 -158 q63 -4 97 -5l85 96q-119 104 -232.5 155.5t-225.5 51.5q-93 0 -149 -38.5t-56 -101.5z" />
<glyph unicode="T" horiz-adv-x="1442" d="M109 1149q18 147 113 223t261 76q151 0 387.5 -26.5t323.5 -26.5q85 0 141 7.5t101 24.5q-36 -72 -96.5 -124t-141.5 -82v-912q37 31 74.5 68t75.5 80q-52 -234 -219 -373t-396 -139q-273 0 -444.5 150.5t-171.5 391.5q0 206 100 378.5t283 281.5q-95 -125 -139 -250 t-44 -270q0 -206 125 -332.5t326 -126.5q113 0 215 30t174 85v921q-35 -7 -70.5 -10.5t-74.5 -3.5q-80 0 -305 20.5t-369 20.5q-92 0 -145.5 -19.5t-83.5 -62.5zM584 909v43q84 29 175.5 70.5t192.5 95.5v-575q0 -114 -68.5 -174.5t-262.5 -110.5q33 28 48 67t15 99v526z " />
<glyph unicode="U" horiz-adv-x="1421" d="M6 1147q0 133 84 216t217 83q135 0 200.5 -83.5t65.5 -256.5l1 -834q36 -6 69.5 -16t63.5 -23v1207h38v-215l349 221q45 -64 99.5 -96.5t115.5 -32.5q21 0 41.5 3.5t41.5 10.5q-17 -58 -52 -96.5t-93 -63.5v-786q0 -129 31.5 -165t118.5 -38v-32q-59 -37 -107 -86 t-90 -115q-99 29 -155 99t-62 173l-424 -278q-81 66 -155 100.5t-134 34.5q-38 0 -74.5 -9t-76.5 -28q15 77 68.5 136t136.5 89v355h-27q-88 0 -122.5 -26t-39.5 -91q-22 50 -32.5 88t-10.5 72q0 85 52 132.5t147 47.5q5 0 16 -1t17 -1v237q0 87 -30.5 127.5t-94.5 40.5 q-58 0 -104 -39.5t-85 -122.5q-2 11 -3 24t-1 38zM745 213l76 -57l160 104v266q-32 15 -62.5 22t-64.5 7q-24 0 -50.5 -6t-58.5 -19v-317zM745 563q34 14 62 20.5t55 6.5q28 0 57.5 -6.5t61.5 -20.5v336q-43 -12 -73 -17t-56 -5t-52.5 6t-54.5 18v-338zM745 938 q32 -13 59 -20t50 -7q32 0 62.5 6t64.5 19v215q-41 13 -71 36t-58 62l-107 -69v-242z" />
<glyph unicode="V" horiz-adv-x="1421" d="M6 1147q0 133 84 216t217 83q122 0 194 -78t72 -211v-14l134 76v221h38v-197l349 201q45 -63 99.5 -95t115.5 -32q21 0 41.5 3.5t41.5 10.5q-17 -58 -52 -96.5t-93 -63.5v-786q0 -108 14 -167t46 -105q-7 0 -20 1q-85 7 -118 7q-132 0 -279.5 -43t-330.5 -135 q-81 66 -155 100.5t-134 34.5q-38 0 -74.5 -9t-76.5 -28q15 77 68.5 136t136.5 89v355h-27q-88 0 -122.5 -26t-39.5 -91q-22 50 -32.5 88t-10.5 72q0 85 52 132.5t147 47.5q5 0 16 -1t17 -1v237q0 87 -30.5 127.5t-94.5 40.5q-58 0 -104 -39.5t-85 -122.5q-2 11 -3 24t-1 38 zM573 272q42 -13 74 -28t60 -33v969l-134 -78v-830zM745 180l82 -86l154 43v342q-30 14 -59.5 20.5t-67.5 6.5q-24 0 -50.5 -6t-58.5 -19v-301zM745 518q30 13 58.5 19t58.5 6q31 0 60.5 -6t58.5 -19v330q-37 -11 -68.5 -16t-60.5 -5q-26 0 -52.5 6.5t-54.5 18.5v-334z M745 891q32 -14 59 -20.5t50 -6.5q32 0 62.5 6t64.5 19v262q-47 16 -78 43t-53 72l-105 -62v-313z" />
<glyph unicode="W" horiz-adv-x="1997" d="M6 1147q0 133 84 216t217 83q122 0 194 -78t72 -211v-14l134 84v213h38v-187l293 191q75 -106 136 -146.5t139 -40.5h12v183h39v-178q88 16 158 59.5t135 122.5q46 -63 99.5 -95t113.5 -32q22 0 43 3.5t43 10.5q-18 -58 -53 -96.5t-93 -63.5v-782q0 -106 19.5 -177.5 t58.5 -109.5q-54 9 -96 13t-78 4q-148 0 -293.5 -46t-261.5 -130q-68 79 -143 118t-158 39q-79 0 -154.5 -40t-144.5 -117q-81 66 -155 100.5t-134 34.5q-38 0 -74.5 -9t-76.5 -28q15 77 68.5 136t136.5 89v355h-27q-88 0 -122.5 -26t-39.5 -91q-22 50 -32.5 88t-10.5 72 q0 85 52 132.5t147 47.5q5 0 16 -1t17 -1v237q0 87 -30.5 127.5t-94.5 40.5q-58 0 -104 -39.5t-85 -122.5q-2 11 -3 24t-1 38zM573 272q40 -15 72.5 -31.5t61.5 -35.5v981l-134 -84v-830zM745 180l60 -41q32 27 68 49t79 43v281q-25 14 -50.5 20.5t-59.5 6.5q-21 0 -44.5 -6 t-52.5 -19v-334zM745 549q26 13 51.5 18.5t53.5 5.5q25 0 50.5 -6t51.5 -18v332q-35 -11 -61 -16t-51 -5q-26 0 -48.5 5.5t-45.5 16.5zM745 922q27 -13 50.5 -19t46.5 -6q31 0 57.5 5.5t52.5 17.5v225q-46 24 -72 55t-38 76l-97 -62v-292zM1192 254q32 -7 65 -20t68 -33v989 q-29 -13 -61 -23.5t-72 -20.5v-892zM1364 180l74 -65l133 30v367q-26 14 -51 20.5t-60 6.5q-21 0 -44.5 -6t-51.5 -19v-334zM1364 549q26 13 50.5 18.5t51.5 5.5q26 0 52.5 -6t52.5 -18v332q-35 -11 -61.5 -16t-51.5 -5q-26 0 -48 5.5t-46 16.5v-333zM1364 922 q27 -13 49.5 -19t44.5 -6q31 0 59 5.5t54 17.5v231q-38 6 -76 28t-82 64l-49 -33v-288z" />
<glyph unicode="X" horiz-adv-x="1384" d="M0 8q36 140 110 215.5t175 75.5q48 0 93.5 -18.5t94.5 -57.5l197 449h-318q-61 0 -98 -11t-76 -34q43 49 79.5 105.5t70.5 123.5q18 -15 36 -22t42 -7h176l-105 217q-43 91 -96.5 133t-124.5 42q-69 0 -119.5 -38.5t-89.5 -121.5q-4 25 -6 48.5t-2 43.5q0 131 83 212 t220 81q108 0 189 -58t128 -169l127 -299l238 526q30 -38 87 -62t116 -24q36 0 65 12.5t56 40.5v-10q0 -117 -59.5 -185.5t-160.5 -68.5q-35 0 -75 11.5t-90 35.5l-158 -367h356q37 0 64 5.5t52 16.5q-37 -46 -66 -97.5t-50 -108.5q-19 15 -41 22t-51 7h-174l168 -326 q39 -74 88 -111.5t106 -37.5q29 0 53.5 10.5t49.5 34.5l22 -23q-51 -70 -93.5 -137.5t-76.5 -130.5q-6 0 -17 -1t-17 -1q-117 0 -190 62t-146 235l-148 346l-291 -649q-68 60 -127 85t-131 25q-41 0 -77 -11t-68 -34z" />
<glyph unicode="Y" horiz-adv-x="1352" d="M-16 1122q0 147 85 235.5t226 88.5q123 0 192 -83.5t72 -235.5q33 12 64 26t63 31v258h37v-236q103 59 196.5 117t178.5 117q52 -68 104.5 -101.5t106.5 -33.5q18 0 38.5 4.5t43.5 13.5q-24 -56 -59.5 -93.5t-88.5 -64.5v-864q0 -169 -87 -237.5t-329 -77.5 q-198 -8 -290.5 -39.5t-92.5 -91.5q0 -33 23 -50.5t65 -17.5q57 0 226.5 43t273.5 43q105 0 167.5 -57t62.5 -152q0 -87 -50 -132.5t-147 -45.5q-19 0 -40 1.5t-44 5.5v27q10 0 23 -0.5t40 -0.5q52 0 86.5 18t34.5 45q0 28 -25.5 43t-74.5 15q-69 0 -236.5 -43t-257.5 -43 q-106 0 -166.5 51.5t-60.5 142.5q0 104 70.5 167t216.5 89q-175 16 -243.5 93t-68.5 263v252h-69q-64 0 -94.5 -27.5t-36.5 -90.5q-26 39 -37.5 76t-11.5 75q0 94 58.5 145.5t166.5 51.5h24v221q0 81 -40 128.5t-107 47.5q-60 0 -109 -41.5t-77 -115.5q-1 6 -1.5 15t-0.5 25 zM559 297q0 -136 28 -183.5t99 -68.5v1102q-40 -20 -70 -33.5t-57 -23.5v-793zM723 33q22 -3 42 -4.5t36 -1.5q104 0 147 50.5t43 178.5v164q-41 13 -75 19.5t-62 6.5q-27 0 -58.5 -7t-72.5 -23v-383zM723 459q31 11 64.5 16.5t72.5 5.5q21 0 55 -5t76 -15v360 q-43 -10 -79 -15t-66 -5q-37 0 -67 6t-56 18v-366zM723 865q33 -14 64.5 -20.5t64.5 -6.5q34 0 68 7t71 21v287q-49 12 -79.5 36t-47.5 62q-39 -25 -74.5 -45.5t-66.5 -36.5v-304z" />
<glyph unicode="Z" horiz-adv-x="1305" d="M-2 -53q158 85 310 425q80 177 134 275h-110q-27 0 -50 -7.5t-46 -25.5q13 54 22.5 105.5t16.5 103.5q19 -15 39 -21.5t44 -6.5h170q67 112 177 229.5t327 300.5q-201 -116 -348.5 -167.5t-273.5 -51.5q-67 0 -130.5 14t-123.5 43l-60 -76l-39 25q62 72 115.5 146.5 t99.5 154.5q111 -48 226 -72t233 -24q128 0 237 31.5t212 97.5l12 -16q-188 -196 -326 -601q-8 -23 -12 -34h100q34 0 57.5 6.5t47.5 21.5q-18 -58 -28 -107.5t-14 -96.5q-23 14 -46 21t-45 7h-142q-75 -138 -218 -284t-380 -324q206 112 337.5 162.5t215.5 50.5 q79 0 184.5 -43t131.5 -43q52 0 81 30.5t29 84.5q0 44 -28.5 79.5t-87.5 65.5l12 23q74 -27 112.5 -79t38.5 -124q0 -134 -117.5 -214.5t-314.5 -80.5q-56 0 -208.5 26.5t-245.5 26.5q-91 0 -164.5 -20t-147.5 -64z" />
<glyph unicode="[" horiz-adv-x="696" d="M190 -274v1720h422v-55h-213v-1614h213v-51h-422z" />
<glyph unicode="\" horiz-adv-x="530" d="M-41 1446h133l479 -1636h-133z" />
<glyph unicode="]" horiz-adv-x="696" d="M84 -223h215v1614h-215v55h422v-1720h-422v51z" />
<glyph unicode="^" horiz-adv-x="2048" d="M412 897l503 565h215l502 -565h-104l-506 397l-506 -397h-104z" />
<glyph unicode="_" horiz-adv-x="1024" d="M0 -311h1024v-172h-1024v172z" />
<glyph unicode="`" horiz-adv-x="1024" d="M172 1313q43 18 87 42t97 58q84 -139 201.5 -204.5t286.5 -65.5h8q-48 -30 -103.5 -45t-121.5 -15q-131 0 -239 59t-175 167l-37 -15z" />
<glyph unicode="a" horiz-adv-x="997" d="M41 254q0 115 58.5 192.5t207.5 155.5l-227 252q81 24 132.5 60.5t86.5 93.5q30 -72 66.5 -104t87.5 -32q49 0 111.5 36t121.5 100q41 -60 78 -85.5t80 -25.5q22 0 44 7.5t48 23.5q-19 -59 -45.5 -95.5t-69.5 -60.5v-418q0 -99 40.5 -146.5t133.5 -57.5 q-47 -37 -96 -81.5t-98 -95.5q-77 7 -127.5 54t-73.5 135l-289 -203q-138 22 -204 94t-66 201zM166 813l344 -381l-21 -24l-153 163q-44 -48 -62 -88t-18 -86q0 -100 66.5 -163.5t195.5 -86.5l78 54v536q-36 17 -63 42t-48 61q-32 -42 -69 -62t-80 -20q-35 0 -74.5 13 t-95.5 42z" />
<glyph unicode="b" horiz-adv-x="1145" d="M45 88q25 45 57.5 77.5t75.5 55.5v840q0 77 -17.5 126.5t-56.5 82.5q111 31 204 75t171 101q-35 -59 -50 -132t-15 -227v-186q63 12 137.5 39.5t155.5 69.5q73 -74 146.5 -109t154.5 -35q13 0 30 1.5t39 4.5q-14 -27 -39.5 -51.5t-68.5 -50.5v-481q0 -63 13 -102.5 t44 -79.5q-64 5 -94 6.5t-53 1.5q-136 0 -242 -38t-197 -118q-83 69 -159 101t-156 32q-22 0 -40.5 -1t-39.5 -3zM414 236q76 -5 133.5 -35.5t95.5 -87.5q23 8 45 14t43 11v597q-85 15 -139.5 51t-89.5 101q-27 -10 -80 -21q-5 -1 -8 -2v-628z" />
<glyph unicode="c" horiz-adv-x="872" d="M46 88q24 45 56.5 77.5t75.5 55.5v459q0 89 -15 129.5t-50 77.5q38 -8 73 -12.5t68 -4.5q90 0 172 30.5t197 109.5q17 -81 56 -119.5t103 -38.5q13 0 30 2t36 6q-15 -73 -70.5 -115.5t-134.5 -42.5q-70 0 -126.5 36.5t-102.5 111.5v-621q67 -11 123.5 -39t101.5 -73 l145 92l23 -37l-315 -213q-92 65 -182.5 99t-170.5 34q-15 0 -34 -0.5t-59 -3.5z" />
<glyph unicode="d" horiz-adv-x="1145" d="M45 88q25 45 57.5 77.5t75.5 55.5v459q0 81 -15 127t-50 80q39 -9 78.5 -14t76.5 -5q67 0 148 19.5t182 60.5l-305 258q-46 39 -96.5 67.5t-106.5 49.5q129 29 194.5 56t121.5 66q2 -30 16 -55.5t49 -56.5l430 -377q28 -24 64.5 -46t78.5 -40q-42 -27 -58.5 -69 t-16.5 -150v-362q0 -63 13 -102.5t44 -79.5q-64 5 -94 6.5t-53 1.5q-136 0 -242 -38t-197 -118q-83 69 -159 101t-156 32q-22 0 -40.5 -1t-39.5 -3zM414 236q74 -9 128.5 -38t100.5 -85q23 8 45 14t43 11v698l-100 88q-56 -25 -109.5 -42.5t-107.5 -29.5v-616z" />
<glyph unicode="e" horiz-adv-x="920" d="M45 88q26 47 58.5 78.5t74.5 50.5v463q0 81 -15 127t-50 80q46 -10 82 -14.5t67 -4.5q124 0 235 37.5t187 104.5q45 -111 109 -199.5t141 -146.5l-520 -291v-144q79 -13 151.5 -40.5t145.5 -71.5l145 92l21 -37l-316 -213q-127 63 -243 98t-193 35q-23 0 -41.5 -1 t-38.5 -3zM414 424l262 145q-49 73 -92.5 148t-81.5 153q-21 -7 -64 -15q-16 -3 -24 -5v-426z" />
<glyph unicode="f" horiz-adv-x="739" d="M45 811l14 90h160q0 12 -1 34t-1 32q0 88 -15 144.5t-48 100.5q97 24 184 82.5t164 151.5q38 -52 68.5 -74t62.5 -22q21 0 41 11.5t39 35.5q1 -16 2.5 -34.5t1.5 -21.5q0 -75 -47 -124.5t-119 -49.5q-50 0 -94.5 26.5t-87.5 82.5l-31 -19q64 -78 91.5 -159.5t27.5 -196.5 h147q30 0 56.5 6.5t52.5 20.5l-45 -117h-211v-588q36 -12 69.5 -35t71.5 -61l82 45l18 -35q-73 -39 -144 -83.5t-140 -94.5q-49 53 -97 78.5t-100 25.5q-21 0 -45.5 -5t-56.5 -17q5 52 29.5 87.5t74.5 64.5v618h-174z" />
<glyph unicode="g" horiz-adv-x="1161" d="M45 88q25 45 57.5 77.5t75.5 55.5v459q0 81 -15 127t-50 80q37 -9 76 -14t75 -5q118 0 234.5 37.5t208.5 104.5q73 -74 146.5 -109t154.5 -35q13 0 30 1.5t39 4.5q-14 -27 -39.5 -51.5t-68.5 -50.5v-489q0 -55 6 -79t20 -38q10 -10 35 -28q66 -46 66 -105 q0 -45 -19.5 -73.5t-99.5 -78.5q-156 -96 -388 -260l-32 -22q-71 45 -141 67.5t-144 22.5q-39 0 -76.5 -6.5t-76.5 -20.5q71 110 160 162.5t204 52.5q83 0 144 -24t108 -74l11 8q141 104 141 160q0 23 -9.5 37t-33.5 22q-10 3 -28 8q-75 21 -75 68q0 3 1 9.5t1 10.5 q-74 -4 -148 -38.5t-155 -102.5q-83 69 -159 101t-156 32q-22 0 -40.5 -1t-39.5 -3zM414 242q72 -8 127 -37.5t103 -85.5q26 5 73 12q9 1 14 2v602q-81 15 -136 47t-93 88q-21 -7 -64 -15q-16 -3 -24 -5v-608z" />
<glyph unicode="h" d="M51 86q24 45 55.5 74.5t75.5 50.5v1008q0 35 -14.5 68.5t-44.5 64.5q26 -3 38 -3.5t23 -0.5q77 0 152 24t153 74q-34 -50 -51.5 -110.5t-17.5 -129.5v-471l414 275q26 -49 69.5 -77t91.5 -28q18 0 37 5.5t45 17.5q-6 -56 -30.5 -93t-71.5 -63v-506q0 -60 17 -107.5 t50 -80.5q-39 8 -76 12t-73 4q-84 0 -130 -20.5t-46 -57.5q0 -33 62 -72q3 -2 5 -3q55 -33 74 -63.5t19 -78.5q0 -79 -50.5 -124.5t-144.5 -53.5q31 39 45 78t14 86q0 58 -32.5 122t-32.5 89q0 7 30.5 87.5t30.5 188.5v471q-30 9 -54.5 30.5t-49.5 62.5l-213 -142v-475 q48 -15 82 -35.5t61 -50.5q-58 -21 -113 -61.5t-116 -106.5q-65 62 -134 91.5t-149 29.5z" />
<glyph unicode="i" horiz-adv-x="616" d="M35 842q58 21 113 61.5t116 106.5q66 -63 131.5 -92t141.5 -29h8q-24 -45 -55.5 -74.5t-75.5 -50.5v-447q0 -82 33 -116t114 -42v-24q-64 -31 -123.5 -72.5t-115.5 -95.5q-81 47 -112.5 104.5t-31.5 168.5v516q-48 14 -83 35t-60 51zM74 1235q53 42 107 92.5t120 118.5 q25 -57 62 -87t81 -30q14 0 29 3.5t32 10.5q-7 -77 -60 -127.5t-123 -50.5q-44 0 -98 33t-74 33q-15 0 -26.5 -5.5t-25.5 -19.5z" />
<glyph unicode="j" horiz-adv-x="563" d="M0 842q59 21 115.5 62t115.5 106q66 -63 131.5 -92t141.5 -29h8q-24 -45 -55 -74.5t-76 -50.5v-473q0 -25 3.5 -39t12.5 -26q9 -13 31 -35q72 -72 72 -146q0 -69 -36.5 -119.5t-170.5 -132.5q-92 -56 -124 -91t-46 -81q-12 25 -16.5 38t-4.5 26q0 27 14.5 54.5t59.5 76.5 q58 62 78 96t20 63q0 56 -62 103q-25 19 -36 31q-17 19 -25 43t-8 65v539q-48 14 -83 35t-60 51zM41 1235q49 39 100 86.5t125 124.5q26 -57 62.5 -87t81.5 -30q14 0 29.5 3.5t33.5 10.5q-8 -77 -61 -127.5t-123 -50.5q-44 0 -98 33t-74 33q-14 0 -26 -5.5t-25 -19.5z" />
<glyph unicode="k" horiz-adv-x="1085" d="M70 41q4 51 28.5 87.5t73.5 64.5v1026q0 35 -15 68.5t-44 63.5q25 -2 37.5 -2.5t23.5 -0.5q77 0 152 24t153 74q-34 -50 -51.5 -110.5t-17.5 -129.5v-432l405 236q18 -68 65 -144.5t117 -154.5q-67 -30 -138 -68t-150 -86q89 -62 152 -204q7 -16 12 -26q34 -76 70 -113.5 t75 -37.5q11 0 22 5t27 18l18 -31q-63 -49 -124 -101.5t-121 -107.5q-55 10 -90 47t-58 111q-7 24 -20 72q-48 190 -154 264l-108 -60v-170q40 -13 76.5 -38t74.5 -64q-51 -36 -99 -76t-95 -86q-50 54 -97.5 79t-99.5 25q-20 0 -44.5 -5t-55.5 -17zM410 430l346 203 q-40 57 -69 114t-50 117l-227 -127v-307z" />
<glyph unicode="l" horiz-adv-x="635" d="M64 41q7 58 34 94.5t76 57.5v1005q0 52 -13.5 86t-45.5 68q26 -3 37.5 -3.5t21.5 -0.5q78 0 152 23.5t153 74.5q-37 -56 -53 -107.5t-16 -132.5v-991q44 -12 75.5 -33.5t55.5 -56.5l92 47l20 -35q-101 -48 -172.5 -92.5t-113.5 -85.5q-53 56 -99 80t-98 24q-20 0 -46 -5 t-60 -17z" />
<glyph unicode="m" horiz-adv-x="1700" d="M35 813v27q67 32 126 73t113 93q79 -47 112.5 -104.5t33.5 -147.5v-19l397 271q82 -35 120 -95.5t38 -158.5v-17l414 271q27 -47 69.5 -74t89.5 -27q19 0 39 5.5t45 17.5q-6 -55 -31 -92t-73 -64v-444q0 -90 33.5 -124t119.5 -38v-25q-54 -31 -99.5 -70.5t-86.5 -90.5 q-111 22 -157 84.5t-46 197.5v481q-30 9 -56 31.5t-50 61.5l-211 -142v-475q48 -15 82 -35.5t61 -50.5q-61 -22 -117.5 -64.5t-113.5 -109.5q-64 65 -132 96t-149 31q24 45 55.5 74.5t75.5 50.5v446q0 70 -29 104.5t-102 55.5l-186 -123v-475q48 -15 82 -35.5t61 -50.5 q-60 -22 -115.5 -64t-113.5 -110q-64 65 -133 96t-150 31q24 45 55.5 74.5t75.5 50.5v446q0 82 -32.5 115.5t-114.5 40.5z" />
<glyph unicode="n" d="M35 813v27q67 32 126 73t113 93q79 -47 112.5 -104.5t33.5 -147.5v-19l414 271q26 -47 70 -74t91 -27q18 0 37 5.5t45 17.5q-6 -56 -30.5 -93t-71.5 -63v-444q0 -90 33.5 -124t119.5 -38v-25q-58 -33 -103.5 -74t-84.5 -94q-111 27 -157 90.5t-46 198.5v481 q-30 9 -54.5 30.5t-49.5 62.5l-213 -142v-475q48 -15 82 -35.5t61 -50.5q-60 -22 -115.5 -64t-113.5 -110q-64 65 -133 96t-150 31q24 45 55.5 74.5t75.5 50.5v446q0 82 -32.5 115.5t-114.5 40.5z" />
<glyph unicode="o" d="M49 88q25 46 57 78.5t74 54.5v459q0 81 -15 127t-50 80q37 -9 76 -14t75 -5q119 0 236.5 37.5t208.5 104.5q73 -74 146 -109t153 -35q13 0 30 1.5t39 4.5q-14 -27 -39.5 -51.5t-68.5 -50.5v-481q0 -63 13 -102.5t44 -80.5q-2 1 -6 1q-96 8 -139 8q-136 0 -243 -38 t-198 -118q-84 70 -159 101.5t-154 31.5q-23 0 -41.5 -1t-38.5 -3zM418 236q73 -8 127 -37.5t101 -85.5q20 7 42.5 13t46.5 11v598q-81 15 -136 47t-94 88q-20 -7 -63 -15q-16 -3 -24 -5v-614z" />
<glyph unicode="p" horiz-adv-x="1186" d="M63 47v12q0 83 37.5 132t116.5 71v395q0 82 -32 115t-115 41v29q51 18 108 57t131 109q78 -47 111 -103t35 -141l360 244q53 -57 98.5 -82t94.5 -25q23 0 47.5 6.5t56.5 20.5q-6 -54 -30 -89.5t-72 -62.5v-448q0 -83 12 -114.5t43 -47.5q-169 -6 -287.5 -49t-189.5 -123 q-44 49 -73.5 69t-59.5 23v-262q0 -36 14.5 -69t44.5 -64l-37.5 3t-21.5 1q-78 0 -152.5 -24t-152.5 -74q34 49 50.5 107.5t16.5 129.5v266h-29q-37 0 -68.5 -13t-56.5 -40zM455 283q83 -6 150 -42t126 -106l41 17v593q-53 12 -87 35t-58 64l-172 -121v-440z" />
<glyph unicode="q" horiz-adv-x="1126" d="M45 96q15 28 40.5 52t68.5 51v481q0 60 -13.5 102t-43.5 82q44 -5 81 -7.5t66 -2.5q135 0 241 37.5t197 118.5q81 -68 158 -100.5t157 -32.5q17 0 61 2q12 1 19 2q-24 -45 -56 -76.5t-75 -54.5v-783q0 -79 17 -127.5t55 -81.5q-115 -33 -204.5 -75.5t-170.5 -100.5 q35 59 50.5 128.5t15.5 187.5v43v127q-65 -12 -139 -39t-154 -70q-74 74 -147 108.5t-154 34.5q-15 0 -38.5 -2.5t-31.5 -3.5zM391 233q70 -16 125 -53t105 -100q24 8 45.5 14t42.5 10v629q-75 8 -130.5 38t-99.5 85q-27 -8 -48 -14t-40 -11v-598z" />
<glyph unicode="r" horiz-adv-x="825" d="M31 813v27q66 32 124 73t113 95q76 -45 109 -100t37 -139l200 239q48 -76 88.5 -110t81.5 -34q8 0 22 2.5t35 7.5q-17 -97 -72.5 -152.5t-133.5 -55.5q-57 0 -98.5 31.5t-61.5 90.5l-61 -67v-498q36 -11 71 -34t74 -62l78 45l18 -35q-107 -55 -173 -96t-111 -82 q-50 55 -96.5 79.5t-98.5 24.5q-23 0 -49.5 -5.5t-56.5 -16.5q9 52 35.5 89.5t72.5 62.5v464q0 78 -34.5 114.5t-112.5 41.5z" />
<glyph unicode="s" horiz-adv-x="1067" d="M37 4q50 95 138 195t222 215h-282q27 26 39 64t12 108v125q0 58 -12 97t-39 69q39 -8 64.5 -11.5t45.5 -3.5q110 0 220.5 40t185.5 108q39 -47 88 -74t94 -27q40 0 68.5 21t44.5 61l26 -16q-31 -85 -94.5 -174t-185.5 -213h305q-27 -32 -39 -64t-12 -82v-28v-131 q0 -71 12 -116.5t39 -80.5q-2 0 -6 1q-96 15 -140 15q-109 0 -206.5 -36.5t-173.5 -106.5q-79 62 -134.5 89.5t-101.5 27.5t-82.5 -24t-60.5 -70zM186 160q99 47 155 65.5t97 18.5q64 0 120 -36t91 -99l53 16v360h-133q-96 -61 -192.5 -143.5t-190.5 -181.5zM375 518h157 q115 99 200 192t134 173q-76 -65 -132.5 -94t-104.5 -29q-54 0 -101.5 26t-91.5 78l-61 -16v-330z" />
<glyph unicode="t" horiz-adv-x="748" d="M45 801q0 15 1 34t1 23q0 5 -1 26t-1 37q18 -6 38.5 -10t41.5 -4h113v215q0 36 -15 69t-45 64h5q36 -4 53 -4q75 0 149.5 24.5t157.5 76.5q-35 -50 -52.5 -110.5t-17.5 -129.5v-205h133q24 0 44.5 3.5t41.5 10.5q-4 -15 -6 -30.5t-2 -28.5t6 -49q2 -9 2 -12 q-20 7 -41 10.5t-45 3.5h-133v-592q39 -13 73 -35t68 -57l84 41l19 -35q-108 -54 -172 -94.5t-115 -83.5q-52 55 -98.5 79.5t-98.5 24.5q-17 0 -38 -4t-66 -18q9 53 36 91t73 61v622h-113q-23 0 -42.5 -3.5t-37.5 -10.5z" />
<glyph unicode="u" horiz-adv-x="1165" d="M35 823v25q53 18 99.5 58t88.5 104q112 -33 157.5 -99t45.5 -200v-486q37 -10 62 -30.5t42 -55.5l213 142v475q-48 14 -83 35t-60 51q60 22 115.5 62.5t113.5 105.5q66 -63 132.5 -92t142.5 -29h8q-21 -43 -53 -73.5t-78 -51.5v-447q0 -82 33 -116t114 -41v-25 q-64 -31 -123.5 -72.5t-115.5 -95.5q-78 46 -112 105t-34 149v19l-413 -273q-29 51 -69 76t-91 25q-20 0 -41.5 -5.5t-48.5 -17.5q8 54 34.5 93t73.5 65v444q0 89 -32.5 125.5t-120.5 50.5z" />
<glyph unicode="v" d="M35 823v25q53 29 99.5 69t88.5 93q111 -23 157 -86t46 -199v-340q0 -133 41.5 -185t165.5 -96l110 35v617q-48 14 -83 35t-60 51q60 22 115.5 62.5t113.5 105.5q66 -63 132.5 -92t142.5 -29h8q-21 -43 -53 -73.5t-78 -51.5v-442q0 -77 14 -116.5t47 -74.5h-14 q-180 0 -324.5 -41.5t-271.5 -130.5q-137 33 -190.5 103.5t-53.5 238.5v358q0 91 -33.5 125.5t-119.5 38.5z" />
<glyph unicode="w" horiz-adv-x="1706" d="M35 823v25q53 29 99.5 69t88.5 93q111 -23 157 -86t46 -199v-502q37 -14 63.5 -34t45.5 -48l208 140v378q0 91 -33.5 125.5t-119.5 38.5v25q53 29 99.5 69t88.5 93q111 -23 157 -86t46 -199v-340q0 -133 41.5 -185t165.5 -96l110 35v617q-48 14 -83 35t-60 51 q60 22 115.5 62.5t113.5 105.5q66 -63 131.5 -92t141.5 -29h8q-21 -43 -53 -73.5t-78 -51.5v-442q0 -74 14.5 -114.5t48.5 -76.5h-14q-180 0 -324.5 -41.5t-271.5 -130.5q-125 28 -184.5 96.5t-59.5 184.5l-413 -275q-30 52 -68.5 77.5t-87.5 25.5q-18 -1 -37.5 -5 t-58.5 -17q4 53 31.5 92.5t78.5 62.5v458q0 91 -33.5 125.5t-119.5 38.5z" />
<glyph unicode="x" horiz-adv-x="915" d="M35 76q0 90 56 152.5t136 62.5q26 0 53 -12.5t58 -38.5l59 157l-28 54h-146q-55 0 -82 -5.5t-51 -17.5l92 143h137l-36 78q-41 86 -77 119t-83 33q-11 0 -26 -3.5t-42 -13.5l-16 29q51 39 98 84t107 115q81 -42 145 -121.5t113 -200.5l119 314q45 -50 82.5 -73.5 t72.5 -23.5q31 0 52.5 13t39.5 43v-7q0 -107 -50.5 -174t-129.5 -67q-30 0 -60 12.5t-63 38.5l-45 -119l35 -76h164q47 0 77.5 6.5t59.5 20.5l-96 -147h-158l39 -80q38 -80 84.5 -127t85.5 -47q11 0 24 5t39 21l25 -28q-20 -23 -61 -69q-87 -100 -131 -149q-82 14 -147.5 99 t-143.5 284l-135 -376q-30 37 -61 55t-64 18q-36 0 -62.5 -17t-46.5 -52q-1 4 -2 11q-10 53 -10 77z" />
<glyph unicode="y" d="M35 809v25q53 28 99.5 68.5t88.5 92.5q111 -22 157 -85.5t46 -198.5v-484q34 -6 61 -27.5t48 -58.5l208 140v475q-48 14 -83 35t-60 51q60 22 115.5 62.5t113.5 105.5q66 -63 132.5 -92t142.5 -29h8q-21 -43 -53 -73.5t-78 -51.5v-510q0 -27 3 -53t7 -37q6 -14 23 -41 q45 -70 45 -131q0 -154 -143 -269.5t-351 -115.5q-110 0 -220.5 43t-131.5 43q-26 0 -52.5 -12.5t-54.5 -36.5q14 117 71 184.5t142 67.5q48 0 88 -23t92 -85q4 -5 9 -11q91 -109 172 -109q75 0 124.5 49t49.5 125q0 73 -58 147q-22 29 -30 44q-11 21 -16 66t-7 140 l-413 -274q-30 51 -67.5 76t-86.5 25q-20 0 -42.5 -5t-53.5 -15q5 54 31.5 92.5t76.5 64.5v444q0 90 -33 124t-120 38z" />
<glyph unicode="z" horiz-adv-x="891" d="M27 -39q8 44 40 99t91 126l204 254h-108q-30 0 -58.5 -6t-56.5 -18l78 147h244l291 314q-136 -99 -244 -143t-213 -44q-69 0 -130.5 19t-121.5 59q50 37 95 99.5t79 142.5q59 -57 166 -92t225 -35q79 0 138 28t100 84h33q-12 -27 -30.5 -56t-41.5 -58l-252 -318h109 q27 0 54.5 6.5t57.5 20.5l-78 -150h-241l-277 -309q142 96 236.5 134t181.5 38q96 0 191 -53q22 -12 28 -12q8 0 19 10t34 39l27 -25q-44 -56 -88.5 -121t-108.5 -170q-121 58 -215 84.5t-178 26.5q-98 0 -161 -31t-87 -90h-32z" />
<glyph unicode="{" horiz-adv-x="1024" d="M178 602v68q159 15 216 76t57 223v200q0 200 84.5 273.5t314.5 73.5v-57q-128 -2 -175.5 -55t-47.5 -210v-137q0 -225 -56.5 -307.5t-208.5 -114.5q152 -32 208.5 -114.5t56.5 -307.5v-137q0 -157 47 -209t176 -54v-57h-10q-222 0 -305.5 74t-83.5 272v201 q0 161 -58 223.5t-215 75.5z" />
<glyph unicode="|" horiz-adv-x="1024" d="M424 -483v2048h178v-2048h-178z" />
<glyph unicode="}" horiz-adv-x="1024" d="M174 -187q129 2 176 54t47 209v137q0 227 56.5 308.5t208.5 113.5q-151 32 -208 113.5t-57 308.5v137q0 157 -47.5 210t-175.5 55v57h10q223 0 307 -74.5t84 -272.5v-200q0 -162 57 -223t216 -76v-68q-157 -13 -215 -74.5t-58 -224.5v-201q0 -197 -84 -271.5t-307 -74.5 h-10v57z" />
<glyph unicode="~" horiz-adv-x="1706" d="M178 434v187q106 72 202 107.5t185 35.5q62 0 125.5 -12t168.5 -48q13 -4 42 -15q164 -58 250 -58q85 0 177 37t202 116v-184q-103 -71 -197.5 -106t-183.5 -35q-44 0 -92.5 8.5t-98.5 26.5q-25 8 -76 26q-212 74 -319 74q-82 0 -174 -38t-211 -122z" />
<glyph unicode="&#xa1;" horiz-adv-x="539" d="M23 129q34 28 72 50t81 38l109 819l121 -825q23 -14 46.5 -33t45.5 -43q-74 -47 -131 -95.5t-95 -96.5q-29 80 -93 127.5t-156 58.5zM111 1284q49 36 90.5 76t77.5 86q32 -35 71 -71.5t92 -80.5q-43 -36 -83 -77t-78 -87l-5 5q-100 96 -165 149z" />
<glyph unicode="&#xa2;" horiz-adv-x="995" d="M41 227q6 61 41 99.5t100 58.5v500q0 66 -17 101.5t-58 72.5q10 -1 23 -1.5t38 -0.5q100 0 198 16.5t191 48.5v240h45v-223q28 7 54.5 21.5t52.5 35.5q44 -55 100 -83t121 -28q18 0 31 0.5t26 1.5q-57 -66 -125.5 -99.5t-146.5 -33.5q-27 0 -55.5 5t-57.5 13v-581 q61 -11 108 -29.5t91 -48.5l82 47l26 -24l-307 -203v-190h-45v211q-79 46 -172.5 72t-185.5 26q-35 0 -72.5 -6t-85.5 -19zM416 406h35q23 0 50 -2t56 -4v589q-17 13 -31.5 32t-27.5 46l-82 -18v-643z" />
<glyph unicode="&#xa3;" horiz-adv-x="1165" d="M-4 664v75h203v133q0 148 37.5 214t140.5 135q106 69 203.5 105t181.5 36q69 0 123.5 -17.5t111.5 -58.5l50 33l26 -19q-68 -47 -123.5 -97.5t-105.5 -110.5q-119 85 -179 114t-106 29q-69 0 -97 -30.5t-28 -114.5v-351h387v-75h-387v-160q0 -130 -73.5 -199.5 t-237.5 -95.5q42 32 59 72.5t17 132.5v250h-203zM18 -12q110 143 286 221t392 78q82 0 164.5 -17t196.5 -59l37 39l24 -19q-43 -48 -84.5 -105t-91.5 -136q-109 51 -232 78.5t-243 27.5q-106 0 -215 -26t-234 -82z" />
<glyph unicode="&#xa4;" horiz-adv-x="1241" d="M76 432l203 205q-40 53 -60 115.5t-20 132.5q0 69 20 131.5t60 116.5l-203 204l92 93l203 -203q55 41 117 61.5t133 20.5t134 -20.5t117 -61.5l203 203l94 -93l-204 -204q39 -54 59 -116.5t20 -131.5q0 -70 -20 -132.5t-59 -115.5l204 -205l-94 -92l-203 205 q-57 -42 -118 -62t-131 -20q-72 0 -135 20.5t-117 61.5l-203 -205zM332 885q0 -120 84.5 -204.5t206.5 -84.5q121 0 205.5 84.5t84.5 204.5q0 119 -85.5 205t-204.5 86q-120 0 -205.5 -86t-85.5 -205z" />
<glyph unicode="&#xa5;" horiz-adv-x="1214" d="M0 688v70h188v123h-188v71h188v37q0 91 -33.5 125.5t-119.5 38.5v25q53 28 99.5 68.5t88.5 92.5q111 -22 157 -85t46 -199v-103h317v146q-48 15 -82 35.5t-61 50.5q59 22 115 63.5t114 106.5q66 -63 132.5 -92t142.5 -29h8q-21 -43 -53 -73.5t-78 -51.5v-156h170v-71 h-170v-123h170v-70h-170v-92q0 -27 3 -51.5t7 -36.5q6 -14 23 -41q45 -70 45 -131q0 -152 -143.5 -268.5t-350.5 -116.5q-109 0 -219.5 43t-136.5 43q-22 0 -48 -12.5t-55 -36.5q14 116 70.5 184t138.5 68q51 0 90.5 -22.5t93.5 -85.5q4 -5 10 -12q90 -108 171 -108 q75 0 124.5 49t49.5 125q0 72 -57 145q-23 30 -31 46q-11 21 -16 66t-7 140l-413 -274q-30 51 -67.5 76t-86.5 25q-20 0 -42.5 -5t-53.5 -15q5 54 31.5 92.5t76.5 64.5v141h-188zM426 571q34 -6 61 -27.5t48 -58.5l208 140v63h-317v-117zM426 758h317v123h-317v-123z" />
<glyph unicode="&#xa6;" horiz-adv-x="1024" d="M424 -350v758h178v-758h-178zM424 674v758h178v-758h-178z" />
<glyph unicode="&#xa7;" horiz-adv-x="1014" d="M43 -223q34 102 107.5 157.5t173.5 55.5q65 0 122.5 -34.5t114.5 -109.5l96 21v164q0 65 -17.5 88.5t-66.5 48.5q-131 68 -202.5 88t-147.5 20q-25 0 -56.5 -2t-66.5 -6q1 8 1 25q3 187 3 272q0 68 -1 129.5t-3 126.5q6 0 18 -2q54 -6 77 -6q81 0 164.5 22.5t168.5 67.5 q-96 50 -157.5 68t-124.5 18q-29 0 -64 -2.5t-85 -7.5q19 37 27.5 75t8.5 87q0 37 -10 69t-34 74q44 -5 79.5 -7.5t64.5 -2.5q107 0 225.5 42.5t243.5 125.5q28 -62 66.5 -92.5t89.5 -30.5q23 0 46 7t50 24q-15 -90 -75 -140.5t-150 -50.5q-83 0 -141 32.5t-96 100.5 l-121 -32v-152q0 -59 16 -83.5t84 -55.5l127 -60q47 -22 91.5 -32.5t117.5 -10.5q22 0 52.5 3.5t68.5 8.5q-3 -82 -4.5 -151.5t-1.5 -126.5t1.5 -126.5t4.5 -149.5q-152 -4 -237 -28.5t-146 -78.5q71 -36 123 -50.5t106 -14.5q36 0 130 12q20 3 29 4q-16 -29 -24 -67.5 t-8 -102.5q0 -63 13 -104t42 -70q-78 8 -126.5 11t-84.5 3q-107 0 -211 -37.5t-180 -103.5q-61 62 -105 87.5t-91 25.5q-31 0 -58 -8t-57 -25zM371 383q0 -42 13.5 -67.5t43.5 -41.5l76 -38l153 94v422q0 56 -11 80t-38 36l-33 15l-204 -84v-416z" />
<glyph unicode="&#xa8;" horiz-adv-x="1024" d="M115 1204l133 152q57 -70 84.5 -87.5t62.5 -17.5q10 0 22.5 3t32.5 9q-38 -78 -81 -113.5t-99 -35.5q-45 0 -85 23t-70 67zM567 1204l133 152q57 -70 85 -87.5t63 -17.5q9 0 22 3t33 9q-38 -78 -81 -113.5t-99 -35.5q-45 0 -85 23t-71 67z" />
<glyph unicode="&#xa9;" horiz-adv-x="1683" d="M121 678q0 143 54 274.5t157 235.5q102 102 235 157.5t277 55.5q140 0 272.5 -55.5t233.5 -155.5q101 -102 157 -235.5t56 -276.5q0 -142 -55.5 -274t-157.5 -236q-101 -102 -231 -155.5t-277 -53.5q-145 0 -274.5 53t-233.5 156q-104 104 -158.5 234.5t-54.5 275.5z M219 678q0 -126 47.5 -239.5t136.5 -202.5q91 -91 201.5 -137t237.5 -46q126 0 238.5 47t199.5 136q88 89 136 204.5t48 237.5q0 124 -48 241.5t-136 204.5q-86 86 -200 133.5t-236 47.5q-126 0 -241 -48t-202 -137q-88 -90 -135 -203.5t-47 -238.5zM416 670 q0 184 119.5 309t295.5 125q80 0 154 -33t78 -33q28 0 41.5 14t19.5 48h41l2 -320h-47q-32 134 -102 203.5t-172 69.5q-116 0 -176 -94t-60 -275q0 -184 65 -281.5t189 -97.5q82 0 151 43.5t126 130.5l43 -26q-63 -108 -150 -160.5t-200 -52.5q-177 0 -297.5 124t-120.5 306 z" />
<glyph unicode="&#xaa;" horiz-adv-x="748" d="M31 909q0 80 44 134.5t156 109.5l-172 176q61 16 100.5 41.5t65.5 65.5q23 -50 50 -72.5t65 -22.5q37 0 83.5 25t90.5 70q31 -41 59 -58.5t60 -17.5q17 0 34.5 5t34.5 15q-14 -41 -34 -66.5t-52 -41.5v-293q0 -70 31 -103t100 -41q-36 -26 -73 -56.5t-74 -65.5 q-58 5 -95.5 37.5t-53.5 93.5l-218 -142q-103 16 -152.5 66.5t-49.5 140.5zM125 1300l258 -266l-16 -18l-115 114q-32 -33 -45.5 -61t-13.5 -59q0 -71 49 -115.5t147 -60.5l57 38v375q-26 12 -46 29t-35 43q-25 -29 -53 -43t-60 -14q-26 0 -55.5 8.5t-71.5 29.5z" />
<glyph unicode="&#xab;" horiz-adv-x="905" d="M20 494q127 77 234 181t192 234q-4 -101 -54.5 -212.5t-135.5 -204.5q84 -103 132 -209.5t58 -214.5q-111 150 -215.5 254.5t-210.5 171.5zM397 494q128 81 230.5 181.5t193.5 233.5q-3 -99 -54 -211t-136 -206q86 -106 134 -213.5t56 -210.5q-112 150 -215.5 253.5 t-208.5 172.5z" />
<glyph unicode="&#xac;" horiz-adv-x="1706" d="M254 696v166h1198v-502h-166v336h-1032z" />
<glyph unicode="&#xad;" horiz-adv-x="797" d="M43 377l84 215q11 -15 24 -22t31 -7h482q34 0 53 6.5t37 22.5l-86 -215q-15 15 -31.5 22t-36.5 7h-477q-24 0 -43 -7t-37 -22z" />
<glyph unicode="&#xae;" horiz-adv-x="1683" d="M121 678q0 143 54.5 275t156.5 235q102 102 235 157.5t277 55.5t279 -57t235 -160q98 -102 151.5 -235.5t53.5 -278.5q0 -138 -59.5 -272.5t-166.5 -239.5q-101 -100 -228 -149.5t-282 -49.5q-135 0 -264 54.5t-229 154.5q-105 104 -159 234t-54 276zM219 678 q0 -126 47.5 -239.5t136.5 -202.5q91 -91 201.5 -137t237.5 -46q126 0 238.5 47t199.5 136q89 90 136.5 204.5t47.5 237.5q0 122 -48.5 240t-135.5 206q-86 86 -200 133.5t-236 47.5q-126 0 -241 -48t-202 -137q-89 -90 -135.5 -203t-46.5 -239zM467 287v46q64 4 88.5 24.5 t24.5 72.5v520q0 52 -23.5 72t-89.5 25v49h399q145 0 232.5 -55t87.5 -142q0 -84 -65.5 -133t-217.5 -76q96 -25 147.5 -73t69.5 -127q6 -24 10 -67q9 -91 54 -91q29 0 44 34t15 99h49v-23q0 -85 -43 -129.5t-127 -44.5q-46 0 -80 14.5t-53 43.5q-24 39 -27 111.5t-8 93.5 q-16 74 -60.5 109.5t-121.5 35.5h-24v-246q0 -49 22.5 -69.5t85.5 -26.5v-47h-389zM748 723q14 -1 27 -1.5t26 -0.5q100 0 154.5 44t54.5 126q0 70 -46.5 114t-121.5 44q-47 0 -70.5 -17.5t-23.5 -50.5v-258z" />
<glyph unicode="&#xaf;" horiz-adv-x="1024" d="M190 1194v123h644v-123h-644z" />
<glyph unicode="&#xb0;" horiz-adv-x="674" d="M43 1163q0 125 86 211t209 86t209 -87t86 -210q0 -121 -87 -208t-210 -87t-208 85.5t-85 209.5zM152 1165q0 -76 54.5 -131t131.5 -55t130.5 54.5t53.5 131.5t-53.5 131t-130.5 54t-131.5 -54t-54.5 -131z" />
<glyph unicode="&#xb1;" horiz-adv-x="1706" d="M254 14v168h1198v-168h-1198zM254 707v165h514v334h170v-334h514v-165h-514v-334h-170v334h-514z" />
<glyph unicode="&#xb2;" horiz-adv-x="649" d="M19 1294q15 -7 31 -10.5t32 -3.5q37 0 81 16.5t87 46.5q67 -50 132.5 -75t131.5 -25q15 0 38 1.5t54 4.5q-21 -22 -30 -45t-9 -61v-162q0 -43 9 -67.5t30 -43.5q-51 11 -89.5 16t-74.5 5q-171 0 -273.5 -63.5t-102.5 -168.5v-2q53 6 110.5 9.5t116.5 3.5q84 0 151 -6.5 t127 -20.5l37 35l15 -16q-48 -46 -76.5 -78.5t-46.5 -61.5q-57 16 -121.5 23.5t-142.5 7.5q-41 0 -89 -2.5t-110 -7.5q-3 24 -4.5 45.5t-1.5 36.5q0 117 59 185t191 103q20 6 53 14q69 16 69 91v219l-22 6q-50 -34 -95 -50.5t-87 -16.5q-68 0 -116 31.5t-64 86.5z" />
<glyph unicode="&#xb3;" horiz-adv-x="682" d="M-36 588q37 56 89 85t113 29q60 0 105 -27t83 -85l49 16v268q-40 6 -75 26t-43 20q-13 0 -28.5 -12t-43.5 -46v94q8 -5 18.5 -8.5t20.5 -3.5q12 0 61.5 20t89.5 31v242l-34 12q-37 -46 -78.5 -69t-87.5 -23q-55 0 -103.5 28t-79.5 79q11 -1 31 -3.5t29 -3.5q47 0 86 21 t74 65q51 -48 137.5 -74t222.5 -34q-18 -13 -25.5 -30.5t-7.5 -51.5v-119q0 -13 8.5 -26t24.5 -23q-102 -5 -167.5 -18t-113.5 -35q51 -26 124.5 -40.5t156.5 -14.5q-16 -14 -24.5 -31t-8.5 -37v-117q0 -33 8 -59t25 -47q-18 1 -44.5 2.5t-33.5 1.5q-95 0 -172.5 -24.5 t-136.5 -71.5q-43 47 -94 72.5t-101 25.5q-18 0 -30.5 -1t-23.5 -3z" />
<glyph unicode="&#xb4;" horiz-adv-x="1024" d="M172 1143h8q168 0 285 65t201 205q43 -29 90 -54.5t96 -45.5l-6 -19l-35 15q-66 -108 -175.5 -167t-240.5 -59q-66 0 -120 14.5t-103 45.5z" />
<glyph unicode="&#xb5;" horiz-adv-x="1184" d="M-109 -319q0 52 69 282.5t108 409.5l108 512h207l-100 -467q-10 -46 -15.5 -82t-5.5 -57q0 -64 37 -101t102 -37q87 0 139 53.5t76 167.5l111 523h209l-113 -533l-3 -15q-15 -70 -15 -110q0 -42 22.5 -66t63.5 -24q40 0 71 21.5t58 68.5q9 17 23 49q25 60 51 60 q11 0 16.5 -7.5t5.5 -23.5q0 -28 -17 -85.5t-40 -100.5q-41 -72 -95.5 -108t-123.5 -36q-84 0 -129.5 55t-47.5 156q-42 -104 -109.5 -157.5t-156.5 -53.5q-99 0 -156.5 58t-68.5 168q-23 -124 -48 -315q-39 -306 -134 -306q-47 0 -73 26.5t-26 74.5z" />
<glyph unicode="&#xb6;" horiz-adv-x="1024" d="M55 1130q0 158 107 253.5t284 95.5h523v-99h-117v-1380h-129v1380h-168v-1380h-131v784q-168 6 -268.5 101t-100.5 245z" />
<glyph unicode="&#xb7;" horiz-adv-x="606" d="M166 659q0 60 39.5 101t97.5 41t98.5 -41.5t40.5 -100.5q0 -56 -41 -97.5t-98 -41.5t-97 40.5t-40 98.5z" />
<glyph unicode="&#xb8;" horiz-adv-x="1024" d="M269 -471q7 69 51.5 110.5t111.5 41.5q38 0 68 -14.5t59 -47.5l39 6v182h-139l45 74h225v-182q0 -48 8 -73t27 -44q-22 8 -46.5 12.5t-51.5 4.5q-69 0 -119.5 -20t-87.5 -62q-27 35 -52 52t-51 17q-22 0 -39 -16t-26 -45z" />
<glyph unicode="&#xb9;" horiz-adv-x="526" d="M37 1208v25q47 12 98 39.5t105 70.5q65 -34 90.5 -75t25.5 -117v-466q23 -8 43.5 -20t40.5 -30l70 37l10 -23q-41 -21 -95 -61t-114 -92q-39 37 -90 58t-102 21q-18 0 -33 -2t-29 -6q20 41 55.5 70t84.5 45v373q0 92 -34 122.5t-126 30.5z" />
<glyph unicode="&#xba;" horiz-adv-x="864" d="M37 793q19 31 43 54t55 40v319q0 60 -11 91.5t-38 54.5q29 -6 58 -9.5t57 -3.5q89 0 176.5 26t154.5 73q57 -52 111.5 -76.5t114.5 -24.5q11 0 39 3q8 1 12 1q-9 -17 -26.5 -33t-53.5 -38v-336q0 -45 10 -72.5t33 -56.5q-30 3 -57.5 4.5t-52.5 1.5q-102 0 -182 -26.5 t-148 -82.5q-65 50 -121 72.5t-115 22.5q-17 0 -31 -1t-28 -3zM313 897q55 -6 95.5 -26.5t74.5 -59.5q28 8 42 11t26 6v417q-62 12 -102.5 34.5t-69.5 61.5q-16 -6 -49 -11q-11 -2 -17 -3v-430z" />
<glyph unicode="&#xbb;" horiz-adv-x="905" d="M86 68q9 105 57.5 213t132.5 211q-83 89 -134 201.5t-56 215.5q87 -129 190.5 -230.5t233.5 -184.5q-107 -70 -211.5 -175t-212.5 -251zM461 68q7 103 55 210.5t133 213.5q-86 96 -135.5 206.5t-52.5 210.5q83 -128 190 -233t234 -182q-108 -69 -211.5 -173t-212.5 -253z " />
<glyph unicode="&#xbc;" horiz-adv-x="1556" d="M35 1217v22q45 12 93 38t101 66q63 -34 87 -72t24 -110v-434q24 -8 43 -19t37 -28l67 35l11 -21q-39 -19 -91 -56.5t-108 -86.5q-38 35 -88 55.5t-98 20.5q-11 0 -25 -2.5t-34 -7.5q19 38 53 66t79 42v348q0 87 -32 115.5t-119 28.5zM162 -57l897 1417h127l-895 -1417 h-129zM846 213v129q123 104 226 208.5t188 211.5q41 -44 76.5 -63t72.5 -19q11 0 22.5 2t34.5 8q-5 -35 -25.5 -60t-60.5 -42v-348h62q26 0 43.5 7.5t45.5 34.5q-5 -11 -7 -21.5t-2 -24.5q0 -20 2.5 -36t7.5 -30q-17 22 -39 32.5t-49 10.5h-64v-72q36 -10 61 -28.5t46 -49.5 q-50 -14 -93 -38.5t-75 -57.5q-26 40 -56 59t-67 19q-15 0 -32 -3.5t-37 -10.5q14 37 36.5 60.5t57.5 39.5v82h-375zM993 240h228v344l-50 34l-178 -180v-198z" />
<glyph unicode="&#xbd;" horiz-adv-x="1466" d="M35 1217v22q45 12 93 38t101 66q63 -34 87 -72t24 -110v-434q24 -8 43 -19t37 -28l67 35l11 -21q-39 -19 -91 -56.5t-108 -86.5q-38 35 -88 55.5t-98 20.5q-11 0 -25 -2.5t-34 -7.5q19 38 53 66t79 42v348q0 87 -32 115.5t-119 28.5zM162 -57l897 1417h127l-895 -1417 h-129zM865 714q15 -7 28.5 -10t30.5 -4q35 0 77 16t84 46q67 -49 128 -72.5t122 -23.5q18 0 40.5 2t47.5 6q-18 -20 -26 -41.5t-8 -59.5v-151q0 -41 8 -63.5t26 -39.5q-41 10 -78.5 14.5t-74.5 4.5q-165 0 -264 -59t-99 -156l1 -2q58 5 112 7.5t106 2.5q86 0 148 -5.5 t117 -16.5l36 30l13 -14q-39 -35 -68.5 -68.5t-48.5 -62.5q-55 14 -117.5 21.5t-134.5 7.5q-54 0 -100.5 -3t-87.5 -8q-4 22 -6.5 42t-2.5 36q0 108 56.5 172t182.5 99q18 4 49 11q68 14 69 85v205l-21 6q-48 -33 -90.5 -48.5t-83.5 -15.5q-65 0 -111 29.5t-60 80.5z" />
<glyph unicode="&#xbe;" horiz-adv-x="1704" d="M-37 637q36 53 86.5 80.5t108.5 27.5q57 0 100.5 -25.5t79.5 -80.5l47 14v252q-38 5 -72 23t-41 18q-13 0 -27 -11t-40 -42v88q8 -5 17 -7.5t18 -2.5q13 0 61 18t84 29v225l-33 10q-35 -42 -74.5 -64t-82.5 -22q-51 0 -97.5 26.5t-79.5 74.5q7 -1 18 -2q28 -2 40 -2 q47 0 84 19t69 60q49 -45 129.5 -69.5t214.5 -32.5q-16 -10 -23 -26t-7 -50v-112q0 -13 8 -25t22 -20q-94 -4 -157.5 -15.5t-110.5 -34.5q51 -25 121 -39t147 -14q-14 -9 -22 -24.5t-8 -36.5v-111q0 -32 7.5 -56t22.5 -42q-16 1 -42.5 2.5t-32.5 1.5q-91 0 -165 -23 t-128 -67q-43 44 -91.5 68t-95.5 24q-17 0 -29.5 -1t-25.5 -3zM309 -57l897 1417h127l-895 -1417h-129zM993 213v129q123 104 226 208.5t188 211.5q42 -44 77 -63t72 -19q11 0 23 2t34 8q-5 -36 -25.5 -60.5t-59.5 -41.5v-348h61q27 0 44 7.5t46 34.5q-5 -10 -7.5 -21.5 t-2.5 -24.5q0 -19 2.5 -35t7.5 -31q-17 22 -38.5 32.5t-49.5 10.5h-63v-72q35 -10 60 -28.5t46 -49.5q-49 -14 -92 -38.5t-76 -57.5q-26 40 -56 59t-67 19q-15 0 -31.5 -3.5t-37.5 -10.5q15 37 37 60.5t57 39.5v82h-375zM1141 240h227v344l-49 34l-178 -180v-198z" />
<glyph unicode="&#xbf;" horiz-adv-x="934" d="M104 66q21 30 32 75.5t11 100.5v260q0 38 -8.5 79.5t-27.5 94.5q11 0 32 -1t31 -1q211 0 294.5 72.5t115.5 283.5q12 -72 18 -132t6 -107q0 -119 -41.5 -174t-152.5 -89v-452l57 -13q43 88 101.5 132.5t132.5 44.5q68 0 130 -44t103 -122q-27 14 -47 20t-39 6 q-50 0 -101 -39t-104 -118q-88 60 -218 91.5t-294 31.5h-31zM401 1280q53 34 95 74.5t77 91.5q38 -44 78.5 -82t85.5 -72q-48 -42 -88.5 -81t-75.5 -78q-28 26 -64.5 57.5t-107.5 89.5z" />
<glyph unicode="&#xc0;" horiz-adv-x="1473" d="M-49 -57q52 143 139 220t211 91l227 489q-28 53 -68.5 79t-94.5 26q-45 0 -84.5 -19t-79.5 -59q10 138 85.5 218.5t192.5 80.5q50 0 90.5 -17.5t77.5 -54.5l60 125q-30 51 -76 77t-109 26q-82 0 -162.5 -35.5t-150.5 -102.5q33 153 161 258t277 105q101 0 171 -52.5 t114 -160.5l373 -932q26 -64 72.5 -95.5t115.5 -31.5h6v-33q-49 -42 -95.5 -92.5t-90.5 -109.5q-91 15 -144 65.5t-108 198.5l-82 213h-557l-76 -160q5 0 16.5 1t16.5 1q61 0 120 -16t117 -49l76 63l31 -27q-80 -67 -144.5 -138.5t-113.5 -147.5q-64 34 -130.5 50.5 t-137.5 16.5q-68 0 -128 -17.5t-118 -53.5zM367 1764q43 18 87 42t97 58q84 -139 201.5 -204.5t286.5 -65.5h8q-48 -30 -103.5 -45t-121.5 -15q-131 0 -239 59t-175 167l-37 -15zM516 621h385l-174 456z" />
<glyph unicode="&#xc1;" horiz-adv-x="1473" d="M-49 -57q52 143 139 220t211 91l227 489q-28 53 -68.5 79t-94.5 26q-45 0 -84.5 -19t-79.5 -59q10 138 85.5 218.5t192.5 80.5q50 0 90.5 -17.5t77.5 -54.5l60 125q-30 51 -76 77t-109 26q-82 0 -162.5 -35.5t-150.5 -102.5q33 153 161 258t277 105q101 0 171 -52.5 t114 -160.5l373 -932q26 -64 72.5 -95.5t115.5 -31.5h6v-33q-49 -42 -95.5 -92.5t-90.5 -109.5q-91 15 -144 65.5t-108 198.5l-82 213h-557l-76 -160q5 0 16.5 1t16.5 1q61 0 120 -16t117 -49l76 63l31 -27q-80 -67 -144.5 -138.5t-113.5 -147.5q-64 34 -130.5 50.5 t-137.5 16.5q-68 0 -128 -17.5t-118 -53.5zM367 1594h8q168 0 285 65t201 205q43 -29 90 -54.5t96 -45.5l-6 -19l-35 15q-66 -108 -175.5 -167t-240.5 -59q-66 0 -120 14.5t-103 45.5zM516 621h385l-174 456z" />
<glyph unicode="&#xc2;" horiz-adv-x="1473" d="M-49 -57q52 143 139 220t211 91l227 489q-28 53 -68.5 79t-94.5 26q-45 0 -84.5 -19t-79.5 -59q10 138 85.5 218.5t192.5 80.5q50 0 90.5 -17.5t77.5 -54.5l60 125q-30 51 -76 77t-109 26q-82 0 -162.5 -35.5t-150.5 -102.5q33 153 161 258t277 105q101 0 171 -52.5 t114 -160.5l373 -932q26 -64 72.5 -95.5t115.5 -31.5h6v-33q-49 -42 -95.5 -92.5t-90.5 -109.5q-91 15 -144 65.5t-108 198.5l-82 213h-557l-76 -160q5 0 16.5 1t16.5 1q61 0 120 -16t117 -49l76 63l31 -27q-80 -67 -144.5 -138.5t-113.5 -147.5q-64 34 -130.5 50.5 t-137.5 16.5q-68 0 -128 -17.5t-118 -53.5zM308 1520q141 98 240 189.5t163 185.5q74 -110 170.5 -201.5t224.5 -173.5q-111 5 -211 39t-184 96q-94 -59 -196.5 -93t-206.5 -42zM516 621h385l-174 456z" />
<glyph unicode="&#xc3;" horiz-adv-x="1473" d="M-49 -57q52 143 139 220t211 91l227 489q-28 53 -68.5 79t-94.5 26q-45 0 -84.5 -19t-79.5 -59q10 138 85.5 218.5t192.5 80.5q50 0 90.5 -17.5t77.5 -54.5l60 125q-30 51 -76 77t-109 26q-82 0 -162.5 -35.5t-150.5 -102.5q33 153 161 258t277 105q101 0 171 -52.5 t114 -160.5l373 -932q26 -64 72.5 -95.5t115.5 -31.5h6v-33q-49 -42 -95.5 -92.5t-90.5 -109.5q-91 15 -144 65.5t-108 198.5l-82 213h-557l-76 -160q5 0 16.5 1t16.5 1q61 0 120 -16t117 -49l76 63l31 -27q-80 -67 -144.5 -138.5t-113.5 -147.5q-64 34 -130.5 50.5 t-137.5 16.5q-68 0 -128 -17.5t-118 -53.5zM334 1569q24 93 102 151t181 58q52 0 154 -26.5t155 -26.5q50 0 85.5 9.5t66.5 31.5q-46 -90 -132.5 -139.5t-197.5 -49.5q-51 0 -137 21.5t-127 21.5q-51 0 -85.5 -11.5t-64.5 -39.5zM516 621h385l-174 456z" />
<glyph unicode="&#xc4;" horiz-adv-x="1473" d="M-49 -57q52 143 139 220t211 91l227 489q-28 53 -68.5 79t-94.5 26q-45 0 -84.5 -19t-79.5 -59q10 138 85.5 218.5t192.5 80.5q50 0 90.5 -17.5t77.5 -54.5l60 125q-30 51 -76 77t-109 26q-82 0 -162.5 -35.5t-150.5 -102.5q33 153 161 258t277 105q101 0 171 -52.5 t114 -160.5l373 -932q26 -64 72.5 -95.5t115.5 -31.5h6v-33q-49 -42 -95.5 -92.5t-90.5 -109.5q-91 15 -144 65.5t-108 198.5l-82 213h-557l-76 -160q5 0 16.5 1t16.5 1q61 0 120 -16t117 -49l76 63l31 -27q-80 -67 -144.5 -138.5t-113.5 -147.5q-64 34 -130.5 50.5 t-137.5 16.5q-68 0 -128 -17.5t-118 -53.5zM310 1655l133 152q57 -70 84.5 -87.5t62.5 -17.5q10 0 22.5 3t32.5 9q-38 -78 -81 -113.5t-99 -35.5q-45 0 -85 23t-70 67zM516 621h385l-174 456zM762 1655l133 152q57 -70 85 -87.5t63 -17.5q9 0 22 3t33 9q-38 -78 -81 -113.5 t-99 -35.5q-45 0 -85 23t-71 67z" />
<glyph unicode="&#xc5;" horiz-adv-x="1473" d="M-49 -57q52 143 139 220t211 91l227 489q-28 53 -68.5 79t-94.5 26q-45 0 -84.5 -19t-79.5 -59q10 138 85.5 218.5t192.5 80.5q50 0 90.5 -17.5t77.5 -54.5l60 125q-30 51 -76 77t-109 26q-82 0 -162.5 -35.5t-150.5 -102.5q33 153 161 258t277 105q101 0 171 -52.5 t114 -160.5l373 -932q26 -64 72.5 -95.5t115.5 -31.5h6v-33q-49 -42 -95.5 -92.5t-90.5 -109.5q-91 15 -144 65.5t-108 198.5l-82 213h-557l-76 -160q5 0 16.5 1t16.5 1q61 0 120 -16t117 -49l76 63l31 -27q-80 -67 -144.5 -138.5t-113.5 -147.5q-64 34 -130.5 50.5 t-137.5 16.5q-68 0 -128 -17.5t-118 -53.5zM508 1722q0 95 66.5 161.5t160.5 66.5t161 -67t67 -161t-67 -160.5t-161 -66.5t-160.5 66.5t-66.5 160.5zM516 621h385l-174 456zM612 1722q0 -50 36.5 -86.5t86.5 -36.5q51 0 87 36.5t36 86.5t-36.5 86.5t-86.5 36.5 q-51 0 -87 -35.5t-36 -87.5z" />
<glyph unicode="&#xc6;" horiz-adv-x="2048" d="M-63 -55q63 140 153.5 221t200.5 98l246 527q-51 24 -91.5 35.5t-76.5 11.5q-55 0 -101 -21.5t-90 -66.5q15 147 85.5 225t189.5 78q40 0 84.5 -9t103.5 -28l96 192q-48 12 -88 17.5t-78 5.5q-87 0 -166.5 -30.5t-160.5 -94.5q38 155 176 247.5t334 92.5q109 0 244 -44 t176 -44q39 0 79 15t80 44q-64 -132 -143.5 -193t-188.5 -61q-30 0 -139 20q-56 10 -88 15l-274 -577h385v237q0 112 67.5 171t233.5 93q-20 -26 -28.5 -67.5t-8.5 -118.5v-479q0 -110 -75 -177.5t-257 -119.5q41 62 54.5 97.5t13.5 74.5v100h-471l-74 -160q5 0 15.5 1 t15.5 1q54 0 110 -15.5t117 -47.5l57 53l27 -24q-85 -87 -139.5 -153t-87.5 -124q-65 31 -128.5 46.5t-127.5 15.5q-76 0 -137.5 -19t-124.5 -61zM737 -41q98 98 233 178t290 131v686q0 216 131 343.5t352 127.5q67 0 121 -16.5t102 -52.5l39 43l37 -29q-57 -65 -104 -135.5 t-87 -147.5q-57 59 -131.5 89t-163.5 30q-130 0 -194 -63.5t-64 -192.5v-272q87 101 165.5 148.5t156.5 47.5q44 0 86.5 -13.5t89.5 -43.5l49 60l33 -33q-58 -68 -110 -143t-99 -158q-66 55 -120 79.5t-105 24.5q-33 0 -67.5 -7.5t-78.5 -25.5v-333q83 16 148 24t119 8 q94 0 184.5 -22t185.5 -68l74 78l35 -33q-72 -81 -129 -158.5t-103 -154.5q-163 56 -276.5 79t-218.5 23q-129 0 -264.5 -22.5t-315.5 -75.5z" />
<glyph unicode="&#xc7;" horiz-adv-x="1475" d="M59 635q0 318 215 542.5t539 245.5q-235 -133 -334.5 -290t-99.5 -390q0 -270 146.5 -440t375.5 -170q36 0 77.5 5.5t92.5 17.5v995q-42 20 -74 49.5t-59 73.5l-31 -17v-665q0 -156 -73.5 -223t-249.5 -72q21 32 30 74.5t9 126.5v583l-93 -55l-14 31l633 389 q35 -58 79.5 -87.5t96.5 -29.5q22 0 49 9.5t62 29.5q-37 -112 -109 -168.5t-178 -56.5q-16 0 -24.5 0.5t-14.5 0.5v-976q67 15 151.5 61.5t221.5 145.5q-103 -214 -282.5 -323t-426.5 -109q-318 0 -516.5 192.5t-198.5 499.5zM543 -471q7 69 51.5 110.5t111.5 41.5 q38 0 68 -14.5t59 -47.5l39 6v182h-139l45 74h225v-182q0 -48 8 -73t27 -44q-22 8 -46.5 12.5t-51.5 4.5q-69 0 -119.5 -20t-87.5 -62q-27 35 -52 52t-51 17q-22 0 -39 -16t-26 -45z" />
<glyph unicode="&#xc8;" horiz-adv-x="1497" d="M25 1153q50 135 141.5 214t195.5 79q59 0 159 -39t151 -39q39 0 77 13t80 40q-76 -115 -179 -185.5t-189 -70.5q-46 0 -139.5 34t-139.5 34q-36 0 -74.5 -19.5t-82.5 -60.5zM82 594q0 94 58 147.5t161 53.5h21v96q0 111 65.5 165t243.5 85q-19 -27 -27 -69.5t-8 -121.5 v-438q0 -153 -67.5 -225t-260.5 -127q28 37 41 81t13 101v221q-16 0 -32.5 1t-17.5 1q-59 0 -97.5 -25t-59.5 -79q-17 35 -25 67.5t-8 65.5zM180 -51q120 113 254 193t273 120v713q0 221 124.5 346t344.5 125q53 0 111 -16t118 -48l37 43l31 -30q-48 -59 -95.5 -131 t-97.5 -160q-56 57 -129 89t-150 32q-132 0 -194 -67.5t-62 -213.5v-254q68 95 151 142t183 47q42 0 80.5 -10.5t79.5 -32.5l53 51l37 -27q-66 -79 -118.5 -156.5t-94.5 -156.5q-56 52 -114 77t-121 25q-35 0 -68 -5.5t-68 -16.5v-348q62 15 125 22.5t134 7.5 q82 0 173.5 -21t198.5 -65l68 78l33 -33q-65 -77 -124.5 -158.5t-113.5 -166.5q-128 55 -261.5 83.5t-264.5 28.5q-125 0 -257.5 -26.5t-275.5 -79.5zM512 1764q43 18 87 42t97 58q84 -139 201.5 -204.5t286.5 -65.5h8q-48 -30 -103.5 -45t-121.5 -15q-131 0 -239 59 t-175 167l-37 -15z" />
<glyph unicode="&#xc9;" horiz-adv-x="1497" d="M25 1153q50 135 141.5 214t195.5 79q59 0 159 -39t151 -39q39 0 77 13t80 40q-76 -115 -179 -185.5t-189 -70.5q-46 0 -139.5 34t-139.5 34q-36 0 -74.5 -19.5t-82.5 -60.5zM82 594q0 94 58 147.5t161 53.5h21v96q0 111 65.5 165t243.5 85q-19 -27 -27 -69.5t-8 -121.5 v-438q0 -153 -67.5 -225t-260.5 -127q28 37 41 81t13 101v221q-16 0 -32.5 1t-17.5 1q-59 0 -97.5 -25t-59.5 -79q-17 35 -25 67.5t-8 65.5zM180 -51q120 113 254 193t273 120v713q0 221 124.5 346t344.5 125q53 0 111 -16t118 -48l37 43l31 -30q-48 -59 -95.5 -131 t-97.5 -160q-56 57 -129 89t-150 32q-132 0 -194 -67.5t-62 -213.5v-254q68 95 151 142t183 47q42 0 80.5 -10.5t79.5 -32.5l53 51l37 -27q-66 -79 -118.5 -156.5t-94.5 -156.5q-56 52 -114 77t-121 25q-35 0 -68 -5.5t-68 -16.5v-348q62 15 125 22.5t134 7.5 q82 0 173.5 -21t198.5 -65l68 78l33 -33q-65 -77 -124.5 -158.5t-113.5 -166.5q-128 55 -261.5 83.5t-264.5 28.5q-125 0 -257.5 -26.5t-275.5 -79.5zM512 1594h8q168 0 285 65t201 205q43 -29 90 -54.5t96 -45.5l-6 -19l-35 15q-66 -108 -175.5 -167t-240.5 -59 q-66 0 -120 14.5t-103 45.5z" />
<glyph unicode="&#xca;" horiz-adv-x="1497" d="M25 1153q50 135 141.5 214t195.5 79q59 0 159 -39t151 -39q39 0 77 13t80 40q-76 -115 -179 -185.5t-189 -70.5q-46 0 -139.5 34t-139.5 34q-36 0 -74.5 -19.5t-82.5 -60.5zM82 594q0 94 58 147.5t161 53.5h21v96q0 111 65.5 165t243.5 85q-19 -27 -27 -69.5t-8 -121.5 v-438q0 -153 -67.5 -225t-260.5 -127q28 37 41 81t13 101v221q-16 0 -32.5 1t-17.5 1q-59 0 -97.5 -25t-59.5 -79q-17 35 -25 67.5t-8 65.5zM180 -51q120 113 254 193t273 120v713q0 221 124.5 346t344.5 125q53 0 111 -16t118 -48l37 43l31 -30q-48 -59 -95.5 -131 t-97.5 -160q-56 57 -129 89t-150 32q-132 0 -194 -67.5t-62 -213.5v-254q68 95 151 142t183 47q42 0 80.5 -10.5t79.5 -32.5l53 51l37 -27q-66 -79 -118.5 -156.5t-94.5 -156.5q-56 52 -114 77t-121 25q-35 0 -68 -5.5t-68 -16.5v-348q62 15 125 22.5t134 7.5 q82 0 173.5 -21t198.5 -65l68 78l33 -33q-65 -77 -124.5 -158.5t-113.5 -166.5q-128 55 -261.5 83.5t-264.5 28.5q-125 0 -257.5 -26.5t-275.5 -79.5zM453 1520q141 98 240 189.5t163 185.5q74 -110 170.5 -201.5t224.5 -173.5q-111 5 -211 39t-184 96q-94 -59 -196.5 -93 t-206.5 -42z" />
<glyph unicode="&#xcb;" horiz-adv-x="1497" d="M25 1153q50 135 141.5 214t195.5 79q59 0 159 -39t151 -39q39 0 77 13t80 40q-76 -115 -179 -185.5t-189 -70.5q-46 0 -139.5 34t-139.5 34q-36 0 -74.5 -19.5t-82.5 -60.5zM82 594q0 94 58 147.5t161 53.5h21v96q0 111 65.5 165t243.5 85q-19 -27 -27 -69.5t-8 -121.5 v-438q0 -153 -67.5 -225t-260.5 -127q28 37 41 81t13 101v221q-16 0 -32.5 1t-17.5 1q-59 0 -97.5 -25t-59.5 -79q-17 35 -25 67.5t-8 65.5zM180 -51q120 113 254 193t273 120v713q0 221 124.5 346t344.5 125q53 0 111 -16t118 -48l37 43l31 -30q-48 -59 -95.5 -131 t-97.5 -160q-56 57 -129 89t-150 32q-132 0 -194 -67.5t-62 -213.5v-254q68 95 151 142t183 47q42 0 80.5 -10.5t79.5 -32.5l53 51l37 -27q-66 -79 -118.5 -156.5t-94.5 -156.5q-56 52 -114 77t-121 25q-35 0 -68 -5.5t-68 -16.5v-348q62 15 125 22.5t134 7.5 q82 0 173.5 -21t198.5 -65l68 78l33 -33q-65 -77 -124.5 -158.5t-113.5 -166.5q-128 55 -261.5 83.5t-264.5 28.5q-125 0 -257.5 -26.5t-275.5 -79.5zM455 1655l133 152q57 -70 84.5 -87.5t62.5 -17.5q10 0 22.5 3t32.5 9q-38 -78 -81 -113.5t-99 -35.5q-45 0 -85 23t-70 67 zM907 1655l133 152q57 -70 85 -87.5t63 -17.5q9 0 22 3t33 9q-38 -78 -81 -113.5t-99 -35.5q-45 0 -85 23t-71 67z" />
<glyph unicode="&#xcc;" horiz-adv-x="1233" d="M-168 -51q21 118 110 193t205 75q113 0 238 -103q11 -9 17 -14q70 -58 119.5 -80t103.5 -22q109 0 160 66.5t51 209.5v801q0 123 84 202.5t270 131.5q-48 -32 -67 -74.5t-19 -148.5v-871q0 -120 -28.5 -182t-98.5 -106q-49 -33 -180 -59.5t-267 -26.5q-148 0 -298.5 48 t-182.5 48q-50 0 -102 -21t-115 -67zM57 1155q50 135 142 214t196 79q59 0 159 -39t151 -39q40 0 78.5 12.5t78.5 38.5q-76 -114 -179 -184t-189 -70q-47 0 -140 33t-139 33q-37 0 -76 -19t-82 -59zM221 666q0 82 54.5 130t148.5 48h26q-1 9 -1 17.5v23.5q0 108 77.5 178 t241.5 108q-23 -29 -33 -63.5t-10 -97.5v-451q0 -169 -81.5 -249t-260.5 -91q40 31 57 79t17 144v203q-12 1 -22.5 1.5t-20.5 0.5q-68 0 -102.5 -19t-49.5 -63q-21 19 -31 42.5t-10 58.5zM381 1764q43 18 87 42t97 58q84 -139 201.5 -204.5t286.5 -65.5h8 q-48 -30 -103.5 -45t-121.5 -15q-131 0 -239 59t-175 167l-37 -15z" />
<glyph unicode="&#xcd;" horiz-adv-x="1233" d="M-168 -51q21 118 110 193t205 75q113 0 238 -103q11 -9 17 -14q70 -58 119.5 -80t103.5 -22q109 0 160 66.5t51 209.5v801q0 123 84 202.5t270 131.5q-48 -32 -67 -74.5t-19 -148.5v-871q0 -120 -28.5 -182t-98.5 -106q-49 -33 -180 -59.5t-267 -26.5q-148 0 -298.5 48 t-182.5 48q-50 0 -102 -21t-115 -67zM57 1155q50 135 142 214t196 79q59 0 159 -39t151 -39q40 0 78.5 12.5t78.5 38.5q-76 -114 -179 -184t-189 -70q-47 0 -140 33t-139 33q-37 0 -76 -19t-82 -59zM221 666q0 82 54.5 130t148.5 48h26q-1 9 -1 17.5v23.5q0 108 77.5 178 t241.5 108q-23 -29 -33 -63.5t-10 -97.5v-451q0 -169 -81.5 -249t-260.5 -91q40 31 57 79t17 144v203q-12 1 -22.5 1.5t-20.5 0.5q-68 0 -102.5 -19t-49.5 -63q-21 19 -31 42.5t-10 58.5zM381 1594h8q168 0 285 65t201 205q43 -29 90 -54.5t96 -45.5l-6 -19l-35 15 q-66 -108 -175.5 -167t-240.5 -59q-66 0 -120 14.5t-103 45.5z" />
<glyph unicode="&#xce;" horiz-adv-x="1233" d="M-168 -51q21 118 110 193t205 75q113 0 238 -103q11 -9 17 -14q70 -58 119.5 -80t103.5 -22q109 0 160 66.5t51 209.5v801q0 123 84 202.5t270 131.5q-48 -32 -67 -74.5t-19 -148.5v-871q0 -120 -28.5 -182t-98.5 -106q-49 -33 -180 -59.5t-267 -26.5q-148 0 -298.5 48 t-182.5 48q-50 0 -102 -21t-115 -67zM57 1155q50 135 142 214t196 79q59 0 159 -39t151 -39q40 0 78.5 12.5t78.5 38.5q-76 -114 -179 -184t-189 -70q-47 0 -140 33t-139 33q-37 0 -76 -19t-82 -59zM221 666q0 82 54.5 130t148.5 48h26q-1 9 -1 17.5v23.5q0 108 77.5 178 t241.5 108q-23 -29 -33 -63.5t-10 -97.5v-451q0 -169 -81.5 -249t-260.5 -91q40 31 57 79t17 144v203q-12 1 -22.5 1.5t-20.5 0.5q-68 0 -102.5 -19t-49.5 -63q-21 19 -31 42.5t-10 58.5zM322 1520q141 98 240 189.5t163 185.5q74 -110 170.5 -201.5t224.5 -173.5 q-111 5 -211 39t-184 96q-94 -59 -196.5 -93t-206.5 -42z" />
<glyph unicode="&#xcf;" horiz-adv-x="1233" d="M-168 -51q21 118 110 193t205 75q113 0 238 -103q11 -9 17 -14q70 -58 119.5 -80t103.5 -22q109 0 160 66.5t51 209.5v801q0 123 84 202.5t270 131.5q-48 -32 -67 -74.5t-19 -148.5v-871q0 -120 -28.5 -182t-98.5 -106q-49 -33 -180 -59.5t-267 -26.5q-148 0 -298.5 48 t-182.5 48q-50 0 -102 -21t-115 -67zM57 1155q50 135 142 214t196 79q59 0 159 -39t151 -39q40 0 78.5 12.5t78.5 38.5q-76 -114 -179 -184t-189 -70q-47 0 -140 33t-139 33q-37 0 -76 -19t-82 -59zM221 666q0 82 54.5 130t148.5 48h26q-1 9 -1 17.5v23.5q0 108 77.5 178 t241.5 108q-23 -29 -33 -63.5t-10 -97.5v-451q0 -169 -81.5 -249t-260.5 -91q40 31 57 79t17 144v203q-12 1 -22.5 1.5t-20.5 0.5q-68 0 -102.5 -19t-49.5 -63q-21 19 -31 42.5t-10 58.5zM324 1655l133 152q57 -70 84.5 -87.5t62.5 -17.5q10 0 22.5 3t32.5 9 q-38 -78 -81 -113.5t-99 -35.5q-45 0 -85 23t-70 67zM776 1655l133 152q57 -70 85 -87.5t63 -17.5q9 0 22 3t33 9q-38 -78 -81 -113.5t-99 -35.5q-45 0 -85 23t-71 67z" />
<glyph unicode="&#xd0;" horiz-adv-x="1489" d="M55 -57q116 162 269.5 245.5t334.5 83.5h7v287h-117q0 -4 1 -13t1 -14q0 -103 -91 -178.5t-261 -111.5q43 31 61.5 63.5t18.5 93.5v19v141h-95q-45 0 -67.5 -23.5t-28.5 -76.5q-12 35 -18.5 68.5t-6.5 64.5q0 101 49 151t148 50h19q6 121 79.5 197.5t231.5 125.5 q-22 -33 -31.5 -71t-9.5 -105v-147h117v391q-92 -12 -158 -17.5t-113 -5.5q-168 0 -249 69.5t-82 213.5q68 -21 136.5 -31t141.5 -10q102 0 292.5 21.5t276.5 21.5q215 0 314.5 -122.5t99.5 -389.5v-576q0 -46 12.5 -88.5t40.5 -93.5q-188 -20 -336.5 -77t-263.5 -154 q-99 50 -183.5 74t-162.5 24q-100 0 -196 -25.5t-181 -74.5zM702 268q92 -9 163.5 -42.5t133.5 -96.5l62 23v849q0 104 -50 152.5t-157 48.5q-26 0 -63 -3t-89 -9v-397h62q43 0 64.5 22t29.5 78q14 -42 19.5 -72.5t5.5 -58.5q0 -101 -44.5 -150.5t-135.5 -52.5z" />
<glyph unicode="&#xd1;" horiz-adv-x="1503" d="M41 -57q35 115 122 198.5t210 118.5v311h-54q-67 0 -100.5 -24.5t-38.5 -77.5q-25 28 -37 60t-12 69q0 102 53 153.5t158 51.5h31l-1 377q-28 5 -47 7.5t-30 2.5q-84 0 -131 -59.5t-53 -172.5q-26 33 -38 72.5t-12 91.5q0 144 86 232t228 88q175 0 313.5 -142t267.5 -454 q49 -6 86 -9t66 -3q41 0 83 7t87 21v243q-62 3 -111 26t-96 71l-74 -51l-24 37q78 60 151.5 124t143.5 134q70 -83 118.5 -114.5t100.5 -31.5q19 1 38.5 4.5t38.5 10.5q-17 -83 -81 -136.5t-166 -72.5v-1149h-17q-132 0 -234 116.5t-235 438.5q-49 21 -98.5 31t-107.5 10 q-54 0 -108 -12.5t-107 -36.5v-238q30 4 54.5 6t35.5 2q79 0 140 -24.5t116 -77.5l71 57l27 -39l-5 -4q-176 -149 -241 -235q-71 31 -144.5 46t-152.5 15q-78 0 -143.5 -17t-126.5 -52zM410 543q57 23 114 35t117 12q38 0 76.5 -7t83.5 -22q-130 312 -216 443.5t-175 164.5 v-626zM426 1569q24 93 102 151t181 58q52 0 154 -26.5t155 -26.5q50 0 85.5 9.5t66.5 31.5q-46 -90 -132.5 -139.5t-197.5 -49.5q-51 0 -137 21.5t-127 21.5q-51 0 -85.5 -11.5t-64.5 -39.5zM979 811q99 -239 169 -366t130 -179v555q-39 -11 -85 -16.5t-103 -5.5 q-29 0 -56 3t-55 9z" />
<glyph unicode="&#xd2;" horiz-adv-x="1675" d="M55 674q0 264 159 465.5t448 304.5q-145 -143 -212 -324.5t-67 -429.5q0 -333 120 -521.5t328 -188.5q37 0 71.5 5t68.5 15v1290l-121 -53v-768q0 -127 -67 -181.5t-244 -84.5q20 28 31.5 70t11.5 89v762l-80 -28v47q183 68 284.5 109t184.5 79v131h37v-108 q54 25 104 51.5t98 56.5q205 -98 306.5 -262.5t101.5 -396.5q0 -174 -53.5 -325.5t-157.5 -272.5q-118 -138 -256.5 -202t-319.5 -64q-337 0 -556.5 209.5t-219.5 525.5zM602 1764q43 18 87 42t97 58q84 -139 201.5 -204.5t286.5 -65.5h8q-48 -30 -103.5 -45t-121.5 -15 q-131 0 -239 59t-175 167l-37 -15zM1008 8q115 50 189.5 147t114.5 249q-44 11 -80 15.5t-73 4.5q-35 0 -73 -4.5t-78 -14.5v-397zM1008 443q43 8 85 13t78 5q38 0 75 -5.5t77 -17.5q14 53 21.5 112.5t7.5 125.5q0 124 -25 198q-2 6 -2 7q0 2 2 2q0 -2 2 -2 q-30 -10 -65.5 -14.5t-81.5 -4.5q-50 0 -93 5t-81 16v-440zM1008 924q35 -13 78.5 -19t101.5 -6q45 0 75 4.5t58 14.5q-48 136 -127.5 232.5t-185.5 147.5v-374z" />
<glyph unicode="&#xd3;" horiz-adv-x="1675" d="M55 674q0 264 159 465.5t448 304.5q-145 -143 -212 -324.5t-67 -429.5q0 -333 120 -521.5t328 -188.5q37 0 71.5 5t68.5 15v1290l-121 -53v-768q0 -127 -67 -181.5t-244 -84.5q20 28 31.5 70t11.5 89v762l-80 -28v47q183 68 284.5 109t184.5 79v131h37v-108 q54 25 104 51.5t98 56.5q205 -98 306.5 -262.5t101.5 -396.5q0 -174 -53.5 -325.5t-157.5 -272.5q-118 -138 -256.5 -202t-319.5 -64q-337 0 -556.5 209.5t-219.5 525.5zM602 1594h8q168 0 285 65t201 205q43 -29 90 -54.5t96 -45.5l-6 -19l-35 15q-66 -108 -175.5 -167 t-240.5 -59q-66 0 -120 14.5t-103 45.5zM1008 8q115 50 189.5 147t114.5 249q-44 11 -80 15.5t-73 4.5q-35 0 -73 -4.5t-78 -14.5v-397zM1008 443q43 8 85 13t78 5q38 0 75 -5.5t77 -17.5q14 53 21.5 112.5t7.5 125.5q0 124 -25 198q-2 6 -2 7q0 2 2 2q0 -2 2 -2 q-30 -10 -65.5 -14.5t-81.5 -4.5q-50 0 -93 5t-81 16v-440zM1008 924q35 -13 78.5 -19t101.5 -6q45 0 75 4.5t58 14.5q-48 136 -127.5 232.5t-185.5 147.5v-374z" />
<glyph unicode="&#xd4;" horiz-adv-x="1675" d="M55 674q0 264 159 465.5t448 304.5q-145 -143 -212 -324.5t-67 -429.5q0 -333 120 -521.5t328 -188.5q37 0 71.5 5t68.5 15v1290l-121 -53v-768q0 -127 -67 -181.5t-244 -84.5q20 28 31.5 70t11.5 89v762l-80 -28v47q183 68 284.5 109t184.5 79v131h37v-108 q54 25 104 51.5t98 56.5q205 -98 306.5 -262.5t101.5 -396.5q0 -174 -53.5 -325.5t-157.5 -272.5q-118 -138 -256.5 -202t-319.5 -64q-337 0 -556.5 209.5t-219.5 525.5zM543 1520q141 98 240 189.5t163 185.5q74 -110 170.5 -201.5t224.5 -173.5q-111 5 -211 39t-184 96 q-94 -59 -196.5 -93t-206.5 -42zM1008 8q115 50 189.5 147t114.5 249q-44 11 -80 15.5t-73 4.5q-35 0 -73 -4.5t-78 -14.5v-397zM1008 443q43 8 85 13t78 5q38 0 75 -5.5t77 -17.5q14 53 21.5 112.5t7.5 125.5q0 124 -25 198q-2 6 -2 7q0 2 2 2q0 -2 2 -2 q-30 -10 -65.5 -14.5t-81.5 -4.5q-50 0 -93 5t-81 16v-440zM1008 924q35 -13 78.5 -19t101.5 -6q45 0 75 4.5t58 14.5q-48 136 -127.5 232.5t-185.5 147.5v-374z" />
<glyph unicode="&#xd5;" horiz-adv-x="1675" d="M55 674q0 264 159 465.5t448 304.5q-145 -143 -212 -324.5t-67 -429.5q0 -333 120 -521.5t328 -188.5q37 0 71.5 5t68.5 15v1290l-121 -53v-768q0 -127 -67 -181.5t-244 -84.5q20 28 31.5 70t11.5 89v762l-80 -28v47q183 68 284.5 109t184.5 79v131h37v-108 q54 25 104 51.5t98 56.5q205 -98 306.5 -262.5t101.5 -396.5q0 -174 -53.5 -325.5t-157.5 -272.5q-118 -138 -256.5 -202t-319.5 -64q-337 0 -556.5 209.5t-219.5 525.5zM569 1569q24 93 102 151t181 58q52 0 154 -26.5t155 -26.5q50 0 85.5 9.5t66.5 31.5 q-46 -90 -132.5 -139.5t-197.5 -49.5q-51 0 -137 21.5t-127 21.5q-51 0 -85.5 -11.5t-64.5 -39.5zM1008 8q115 50 189.5 147t114.5 249q-44 11 -80 15.5t-73 4.5q-35 0 -73 -4.5t-78 -14.5v-397zM1008 443q43 8 85 13t78 5q38 0 75 -5.5t77 -17.5q14 53 21.5 112.5 t7.5 125.5q0 124 -25 198q-2 6 -2 7q0 2 2 2q0 -2 2 -2q-30 -10 -65.5 -14.5t-81.5 -4.5q-50 0 -93 5t-81 16v-440zM1008 924q35 -13 78.5 -19t101.5 -6q45 0 75 4.5t58 14.5q-48 136 -127.5 232.5t-185.5 147.5v-374z" />
<glyph unicode="&#xd6;" horiz-adv-x="1675" d="M55 674q0 264 159 465.5t448 304.5q-145 -143 -212 -324.5t-67 -429.5q0 -333 120 -521.5t328 -188.5q37 0 71.5 5t68.5 15v1290l-121 -53v-768q0 -127 -67 -181.5t-244 -84.5q20 28 31.5 70t11.5 89v762l-80 -28v47q183 68 284.5 109t184.5 79v131h37v-108 q54 25 104 51.5t98 56.5q205 -98 306.5 -262.5t101.5 -396.5q0 -174 -53.5 -325.5t-157.5 -272.5q-118 -138 -256.5 -202t-319.5 -64q-337 0 -556.5 209.5t-219.5 525.5zM545 1655l133 152q57 -70 84.5 -87.5t62.5 -17.5q10 0 22.5 3t32.5 9q-38 -78 -81 -113.5t-99 -35.5 q-45 0 -85 23t-70 67zM997 1655l133 152q57 -70 85 -87.5t63 -17.5q9 0 22 3t33 9q-38 -78 -81 -113.5t-99 -35.5q-45 0 -85 23t-71 67zM1008 8q115 50 189.5 147t114.5 249q-44 11 -80 15.5t-73 4.5q-35 0 -73 -4.5t-78 -14.5v-397zM1008 443q43 8 85 13t78 5q38 0 75 -5.5 t77 -17.5q14 53 21.5 112.5t7.5 125.5q0 124 -25 198q-2 6 -2 7q0 2 2 2q0 -2 2 -2q-30 -10 -65.5 -14.5t-81.5 -4.5q-50 0 -93 5t-81 16v-440zM1008 924q35 -13 78.5 -19t101.5 -6q45 0 75 4.5t58 14.5q-48 136 -127.5 232.5t-185.5 147.5v-374z" />
<glyph unicode="&#xd7;" horiz-adv-x="1706" d="M287 152l458 458l-458 461l116 117l459 -459l461 459l117 -117l-459 -461l459 -458l-117 -119l-461 461l-459 -461z" />
<glyph unicode="&#xd8;" horiz-adv-x="1675" d="M55 655q0 276 157 480t450 309q-147 -145 -213 -328t-66 -448q0 -162 27 -282.5t84 -213.5l88 133v819l-80 -28v47q183 68 284.5 109t184.5 79v131h37v-108q54 25 104 51.5t98 56.5l82 -47l125 197l86 -47l-131 -203q124 -104 185 -242.5t61 -316.5q0 -175 -53.5 -327 t-157.5 -271q-119 -138 -257 -202t-314 -64q-93 0 -177 14.5t-159 44.5l-142 -223l-86 49l140 217q-180 117 -268.5 269t-88.5 345zM559 94q58 -53 131 -83.5t141 -30.5q37 0 69.5 4.5t68.5 15.5v729l-121 -184v-76q0 -113 -44 -162t-161 -84zM848 723l121 190v377l-121 -53 v-514zM1008 8q115 50 189.5 147t114.5 249q-44 11 -80 15.5t-73 4.5q-35 0 -73 -4.5t-78 -14.5v-397zM1008 443q43 8 85 13t78 5q38 0 75 -5.5t77 -17.5q14 53 21.5 112.5t7.5 125.5q0 61 -5.5 111.5t-17.5 92.5q-31 -9 -66.5 -13.5t-80.5 -4.5q-31 0 -63 2.5t-62 7.5 l-49 -79v-350zM1008 971l145 225q-33 31 -69.5 57t-75.5 45v-327zM1080 905q39 -3 67 -4.5t47 -1.5q39 0 69 4.5t57 13.5q-21 66 -47.5 115.5t-58.5 85.5z" />
<glyph unicode="&#xd9;" horiz-adv-x="1421" d="M6 1147q0 133 84 216t217 83q135 0 200.5 -83.5t65.5 -256.5l1 -834q36 -6 69.5 -16t63.5 -23v1207h38v-215l349 221q45 -64 99.5 -96.5t115.5 -32.5q21 0 41.5 3.5t41.5 10.5q-17 -58 -52 -96.5t-93 -63.5v-786q0 -129 31.5 -165t118.5 -38v-32q-59 -37 -107 -86 t-90 -115q-99 29 -155 99t-62 173l-424 -278q-81 66 -155 100.5t-134 34.5q-38 0 -74.5 -9t-76.5 -28q15 77 68.5 136t136.5 89v355h-27q-88 0 -122.5 -26t-39.5 -91q-22 50 -32.5 88t-10.5 72q0 85 52 132.5t147 47.5q5 0 16 -1t17 -1v237q0 87 -30.5 127.5t-94.5 40.5 q-58 0 -104 -39.5t-85 -122.5q-2 11 -3 24t-1 38zM410 1764q43 18 87 42t97 58q84 -139 201.5 -204.5t286.5 -65.5h8q-48 -30 -103.5 -45t-121.5 -15q-131 0 -239 59t-175 167l-37 -15zM745 213l76 -57l160 104v266q-32 15 -62.5 22t-64.5 7q-24 0 -50.5 -6t-58.5 -19v-317z M745 563q34 14 62 20.5t55 6.5q28 0 57.5 -6.5t61.5 -20.5v336q-43 -12 -73 -17t-56 -5t-52.5 6t-54.5 18v-338zM745 938q32 -13 59 -20t50 -7q32 0 62.5 6t64.5 19v215q-41 13 -71 36t-58 62l-107 -69v-242z" />
<glyph unicode="&#xda;" horiz-adv-x="1421" d="M6 1147q0 133 84 216t217 83q135 0 200.5 -83.5t65.5 -256.5l1 -834q36 -6 69.5 -16t63.5 -23v1207h38v-215l349 221q45 -64 99.5 -96.5t115.5 -32.5q21 0 41.5 3.5t41.5 10.5q-17 -58 -52 -96.5t-93 -63.5v-786q0 -129 31.5 -165t118.5 -38v-32q-59 -37 -107 -86 t-90 -115q-99 29 -155 99t-62 173l-424 -278q-81 66 -155 100.5t-134 34.5q-38 0 -74.5 -9t-76.5 -28q15 77 68.5 136t136.5 89v355h-27q-88 0 -122.5 -26t-39.5 -91q-22 50 -32.5 88t-10.5 72q0 85 52 132.5t147 47.5q5 0 16 -1t17 -1v237q0 87 -30.5 127.5t-94.5 40.5 q-58 0 -104 -39.5t-85 -122.5q-2 11 -3 24t-1 38zM410 1594h8q168 0 285 65t201 205q43 -29 90 -54.5t96 -45.5l-6 -19l-35 15q-66 -108 -175.5 -167t-240.5 -59q-66 0 -120 14.5t-103 45.5zM745 213l76 -57l160 104v266q-32 15 -62.5 22t-64.5 7q-24 0 -50.5 -6t-58.5 -19 v-317zM745 563q34 14 62 20.5t55 6.5q28 0 57.5 -6.5t61.5 -20.5v336q-43 -12 -73 -17t-56 -5t-52.5 6t-54.5 18v-338zM745 938q32 -13 59 -20t50 -7q32 0 62.5 6t64.5 19v215q-41 13 -71 36t-58 62l-107 -69v-242z" />
<glyph unicode="&#xdb;" horiz-adv-x="1421" d="M6 1147q0 133 84 216t217 83q135 0 200.5 -83.5t65.5 -256.5l1 -834q36 -6 69.5 -16t63.5 -23v1207h38v-215l349 221q45 -64 99.5 -96.5t115.5 -32.5q21 0 41.5 3.5t41.5 10.5q-17 -58 -52 -96.5t-93 -63.5v-786q0 -129 31.5 -165t118.5 -38v-32q-59 -37 -107 -86 t-90 -115q-99 29 -155 99t-62 173l-424 -278q-81 66 -155 100.5t-134 34.5q-38 0 -74.5 -9t-76.5 -28q15 77 68.5 136t136.5 89v355h-27q-88 0 -122.5 -26t-39.5 -91q-22 50 -32.5 88t-10.5 72q0 85 52 132.5t147 47.5q5 0 16 -1t17 -1v237q0 87 -30.5 127.5t-94.5 40.5 q-58 0 -104 -39.5t-85 -122.5q-2 11 -3 24t-1 38zM351 1520q141 98 240 189.5t163 185.5q74 -110 170.5 -201.5t224.5 -173.5q-111 5 -211 39t-184 96q-94 -59 -196.5 -93t-206.5 -42zM745 213l76 -57l160 104v266q-32 15 -62.5 22t-64.5 7q-24 0 -50.5 -6t-58.5 -19v-317z M745 563q34 14 62 20.5t55 6.5q28 0 57.5 -6.5t61.5 -20.5v336q-43 -12 -73 -17t-56 -5t-52.5 6t-54.5 18v-338zM745 938q32 -13 59 -20t50 -7q32 0 62.5 6t64.5 19v215q-41 13 -71 36t-58 62l-107 -69v-242z" />
<glyph unicode="&#xdc;" horiz-adv-x="1421" d="M6 1147q0 133 84 216t217 83q135 0 200.5 -83.5t65.5 -256.5l1 -834q36 -6 69.5 -16t63.5 -23v1207h38v-215l349 221q45 -64 99.5 -96.5t115.5 -32.5q21 0 41.5 3.5t41.5 10.5q-17 -58 -52 -96.5t-93 -63.5v-786q0 -129 31.5 -165t118.5 -38v-32q-59 -37 -107 -86 t-90 -115q-99 29 -155 99t-62 173l-424 -278q-81 66 -155 100.5t-134 34.5q-38 0 -74.5 -9t-76.5 -28q15 77 68.5 136t136.5 89v355h-27q-88 0 -122.5 -26t-39.5 -91q-22 50 -32.5 88t-10.5 72q0 85 52 132.5t147 47.5q5 0 16 -1t17 -1v237q0 87 -30.5 127.5t-94.5 40.5 q-58 0 -104 -39.5t-85 -122.5q-2 11 -3 24t-1 38zM353 1655l133 152q57 -70 84.5 -87.5t62.5 -17.5q10 0 22.5 3t32.5 9q-38 -78 -81 -113.5t-99 -35.5q-45 0 -85 23t-70 67zM745 213l76 -57l160 104v266q-32 15 -62.5 22t-64.5 7q-24 0 -50.5 -6t-58.5 -19v-317zM745 563 q34 14 62 20.5t55 6.5q28 0 57.5 -6.5t61.5 -20.5v336q-43 -12 -73 -17t-56 -5t-52.5 6t-54.5 18v-338zM745 938q32 -13 59 -20t50 -7q32 0 62.5 6t64.5 19v215q-41 13 -71 36t-58 62l-107 -69v-242zM805 1655l133 152q57 -70 85 -87.5t63 -17.5q9 0 22 3t33 9 q-38 -78 -81 -113.5t-99 -35.5q-45 0 -85 23t-71 67z" />
<glyph unicode="&#xdd;" horiz-adv-x="1352" d="M-16 1122q0 147 85 235.5t226 88.5q123 0 192 -83.5t72 -235.5q33 12 64 26t63 31v258h37v-236q103 59 196.5 117t178.5 117q52 -68 104.5 -101.5t106.5 -33.5q18 0 38.5 4.5t43.5 13.5q-24 -56 -59.5 -93.5t-88.5 -64.5v-864q0 -169 -87 -237.5t-329 -77.5 q-198 -8 -290.5 -39.5t-92.5 -91.5q0 -33 23 -50.5t65 -17.5q57 0 226.5 43t273.5 43q105 0 167.5 -57t62.5 -152q0 -87 -50 -132.5t-147 -45.5q-19 0 -40 1.5t-44 5.5v27q10 0 23 -0.5t40 -0.5q52 0 86.5 18t34.5 45q0 28 -25.5 43t-74.5 15q-69 0 -236.5 -43t-257.5 -43 q-106 0 -166.5 51.5t-60.5 142.5q0 104 70.5 167t216.5 89q-175 16 -243.5 93t-68.5 263v252h-69q-64 0 -94.5 -27.5t-36.5 -90.5q-26 39 -37.5 76t-11.5 75q0 94 58.5 145.5t166.5 51.5h24v221q0 81 -40 128.5t-107 47.5q-60 0 -109 -41.5t-77 -115.5q-1 6 -1.5 15t-0.5 25 zM440 1594h8q168 0 285 65t201 205q43 -29 90 -54.5t96 -45.5l-6 -19l-35 15q-66 -108 -175.5 -167t-240.5 -59q-66 0 -120 14.5t-103 45.5zM559 297q0 -136 28 -183.5t99 -68.5v1102q-40 -20 -70 -33.5t-57 -23.5v-793zM723 33q22 -3 42 -4.5t36 -1.5q104 0 147 50.5 t43 178.5v164q-41 13 -75 19.5t-62 6.5q-27 0 -58.5 -7t-72.5 -23v-383zM723 459q31 11 64.5 16.5t72.5 5.5q21 0 55 -5t76 -15v360q-43 -10 -79 -15t-66 -5q-37 0 -67 6t-56 18v-366zM723 865q33 -14 64.5 -20.5t64.5 -6.5q34 0 68 7t71 21v287q-49 12 -79.5 36t-47.5 62 q-39 -25 -74.5 -45.5t-66.5 -36.5v-304z" />
<glyph unicode="&#xde;" horiz-adv-x="1493" d="M37 1182q0 107 88.5 184.5t210.5 77.5q139 0 209.5 -101.5t70.5 -300.5q0 -29 -3 -95l-1 -7l119 78v330h37v-308l354 234q55 -73 141.5 -117.5t215.5 -64.5l-142 -123v-576q0 -42 11.5 -82t35.5 -84h-6q-136 0 -248 -66t-194 -196q-35 26 -76 45.5t-92 34.5v-451h-14 q-71 0 -135.5 31t-112.5 88q-48 -62 -108.5 -93.5t-131.5 -31.5q-5 0 -16 1t-17 1q65 72 92 141t27 160v213h-8q-94 0 -166.5 -34.5t-130.5 -107.5q5 166 85.5 267t219.5 115v289q-8 1 -15.5 1.5t-23.5 0.5q-69 0 -107.5 -28t-45.5 -85q-26 48 -37.5 87.5t-11.5 76.5 q0 82 56 131t150 49q15 0 22 -0.5t13 -0.5v204q0 76 -38.5 122t-100.5 46q-69 0 -107.5 -39t-48.5 -118q-11 32 -15.5 56t-4.5 46zM616 -100q0 -140 25.5 -189.5t89.5 -68.5v1335l-115 -76v-1001zM772 350q67 -15 137.5 -49.5t171.5 -105.5v278q-40 22 -78.5 32.5 t-76.5 10.5q-35 0 -73 -8.5t-81 -26.5v-131zM772 520q42 16 79.5 23.5t72.5 7.5q40 0 78 -9t79 -28v238q-40 -16 -81 -23.5t-85 -7.5q-39 0 -73.5 7.5t-69.5 23.5v-232zM772 797q43 -20 80 -29.5t72 -9.5q36 0 75.5 10t81.5 31v157q-69 0 -117 30t-77 91l-115 -76v-204z" />
<glyph unicode="&#xdf;" horiz-adv-x="1157" d="M39 907v107h176q-2 110 -23.5 168t-72.5 106q9 -1 18.5 -1.5t28.5 -0.5q114 0 242.5 39t281.5 121q100 -49 154.5 -122t54.5 -157q0 -75 -45.5 -129t-132.5 -84q154 -17 222.5 -84.5t68.5 -201.5v-521q0 -92 10 -130.5t34 -65.5q-81 -7 -163.5 -32.5t-173.5 -72.5 q36 42 54 101.5t18 142.5v572q0 115 -68.5 173.5t-222.5 75.5q93 60 139.5 117t46.5 113q0 53 -33.5 101t-105.5 99l-107 -41v-1097q31 -15 58 -37.5t53 -54.5q-45 -29 -92.5 -64.5t-98.5 -79.5q-50 52 -114 79.5t-135 27.5q-17 0 -32.5 -1.5t-30.5 -4.5q28 50 68 84t99 59 v696h-176z" />
<glyph unicode="&#xe0;" horiz-adv-x="997" d="M41 254q0 115 58.5 192.5t207.5 155.5l-227 252q81 24 132.5 60.5t86.5 93.5q30 -72 66.5 -104t87.5 -32q49 0 111.5 36t121.5 100q41 -60 78 -85.5t80 -25.5q22 0 44 7.5t48 23.5q-19 -59 -45.5 -95.5t-69.5 -60.5v-418q0 -99 40.5 -146.5t133.5 -57.5 q-47 -37 -96 -81.5t-98 -95.5q-77 7 -127.5 54t-73.5 135l-289 -203q-138 22 -204 94t-66 201zM160 1313q43 18 87 42t97 58q84 -139 201.5 -204.5t286.5 -65.5h8q-48 -30 -103.5 -45t-121.5 -15q-131 0 -239 59t-175 167l-37 -15zM166 813l344 -381l-21 -24l-153 163 q-44 -48 -62 -88t-18 -86q0 -100 66.5 -163.5t195.5 -86.5l78 54v536q-36 17 -63 42t-48 61q-32 -42 -69 -62t-80 -20q-35 0 -74.5 13t-95.5 42z" />
<glyph unicode="&#xe1;" horiz-adv-x="997" d="M41 254q0 115 58.5 192.5t207.5 155.5l-227 252q81 24 132.5 60.5t86.5 93.5q30 -72 66.5 -104t87.5 -32q49 0 111.5 36t121.5 100q41 -60 78 -85.5t80 -25.5q22 0 44 7.5t48 23.5q-19 -59 -45.5 -95.5t-69.5 -60.5v-418q0 -99 40.5 -146.5t133.5 -57.5 q-47 -37 -96 -81.5t-98 -95.5q-77 7 -127.5 54t-73.5 135l-289 -203q-138 22 -204 94t-66 201zM160 1143h8q168 0 285 65t201 205q43 -29 90 -54.5t96 -45.5l-6 -19l-35 15q-66 -108 -175.5 -167t-240.5 -59q-66 0 -120 14.5t-103 45.5zM166 813l344 -381l-21 -24l-153 163 q-44 -48 -62 -88t-18 -86q0 -100 66.5 -163.5t195.5 -86.5l78 54v536q-36 17 -63 42t-48 61q-32 -42 -69 -62t-80 -20q-35 0 -74.5 13t-95.5 42z" />
<glyph unicode="&#xe2;" horiz-adv-x="997" d="M41 254q0 115 58.5 192.5t207.5 155.5l-227 252q81 24 132.5 60.5t86.5 93.5q30 -72 66.5 -104t87.5 -32q49 0 111.5 36t121.5 100q41 -60 78 -85.5t80 -25.5q22 0 44 7.5t48 23.5q-19 -59 -45.5 -95.5t-69.5 -60.5v-418q0 -99 40.5 -146.5t133.5 -57.5 q-47 -37 -96 -81.5t-98 -95.5q-77 7 -127.5 54t-73.5 135l-289 -203q-138 22 -204 94t-66 201zM101 1069q141 98 240 189.5t163 185.5q74 -110 170.5 -201.5t224.5 -173.5q-111 5 -211 39t-184 96q-94 -59 -196.5 -93t-206.5 -42zM166 813l344 -381l-21 -24l-153 163 q-44 -48 -62 -88t-18 -86q0 -100 66.5 -163.5t195.5 -86.5l78 54v536q-36 17 -63 42t-48 61q-32 -42 -69 -62t-80 -20q-35 0 -74.5 13t-95.5 42z" />
<glyph unicode="&#xe3;" horiz-adv-x="997" d="M41 254q0 115 58.5 192.5t207.5 155.5l-227 252q81 24 132.5 60.5t86.5 93.5q30 -72 66.5 -104t87.5 -32q49 0 111.5 36t121.5 100q41 -60 78 -85.5t80 -25.5q22 0 44 7.5t48 23.5q-19 -59 -45.5 -95.5t-69.5 -60.5v-418q0 -99 40.5 -146.5t133.5 -57.5 q-47 -37 -96 -81.5t-98 -95.5q-77 7 -127.5 54t-73.5 135l-289 -203q-138 22 -204 94t-66 201zM127 1118q24 93 102 151t181 58q52 0 154 -26.5t155 -26.5q50 0 85.5 9.5t66.5 31.5q-46 -90 -132.5 -139.5t-197.5 -49.5q-51 0 -137 21.5t-127 21.5q-51 0 -85.5 -11.5 t-64.5 -39.5zM166 813l344 -381l-21 -24l-153 163q-44 -48 -62 -88t-18 -86q0 -100 66.5 -163.5t195.5 -86.5l78 54v536q-36 17 -63 42t-48 61q-32 -42 -69 -62t-80 -20q-35 0 -74.5 13t-95.5 42z" />
<glyph unicode="&#xe4;" horiz-adv-x="997" d="M41 254q0 115 58.5 192.5t207.5 155.5l-227 252q81 24 132.5 60.5t86.5 93.5q30 -72 66.5 -104t87.5 -32q49 0 111.5 36t121.5 100q41 -60 78 -85.5t80 -25.5q22 0 44 7.5t48 23.5q-19 -59 -45.5 -95.5t-69.5 -60.5v-418q0 -99 40.5 -146.5t133.5 -57.5 q-47 -37 -96 -81.5t-98 -95.5q-77 7 -127.5 54t-73.5 135l-289 -203q-138 22 -204 94t-66 201zM103 1204l133 152q57 -70 84.5 -87.5t62.5 -17.5q10 0 22.5 3t32.5 9q-38 -78 -81 -113.5t-99 -35.5q-45 0 -85 23t-70 67zM166 813l344 -381l-21 -24l-153 163q-44 -48 -62 -88 t-18 -86q0 -100 66.5 -163.5t195.5 -86.5l78 54v536q-36 17 -63 42t-48 61q-32 -42 -69 -62t-80 -20q-35 0 -74.5 13t-95.5 42zM555 1204l133 152q57 -70 85 -87.5t63 -17.5q9 0 22 3t33 9q-38 -78 -81 -113.5t-99 -35.5q-45 0 -85 23t-71 67z" />
<glyph unicode="&#xe5;" horiz-adv-x="997" d="M41 254q0 115 58.5 192.5t207.5 155.5l-227 252q82 25 133 61.5t86 94.5q30 -73 66.5 -105.5t87.5 -32.5q49 0 111.5 36.5t121.5 101.5q41 -61 77.5 -87t80.5 -26q22 0 44 7.5t48 23.5q-19 -59 -45.5 -95.5t-69.5 -60.5v-418q0 -99 40.5 -146.5t133.5 -57.5 q-47 -37 -96 -81.5t-98 -95.5q-77 7 -127.5 54t-73.5 135l-289 -203q-138 22 -204 94t-66 201zM166 813l344 -381l-21 -24l-153 163q-44 -48 -62 -88t-18 -86q0 -100 66.5 -163.5t195.5 -86.5l78 54v536q-36 17 -63 42t-48 61q-32 -42 -69 -62t-80 -20q-35 0 -74.5 13 t-95.5 42zM270 1286q0 95 67 162.5t161 67.5q93 0 161 -68t68 -162t-67.5 -160.5t-161.5 -66.5q-95 0 -161.5 66t-66.5 161zM375 1286q0 -50 37 -86.5t88 -36.5q50 0 86.5 36t36.5 87t-37 88t-86 37q-52 0 -88.5 -36.5t-36.5 -88.5z" />
<glyph unicode="&#xe6;" horiz-adv-x="1337" d="M41 254q0 115 58.5 192.5t207.5 155.5l-227 252q82 25 133 61.5t86 94.5q30 -73 66.5 -105.5t87.5 -32.5q49 0 111.5 36.5t121.5 101.5q34 -54 79 -78.5t109 -24.5q68 0 124.5 25.5t105.5 77.5q46 -113 109 -201t139 -145l-521 -291v-133q83 -23 157 -54t140 -69l146 92 l20 -37l-315 -213q-152 83 -241.5 127.5t-153.5 69.5q-60 -36 -128 -85t-145 -112q-138 22 -204 94t-66 201zM166 813l344 -381l-21 -24l-153 163q-43 -48 -61.5 -87.5t-18.5 -84.5q0 -100 66 -165t188 -84l86 59v528q-36 17 -63 42t-48 61q-32 -42 -69 -62t-80 -20 q-35 0 -74.5 13t-95.5 42zM831 424l263 145q-40 58 -97 163.5t-75 137.5q-20 -6 -43 -11.5t-47 -8.5z" />
<glyph unicode="&#xe7;" horiz-adv-x="872" d="M46 88q24 45 56.5 77.5t75.5 55.5v459q0 89 -15 129.5t-50 77.5q38 -8 73 -12.5t68 -4.5q90 0 172 30.5t197 109.5q17 -81 56 -119.5t103 -38.5q13 0 30 2t36 6q-15 -73 -70.5 -115.5t-134.5 -42.5q-70 0 -126.5 36.5t-102.5 111.5v-621q67 -11 123.5 -39t101.5 -73 l145 92l23 -37l-315 -213q-92 65 -182.5 99t-170.5 34q-15 0 -34 -0.5t-59 -3.5zM208 -471q7 69 51.5 110.5t111.5 41.5q38 0 68 -14.5t59 -47.5l39 6v182h-139l45 74h225v-182q0 -48 8 -73t27 -44q-22 8 -46.5 12.5t-51.5 4.5q-69 0 -119.5 -20t-87.5 -62q-27 35 -52 52 t-51 17q-22 0 -39 -16t-26 -45z" />
<glyph unicode="&#xe8;" horiz-adv-x="920" d="M45 88q26 47 58.5 78.5t74.5 50.5v463q0 81 -15 127t-50 80q46 -10 82 -14.5t67 -4.5q124 0 235 37.5t187 104.5q45 -111 109 -199.5t141 -146.5l-520 -291v-144q79 -13 151.5 -40.5t145.5 -71.5l145 92l21 -37l-316 -213q-127 63 -243 98t-193 35q-23 0 -41.5 -1 t-38.5 -3zM166 1313q43 18 87 42t97 58q84 -139 201.5 -204.5t286.5 -65.5h8q-48 -30 -103.5 -45t-121.5 -15q-131 0 -239 59t-175 167l-37 -15zM414 424l262 145q-49 73 -92.5 148t-81.5 153q-21 -7 -64 -15q-16 -3 -24 -5v-426z" />
<glyph unicode="&#xe9;" horiz-adv-x="920" d="M45 88q26 47 58.5 78.5t74.5 50.5v463q0 81 -15 127t-50 80q46 -10 82 -14.5t67 -4.5q124 0 235 37.5t187 104.5q45 -111 109 -199.5t141 -146.5l-520 -291v-144q79 -13 151.5 -40.5t145.5 -71.5l145 92l21 -37l-316 -213q-127 63 -243 98t-193 35q-23 0 -41.5 -1 t-38.5 -3zM166 1143h8q168 0 285 65t201 205q43 -29 90 -54.5t96 -45.5l-6 -19l-35 15q-66 -108 -175.5 -167t-240.5 -59q-66 0 -120 14.5t-103 45.5zM414 424l262 145q-49 73 -92.5 148t-81.5 153q-21 -7 -64 -15q-16 -3 -24 -5v-426z" />
<glyph unicode="&#xea;" horiz-adv-x="920" d="M45 88q26 47 58.5 78.5t74.5 50.5v463q0 81 -15 127t-50 80q46 -10 82 -14.5t67 -4.5q124 0 235 37.5t187 104.5q45 -111 109 -199.5t141 -146.5l-520 -291v-144q79 -13 151.5 -40.5t145.5 -71.5l145 92l21 -37l-316 -213q-127 63 -243 98t-193 35q-23 0 -41.5 -1 t-38.5 -3zM107 1069q141 98 240 189.5t163 185.5q74 -110 170.5 -201.5t224.5 -173.5q-111 5 -211 39t-184 96q-94 -59 -196.5 -93t-206.5 -42zM414 424l262 145q-49 73 -92.5 148t-81.5 153q-21 -7 -64 -15q-16 -3 -24 -5v-426z" />
<glyph unicode="&#xeb;" horiz-adv-x="920" d="M45 88q26 47 58.5 78.5t74.5 50.5v463q0 81 -15 127t-50 80q46 -10 82 -14.5t67 -4.5q124 0 235 37.5t187 104.5q45 -111 109 -199.5t141 -146.5l-520 -291v-144q79 -13 151.5 -40.5t145.5 -71.5l145 92l21 -37l-316 -213q-127 63 -243 98t-193 35q-23 0 -41.5 -1 t-38.5 -3zM109 1204l133 152q57 -70 84.5 -87.5t62.5 -17.5q10 0 22.5 3t32.5 9q-38 -78 -81 -113.5t-99 -35.5q-45 0 -85 23t-70 67zM414 424l262 145q-49 73 -92.5 148t-81.5 153q-21 -7 -64 -15q-16 -3 -24 -5v-426zM561 1204l133 152q57 -70 85 -87.5t63 -17.5q9 0 22 3 t33 9q-38 -78 -81 -113.5t-99 -35.5q-45 0 -85 23t-71 67z" />
<glyph unicode="&#xec;" horiz-adv-x="616" d="M-31 1313q43 18 87 42t97 58q84 -139 201.5 -204.5t286.5 -65.5h8q-48 -30 -103.5 -45t-121.5 -15q-131 0 -239 59t-175 167l-37 -15zM35 842q58 21 113 61.5t116 106.5q66 -63 131.5 -92t141.5 -29h8q-24 -45 -55.5 -74.5t-75.5 -50.5v-447q0 -82 33 -116t114 -42v-24 q-64 -31 -123.5 -72.5t-115.5 -95.5q-78 44 -111 102.5t-33 151.5v19v516q-48 14 -83 35t-60 51z" />
<glyph unicode="&#xed;" horiz-adv-x="616" d="M-31 1143h8q168 0 285 65t201 205q43 -29 90 -54.5t96 -45.5l-6 -19l-35 15q-66 -108 -175.5 -167t-240.5 -59q-66 0 -120 14.5t-103 45.5zM35 842q58 21 113 61.5t116 106.5q66 -63 131.5 -92t141.5 -29h8q-24 -45 -55.5 -74.5t-75.5 -50.5v-447q0 -82 33 -116t114 -42 v-24q-64 -31 -123.5 -72.5t-115.5 -95.5q-78 44 -111 102.5t-33 151.5v19v516q-48 14 -83 35t-60 51z" />
<glyph unicode="&#xee;" horiz-adv-x="616" d="M-90 1069q141 98 240 189.5t163 185.5q74 -110 170.5 -201.5t224.5 -173.5q-111 5 -211 39t-184 96q-94 -59 -196.5 -93t-206.5 -42zM35 842q58 21 113 61.5t116 106.5q66 -63 131.5 -92t141.5 -29h8q-24 -45 -55.5 -74.5t-75.5 -50.5v-447q0 -82 33 -116t114 -42v-24 q-64 -31 -123.5 -72.5t-115.5 -95.5q-78 44 -111 102.5t-33 151.5v19v516q-48 14 -83 35t-60 51z" />
<glyph unicode="&#xef;" horiz-adv-x="616" d="M-88 1204l133 152q57 -70 84.5 -87.5t62.5 -17.5q10 0 22.5 3t32.5 9q-38 -78 -81 -113.5t-99 -35.5q-45 0 -85 23t-70 67zM35 842q58 21 113 61.5t116 106.5q66 -63 131.5 -92t141.5 -29h8q-24 -45 -55.5 -74.5t-75.5 -50.5v-447q0 -82 33 -116t114 -42v-24 q-64 -31 -123.5 -72.5t-115.5 -95.5q-78 44 -111 102.5t-33 151.5v19v516q-48 14 -83 35t-60 51zM364 1204l133 152q57 -70 85 -87.5t63 -17.5q9 0 22 3t33 9q-38 -78 -81 -113.5t-99 -35.5q-45 0 -85 23t-71 67z" />
<glyph unicode="&#xf0;" d="M49 88q25 46 57 78.5t74 54.5v459q0 81 -15 127t-50 80q38 -8 73 -12.5t68 -4.5q159 0 267.5 33t154.5 94q-26 46 -64 89.5t-90 89.5l-346 -129l-53 61l330 125q-58 38 -123 75t-142 76l216 62q57 -25 125.5 -62.5t140.5 -85.5l276 97l56 -62l-256 -90 q119 -95 173 -208.5t54 -270.5v-475q0 -59 13 -104t40 -79q-2 1 -6 1q-96 8 -139 8q-136 0 -243 -38t-198 -118q-84 70 -159 101.5t-154 31.5q-23 0 -41.5 -1t-38.5 -3zM418 236q73 -8 127 -37.5t101 -85.5q20 7 42.5 13t46.5 11v645q0 53 -9 98.5t-28 86.5 q-49 -56 -120 -85.5t-160 -31.5v-614z" />
<glyph unicode="&#xf1;" d="M35 813v27q67 32 126 73t113 93q79 -47 112.5 -104.5t33.5 -147.5v-19l414 271q26 -47 70 -74t91 -27q18 0 37 5.5t45 17.5q-6 -56 -30.5 -93t-71.5 -63v-444q0 -90 33.5 -124t119.5 -38v-25q-58 -33 -103.5 -74t-84.5 -94q-111 27 -157 90.5t-46 198.5v481 q-30 9 -54.5 30.5t-49.5 62.5l-213 -142v-475q48 -15 82 -35.5t61 -50.5q-60 -22 -115.5 -64t-113.5 -110q-64 65 -133 96t-150 31q24 45 55.5 74.5t75.5 50.5v446q0 82 -32.5 115.5t-114.5 40.5zM202 1118q24 93 102 151t181 58q52 0 154 -26.5t155 -26.5q50 0 85.5 9.5 t66.5 31.5q-46 -90 -132.5 -139.5t-197.5 -49.5q-51 0 -137 21.5t-127 21.5q-51 0 -85.5 -11.5t-64.5 -39.5z" />
<glyph unicode="&#xf2;" d="M49 88q25 46 57 78.5t74 54.5v459q0 81 -15 127t-50 80q37 -9 76 -14t75 -5q119 0 236.5 37.5t208.5 104.5q73 -74 146 -109t153 -35q13 0 30 1.5t39 4.5q-14 -27 -39.5 -51.5t-68.5 -50.5v-481q0 -63 13 -102.5t44 -80.5q-2 1 -6 1q-96 8 -139 8q-136 0 -243 -38 t-198 -118q-84 70 -159 101.5t-154 31.5q-23 0 -41.5 -1t-38.5 -3zM235 1313q43 18 87 42t97 58q84 -139 201.5 -204.5t286.5 -65.5h8q-48 -30 -103.5 -45t-121.5 -15q-131 0 -239 59t-175 167l-37 -15zM418 236q73 -8 127 -37.5t101 -85.5q20 7 42.5 13t46.5 11v598 q-81 15 -136 47t-94 88q-20 -7 -63 -15q-16 -3 -24 -5v-614z" />
<glyph unicode="&#xf3;" d="M49 88q25 46 57 78.5t74 54.5v459q0 81 -15 127t-50 80q37 -9 76 -14t75 -5q119 0 236.5 37.5t208.5 104.5q73 -74 146 -109t153 -35q13 0 30 1.5t39 4.5q-14 -27 -39.5 -51.5t-68.5 -50.5v-481q0 -63 13 -102.5t44 -80.5q-2 1 -6 1q-96 8 -139 8q-136 0 -243 -38 t-198 -118q-84 70 -159 101.5t-154 31.5q-23 0 -41.5 -1t-38.5 -3zM235 1143h8q168 0 285 65t201 205q43 -29 90 -54.5t96 -45.5l-6 -19l-35 15q-66 -108 -175.5 -167t-240.5 -59q-66 0 -120 14.5t-103 45.5zM418 236q73 -8 127 -37.5t101 -85.5q20 7 42.5 13t46.5 11v598 q-81 15 -136 47t-94 88q-20 -7 -63 -15q-16 -3 -24 -5v-614z" />
<glyph unicode="&#xf4;" d="M49 88q25 46 57 78.5t74 54.5v459q0 81 -15 127t-50 80q37 -9 76 -14t75 -5q119 0 236.5 37.5t208.5 104.5q73 -74 146 -109t153 -35q13 0 30 1.5t39 4.5q-14 -27 -39.5 -51.5t-68.5 -50.5v-481q0 -63 13 -102.5t44 -80.5q-2 1 -6 1q-96 8 -139 8q-136 0 -243 -38 t-198 -118q-84 70 -159 101.5t-154 31.5q-23 0 -41.5 -1t-38.5 -3zM176 1069q141 98 240 189.5t163 185.5q74 -110 170.5 -201.5t224.5 -173.5q-111 5 -211 39t-184 96q-94 -59 -196.5 -93t-206.5 -42zM418 236q73 -8 127 -37.5t101 -85.5q20 7 42.5 13t46.5 11v598 q-81 15 -136 47t-94 88q-20 -7 -63 -15q-16 -3 -24 -5v-614z" />
<glyph unicode="&#xf5;" d="M49 88q25 46 57 78.5t74 54.5v459q0 81 -15 127t-50 80q37 -9 76 -14t75 -5q119 0 236.5 37.5t208.5 104.5q73 -74 146 -109t153 -35q13 0 30 1.5t39 4.5q-14 -27 -39.5 -51.5t-68.5 -50.5v-481q0 -63 13 -102.5t44 -80.5q-2 1 -6 1q-96 8 -139 8q-136 0 -243 -38 t-198 -118q-84 70 -159 101.5t-154 31.5q-23 0 -41.5 -1t-38.5 -3zM202 1118q24 93 102 151t181 58q52 0 154 -26.5t155 -26.5q50 0 85.5 9.5t66.5 31.5q-46 -90 -132.5 -139.5t-197.5 -49.5q-51 0 -137 21.5t-127 21.5q-51 0 -85.5 -11.5t-64.5 -39.5zM418 236 q73 -8 127 -37.5t101 -85.5q20 7 42.5 13t46.5 11v598q-81 15 -136 47t-94 88q-20 -7 -63 -15q-16 -3 -24 -5v-614z" />
<glyph unicode="&#xf6;" d="M49 88q25 46 57 78.5t74 54.5v459q0 81 -15 127t-50 80q37 -9 76 -14t75 -5q119 0 236.5 37.5t208.5 104.5q73 -74 146 -109t153 -35q13 0 30 1.5t39 4.5q-14 -27 -39.5 -51.5t-68.5 -50.5v-481q0 -63 13 -102.5t44 -80.5q-2 1 -6 1q-96 8 -139 8q-136 0 -243 -38 t-198 -118q-84 70 -159 101.5t-154 31.5q-23 0 -41.5 -1t-38.5 -3zM178 1204l133 152q57 -70 84.5 -87.5t62.5 -17.5q10 0 22.5 3t32.5 9q-38 -78 -81 -113.5t-99 -35.5q-45 0 -85 23t-70 67zM418 236q73 -8 127 -37.5t101 -85.5q20 7 42.5 13t46.5 11v598q-81 15 -136 47 t-94 88q-20 -7 -63 -15q-16 -3 -24 -5v-614zM630 1204l133 152q57 -70 85 -87.5t63 -17.5q9 0 22 3t33 9q-38 -78 -81 -113.5t-99 -35.5q-45 0 -85 23t-71 67z" />
<glyph unicode="&#xf7;" horiz-adv-x="1706" d="M254 528v166h1198v-166h-1198zM717 229q0 57 40.5 97.5t96.5 40.5q57 0 97 -40.5t40 -97.5q0 -56 -39.5 -95.5t-97.5 -39.5t-97.5 39t-39.5 96zM717 989q0 57 40.5 98t96.5 41q57 0 97 -41t40 -98q0 -56 -39.5 -95.5t-97.5 -39.5t-97.5 39t-39.5 96z" />
<glyph unicode="&#xf8;" d="M49 88q25 46 57 78.5t74 54.5v459q0 81 -15 127t-50 80q37 -9 76 -14t75 -5q119 0 236.5 37.5t208.5 104.5q28 -30 58.5 -53.5t66.5 -43.5l182 246l57 -45l-169 -234q30 -6 56 -10t46 -4q11 0 28 1.5t43 4.5q-14 -27 -39.5 -51.5t-68.5 -50.5v-481q0 -63 13 -102.5 t44 -80.5q-2 1 -6 1q-96 8 -139 8q-136 0 -243 -38t-198 -118q-31 27 -64 49.5t-69 42.5l-170 -239l-63 41l162 227q-33 6 -60.5 9t-50.5 3q-19 0 -38 -1t-40 -3zM408 299l303 453q-64 13 -110.5 44t-82.5 83q-31 -13 -58.5 -20.5t-51.5 -8.5v-551zM442 223 q55 -7 102.5 -35.5t90.5 -78.5q31 12 57 18.5t51 9.5v535z" />
<glyph unicode="&#xf9;" horiz-adv-x="1165" d="M35 823v25q53 18 99.5 58t88.5 104q112 -33 157.5 -99t45.5 -200v-486q37 -10 62 -30.5t42 -55.5l213 142v475q-48 14 -83 35t-60 51q60 22 115.5 62.5t113.5 105.5q66 -63 132.5 -92t142.5 -29h8q-21 -43 -53 -73.5t-78 -51.5v-447q0 -82 33 -116t114 -41v-25 q-64 -31 -123.5 -72.5t-115.5 -95.5q-78 46 -112 105t-34 149v19l-413 -273q-29 51 -69 76t-91 25q-20 0 -41.5 -5.5t-48.5 -17.5q8 54 34.5 93t73.5 65v444q0 89 -32.5 125.5t-120.5 50.5zM258 1313q43 18 87 42t97 58q84 -139 201.5 -204.5t286.5 -65.5h8 q-48 -30 -103.5 -45t-121.5 -15q-131 0 -239 59t-175 167l-37 -15z" />
<glyph unicode="&#xfa;" horiz-adv-x="1165" d="M35 823v25q53 18 99.5 58t88.5 104q112 -33 157.5 -99t45.5 -200v-486q37 -10 62 -30.5t42 -55.5l213 142v475q-48 14 -83 35t-60 51q60 22 115.5 62.5t113.5 105.5q66 -63 132.5 -92t142.5 -29h8q-21 -43 -53 -73.5t-78 -51.5v-447q0 -82 33 -116t114 -41v-25 q-64 -31 -123.5 -72.5t-115.5 -95.5q-78 46 -112 105t-34 149v19l-413 -273q-29 51 -69 76t-91 25q-20 0 -41.5 -5.5t-48.5 -17.5q8 54 34.5 93t73.5 65v444q0 89 -32.5 125.5t-120.5 50.5zM258 1143h8q168 0 285 65t201 205q43 -29 90 -54.5t96 -45.5l-6 -19l-35 15 q-66 -108 -175.5 -167t-240.5 -59q-66 0 -120 14.5t-103 45.5z" />
<glyph unicode="&#xfb;" horiz-adv-x="1165" d="M35 823v25q53 18 99.5 58t88.5 104q112 -33 157.5 -99t45.5 -200v-486q37 -10 62 -30.5t42 -55.5l213 142v475q-48 14 -83 35t-60 51q60 22 115.5 62.5t113.5 105.5q66 -63 132.5 -92t142.5 -29h8q-21 -43 -53 -73.5t-78 -51.5v-447q0 -82 33 -116t114 -41v-25 q-64 -31 -123.5 -72.5t-115.5 -95.5q-78 46 -112 105t-34 149v19l-413 -273q-29 51 -69 76t-91 25q-20 0 -41.5 -5.5t-48.5 -17.5q8 54 34.5 93t73.5 65v444q0 89 -32.5 125.5t-120.5 50.5zM199 1069q141 98 240 189.5t163 185.5q74 -110 170.5 -201.5t224.5 -173.5 q-111 5 -211 39t-184 96q-94 -59 -196.5 -93t-206.5 -42z" />
<glyph unicode="&#xfc;" horiz-adv-x="1165" d="M35 823v25q53 18 99.5 58t88.5 104q112 -33 157.5 -99t45.5 -200v-486q37 -10 62 -30.5t42 -55.5l213 142v475q-48 14 -83 35t-60 51q60 22 115.5 62.5t113.5 105.5q66 -63 132.5 -92t142.5 -29h8q-21 -43 -53 -73.5t-78 -51.5v-447q0 -82 33 -116t114 -41v-25 q-64 -31 -123.5 -72.5t-115.5 -95.5q-78 46 -112 105t-34 149v19l-413 -273q-29 51 -69 76t-91 25q-20 0 -41.5 -5.5t-48.5 -17.5q8 54 34.5 93t73.5 65v444q0 89 -32.5 125.5t-120.5 50.5zM201 1204l133 152q57 -70 84.5 -87.5t62.5 -17.5q10 0 22.5 3t32.5 9 q-38 -78 -81 -113.5t-99 -35.5q-45 0 -85 23t-70 67zM653 1204l133 152q57 -70 85 -87.5t63 -17.5q9 0 22 3t33 9q-38 -78 -81 -113.5t-99 -35.5q-45 0 -85 23t-71 67z" />
<glyph unicode="&#xfd;" d="M35 809v25q53 28 99.5 68.5t88.5 92.5q111 -22 157 -85.5t46 -198.5v-484q34 -6 61 -27.5t48 -58.5l208 140v475q-48 14 -83 35t-60 51q60 22 115.5 62.5t113.5 105.5q66 -63 132.5 -92t142.5 -29h8q-21 -43 -53 -73.5t-78 -51.5v-510q0 -27 3 -53t7 -37q6 -14 23 -41 q45 -70 45 -131q0 -154 -143 -269.5t-351 -115.5q-110 0 -220.5 43t-131.5 43q-26 0 -52.5 -12.5t-54.5 -36.5q14 117 71 184.5t142 67.5q48 0 88 -23t92 -85q4 -5 9 -11q91 -109 172 -109q75 0 124.5 49t49.5 125q0 73 -58 147q-22 29 -30 44q-11 21 -16 66t-7 140 l-413 -274q-30 51 -67.5 76t-86.5 25q-20 0 -42.5 -5t-53.5 -15q5 54 31.5 92.5t76.5 64.5v444q0 90 -33 124t-120 38zM235 1143h8q168 0 285 65t201 205q43 -29 90 -54.5t96 -45.5l-6 -19l-35 15q-66 -108 -175.5 -167t-240.5 -59q-66 0 -120 14.5t-103 45.5z" />
<glyph unicode="&#xfe;" horiz-adv-x="1149" d="M29 47v12q0 83 37 132t116 71v936q0 52 -13.5 86t-45.5 68q26 -3 38 -3.5t23 -0.5q77 0 152 24t153 74q-37 -56 -53 -107.5t-16 -132.5v-442l360 246q54 -59 98 -84t93 -25q25 0 49.5 6t56.5 21q-6 -53 -30.5 -88.5t-73.5 -63.5v-448q0 -80 12.5 -113t44.5 -49 q-168 -6 -287 -49t-190 -123q-43 49 -73 69t-60 23v-262q0 -36 14.5 -69t44.5 -64q-25 2 -38 3t-23 1q-77 0 -152 -24t-153 -74q35 50 52 109t17 128v266h-28q-37 0 -68.5 -13t-56.5 -40zM420 283q83 -6 150.5 -42t125.5 -106l41 17v593q-51 11 -86 34.5t-59 62.5l-172 -119 v-440z" />
<glyph unicode="&#xff;" d="M35 809v25q53 28 99.5 68.5t88.5 92.5q111 -22 157 -85.5t46 -198.5v-484q34 -6 61 -27.5t48 -58.5l208 140v475q-48 14 -83 35t-60 51q60 22 115.5 62.5t113.5 105.5q66 -63 132.5 -92t142.5 -29h8q-21 -43 -53 -73.5t-78 -51.5v-510q0 -27 3 -53t7 -37q6 -14 23 -41 q45 -70 45 -131q0 -154 -143 -269.5t-351 -115.5q-110 0 -220.5 43t-131.5 43q-26 0 -52.5 -12.5t-54.5 -36.5q14 117 71 184.5t142 67.5q48 0 88 -23t92 -85q4 -5 9 -11q91 -109 172 -109q75 0 124.5 49t49.5 125q0 73 -58 147q-22 29 -30 44q-11 21 -16 66t-7 140 l-413 -274q-30 51 -67.5 76t-86.5 25q-20 0 -42.5 -5t-53.5 -15q5 54 31.5 92.5t76.5 64.5v444q0 90 -33 124t-120 38zM178 1204l133 152q57 -70 84.5 -87.5t62.5 -17.5q10 0 22.5 3t32.5 9q-38 -78 -81 -113.5t-99 -35.5q-45 0 -85 23t-70 67zM630 1204l133 152 q57 -70 85 -87.5t63 -17.5q9 0 22 3t33 9q-38 -78 -81 -113.5t-99 -35.5q-45 0 -85 23t-71 67z" />
<glyph unicode="&#x152;" horiz-adv-x="2044" d="M55 647q0 281 155.5 485.5t451.5 311.5q-147 -146 -213 -329t-66 -451q0 -238 51 -393.5t156 -235.5v1032h37v-147q31 -11 65 -16t72 -5q35 0 58.5 4.5t43.5 14.5q4 92 76.5 144.5t233.5 78.5q-19 -27 -27 -69.5t-8 -121.5v-438q0 -153 -67.5 -225t-260.5 -127 q28 37 40.5 81t12.5 101v61q-26 8 -55 11.5t-61 3.5q-44 0 -70.5 -3t-52.5 -9v-388q18 -4 37.5 -6t35.5 -2q85 0 252.5 109.5t292.5 144.5v711q0 219 124 345t335 126q62 0 119.5 -15.5t120.5 -48.5l36 43l31 -30q-50 -63 -99 -136t-95 -155q-57 58 -129 89.5t-148 31.5 q-133 0 -194.5 -67.5t-61.5 -213.5v-254q68 95 150 142t182 47q42 0 81.5 -10.5t80.5 -32.5l53 51l37 -27q-66 -79 -118.5 -156.5t-94.5 -156.5q-57 52 -115 77t-121 25q-34 0 -67 -5.5t-68 -16.5v-346q57 14 115.5 21t122.5 7q96 0 190.5 -20.5t202.5 -65.5l67 78l33 -33 q-65 -77 -124.5 -158.5t-112.5 -166.5q-128 53 -255 81.5t-237 28.5q-73 0 -145.5 -13t-163.5 -44q-95 -32 -156.5 -42.5t-124.5 -10.5q-101 0 -195.5 35t-181.5 104q-130 106 -197 249t-67 316zM592 1161q30 127 120.5 206t200.5 79q67 0 159.5 -35t129.5 -35q38 0 76 14.5 t82 45.5q-58 -128 -145.5 -195t-196.5 -67q-59 0 -143.5 27.5t-120.5 27.5q-35 0 -75.5 -17t-86.5 -51zM627 442q25 7 54.5 10t70.5 3q34 0 61.5 -4t52.5 -13v443q-28 -9 -54 -13t-52 -4q-32 0 -64.5 4.5t-68.5 14.5v-441z" />
<glyph unicode="&#x153;" horiz-adv-x="1477" d="M49 88q25 46 57 78.5t74 54.5v459q0 81 -15 127t-50 80q37 -9 76 -14t75 -5q119 0 236.5 37.5t208.5 104.5q56 -54 117.5 -78.5t140.5 -24.5q78 0 150.5 27t123.5 76q46 -113 109 -201t139 -145l-518 -291v-144q82 -15 153.5 -42.5t141.5 -69.5l145 92l21 -37l-316 -213 q-110 54 -208 90t-185 53q-70 -11 -139.5 -46.5t-143.5 -96.5q-84 70 -159 101.5t-154 31.5q-22 0 -40.5 -1t-39.5 -3zM418 236q71 -7 128 -37t100 -84q21 7 43.5 13t45.5 11v596q-81 15 -136 47t-94 88q-20 -7 -63 -15q-16 -3 -24 -5v-614zM973 424l260 145 q-39 58 -96.5 163.5t-76.5 137.5q-21 -7 -42.5 -12t-44.5 -8v-426z" />
<glyph unicode="&#x178;" horiz-adv-x="1352" d="M-16 1122q0 147 85 235.5t226 88.5q123 0 192 -83.5t72 -235.5q33 12 64 26t63 31v258h37v-236q103 59 196.5 117t178.5 117q52 -68 104.5 -101.5t106.5 -33.5q18 0 38.5 4.5t43.5 13.5q-24 -56 -59.5 -93.5t-88.5 -64.5v-864q0 -169 -87 -237.5t-329 -77.5 q-198 -8 -290.5 -39.5t-92.5 -91.5q0 -33 23 -50.5t65 -17.5q57 0 226.5 43t273.5 43q105 0 167.5 -57t62.5 -152q0 -87 -50 -132.5t-147 -45.5q-19 0 -40 1.5t-44 5.5v27q10 0 23 -0.5t40 -0.5q52 0 86.5 18t34.5 45q0 28 -25.5 43t-74.5 15q-69 0 -236.5 -43t-257.5 -43 q-106 0 -166.5 51.5t-60.5 142.5q0 104 70.5 167t216.5 89q-175 16 -243.5 93t-68.5 263v252h-69q-64 0 -94.5 -27.5t-36.5 -90.5q-26 39 -37.5 76t-11.5 75q0 94 58.5 145.5t166.5 51.5h24v221q0 81 -40 128.5t-107 47.5q-60 0 -109 -41.5t-77 -115.5q-1 6 -1.5 15t-0.5 25 zM383 1655l133 152q57 -70 84.5 -87.5t62.5 -17.5q10 0 22.5 3t32.5 9q-38 -78 -81 -113.5t-99 -35.5q-45 0 -85 23t-70 67zM559 297q0 -136 28 -183.5t99 -68.5v1102q-40 -20 -70 -33.5t-57 -23.5v-793zM723 33q22 -3 42 -4.5t36 -1.5q104 0 147 50.5t43 178.5v164 q-41 13 -75 19.5t-62 6.5q-27 0 -58.5 -7t-72.5 -23v-383zM723 459q31 11 64.5 16.5t72.5 5.5q21 0 55 -5t76 -15v360q-43 -10 -79 -15t-66 -5q-37 0 -67 6t-56 18v-366zM723 865q33 -14 64.5 -20.5t64.5 -6.5q34 0 68 7t71 21v287q-49 12 -79.5 36t-47.5 62 q-39 -25 -74.5 -45.5t-66.5 -36.5v-304zM835 1655l133 152q57 -70 85 -87.5t63 -17.5q9 0 22 3t33 9q-38 -78 -81 -113.5t-99 -35.5q-45 0 -85 23t-71 67z" />
<glyph unicode="&#x2c6;" horiz-adv-x="1024" d="M113 1069q141 98 240 189.5t163 185.5q74 -110 170.5 -201.5t224.5 -173.5q-111 5 -211 39t-184 96q-94 -59 -196.5 -93t-206.5 -42z" />
<glyph unicode="&#x2dc;" horiz-adv-x="1024" d="M139 1118q24 93 102 151t181 58q52 0 154 -26.5t155 -26.5q50 0 85.5 9.5t66.5 31.5q-46 -90 -132.5 -139.5t-197.5 -49.5q-51 0 -137 21.5t-127 21.5q-51 0 -85.5 -11.5t-64.5 -39.5z" />
<glyph unicode="&#x2000;" horiz-adv-x="975" />
<glyph unicode="&#x2001;" horiz-adv-x="1950" />
<glyph unicode="&#x2002;" horiz-adv-x="975" />
<glyph unicode="&#x2003;" horiz-adv-x="1950" />
<glyph unicode="&#x2004;" horiz-adv-x="650" />
<glyph unicode="&#x2005;" horiz-adv-x="487" />
<glyph unicode="&#x2006;" horiz-adv-x="325" />
<glyph unicode="&#x2007;" horiz-adv-x="325" />
<glyph unicode="&#x2008;" horiz-adv-x="243" />
<glyph unicode="&#x2009;" horiz-adv-x="390" />
<glyph unicode="&#x200a;" horiz-adv-x="108" />
<glyph unicode="&#x2010;" horiz-adv-x="797" d="M43 377l84 215q11 -15 24 -22t31 -7h482q34 0 53 6.5t37 22.5l-86 -215q-15 15 -31.5 22t-36.5 7h-477q-24 0 -43 -7t-37 -22z" />
<glyph unicode="&#x2011;" horiz-adv-x="797" d="M43 377l84 215q11 -15 24 -22t31 -7h482q34 0 53 6.5t37 22.5l-86 -215q-15 15 -31.5 22t-36.5 7h-477q-24 0 -43 -7t-37 -22z" />
<glyph unicode="&#x2012;" horiz-adv-x="797" d="M43 377l84 215q11 -15 24 -22t31 -7h482q34 0 53 6.5t37 22.5l-86 -215q-15 15 -31.5 22t-36.5 7h-477q-24 0 -43 -7t-37 -22z" />
<glyph unicode="&#x2013;" horiz-adv-x="1024" d="M0 406v157h1024v-157h-1024z" />
<glyph unicode="&#x2014;" horiz-adv-x="2048" d="M0 406v157h2048v-157h-2048z" />
<glyph unicode="&#x2018;" horiz-adv-x="559" d="M152 1171q0 85 42 153t128 122q-10 -28 -14.5 -56t-4.5 -55q0 -76 28 -131.5t95 -111.5l-164 -185q-63 88 -86.5 146t-23.5 118z" />
<glyph unicode="&#x2019;" horiz-adv-x="559" d="M152 1262l161 184q71 -100 92 -156t21 -119q0 -77 -43.5 -145t-126.5 -119q9 28 13.5 54.5t4.5 54.5q0 77 -27 132t-95 114z" />
<glyph unicode="&#x201a;" horiz-adv-x="559" d="M119 70l164 186q66 -95 88 -153.5t22 -122.5q0 -78 -43.5 -146t-126.5 -119q11 32 16 59t5 52q0 75 -27.5 129t-97.5 115z" />
<glyph unicode="&#x201c;" horiz-adv-x="967" d="M152 1171q0 85 42 153t128 122q-10 -28 -14.5 -56t-4.5 -55q0 -76 28 -131.5t95 -111.5l-164 -185q-63 88 -86.5 146t-23.5 118zM559 1171q0 85 42 153t128 122q-9 -28 -13.5 -55.5t-4.5 -55.5q0 -76 27.5 -131.5t95.5 -111.5l-162 -185q-65 90 -89 148t-24 116z" />
<glyph unicode="&#x201d;" horiz-adv-x="967" d="M152 1262l161 184q71 -100 92 -156t21 -119q0 -77 -43.5 -145t-126.5 -119q9 28 13.5 54.5t4.5 54.5q0 77 -27 132t-95 114zM559 1262l164 184q68 -97 89.5 -153.5t21.5 -121.5q0 -77 -44 -145t-126 -119q9 28 13.5 55t4.5 54q0 77 -27.5 132t-95.5 114z" />
<glyph unicode="&#x201e;" horiz-adv-x="967" d="M152 72l161 184q71 -100 92 -156t21 -118q0 -78 -43.5 -146t-126.5 -119q9 28 13.5 54.5t4.5 54.5q0 77 -27 132t-95 114zM559 72l164 184q68 -97 89.5 -153.5t21.5 -120.5q0 -78 -44 -146t-126 -119q9 29 13.5 55.5t4.5 53.5q0 77 -27.5 132t-95.5 114z" />
<glyph unicode="&#x2022;" horiz-adv-x="1208" d="M307 762q0 123 87 209t210 86q122 0 208.5 -86.5t86.5 -208.5t-87.5 -209.5t-209.5 -87.5q-123 0 -209 87t-86 210z" />
<glyph unicode="&#x2026;" horiz-adv-x="2048" d="M156 70l143 186q46 -72 82.5 -101.5t77.5 -29.5q11 0 26 4t35 12q-44 -97 -89.5 -139.5t-104.5 -42.5q-49 0 -94 29t-76 82zM838 70l143 186q46 -72 82.5 -101.5t77.5 -29.5q11 0 26 4t35 12q-44 -97 -89.5 -139.5t-104.5 -42.5q-49 0 -94 29t-76 82zM1522 70l143 186 q46 -72 82.5 -101.5t77.5 -29.5q11 0 26 4t35 12q-44 -97 -89.5 -139.5t-104.5 -42.5q-49 0 -94 29t-76 82z" />
<glyph unicode="&#x202f;" horiz-adv-x="390" />
<glyph unicode="&#x2039;" horiz-adv-x="616" d="M45 494q170 98 381 337q46 53 70 78q2 -13 3 -22.5t1 -18.5q0 -77 -49.5 -177t-137.5 -199q93 -115 140 -214.5t47 -183.5q0 -4 -2 -13t-2 -13q-23 24 -66 71q-252 277 -385 355z" />
<glyph unicode="&#x203a;" horiz-adv-x="616" d="M117 68q7 101 58.5 209.5t141.5 214.5q-91 98 -144 209.5t-56 207.5q97 -134 209.5 -238t238.5 -177q-113 -69 -223.5 -174t-224.5 -252z" />
<glyph unicode="&#x205f;" horiz-adv-x="487" />
<glyph unicode="&#x2122;" horiz-adv-x="1683" d="M233 1260l11 188h448l10 -188h-30q-8 80 -40 116.5t-93 36.5h-11v-422q0 -23 10.5 -37t28.5 -16l31 -4v-29h-260v29l32 4q19 2 28.5 15.5t9.5 37.5v422h-15q-59 0 -91 -37.5t-40 -115.5h-29zM770 905v29l33 4q20 2 30.5 15t10.5 36v373q0 23 -11 37t-30 16l-33 2v31h199 l135 -381l137 381h189v-27l-28 -2q-19 -3 -29.5 -16.5t-10.5 -36.5v-375q0 -23 10.5 -36.5t30.5 -16.5l27 -4v-29h-246v29l30 4q20 2 29.5 15.5t9.5 37.5v375l-163 -463h-27l-170 469v-381q0 -24 10 -38t29 -15l35 -4v-29h-197z" />
<glyph unicode="&#x25fc;" horiz-adv-x="1010" d="M0 0v1010h1010v-1010h-1010z" />
</font>
</defs>
</svg>
