<?xml version="1.0" encoding="utf-8"?>
<!-- Generator: Adobe Illustrator 18.0.0, SVG Export Plug-In . SVG Version: 6.00 Build 0)  -->
<!DOCTYPE svg PUBLIC "-//W3C//DTD SVG 1.1//EN" "http://www.w3.org/Graphics/SVG/1.1/DTD/svg11.dtd">
<svg version="1.1" id="Layer_1" xmlns="http://www.w3.org/2000/svg" xmlns:xlink="http://www.w3.org/1999/xlink" x="0px" y="0px"
	 viewBox="0 153.4 612 485" enable-background="new 0 153.4 612 485" xml:space="preserve">
<g id="_x30_AGVaT.tif">
	<g>
		<path fill="#FFFFFF" d="M612,153.4c0,35,0,69.4,0,104.6c-203.9,0-407.6,0-612,0c0-34.6,0-69.1,0-104.6
			C203.5,153.4,407.2,153.4,612,153.4z"/>
		<path fill="#FFFFFF" d="M612,340.3c0,35.2,0,69.6,0,104.8c-203.9,0-407.6,0-612,0c0-34.8,0-69.4,0-104.8
			C203.7,340.3,407.4,340.3,612,340.3z"/>
		<path fill="#FFFFFF" d="M0,533.6c203.9,0,407.2,0,611.6,0c0,34.8,0,69.4,0,104.8c-203.3,0-407,0-611.6,0C0,604.1,0,569.1,0,533.6z
			"/>
	</g>
</g>
</svg>
