<?xml version="1.0" standalone="no"?>
<!DOCTYPE svg PUBLIC "-//W3C//DTD SVG 1.1//EN" "http://www.w3.org/Graphics/SVG/1.1/DTD/svg11.dtd" >
<svg xmlns="http://www.w3.org/2000/svg">
<metadata></metadata>
<defs>
<font id="bell_gothic_stdbold" horiz-adv-x="1024" >
<font-face units-per-em="2048" ascent="1532" descent="-516" />
<missing-glyph horiz-adv-x="563" />
<glyph unicode="&#xfb01;" horiz-adv-x="1138" d="M43 877v122h178q-2 45 -2 103.5t9.5 120t33 121t67.5 106.5t114.5 75.5t174.5 28.5q68 0 142 -12t170 -53v-184q-47 27 -122 59.5t-175 32.5q-6 0 -25.5 -1t-44 -8.5t-51.5 -21.5t-47 -39q-25 -29 -37 -59.5t-17 -68.5t-5 -87t2 -113h583v-999h-184v877h-397v-877h-189 v877h-178z" />
<glyph unicode="&#xfb02;" horiz-adv-x="1138" d="M47 877v122h174q-2 43 -2 87v55q0 61 8.5 107t20.5 79t26.5 54.5t26.5 37.5q61 74 143 103.5t174 29.5q45 0 77 -5t61 -13q31 -8 49 -12t29.5 -6.5t18.5 -3.5t15 -1q23 0 54.5 9.5t68.5 31.5v-1552h-184v877h-395v-877h-191v877h-174zM412 999h395v351q-49 16 -90 27.5 t-92 11.5q-49 0 -89 -10.5t-68 -36t-42 -68.5t-14 -111v-164z" />
<glyph horiz-adv-x="2048" />
<glyph horiz-adv-x="2048" />
<glyph unicode="&#xd;" horiz-adv-x="563" />
<glyph unicode=" "  horiz-adv-x="563" />
<glyph unicode="&#x09;" horiz-adv-x="563" />
<glyph unicode="&#xa0;" horiz-adv-x="563" />
<glyph unicode="!" horiz-adv-x="796" d="M258 129q0 61 43 101t98 40t98.5 -41t43.5 -100q0 -53 -39.5 -96t-100.5 -43q-70 0 -106.5 43t-36.5 96zM289 1511h213l-2 -125l-39 -878h-131l-39 878z" />
<glyph unicode="&#x22;" horiz-adv-x="681" d="M113 948v555h163v-555h-163zM403 948v555h168v-555h-168z" />
<glyph unicode="#" horiz-adv-x="1228" d="M111 569h223l41 295h-203l-2 131h223l60 439h149l-61 -439h243l60 439h149l-61 -439h184l2 -131h-205l-41 -295h185l2 -131h-205l-61 -438h-148l62 438h-244l-62 -438h-147l61 438h-202zM481 569h244l41 295h-244z" />
<glyph unicode="$" horiz-adv-x="1138" d="M74 186l94 166q41 -37 82 -69.5t84 -59t89 -42t99 -17.5v547q-90 35 -152.5 64.5t-123.5 80.5q-63 53 -102.5 128t-39.5 149q0 18 2.5 49.5t13.5 69.5t35.5 79t69.5 80q39 33 80 52.5t81 28.5t75 12t63 5v174h111v-174q86 -10 153.5 -29.5t115.5 -43t78 -45t42 -33.5 l-115 -158q-41 43 -77.5 69.5t-70.5 43t-64.5 25t-61.5 14.5v-473q70 -31 117 -51.5t81.5 -41t62.5 -43t58 -55.5q53 -57 76 -122.5t23 -141.5q0 -80 -23.5 -151.5t-83.5 -133.5q-61 -66 -141 -95.5t-170 -33.5v-274h-111v268q-66 6 -118 14.5t-103 26.5t-106.5 52 t-122.5 89zM283 1171q0 -51 20.5 -92t53 -71.5t75.5 -52t90 -33.5v434q-45 0 -88 -9.5t-76.5 -31t-54 -57t-20.5 -87.5zM635 162q51 2 96 20.5t78 49t52.5 73.5t19.5 92q0 57 -23.5 107.5t-71.5 83.5q-29 20 -74.5 43.5t-76.5 32.5v-502z" />
<glyph unicode="%" horiz-adv-x="2048" d="M115 1128q0 74 27.5 141.5t77.5 120t123 83t165 30.5q63 0 127.5 -26.5t117 -73.5t85 -114.5t32.5 -147.5t-29.5 -149.5t-80.5 -122t-120 -82t-146 -29.5q-78 0 -146.5 27.5t-120 77.5t-82 118t-30.5 147zM276 1130q0 -49 17.5 -87.5t47.5 -66.5t67.5 -42t80.5 -14 q45 0 84 16t69 46t46.5 69t16.5 84q0 37 -15.5 74.5t-44.5 67.5t-67.5 48t-88.5 18q-43 0 -80.5 -15t-67.5 -43t-47.5 -66.5t-17.5 -88.5zM465 -41l981 1575h133l-981 -1575h-133zM1180 369q0 82 30.5 150.5t83 118.5t122 77.5t145.5 27.5q72 0 139 -28.5t119.5 -78.5 t83 -117.5t30.5 -145.5t-28.5 -146.5t-79.5 -120t-119 -80t-145 -28.5q-76 0 -145.5 27.5t-122 77t-83 118t-30.5 148.5zM1341 377q0 -51 18.5 -92t49.5 -71t70 -45t82 -15q47 0 86 18t67.5 49t44 71t15.5 81q0 45 -18.5 84t-48.5 67.5t-67.5 44t-78.5 15.5q-47 0 -87 -16.5 t-69 -45t-46.5 -65.5t-17.5 -80z" />
<glyph unicode="&#x26;" horiz-adv-x="1478" d="M111 416q0 106 38.5 187t92 138.5t109 94t89.5 57.5q-29 61 -58.5 139t-29.5 182q0 41 16.5 100.5t69.5 112.5t118 75t134 22q55 0 110.5 -18.5t99.5 -55.5t71.5 -90t27.5 -123q0 -78 -32.5 -136.5t-81.5 -102.5t-105.5 -75.5t-101.5 -54.5q137 -236 307 -444 q59 78 102 167t68 152l197 -67q-31 -66 -59.5 -116t-58.5 -95t-62.5 -87t-69.5 -91q53 -59 94 -93t104 -34q31 0 53.5 9t45.5 21v-192q-27 -14 -52.5 -24.5t-70.5 -10.5q-55 0 -101.5 16.5t-83 42t-67.5 57.5t-55 60q-49 -41 -92 -74.5t-89.5 -58t-100.5 -38t-122 -13.5 q-119 0 -205 43t-141 110.5t-81.5 149.5t-26.5 158zM291 467q0 -53 19.5 -110.5t58.5 -104.5t98 -78t139 -31q59 0 123 30t129 95q-51 61 -92 114.5t-81 110t-84 125t-99 162.5q-33 -23 -70 -50.5t-68.5 -65t-52 -86t-20.5 -111.5zM514 1235q0 -47 32 -120t72 -138 q49 25 93.5 48.5t78 54t53 70.5t19.5 95q0 45 -16.5 77t-41 52.5t-54 30.5t-58.5 10q-49 0 -83 -15.5t-55.5 -41t-30.5 -58t-9 -65.5z" />
<glyph unicode="'" horiz-adv-x="454" d="M143 948v555h168v-555h-168z" />
<glyph unicode="(" horiz-adv-x="796" d="M160 715q0 106 14 201.5t48 192.5t90.5 199.5t140.5 223.5h192q-35 -37 -70.5 -90t-66.5 -105.5t-53.5 -95.5t-28.5 -57q-12 -27 -29.5 -68t-33 -95t-25.5 -123t-10 -150q0 -129 31.5 -244t79.5 -213t103.5 -180t104.5 -148h-190q-70 92 -134.5 201.5t-105.5 232.5 q-12 33 -22.5 74t-17.5 84t-12 84t-5 76z" />
<glyph unicode=")" horiz-adv-x="796" d="M150 1532h186q57 -84 110.5 -168t94.5 -178t66.5 -204t25.5 -241t-31 -248.5t-74 -213t-86 -165t-67 -102.5q-10 -12 -18.5 -24.5t-16.5 -24.5h-186q4 6 15 21.5t23.5 32t22.5 31.5t14 22q8 14 24.5 40.5t34 55.5t30 51.5t16.5 26.5q49 92 75.5 168.5t39 139t14.5 110 t2 77.5q0 39 -3 97.5t-23.5 139.5t-64.5 183.5t-126 226.5q-6 8 -19.5 30t-30 44.5t-29.5 43t-19 28.5z" />
<glyph unicode="*" horiz-adv-x="1138" d="M178 1180l45 172l312 -148l-50 322h172l-45 -322l306 142l43 -166l-334 -37l243 -258l-147 -103l-152 312l-157 -312l-146 103l244 248z" />
<glyph unicode="+" horiz-adv-x="1228" d="M98 434v168h432v434h168v-434h432v-168h-432v-434h-168v434h-432z" />
<glyph unicode="," horiz-adv-x="569" d="M0 -373l246 643h166l-23 -65l-217 -578h-172z" />
<glyph unicode="-" horiz-adv-x="681" d="M76 442v172h530v-172h-530z" />
<glyph unicode="." horiz-adv-x="569" d="M150 121q0 59 43 99t98 40q63 0 104 -42t41 -99q0 -20 -8 -44t-25.5 -43.5t-45 -32.5t-66.5 -13q-59 0 -100 37.5t-41 97.5z" />
<glyph unicode="/" horiz-adv-x="569" d="M-45 -45l485 1571h174l-487 -1571h-172z" />
<glyph unicode="0" horiz-adv-x="1138" d="M84 721q0 223 40 379.5t108.5 253t160.5 140.5t197 44q78 0 156.5 -31.5t134.5 -91.5q102 -115 138 -264t36 -360q0 -176 -25.5 -329t-97.5 -282q-41 -72 -89 -113.5t-97.5 -62t-95.5 -26t-85 -5.5q-29 0 -72.5 6.5t-94 29t-101.5 64.5t-92 113q-41 68 -64.5 147 t-36 153.5t-16.5 137t-4 97.5zM285 725q0 -29 1 -72t7 -96t18.5 -113.5t34.5 -121.5q29 -72 83 -123.5t155 -51.5q86 0 139 59.5t82 152t39 206t10 221.5q0 164 -17.5 276t-51 179.5t-85 96t-118.5 28.5q-104 0 -171 -77t-92 -204q-20 -102 -27 -195t-7 -165z" />
<glyph unicode="1" horiz-adv-x="1138" d="M129 1333v170h559v-1337h293v-166h-829v166h327v1167h-350z" />
<glyph unicode="2" horiz-adv-x="1138" d="M76 1200q43 92 92 152.5t133 109.5q76 43 144.5 55.5t113.5 12.5q31 0 78 -6t98 -23.5t102.5 -48.5t91.5 -78t65.5 -113.5t25.5 -156.5q0 -45 -15.5 -112.5t-56.5 -127.5q-18 -27 -39.5 -54.5t-54.5 -60t-81 -73.5t-118 -94l-168 -127q-61 -47 -95 -94.5t-38 -57.5 q-20 -33 -26 -58.5t-11 -60.5h707v-184h-934q4 133 32 231.5t80 178t131 151.5t185 152q53 41 106.5 84t96.5 91t69.5 102t26.5 118q0 39 -12 82t-41 80t-77 60.5t-118 23.5q-41 0 -86 -10.5t-90 -39t-86 -77.5t-71 -127z" />
<glyph unicode="3" horiz-adv-x="1138" d="M47 -51v174q29 -2 52.5 -2h47.5q41 0 99.5 2t127 13t141.5 36t140 70q57 37 91 76.5t52.5 76.5t23.5 70t5 55q0 113 -69.5 164t-173.5 51q-29 0 -52.5 -3t-48 -10t-55.5 -18.5t-76 -27.5l-55 139q74 31 128 54.5t98 47t81 51t78 66.5q18 16 46 52t28 100q0 82 -61.5 124 t-141.5 42q-57 0 -105.5 -16.5t-93.5 -44t-88 -65.5t-88 -81l-108 141q29 29 72.5 68t105 74.5t143.5 61.5t184 26q76 0 144.5 -18.5t121 -57.5t82 -98.5t29.5 -139.5q0 -78 -34.5 -135t-83 -99t-97.5 -68t-80 -40q29 -2 63 -5t70.5 -13.5t73.5 -30.5t72 -53 q61 -61 78.5 -130t17.5 -114q0 -51 -14 -107.5t-47 -112.5t-84 -109.5t-125 -96.5q-92 -55 -189.5 -84t-192.5 -41t-180 -13t-153 -1z" />
<glyph unicode="4" horiz-adv-x="1138" d="M61 418v227l484 858h332v-911h165v-174h-165v-418h-197v418h-619zM213 588h465v807h-19l-446 -793q-4 -8 0 -14z" />
<glyph unicode="5" horiz-adv-x="1138" d="M66 -8l28 192q45 -16 112.5 -33.5t153.5 -17.5q49 0 116 8.5t159 57.5q35 18 67.5 47.5t59 69.5t42 90.5t15.5 107.5q0 92 -27.5 152.5t-71.5 96.5t-97.5 50t-104.5 14q-47 0 -81 -9t-61.5 -24.5t-49 -34t-41.5 -38.5h-148v23.5t2 23.5l76 735h719v-184h-572l-36 -371 q61 29 118.5 37t83.5 8q143 0 234.5 -46t157.5 -120q59 -66 81.5 -142.5t22.5 -170.5q0 -86 -31.5 -184.5t-109.5 -181t-207 -138t-326 -55.5q-37 0 -64.5 1t-57 5t-67.5 11.5t-95 19.5z" />
<glyph unicode="6" horiz-adv-x="1138" d="M61 498q0 113 12.5 205t31 162.5t38 121.5t33.5 84q37 84 72 151.5t68.5 122t65.5 98.5t60 83h271q-43 -47 -80 -90t-72 -86t-66.5 -87t-62.5 -96q-20 -35 -42.5 -77.5t-42 -91t-34 -96.5t-18.5 -93q18 14 42.5 31.5t59.5 33t79 25.5t104 10q119 0 208 -39t147 -103.5 t87 -146t29 -169.5q0 -90 -26 -178.5t-85 -159t-156.5 -114.5t-238.5 -44q-94 0 -181.5 31.5t-155 98.5t-107.5 169t-40 244zM274 432q0 -74 21.5 -132t59.5 -99t89.5 -62.5t112.5 -21.5q59 0 111.5 19.5t91.5 58t61.5 97t22.5 136.5q0 51 -16.5 107.5t-51.5 102.5t-88 75.5 t-129 29.5q-47 0 -97 -17t-92 -55t-69 -97.5t-27 -141.5z" />
<glyph unicode="7" horiz-adv-x="1138" d="M72 1313v190h962q0 -10 -1 -19t-3 -20q-4 -16 -16.5 -37.5t-20.5 -37.5q-23 -45 -37 -76t-32 -74l-152 -362q-25 -61 -62.5 -170t-75.5 -235t-73 -252t-55 -220h-240q31 104 56.5 186t52 163t60.5 173t83 215q37 90 63.5 157t54.5 128t58.5 129t75.5 162h-698z" />
<glyph unicode="8" horiz-adv-x="1138" d="M78 397q0 109 19.5 168.5t54.5 106.5q27 37 59.5 62.5t62 42t52 24.5t26.5 10v8q-23 6 -63.5 26.5t-80.5 60.5t-68.5 100.5t-28.5 148.5q0 82 31.5 151.5t88 121t137.5 80t179 28.5q131 0 222 -35t148.5 -91t82 -126t24.5 -137q0 -16 -3 -41t-11.5 -55.5t-25.5 -63.5 t-44 -63q-16 -18 -29.5 -30.5t-30 -23t-39 -22.5t-57.5 -29v-8q57 -23 108.5 -56.5t88.5 -82.5t58.5 -116t21.5 -155q0 -90 -32 -169.5t-95.5 -139t-160.5 -93.5t-228 -34q-20 0 -58 4t-84.5 15.5t-95.5 34t-90 59.5q-43 37 -69.5 81t-42 87t-21.5 83t-6 68zM285 416 q0 -39 13 -89.5t46 -95.5t88 -75.5t137 -30.5q47 0 97.5 15.5t92.5 52t69.5 98t27.5 151.5q0 33 -11 83t-44 98.5t-89.5 83t-146.5 34.5q-25 0 -56.5 -5t-64 -19.5t-61.5 -37t-49 -56.5q-29 -47 -39 -98.5t-10 -108.5zM307 1130q0 -51 20.5 -96t55.5 -77.5t81 -52t99 -19.5 q61 0 109.5 21.5t82 57t51 79.5t17.5 87q0 47 -19.5 92.5t-54 80t-81.5 56t-105 21.5q-51 0 -97 -18.5t-82 -52t-56.5 -79.5t-20.5 -100z" />
<glyph unicode="9" horiz-adv-x="1138" d="M63 1059q0 82 28 168t87.5 155.5t153.5 113.5t227 44q119 0 209 -42t145 -101q41 -43 68 -93.5t43 -103.5t22.5 -105.5t6.5 -99.5q0 -164 -30 -304t-85 -269q-72 -170 -144.5 -278.5t-121.5 -174.5h-271q70 78 138.5 159t140.5 198q25 39 48.5 85t43 94t31.5 94t16 85 q-16 -12 -40.5 -29.5t-59.5 -33t-81 -26.5t-103 -11q-121 0 -209 42t-146.5 109.5t-87.5 152.5t-29 171zM270 1065q0 -66 19.5 -123t56.5 -100t88 -67.5t117 -24.5q45 0 96 15t94 52t71 96.5t28 147.5q0 72 -21.5 130t-59.5 99t-90.5 63.5t-113.5 22.5q-59 0 -115.5 -22.5 t-97.5 -67.5q-51 -55 -61.5 -111.5t-10.5 -109.5z" />
<glyph unicode=":" horiz-adv-x="681" d="M182 958q0 33 14.5 59.5t37 43t49 26t49.5 9.5q53 0 96 -38t43 -97t-41 -101.5t-90 -42.5q-43 0 -72.5 13.5t-49 35t-28 46t-8.5 46.5zM190 123q0 35 13.5 61.5t34 45t45 27.5t47.5 9q53 0 97 -41t44 -104q0 -23 -8 -46.5t-25.5 -43t-44 -32.5t-63.5 -13 q-55 0 -97.5 36.5t-42.5 100.5z" />
<glyph unicode=";" horiz-adv-x="681" d="M18 -377l248 643h172l-245 -643h-175zM205 963q0 35 13 61.5t33.5 43.5t45.5 26.5t49 9.5q61 0 101 -42t40 -93q0 -53 -36.5 -99.5t-106.5 -46.5q-59 0 -99 40t-40 100z" />
<glyph unicode="&#x3c;" horiz-adv-x="1228" d="M94 444v148l1041 461v-168l-828 -367l828 -366v-168z" />
<glyph unicode="=" horiz-adv-x="1228" d="M98 221v168h1032v-168h-1032zM98 647v168h1032v-168h-1032z" />
<glyph unicode="&#x3e;" horiz-adv-x="1228" d="M94 -16v168l828 366l-828 367v168l1041 -461v-148z" />
<glyph unicode="?" d="M100 1276q8 20 22.5 48t37 57.5t57.5 60.5t86 55q31 14 73 27.5t126 13.5q37 0 98.5 -12.5t120.5 -47t102 -99t43 -169.5q0 -47 -9 -82.5t-25.5 -65.5t-37 -56.5t-42.5 -53.5q-49 -59 -79 -94t-46.5 -55.5t-23.5 -31.5t-13 -21q-27 -55 -31 -125t-2 -123h-172 q-4 94 6 165.5t32.5 130t55.5 107.5t76 99q33 37 54.5 63.5t34.5 50t18.5 47t5.5 56.5q0 70 -47.5 119t-126.5 49q-53 0 -89 -20.5t-59.5 -49.5t-36 -59.5t-18.5 -53.5zM326 121q0 41 15 68.5t37.5 45t48.5 24.5t44 7q59 0 101 -43t42 -100q0 -49 -36.5 -93t-104.5 -44 q-63 0 -105 40t-42 95z" />
<glyph unicode="@" horiz-adv-x="1638" d="M104 719q0 156 59.5 290t161 234t237.5 157.5t288 57.5q137 0 261 -44t218 -122t149.5 -185.5t55.5 -232.5q0 -135 -49 -239.5t-121 -175t-155 -106.5t-150 -36q-53 0 -88 30t-39 89h-4q-43 -47 -105.5 -83t-136.5 -36q-59 0 -109.5 25t-87 66t-57 95t-20.5 113 q0 94 29.5 186.5t86 166t138.5 119t184 45.5q68 0 128 -35t101 -113l33 107h139l-135 -496q-6 -25 -10 -50.5t-2 -46t10 -33.5t27 -13q49 0 95 32.5t83 85t58.5 119t21.5 131.5q0 119 -44 214t-119 160t-174 99.5t-212 34.5q-131 0 -240.5 -48t-189.5 -132t-124 -196.5 t-44 -241.5q0 -131 47 -242t130 -191.5t195.5 -127t241.5 -46.5q135 0 257 56.5t206 152.5l82 -82q-90 -111 -231.5 -183.5t-317.5 -72.5q-158 0 -296 56.5t-240.5 157t-162 236.5t-59.5 294zM575 653q0 -84 45.5 -136t118.5 -52q59 0 110.5 33.5t88.5 85t58.5 110 t21.5 107.5q0 37 -13.5 70.5t-35 60t-50 42t-61.5 15.5q-63 0 -115.5 -33.5t-89.5 -85t-57.5 -110t-20.5 -107.5z" />
<glyph unicode="A" horiz-adv-x="1366" d="M70 0l485 1503h236l507 -1503h-219l-102 313h-594l-94 -313h-219zM436 487h482l-238 766q-4 8 -10 9q-6 0 -11 -11z" />
<glyph unicode="B" horiz-adv-x="1366" d="M223 0v1503h428q33 0 76 -1t90 -8t94 -21.5t88 -38.5q45 -29 73 -65t43 -71.5t21.5 -68.5t6.5 -53q0 -78 -19.5 -130.5t-47 -86t-59.5 -54t-54 -33.5q-16 -10 -42 -18t-42 -10q-33 -2 -33 -25q0 -12 11 -18t42 -17l66 -20q53 -16 101 -51t84 -82t57.5 -106.5t21.5 -127.5 q0 -70 -16.5 -122t-40 -90t-48 -61.5t-43.5 -35.5q-47 -33 -103 -51.5t-111.5 -26.5t-106.5 -9t-88 -1h-449zM418 176h291q29 0 80 4t100 27.5t85 75t36 147.5q0 121 -64.5 192.5t-183.5 94.5q-4 0 -87 8q-55 5 -151 5q-48 0 -106 -1v-553zM418 887h215q61 0 122.5 12 t100.5 47q18 16 49 62.5t31 121.5q0 80 -38 123t-94 63.5t-122 23.5t-121 3h-143v-456z" />
<glyph unicode="C" horiz-adv-x="1251" d="M129 737q0 129 20.5 268.5t77 254t155.5 188.5t259 74q72 0 158 -26t155 -97q39 -39 62.5 -80t38 -80t21.5 -74t11 -61l-196 -37q-6 55 -22.5 104.5t-47 88t-75 61t-105.5 22.5q-55 0 -96 -19t-71 -49t-48 -63.5t-31 -64.5q-20 -51 -32.5 -111.5t-18.5 -114t-8 -91 t-2 -44.5q0 -123 13 -240.5t47 -208.5t94.5 -146.5t152.5 -55.5q45 0 79 14.5t58.5 33t40 38t21.5 29.5q31 53 40 110.5t13 94.5l205 -37q-6 -90 -40 -180.5t-102 -157.5q-49 -49 -99 -74.5t-95 -38t-82 -14.5t-57 -2q-31 0 -79 8t-103.5 34.5t-111 79t-100.5 139.5 t-72.5 216t-27.5 309z" />
<glyph unicode="D" horiz-adv-x="1366" d="M213 0v1503h326q186 0 318 -52t217 -152.5t124 -244t39 -323.5q0 -37 -4 -88t-15.5 -109.5t-32 -122t-55.5 -124.5q-25 -43 -63.5 -93.5t-106 -93.5t-169 -71.5t-250.5 -28.5h-328zM422 190h156q135 0 220 48.5t134 128t67.5 181t18.5 206.5q0 51 -5 108.5t-18.5 113.5 t-36 110.5t-59.5 97.5q-61 74 -149 101.5t-228 27.5h-100v-1123z" />
<glyph unicode="E" horiz-adv-x="1366" d="M246 0v1503h934v-184h-719v-436h530v-191h-526v-502h754v-190h-973z" />
<glyph unicode="F" horiz-adv-x="1251" d="M217 0v1503h926v-190h-711v-455h512v-190h-512v-668h-215z" />
<glyph unicode="G" horiz-adv-x="1366" d="M131 735q0 66 5 138.5t19.5 145.5t38 141.5t58.5 127.5q45 76 100.5 124t109.5 74.5t103 36t82 9.5q96 0 173 -29.5t134.5 -81t93 -117t52.5 -135.5l-195 -41q-8 25 -23.5 64t-44 75t-71.5 61.5t-107 25.5q-20 0 -56 -7.5t-76 -34t-79.5 -79.5t-66.5 -146 q-14 -49 -22.5 -107t-11.5 -109.5t-4 -86t-1 -36.5q0 -123 16.5 -235t63.5 -208q29 -59 63.5 -92t69.5 -48t63.5 -19.5t45.5 -4.5q43 0 76.5 10.5t60 24.5t44 28.5t25.5 24.5q31 35 47.5 68t25.5 65.5t11 67.5t4 72h-290v190h489v-723h-74l-47 94q-14 29 -24.5 41.5 t-20.5 12.5q-12 0 -26 -11q-6 -6 -15.5 -15t-17.5 -15q-16 -12 -42 -34t-64 -41t-87 -33.5t-108 -14.5q-23 0 -58.5 2t-79.5 17.5t-92.5 47t-95.5 91.5q-53 63 -87 146t-53.5 168t-26.5 166t-7 144z" />
<glyph unicode="H" horiz-adv-x="1478" d="M262 0v1503h209v-631h537v631h209v-1503h-209v692h-537v-692h-209z" />
<glyph unicode="I" horiz-adv-x="796" d="M162 0v133h127v1233h-127v137h473v-137h-133v-1233h133v-133h-473z" />
<glyph unicode="J" d="M12 375l213 82v-26q0 -53 7 -99q8 -58 31.5 -100t63.5 -64.5t101 -22.5q70 0 108.5 37t57 87t21.5 101.5t3 78.5v1054h216v-989q0 -111 -17.5 -212t-63.5 -178t-129 -123t-214 -46q-72 0 -134.5 21.5t-123.5 78.5q-41 39 -66 78t-39 79t-21.5 81t-13.5 82z" />
<glyph unicode="K" horiz-adv-x="1366" d="M231 0v1503h205v-1503h-205zM492 803l598 700h235v-30l-586 -662l596 -791v-20h-254z" />
<glyph unicode="L" horiz-adv-x="1251" d="M246 0v1503h207v-1313h694v-190h-901z" />
<glyph unicode="M" horiz-adv-x="1820" d="M258 0v1503h313l320 -1167q6 -18 18 -19q20 0 25 21l311 1165h318v-1503h-170v1356q0 18 -15 18q-14 0 -20 -14l-361 -1360h-172l-364 1372q-4 12 -15 12q-6 0 -12 -5t-6 -15v-1364h-170z" />
<glyph unicode="N" horiz-adv-x="1478" d="M238 0v1503h266l436 -966l9 -24t20.5 -51.5t21.5 -51.5l10 -23q4 -10 13.5 -34.5t18.5 -51.5t17.5 -51.5t12.5 -32.5q4 0 6 -1t6 -1q6 6 7 10t1 21q0 8 -1 29.5t-3 44t-3 43t-1 28.5q-4 72 -4 128v95v889h172v-1503h-262l-438 977q-20 47 -41 98t-37 96.5t-27.5 79 t-15.5 45.5q-2 2 -5 2t-5 2q-10 -8 -11.5 -11t-1.5 -11q0 -16 2 -60t3.5 -91.5t3.5 -85t2 -42.5v-999h-172z" />
<glyph unicode="O" horiz-adv-x="1251" d="M119 727q0 174 28.5 322.5t94.5 253.5q47 76 97 119.5t100 66t98.5 30t89.5 7.5q94 0 167.5 -32t128 -83t92.5 -116.5t60 -133.5q16 -49 27.5 -105.5t17.5 -111.5t9.5 -106.5t3.5 -89.5q0 -135 -23 -275.5t-79 -255.5t-154.5 -188.5t-249.5 -73.5q-139 0 -235.5 64.5 t-157 171t-88 245.5t-27.5 291zM334 733q0 -72 8 -173t38 -194.5t87 -159t156 -65.5q160 0 227.5 156.5t67.5 443.5q0 49 -3.5 114t-12.5 131.5t-27.5 131t-50 115.5t-79 82t-114.5 31q-98 0 -158.5 -62.5t-93.5 -169.5q-23 -68 -34 -165t-11 -216z" />
<glyph unicode="P" horiz-adv-x="1366" d="M252 0v1503h326q61 0 121.5 -3t120 -14t114.5 -31.5t104 -55.5q184 -129 185 -355q0 -72 -15.5 -126t-39 -94t-50 -68.5t-49.5 -46.5q-49 -39 -101.5 -60.5t-107.5 -33t-110.5 -14.5t-106.5 -3h-182v-598h-209zM461 778q20 -2 39.5 -2h42.5q94 0 177 8.5t144.5 37 t97 81.5t35.5 146q0 104 -49 160.5t-115.5 83t-135 30.5t-107.5 4h-129v-549z" />
<glyph unicode="Q" horiz-adv-x="1251" d="M119 727q0 174 28.5 322.5t94.5 253.5q47 76 97 119.5t100 66t98.5 30t89.5 7.5q94 0 167.5 -32t128 -83t92.5 -116.5t60 -133.5q16 -49 27.5 -105.5t17.5 -111.5t9.5 -106.5t3.5 -89.5q0 -88 -9.5 -179.5t-31 -178.5t-57.5 -165t-91 -137q25 -37 50.5 -60.5t52 -37 t56.5 -17.5t66 -4v-209q-39 0 -84 5.5t-91 27t-92 68.5t-87 133q-43 -20 -86 -29q-51 -10 -102 -10q-139 0 -235.5 64.5t-157 171t-88 245.5t-27.5 291zM334 733q0 -72 8 -173t38 -194.5t88 -159t157 -65.5q51 0 94 19l-139 219l104 74l141 -199q49 74 72 197.5t23 289.5 q0 49 -3.5 114t-12.5 131.5t-27.5 131t-50 115.5t-80 82t-115.5 31q-98 0 -158.5 -62.5t-93.5 -169.5q-23 -68 -34 -165t-11 -216z" />
<glyph unicode="R" horiz-adv-x="1366" d="M246 0v1503h463q158 0 257 -42t155.5 -104.5t77 -133t20.5 -127.5q0 -106 -32 -176t-79 -115t-103.5 -69.5t-107.5 -41.5l393 -694h-246l-356 668h-231v-668h-211zM455 829q43 0 90 -1h31q31 0 62 1q46 2 87 5.5t70 9.5q31 6 67.5 19.5t68.5 39t53.5 66.5t21.5 104 q0 133 -87.5 193.5t-256.5 60.5h-207v-498z" />
<glyph unicode="S" horiz-adv-x="1251" d="M133 303l180 113q16 -45 44 -93.5t70 -87t99.5 -64.5t132.5 -26q47 0 94.5 14.5t85.5 45.5t61.5 76t23.5 106q0 27 -6.5 55.5t-27 58t-56 59.5t-95.5 56l-266 121q-35 14 -70.5 36t-69.5 48.5t-61.5 56t-46.5 60.5q-16 29 -30.5 80t-14.5 129q0 86 34 156.5t92.5 122 t136 80t165.5 28.5q174 0 295 -83t191 -237l-176 -104q-27 51 -53.5 96t-62.5 77t-82 50.5t-112 18.5q-35 0 -74.5 -10.5t-74.5 -34t-57.5 -61.5t-22.5 -93q0 -51 18.5 -88t45 -62.5t54 -41t46.5 -23.5l299 -135q18 -10 47 -25.5t60.5 -40t62 -57.5t55.5 -74 q14 -27 32.5 -73t18.5 -130q0 -215 -147 -340q-47 -41 -92 -62t-87 -30.5t-79 -11.5t-68 -2q-35 0 -78 6t-89 20.5t-92 37t-85 55.5q-72 59 -106.5 116.5t-61.5 110.5z" />
<glyph unicode="T" horiz-adv-x="1251" d="M82 1313v190h1089v-190h-436v-1313h-215v1313h-438z" />
<glyph unicode="U" horiz-adv-x="1478" d="M262 512v991h209v-1001q0 -61 9 -124t40 -115t86.5 -85t147.5 -33q53 0 120.5 28t108.5 101q31 61 38 139.5t7 139.5v950h189v-1009q0 -111 -28 -218.5t-106 -185.5q-45 -47 -94 -73.5t-98 -41t-96 -17.5t-88 -3q-29 0 -72 6t-91 24.5t-97.5 53.5t-88.5 92 q-63 92 -79.5 185.5t-16.5 195.5z" />
<glyph unicode="V" horiz-adv-x="1366" d="M86 1503h219l377 -1190q4 -12 14 -12q4 0 9.5 4t7.5 8l366 1190h203l-481 -1503h-226z" />
<glyph unicode="W" horiz-adv-x="1933" d="M92 1503h201l160 -655q4 -16 14 -65.5t21.5 -109t23.5 -117.5t18 -95q4 -20 10.5 -52t12.5 -65t10 -58.5t6 -33.5t8.5 -15.5t12.5 -7.5q10 0 15 10.5t9 30.5q6 25 14.5 67t17.5 90t17.5 95t14.5 82q4 23 11 54.5t15.5 66.5t16.5 68.5t14 60.5l158 649h172l156 -626 q18 -74 31.5 -127.5t25.5 -111.5t27.5 -135t37.5 -198q8 -43 12.5 -60.5t16.5 -17.5t17 13q4 10 5 27.5t3 29.5q25 131 39 212t26.5 141.5t24.5 117.5t33 141l139 594h184l-375 -1503h-219l-143 563q-10 41 -18.5 77t-14.5 65q-2 8 -5 25.5t-6 37.5t-6 37.5t-5 23.5l-56 289 q-4 25 -8 48.5t-8 45.5q0 10 -10 11q-4 0 -8.5 -3t-4.5 -8l-16 -94q-23 -139 -47.5 -269t-58.5 -271l-138 -578h-219z" />
<glyph unicode="X" horiz-adv-x="1366" d="M63 0l482 774l-475 729h245l256 -413q6 -10 19.5 -36t29 -53.5t27.5 -49t15 -21.5q4 -2 12 -2t35 57q33 63 49 93t35 61l217 364h225l-453 -717l521 -786h-254l-234 375q-4 4 -21.5 33.5t-38 65.5t-39 66.5t-20.5 37.5q-12 29 -17 39t-15 10t-17.5 -13.5t-32.5 -54.5 q-25 -43 -57.5 -103.5t-58.5 -103.5l-211 -352h-224z" />
<glyph unicode="Y" horiz-adv-x="1366" d="M70 1501h245l318 -614q2 -4 9 -19.5t15.5 -33t15.5 -32.5l7 -14l14 -18h15q4 8 13 26.5t19.5 40t18.5 40t12 24.5l311 602h215l-495 -911v-592h-221v582z" />
<glyph unicode="Z" horiz-adv-x="1251" d="M117 0v154l594 979q16 25 31.5 48t31.5 48q8 10 19.5 25.5t19.5 27.5q8 8 12 23q-4 10 -16 12q-8 4 -23.5 4h-27.5q-10 0 -35 -1t-55.5 -3t-63.5 -3t-55 -1h-408v190h961v-129l-453 -743q-37 -61 -67.5 -110.5t-56 -89.5t-49 -74.5t-48.5 -71.5q-14 -23 -22.5 -36 t-12.5 -22.5t-5 -15.5t-3 -16l8 -11q10 -6 18.5 -6t16.5 2q16 4 40 4t40 2q39 2 76 3t73 1h480v-190h-1020z" />
<glyph unicode="[" horiz-adv-x="796" d="M119 -14v1521l592 -14v-84l-422 8v-1343l422 6v-82z" />
<glyph unicode="\" horiz-adv-x="569" d="M-45 1526h174l485 -1571h-172z" />
<glyph unicode="]" horiz-adv-x="796" d="M86 -2v82l422 -6v1343l-422 -8v84l592 14v-1521z" />
<glyph unicode="^" horiz-adv-x="1228" d="M80 504l455 930h155l459 -930h-172l-365 753l-360 -753h-172z" />
<glyph unicode="_" d="M0 -154h1024v-102h-1024v102z" />
<glyph unicode="`" horiz-adv-x="569" d="M2 1464h223l183 -288h-138z" />
<glyph unicode="a" d="M49 242q0 100 43 175t115 128q88 66 205.5 91.5t251.5 27.5v139q0 16 -3.5 40.5t-18.5 48t-49 41t-97 17.5q-80 0 -160 -34.5t-150 -77.5l-80 137q49 27 94.5 49.5t92.5 38.5t98 25.5t117 9.5q57 0 127 -16.5t119 -55.5q57 -45 77.5 -105.5t20.5 -140.5v-540q0 -20 1 -42 t10 -39.5t27.5 -27.5t53.5 -8v-146q-68 4 -118 14.5t-91 57.5q-12 12 -30.5 41t-22.5 66l-6 4q-4 -4 -14.5 -12.5t-20.5 -19.5t-19.5 -20.5t-13.5 -11.5q-47 -41 -86 -63.5t-73.5 -34.5t-68.5 -15t-71 -3q-57 0 -104 21.5t-82 58t-54.5 83.5t-19.5 99zM236 279 q0 -68 43 -118t116 -50q45 0 85 16t74 38.5t61.5 49.5t48.5 47v293q-84 0 -162 -17.5t-137.5 -51t-94 -86t-34.5 -121.5z" />
<glyph unicode="b" d="M123 33v1427l180 70v-606q0 -8 8 -17l21 2q23 37 35 55.5t22 30.5q12 14 29.5 31.5t41 33t56.5 26t76 10.5q76 0 139.5 -37t109.5 -108.5t71.5 -177t25.5 -245.5q0 -39 -5 -94t-18.5 -116.5t-38 -123t-62.5 -109.5t-93 -79t-131 -31q-61 0 -105.5 25t-76 58.5t-52 69.5 t-30.5 58q-8 16 -12.5 22.5t-12.5 6.5q-4 0 -8 -5t-4 -9l-4 -238zM299 526q0 -78 17.5 -149.5t50 -126.5t79 -89t105.5 -34q51 0 86 24.5t57.5 63.5t34.5 86t17.5 92t6.5 82t1 53q0 51 -5.5 123t-27 137.5t-63.5 112.5t-115 47q-27 0 -69 -17.5t-81 -63.5t-66.5 -129 t-27.5 -212z" />
<glyph unicode="c" horiz-adv-x="909" d="M72 518q0 39 2 88t12 104.5t31.5 115t62.5 114.5q35 49 74 79t78 46t73.5 22.5t63.5 6.5q16 0 49 -4.5t73 -16.5t81 -36.5t71 -67.5q29 -39 41.5 -58.5t28.5 -58.5l-156 -78q-6 18 -17 47t-32.5 56.5t-53.5 47t-79 19.5q-96 0 -159.5 -94t-63.5 -260q0 -68 6 -146.5 t27 -134.5q10 -29 27.5 -59.5t43 -56t59.5 -42t77 -16.5q84 0 127 61.5t55 143.5l164 -74q-27 -133 -118 -211t-228 -78q-102 0 -173 36t-118 91.5t-73 121t-38 126t-15 106.5t-3 60z" />
<glyph unicode="d" d="M76 559q0 86 18.5 181.5t58.5 175t105.5 132t161.5 52.5q47 0 81 -10.5t59.5 -29t48 -43t44.5 -52.5q4 -6 9.5 -13.5t9.5 -13.5q4 -4 10 -17.5t14 -13.5q14 0 15 23v534l180 68v-1493l-158 -68l-8 236q0 14 -12 14q-8 0 -12.5 -9t-12.5 -26q-2 -6 -17.5 -29.5t-38 -52 t-48 -56.5t-47.5 -40q-20 -10 -50 -19t-63 -9q-84 0 -149.5 41.5t-109.5 118.5t-66.5 183.5t-22.5 235.5zM260 516q0 -35 5 -99.5t25.5 -128t62.5 -109.5t116 -46q61 0 108.5 38t78 98.5t46 132t15.5 139.5q0 88 -18.5 163.5t-52.5 131t-79 86t-96 30.5q-59 0 -99 -32.5 t-64.5 -91t-36 -138.5t-11.5 -174z" />
<glyph unicode="e" d="M86 506q0 135 24.5 232.5t63.5 163t86 104t94 58t87 26t65 6.5q96 0 170 -38t125 -104.5t77.5 -153.5t28.5 -186l2 -98h-635q0 -90 13.5 -163.5t44 -126t80 -81t120.5 -28.5q47 0 82 10t61.5 23.5t44 29t30.5 27.5l106 -98q-27 -23 -56.5 -47.5t-70.5 -44t-94 -32 t-127 -12.5q-92 0 -170 36t-134.5 104.5t-87 167t-30.5 225.5zM281 641h444q0 70 -13.5 128t-40 101t-66.5 68t-95 25q-66 0 -116 -37t-77 -99q-25 -59 -29.5 -108t-6.5 -78z" />
<glyph unicode="f" horiz-adv-x="681" d="M84 862v119h149v236q0 55 10.5 114.5t69.5 118.5q49 49 109.5 62.5t101.5 13.5q31 0 75 -5t83 -24v-156q-23 10 -52.5 21.5t-70.5 11.5q-49 0 -76.5 -17.5t-40 -43t-14.5 -54t-2 -49.5v-225h188v-123h-188v-862h-193v862h-149z" />
<glyph unicode="g" d="M72 647q0 96 26.5 178t72.5 142.5t108.5 94.5t132.5 34q61 0 106 -14.5t77 -39t54.5 -54.5t38.5 -60q12 -23 15.5 -29t13.5 -10l12 8t6 18v160h148v-964q0 -23 -3 -50.5t-7.5 -54t-8.5 -47t-6 -29.5q0 -4 -9 -26.5t-29.5 -53t-54.5 -62.5t-85 -52q-23 -10 -82 -28.5 t-156 -18.5q-12 0 -38.5 1t-60.5 4t-74 10t-79 17v187h76q10 -14 23.5 -27.5t33 -25t49 -17.5t72.5 -6q37 0 68 7t52.5 16.5t34.5 16.5t15 9q33 23 51.5 54.5t26.5 64.5t9 62.5t1 48.5v155l-8 10q-10 0 -15 -6t-20 -30q-6 -12 -24.5 -35t-48 -44.5t-72.5 -36.5t-98 -15 q-104 0 -174 57t-109 135q-43 86 -52 174t-9 172zM254 573q0 -25 5 -78t26.5 -105t63.5 -92t116 -40q27 0 67.5 12.5t80.5 49t69 104.5t29 178q0 94 -19.5 161.5t-53.5 111t-78 63.5t-93 20q-80 0 -123 -47t-63.5 -110.5t-23.5 -128t-3 -99.5z" />
<glyph unicode="h" d="M137 0v1460l185 76v-631q0 -20 16 -20q8 0 22.5 21.5t28.5 41.5q59 90 130 120t140 30q115 0 164 -72t49 -188v-838h-182v831q0 59 -21.5 94.5t-80.5 35.5q-57 0 -119 -50q-41 -33 -80 -86t-67 -96v-729h-185z" />
<glyph unicode="i" horiz-adv-x="569" d="M166 1270v194h237v-194h-237zM195 0v1071h184v-1071h-184z" />
<glyph unicode="j" horiz-adv-x="569" d="M25 -113q31 -14 59.5 -25.5t52.5 -11.5q51 0 69.5 31t18.5 70v1120h187v-1132q0 -43 -11.5 -88.5t-40 -82t-78 -60t-126.5 -23.5h-28.5t-25 2t-31 4t-46.5 8v188zM205 1266v194h227v-194h-227z" />
<glyph unicode="k" d="M137 0v1460l152 66h28v-1526h-180zM352 543l385 528h209l-389 -516l408 -537v-18h-215z" />
<glyph unicode="l" horiz-adv-x="569" d="M193 0v1460l157 66h27v-1526h-184z" />
<glyph unicode="m" horiz-adv-x="1593" d="M154 0v1038l161 62v-252l13 -14q10 4 14 7t14 13q37 45 58.5 71.5t37 44t30 29t32.5 27.5q27 20 69 44t105 24q61 0 99 -22.5t58.5 -57.5t29 -77t12.5 -79l6 -4q2 0 3 1t3 1q10 4 17.5 15.5t15.5 19.5q55 59 99 98t83 62.5t74 34t76 10.5q20 0 66 -11.5t83 -62.5 q10 -16 17.5 -31.5t12.5 -42t7 -66.5t2 -102v-780h-176v762q0 33 -2 66.5t-12.5 61.5t-32 45t-62.5 17q-59 0 -121.5 -64.5t-154.5 -178.5v-709h-176v795q0 55 -9.5 85.5t-22.5 46t-30.5 19.5t-34.5 4q-29 0 -60.5 -15t-86.5 -69q-12 -12 -22.5 -22t-24.5 -27.5t-35.5 -46.5 t-58.5 -78v-692h-176z" />
<glyph unicode="n" d="M145 0v1030l168 68v-209q0 -6 4.5 -13.5t12.5 -7.5t17 9.5t18 19.5l41 55q47 66 111.5 102t146.5 36q37 0 72.5 -9.5t66.5 -31.5q16 -10 30.5 -26.5t24.5 -42.5t16.5 -66t6.5 -97v-817h-181v813q0 10 -2 33.5t-11 47.5t-31.5 42t-61.5 18q-37 0 -68.5 -16t-56.5 -36.5 t-40 -39t-19 -22.5q-47 -63 -63.5 -88t-16.5 -27v-725h-185z" />
<glyph unicode="o" d="M88 555q0 139 33 241.5t90 169t131 99.5t158 33q76 0 133 -18.5t100 -48.5t73 -67.5t50 -76.5q18 -35 32.5 -81t26 -94t16.5 -95.5t5 -86.5q0 -121 -29.5 -222t-85 -175t-135.5 -115t-178 -41q-70 0 -121 15.5t-87 39t-59.5 49t-37.5 44.5q-59 76 -87 183.5t-28 246.5z M268 522q0 -31 8.5 -95.5t33 -129t72.5 -112.5t128 -48q74 0 119 41t70.5 102.5t33.5 132t8 128.5q0 27 -2 60.5t-7 67t-12 66.5t-15 60q-18 53 -50 85.5t-69 49.5q-35 14 -78 14q-76 0 -123 -43t-72.5 -106.5t-35 -137t-9.5 -135.5z" />
<glyph unicode="p" d="M125 -358v1407l162 71v-229q0 -12 5 -18.5t9 -6.5q8 0 14 6q8 6 22.5 43t45.5 80t81 78t128 35q88 0 155.5 -48t104.5 -118q45 -84 66.5 -190.5t21.5 -198.5q0 -141 -27.5 -247.5t-74.5 -177.5t-110.5 -106.5t-133.5 -35.5q-53 0 -119.5 32.5t-114.5 104.5 q-23 35 -30.5 43t-14.5 8q-6 0 -8 -10t-2 -19v-503h-180zM299 551q0 -121 23.5 -199t61.5 -125t83 -65.5t88 -18.5q33 0 68.5 17.5t64.5 64.5t47.5 128t18.5 208q0 43 -5.5 109.5t-27 130t-63.5 109.5t-113 46q-59 0 -105.5 -37.5t-77 -96t-47 -131.5t-16.5 -140z" />
<glyph unicode="q" d="M72 528q0 154 28.5 263.5t76.5 180t108.5 103.5t126.5 33q63 0 109 -21.5t77 -53.5t51.5 -68.5t34.5 -69.5q8 -16 11 -20.5t14 -8.5l12 6q0 4 1 9.5t1 9.5v229l164 -71v-1407h-180v503q0 29 -13 29q-10 0 -13 -3t-9 -13q-49 -78 -112.5 -125t-141.5 -47 q-68 0 -130.5 33.5t-110.5 101t-76.5 170t-28.5 237.5zM254 557q0 -76 6 -141.5t35 -132.5q8 -20 20.5 -45t32 -46.5t48 -36t71.5 -14.5q68 0 115 38t75.5 96.5t41 128t12.5 135.5q0 104 -22.5 182t-57.5 130t-78 78.5t-86 26.5q-72 0 -115 -49t-64.5 -115.5t-27.5 -133 t-6 -101.5z" />
<glyph unicode="r" horiz-adv-x="796" d="M141 0v1030l172 70v-340q0 -10 3 -17.5t8 -7.5h22q4 6 13.5 19.5t19.5 30t18.5 29.5t12.5 20q51 76 100 126t89 80.5t68.5 43t39.5 16.5v-303q-35 6 -68 6q-96 0 -173 -56.5t-134 -134.5v-612h-191z" />
<glyph unicode="s" horiz-adv-x="796" d="M59 74l72 139q78 -61 131 -85t119 -24q88 0 135 51.5t47 116.5q0 33 -9 56.5t-33.5 45t-66.5 44t-108 55.5q-74 37 -125 71t-84 71.5t-47 80.5t-14 97q0 70 25.5 125t69.5 93t102.5 57t121.5 19q29 0 58.5 -2t64.5 -10t75 -24.5t89 -46.5l-53 -146q-59 43 -110.5 70.5 t-131.5 27.5q-43 0 -72.5 -12t-49 -32.5t-29 -45t-9.5 -51.5q0 -59 40 -94t89 -59l172 -87q23 -10 56.5 -29.5t65.5 -52t54.5 -82t22.5 -116.5q0 -72 -26.5 -131.5t-72.5 -102.5t-111.5 -66.5t-141.5 -23.5q-117 0 -193 36t-123 67z" />
<glyph unicode="t" horiz-adv-x="681" d="M25 868v117h153v244l172 166h21v-410h170v-117h-181v-637q0 -8 1 -23t10.5 -31.5t27 -29t52.5 -12.5q47 0 94 19.5t86 40.5v-162q-41 -23 -101.5 -38t-107.5 -15q-18 0 -59 6t-82 28.5t-73 68.5t-32 126v659h-151z" />
<glyph unicode="u" d="M147 246v825h185v-772q0 -20 2 -52t12 -62.5t32.5 -52t63.5 -21.5q68 0 124.5 64.5t133.5 174.5v721h179v-1036l-170 -62v199q0 6 -3.5 16.5t-9.5 10.5q-12 0 -18 -6q-18 -20 -41 -52t-45 -59q-47 -51 -105.5 -79t-124.5 -28q-43 0 -82.5 14.5t-68.5 47.5t-46.5 84 t-17.5 125z" />
<glyph unicode="v" horiz-adv-x="909" d="M59 1071h193l162 -696q4 -12 8 -37t8 -47q4 -16 6 -37t6 -33q2 -4 5.5 -9t9.5 -5h14q6 0 9 6l5 10q6 16 8.5 41t6.5 41q4 18 7 36.5t7 35.5l158 694h178l-277 -1071h-221z" />
<glyph unicode="w" horiz-adv-x="1478" d="M80 1071h180l129 -577l51 -289l17 -15q12 8 18 15l55 289l129 577h193l129 -569l53 -297q0 -4 3 -6t7 -6q16 12 19 24l51 291l119 563h166q0 -10 -2 -16l-273 -1055h-190l-109 494l-57 368q-2 12 -18 21q-14 -6 -17 -19l-71 -413l-105 -451h-190z" />
<glyph unicode="x" d="M78 0l325 539l-323 532h219l203 -383q2 -2 8 -6l8 4t6 6l201 379h205l-316 -520l332 -551h-215l-217 408q-4 4 -6 4q-2 -2 -5 -2t-5 -2l-215 -408h-205z" />
<glyph unicode="y" horiz-adv-x="909" d="M37 1071h194l160 -496q2 -10 9.5 -31.5t13.5 -45t12 -45t8 -29.5q8 -29 15.5 -52.5t13.5 -27.5l12 6q8 39 16.5 69t14.5 55.5t13 51t18 56.5l147 489h180l-338 -1057q-37 -117 -71.5 -190.5t-75.5 -113.5t-91 -54t-118 -14q-35 0 -59.5 4t-61.5 14v201h37q8 -10 30.5 -32 t76.5 -22q35 0 59 14.5t44.5 46.5t40 83t46.5 127z" />
<glyph unicode="z" horiz-adv-x="909" d="M94 0v137l340 541q33 51 70 107.5t69 88.5q6 6 12.5 13.5t6.5 17.5q0 6 -2 10q-6 4 -15 5l-108 -5h-352v156h686v-141l-471 -735q-6 -8 -11 -29q10 -10 14.5 -12t16.5 -2q8 0 42 2t73 3t76 3t51 2h215v-162h-713z" />
<glyph unicode="{" horiz-adv-x="681" d="M96 653v138q66 0 118 64.5t52 172.5v234q0 66 20.5 115.5t52.5 83.5t71 51.5t77 17.5h148v-127h-103q-31 0 -49 -15.5t-29.5 -40t-15.5 -56t-4 -64.5v-232q0 -72 -21.5 -122t-50 -81.5t-58.5 -48t-48 -18.5v-6q18 -4 48 -18.5t58.5 -46t50 -84t21.5 -130.5v-174 q0 -31 4 -62.5t15.5 -57t30 -41t48.5 -15.5h103v-127h-148q-39 0 -77.5 17.5t-70.5 51.5t-52.5 84t-20.5 115v177q0 55 -14 101t-38 77.5t-54.5 49t-63.5 17.5z" />
<glyph unicode="|" horiz-adv-x="454" d="M143 -512v2048h168v-2048h-168z" />
<glyph unicode="}" horiz-adv-x="681" d="M47 -37v127h103q31 0 49 15.5t29.5 41t15.5 57.5t4 62v174q0 78 21.5 130.5t50 84t58.5 46t48 18.5v6q-18 2 -48 18.5t-58.5 48t-50 82t-21.5 121.5v232q0 33 -4 64.5t-15.5 56t-30 40t-48.5 15.5h-103v127h148q39 0 77.5 -17.5t70.5 -51.5t52.5 -84t20.5 -115v-234 q0 -109 52 -173t118 -64v-138q-33 0 -63.5 -17.5t-54.5 -49t-38 -77.5t-14 -101v-177q0 -66 -20.5 -115.5t-52.5 -83.5t-71 -51.5t-77 -17.5h-148z" />
<glyph unicode="~" horiz-adv-x="1228" d="M121 477q49 76 111.5 130.5t158.5 54.5q74 0 132.5 -20.5t109.5 -49.5q53 -29 102 -49.5t103 -20.5q59 0 102 41t78 90l90 -106q-25 -39 -52.5 -73t-60 -58.5t-71.5 -37.5t-86 -11q-66 0 -121 22.5t-109 46.5q-53 25 -104 47.5t-113 22.5q-59 0 -102 -41t-74 -94z" />
<glyph unicode="&#xa1;" horiz-adv-x="796" d="M258 1022q0 61 43 101t98 40t98.5 -41t43.5 -100q0 -53 -39.5 -96t-100.5 -43q-70 0 -106.5 43t-36.5 96zM289 -358l2 125l39 878h131l39 -878l2 -125h-213z" />
<glyph unicode="&#xa2;" horiz-adv-x="1138" d="M174 -258l141 352q-51 53 -78.5 121t-41 130.5t-16.5 109.5t-3 63q0 39 2 88t12.5 104.5t32 115t62.5 114.5q35 49 73.5 79t77.5 46t74 22.5t63 6.5q16 0 52.5 -5.5t81.5 -21.5l96 238h108l-114 -285q14 -10 26.5 -22.5t24.5 -28.5q29 -39 41 -58.5t29 -58.5l-156 -78 q-4 14 -12.5 34.5t-20.5 41.5l-264 -662q27 -25 58.5 -39t72.5 -14q84 0 127 61.5t55 143.5l164 -74q-27 -133 -118 -211t-228 -78q-59 0 -107.5 13.5t-89.5 36.5l-114 -285h-111zM356 590q0 -68 6.5 -146.5t26.5 -134.5q2 -10 8 -14l254 633q-33 16 -71 16q-96 0 -160 -94 t-64 -260z" />
<glyph unicode="&#xa3;" horiz-adv-x="1138" d="M18 678v133h226q-12 68 -19.5 109t-10.5 69.5t-4 51t-1 53.5q0 86 26.5 165.5t80 140t134 97.5t191.5 37q51 0 102.5 -12.5t95.5 -30.5t81.5 -42t64.5 -44l-106 -180q-47 72 -108.5 110.5t-147.5 38.5q-82 0 -127 -32.5t-67.5 -74.5t-28 -82t-5.5 -55q0 -20 1 -36.5 t6.5 -46t16.5 -84t32 -152.5h321v-133h-299q0 -8 1 -27.5t2 -41t2 -41t1 -25.5q0 -102 -19.5 -171t-37.5 -120q27 -16 62.5 -35.5t74.5 -37t81 -29t85 -11.5q68 0 106.5 25.5t59 61.5t26 72t7.5 58h125q0 -35 -3.5 -77.5t-15.5 -89t-36.5 -90.5t-69.5 -81q-41 -35 -89.5 -47 t-101.5 -12q-20 0 -57 5t-87 22.5t-111.5 50.5t-129.5 88q-78 -86 -156.5 -125t-125.5 -37v217q47 8 89 33t74.5 67t51 98t18.5 128q0 55 -8 99t-17 73h-256z" />
<glyph unicode="&#xa4;" horiz-adv-x="1228" d="M51 184l201 201q-35 51 -55.5 114.5t-20.5 137.5t21.5 140.5t54.5 111.5l-201 201l115 110l196 -201q47 35 113 57.5t139 22.5q78 0 142.5 -22.5t109.5 -57.5l201 201l111 -110l-201 -201q35 -47 57.5 -112.5t22.5 -139.5t-22.5 -139.5t-57.5 -112.5l201 -201l-111 -110 l-201 200q-45 -33 -111.5 -54t-140.5 -21t-139 20.5t-113 54.5l-196 -200zM344 637q0 -57 20.5 -108.5t56.5 -90.5t85 -61.5t108 -22.5t109.5 22.5t87.5 61.5t57.5 90.5t20.5 108.5t-20.5 108.5t-57.5 91.5t-87.5 63.5t-109.5 23.5t-108 -23.5t-85 -63.5t-56.5 -91.5 t-20.5 -108.5z" />
<glyph unicode="&#xa5;" horiz-adv-x="1366" d="M248 324v127h334v335l-9 25h-325v127h266l-266 563h235l170 -409q16 -39 25.5 -78t19.5 -39q12 0 23.5 43t30.5 88l163 397h207l-258 -565h258v-127h-315l-4 -14v-346h319v-127h-319v-324h-221v324h-334z" />
<glyph unicode="&#xa6;" horiz-adv-x="454" d="M143 358h168v-716h-168v716zM143 666v716h168v-716h-168z" />
<glyph unicode="&#xa7;" horiz-adv-x="1138" d="M125 788q0 66 27.5 110t63.5 70.5t69.5 38t46.5 11.5q10 0 19 3t9 9q0 10 -38 29q-16 8 -38 26.5t-40.5 46t-31.5 62.5t-13 76q0 57 26.5 107t72.5 85t107.5 55.5t131.5 20.5q76 0 137 -19.5t109 -50t82 -67.5t53 -74l-146 -59q-29 47 -60.5 75.5t-62.5 45t-59.5 22.5 t-50.5 6q-59 0 -108.5 -33.5t-49.5 -97.5q0 -51 34 -88t107 -76q16 -10 39 -19t39 -18l180 -86q18 -10 53 -28.5t69 -51t59.5 -78.5t25.5 -108q0 -61 -24.5 -103t-59.5 -70t-73.5 -43t-67.5 -25v-7q2 -4 11 -11t20.5 -15t19.5 -15.5t12 -9.5q88 -80 88 -192 q0 -57 -22.5 -108.5t-67.5 -89.5t-112.5 -60.5t-155.5 -22.5q-20 0 -48 3t-60.5 11.5t-65.5 22.5t-64 35q-59 41 -88.5 79t-52.5 72l156 62q10 -20 26.5 -49t44 -54.5t68.5 -44t100 -18.5q57 0 93 17.5t55.5 40t26 47t6.5 38.5q0 33 -14.5 57.5t-35 43t-44 32t-40.5 19.5 l-192 82q-45 18 -97.5 46.5t-97.5 69.5t-75.5 94.5t-30.5 120.5zM270 825q0 -43 33 -80.5t62 -58.5q14 -10 41.5 -25.5t60.5 -31t63.5 -29.5t53.5 -22q29 -10 58.5 -17.5t62.5 -7.5q66 0 100.5 31t34.5 80q0 78 -53.5 125t-159.5 96q-53 25 -88 38t-58.5 20t-40 8t-34.5 1 q-72 0 -104 -41t-32 -86z" />
<glyph unicode="&#xa8;" horiz-adv-x="569" d="M27 1200v209h188v-209h-188zM356 1200v209h187v-209h-187z" />
<glyph unicode="&#xa9;" horiz-adv-x="1638" d="M63 719q0 162 61.5 298t166 234.5t242 152.5t288.5 54q150 0 287 -54t240.5 -152.5t165 -234.5t61.5 -298q0 -164 -61.5 -301t-165 -235.5t-240.5 -153t-287 -54.5q-152 0 -289 54.5t-241.5 153t-166 235.5t-61.5 301zM203 719q0 -131 48 -245t132 -199t196.5 -134 t241.5 -49t241 49t194.5 134t131 199t48.5 245q0 129 -48.5 242.5t-131 197.5t-194.5 133t-241 49t-241.5 -49t-196.5 -133t-132 -197.5t-48 -242.5zM414 721q0 96 29.5 178t85 142.5t134 94t179.5 33.5q141 0 242.5 -77.5t123.5 -229.5h-141q-16 78 -76.5 124t-148.5 46 q-66 0 -115 -23.5t-83 -64.5t-51.5 -97t-17.5 -124q0 -63 18.5 -120.5t54.5 -101.5t86 -69.5t112 -25.5q92 0 151.5 49t69.5 129h143q-14 -74 -47 -131.5t-81 -98.5t-108.5 -62.5t-127.5 -21.5q-98 0 -178 35t-136.5 95.5t-87 142.5t-30.5 178z" />
<glyph unicode="&#xaa;" horiz-adv-x="716" d="M33 1004q0 59 27.5 104t74.5 78q57 39 133 54t154 15v74q0 10 -2 25.5t-11.5 29t-30 23.5t-56.5 10q-51 0 -103.5 -19.5t-97.5 -37.5l-51 84q66 33 121 53.5t139 20.5q37 0 82 -10.5t77 -32.5q37 -29 50.5 -65t13.5 -83v-326q0 -12 1 -24t7 -22.5t18.5 -16.5t34.5 -6v-88 q-53 4 -85.5 9t-61.5 34q-8 8 -19.5 25.5t-15.5 39.5l-2 2q-4 -4 -17.5 -19t-17.5 -20q-59 -47 -103 -58t-91 -11q-74 0 -121 48t-47 110zM164 1026q0 -41 24.5 -71.5t57.5 -30.5q59 0 103 33.5t73 58.5v166q-111 -2 -184.5 -40t-73.5 -116z" />
<glyph unicode="&#xab;" horiz-adv-x="1138" d="M160 543l264 315h176l-270 -313l252 -320v-8h-172zM530 543l267 315h176l-271 -313l250 -320v-8h-170z" />
<glyph unicode="&#xac;" horiz-adv-x="1228" d="M98 647v168h1032v-592h-167v424h-865z" />
<glyph unicode="&#xad;" horiz-adv-x="681" d="M76 442v172h530v-172h-530z" />
<glyph unicode="&#xae;" horiz-adv-x="1638" d="M63 719q0 162 61.5 298t166 234.5t242 152.5t288.5 54q150 0 287 -54t240.5 -152.5t165 -234.5t61.5 -298q0 -164 -61.5 -301t-165 -235.5t-240.5 -153t-287 -54.5q-152 0 -289 54.5t-241.5 153t-166 235.5t-61.5 301zM203 719q0 -131 48 -245t132 -199t196.5 -134 t241.5 -49t241 49t194.5 134t131 199t48.5 245q0 129 -48.5 242.5t-131 197.5t-194.5 133t-241 49t-241.5 -49t-196.5 -133t-132 -197.5t-48 -242.5zM526 311v828h324q53 0 105.5 -9.5t92 -33t64.5 -63.5t25 -103q0 -78 -45 -131.5t-123 -69.5v-8q45 -6 70.5 -21.5t39 -39 t19.5 -54.5t10 -69q10 -53 18.5 -116t30.5 -110h-151q-6 35 -13.5 70t-11.5 70q-6 43 -10 81.5t-23 69.5q-16 31 -42.5 50.5t-63.5 19.5h-176v-361h-140zM666 782h176q84 0 115.5 37t31.5 90t-30.5 88t-116.5 35h-176v-250z" />
<glyph unicode="&#xaf;" horiz-adv-x="569" d="M-35 1245v119h639v-119h-639z" />
<glyph unicode="&#xb0;" horiz-adv-x="819" d="M104 1155q0 63 24 118.5t66 96.5t97 64.5t121 23.5q63 0 118.5 -23.5t96.5 -64.5t64.5 -96t23.5 -119q0 -66 -23.5 -121t-64.5 -97t-96.5 -65.5t-118.5 -23.5q-66 0 -121 23.5t-97 65.5t-66 97.5t-24 120.5zM203 1155q0 -45 16.5 -85t44 -70.5t65.5 -48t83 -17.5 q43 0 79.5 17.5t64.5 48t44 70.5t16 85q0 43 -16 82t-44 69.5t-64.5 48t-79.5 17.5q-45 0 -83 -17.5t-65.5 -48t-44 -69.5t-16.5 -82z" />
<glyph unicode="&#xb1;" horiz-adv-x="1228" d="M98 -74v168h1032v-168h-1032zM98 565v168h432v352h168v-352h432v-168h-432v-352h-168v352h-432z" />
<glyph unicode="&#xb2;" horiz-adv-x="819" d="M86 1343q29 55 60.5 91t86.5 65q47 27 92.5 34t73.5 7q31 0 82 -9t100.5 -38t84 -80t34.5 -135q0 -27 -10 -67t-37 -76q-10 -14 -24.5 -31t-36 -37t-54 -46t-79.5 -58l-105 -74q-41 -29 -62.5 -57.5t-25.5 -32.5q-12 -20 -14 -34.5t-6 -31.5h456v-110h-606q2 82 19.5 142 t51.5 108.5t84 91.5t116 92q35 25 69.5 51.5t62 54t45 58t17.5 61.5q0 23 -7 49.5t-25.5 48t-48 36t-72.5 14.5q-53 0 -116 -30t-102 -118z" />
<glyph unicode="&#xb3;" horiz-adv-x="819" d="M55 598v113q18 -2 32.5 -2h27.5q27 0 64.5 1t81.5 8t91 21.5t92 42.5q37 23 59.5 46.5t34 45t15.5 38t4 24.5q0 68 -45 98.5t-109 30.5q-18 0 -32.5 -2t-31.5 -6t-38.5 -10.5t-52.5 -16.5l-37 90q47 18 83 31.5t64.5 28t53 32t49.5 39.5q12 10 30.5 31t18.5 53 q0 49 -39 75t-80 26q-76 0 -130 -36t-120 -89l-71 92q18 16 46.5 39.5t69.5 45t93.5 37t119.5 15.5q100 0 172 -46t72 -142q0 -47 -22.5 -81t-53 -58.5t-63.5 -41t-51 -24.5q37 -2 86 -11.5t94 -50.5q41 -37 52 -78.5t11 -70.5q0 -61 -40 -131t-136 -123 q-59 -33 -122.5 -50.5t-125 -25.5t-118 -8h-99.5z" />
<glyph unicode="&#xb4;" horiz-adv-x="569" d="M137 1176l182 288h224l-269 -288h-137z" />
<glyph unicode="&#xb5;" horiz-adv-x="1179" d="M160 -393v1464h168v-686q0 -123 65.5 -194.5t186.5 -71.5q63 0 115.5 26.5t87 71.5t54 102.5t19.5 118.5v633h168v-1071h-168v156h-8q-47 -90 -122 -135.5t-167 -45.5q-72 0 -129 26t-100 81h-6l2 -8q2 -8 2 -27.5v-41v-40v-26.5v-332h-168z" />
<glyph unicode="&#xb6;" horiz-adv-x="1228" d="M59 1094q0 100 35 176t97.5 128t150.5 78.5t197 26.5h532v-1822h-168v1675h-237v-1675h-168v999q-100 0 -181 30.5t-138.5 86t-88.5 131.5t-31 166z" />
<glyph unicode="&#xb7;" horiz-adv-x="569" d="M143 770q0 61 43 99t97 38q57 0 100 -40t43 -99q0 -25 -9 -48.5t-27.5 -43t-45.5 -31.5t-59 -12q-57 0 -99.5 38t-42.5 99z" />
<glyph unicode="&#xb8;" horiz-adv-x="569" d="M31 -416l35 82q45 -16 71.5 -23.5t61.5 -7.5q18 0 38.5 3.5t38 12.5t28.5 26.5t11 43.5q0 25 -11 40.5t-26.5 24.5t-33 12t-27.5 3q-14 0 -30.5 -3t-49.5 -13l-35 39l129 176h99l-94 -127q16 4 29.5 6t33.5 2q49 0 83 -14t53.5 -38t27.5 -50.5t8 -50.5 q0 -86 -66.5 -137.5t-175.5 -51.5q-61 0 -111 15.5t-87 29.5z" />
<glyph unicode="&#xb9;" horiz-adv-x="819" d="M115 1413v109h362v-793h191v-106h-539v106h207v684h-221z" />
<glyph unicode="&#xba;" horiz-adv-x="716" d="M84 1194q0 84 21.5 145.5t58.5 101.5t85 59.5t103 19.5q129 0 206 -88.5t77 -253.5q0 -76 -20.5 -137.5t-57.5 -104.5t-88 -66.5t-113 -23.5q-127 0 -199.5 91t-72.5 257zM209 1176q0 -104 44 -162t105 -58q59 0 100.5 53.5t41.5 176.5q0 111 -35 171t-109 60 q-61 0 -104 -56t-43 -185z" />
<glyph unicode="&#xbb;" horiz-adv-x="1138" d="M166 858h174l266 -315l-252 -326h-170v8l250 320zM537 858h176l266 -315l-252 -326h-170v8l250 320z" />
<glyph unicode="&#xbc;" horiz-adv-x="2048" d="M104 1419v103h363v-799h190v-100h-538v100h213v696h-228zM541 -27l891 1565h131l-889 -1565h-133zM1249 250v137l314 514h215v-547h108v-104h-108v-250h-127v250h-402zM1348 352h301v486h-13l-288 -478q-4 -4 0 -8z" />
<glyph unicode="&#xbd;" horiz-adv-x="2048" d="M88 1419v103h363v-799h190v-100h-539v100h213v696h-227zM524 -27l891 1565h131l-889 -1565h-133zM1343 721q29 55 61 91t87 65q47 27 92 34t74 7q31 0 82 -9.5t100 -38t84 -80t35 -135.5q0 -27 -10.5 -66.5t-36.5 -76.5q-10 -14 -24.5 -30.5t-36 -37t-54.5 -46t-80 -58.5 l-104 -74q-41 -29 -62.5 -57.5t-25.5 -32.5q-12 -20 -14.5 -34.5t-6.5 -30.5h457v-111h-606q2 82 19.5 142.5t51 108.5t84 91t115.5 92q35 25 70 51.5t62.5 54t45 58.5t17.5 61q0 23 -7.5 49.5t-26 48t-48 36t-72.5 14.5q-53 0 -115.5 -29.5t-101.5 -118.5z" />
<glyph unicode="&#xbe;" horiz-adv-x="2048" d="M141 598v107q18 -2 33.5 -2.5t32.5 -0.5q27 0 64.5 1.5t81.5 8.5t91.5 21.5t92.5 42.5q74 45 93 92t19 74q0 68 -46 98.5t-114 30.5q-37 0 -64.5 -7t-84.5 -28l-37 84q47 18 83 31.5t64.5 28t53 32t49.5 39.5q12 10 30.5 32t18.5 58q0 49 -40 75t-91 26q-76 0 -130 -36 t-114 -89l-71 86q18 16 46.5 39.5t69.5 45t93.5 37t119.5 15.5q100 0 172 -46t72 -142q0 -47 -22.5 -81t-53 -58.5t-63.5 -41t-51 -24.5q37 -2 86 -11.5t94 -50.5q41 -37 52 -78.5t11 -70.5q0 -61 -40 -131t-136 -123q-59 -33 -122.5 -50.5t-125 -25.5t-118 -8h-99.5z M610 -27l891 1565h131l-889 -1565h-133zM1360 250v137l313 514h215v-547h109v-104h-109v-250h-127v250h-401zM1458 352h301v486h-12l-289 -478q-4 -4 0 -8z" />
<glyph unicode="&#xbf;" d="M158 -23q0 47 9 83t25.5 66t37 56.5t42.5 53.5q49 57 79 93t46.5 56.5t23.5 31.5t13 21q27 55 31 125t2 123h172q2 -94 -7 -165.5t-31.5 -130t-55.5 -108t-76 -98.5q-33 -37 -54.5 -63.5t-34.5 -50t-18.5 -47t-5.5 -56.5q0 -70 47.5 -119t126.5 -49q53 0 89 20.5 t59.5 49.5t36 59.5t18.5 53.5l191 -70q-10 -20 -23.5 -48t-37 -57.5t-57.5 -60.5t-85 -55q-31 -16 -73 -28.5t-126 -12.5q-37 0 -98.5 12t-120.5 47t-102 99.5t-43 168.5zM410 1036q0 41 15 69t37.5 45t48.5 24.5t44 7.5q59 0 101 -43t42 -101q0 -49 -36.5 -93t-104.5 -44 q-63 0 -105 40t-42 95z" />
<glyph unicode="&#xc0;" horiz-adv-x="1366" d="M70 0l485 1503h236l507 -1503h-219l-102 313h-594l-94 -313h-219zM401 1896h224l182 -288h-137zM436 487h482l-238 766q-4 8 -10 9q-6 0 -11 -11z" />
<glyph unicode="&#xc1;" horiz-adv-x="1366" d="M70 0l485 1503h236l507 -1503h-219l-102 313h-594l-94 -313h-219zM436 487h482l-238 766q-4 8 -10 9q-6 0 -11 -11zM537 1608l182 288h223l-268 -288h-137z" />
<glyph unicode="&#xc2;" horiz-adv-x="1366" d="M70 0l485 1503h236l507 -1503h-219l-102 313h-594l-94 -313h-219zM385 1608l205 288h188l205 -288h-164l-135 192l-135 -192h-164zM436 487h482l-238 766q-4 8 -10 9q-6 0 -11 -11z" />
<glyph unicode="&#xc3;" horiz-adv-x="1366" d="M70 0l485 1503h236l507 -1503h-219l-102 313h-594l-94 -313h-219zM336 1626q8 68 31.5 111t53.5 67.5t63.5 33.5t64.5 9q45 0 87 -13t95 -36q23 -10 36 -15t23.5 -7t18.5 -3t18 -1q47 0 71 23.5t30 68.5h104q-8 -72 -33.5 -115t-57.5 -67.5t-63.5 -33t-52.5 -8.5 q-29 0 -65.5 11.5t-106.5 34.5q-35 12 -54 18t-32.5 9t-21.5 4t-17 1q-27 0 -44 -10t-28.5 -23.5t-16.5 -30t-9 -28.5h-94zM436 487h482l-238 766q-4 8 -10 9q-6 0 -11 -11z" />
<glyph unicode="&#xc4;" horiz-adv-x="1366" d="M70 0l485 1503h236l507 -1503h-219l-102 313h-594l-94 -313h-219zM426 1632v209h188v-209h-188zM436 487h482l-238 766q-4 8 -10 9q-6 0 -11 -11zM756 1632v209h186v-209h-186z" />
<glyph unicode="&#xc5;" horiz-adv-x="1366" d="M70 0l485 1503h236l507 -1503h-219l-102 313h-594l-94 -313h-219zM436 487h482l-238 766q-4 8 -10 9q-6 0 -11 -11zM504 1796q0 39 14 72t39 57.5t58.5 38.5t72.5 14q76 0 128 -52t52 -130t-52 -131t-128 -53q-39 0 -72.5 14t-58.5 39t-39 58.5t-14 72.5zM592 1796 q0 -39 27.5 -68.5t68.5 -29.5q37 0 64.5 29.5t27.5 68.5q0 41 -27.5 69.5t-64.5 28.5q-41 0 -68.5 -28.5t-27.5 -69.5z" />
<glyph unicode="&#xc6;" horiz-adv-x="2048" d="M39 0l713 1503h1126v-184h-688v-442h493v-185h-493v-508h717v-184h-928v422h-518l-193 -422h-229zM539 592h438v760h-90z" />
<glyph unicode="&#xc7;" horiz-adv-x="1251" d="M129 737q0 129 20.5 268.5t77 254t155.5 188.5t259 74q72 0 158 -26t155 -97q39 -39 62.5 -80t38 -80t21.5 -74t11 -61l-196 -37q-6 59 -19.5 99t-29 65.5t-30.5 39t-28 23.5q-16 14 -50 31.5t-93 17.5q-55 0 -96 -19t-71 -49t-48 -63.5t-31 -64.5q-20 -51 -32.5 -111.5 t-18.5 -114t-8 -91t-2 -44.5q0 -123 13 -240.5t47 -208.5t94.5 -146.5t152.5 -55.5q45 0 79 14.5t58.5 33t40 38t21.5 29.5q31 53 40 110.5t13 94.5l205 -37q-6 -90 -40 -180.5t-102 -157.5q-37 -37 -76.5 -61.5t-76.5 -38t-71 -19.5t-58 -8l-60 -80q16 4 29.5 6t34.5 2 q49 0 83 -14t53.5 -38t27.5 -50.5t8 -50.5q0 -86 -66.5 -137.5t-175.5 -51.5q-61 0 -111.5 15.5t-86.5 29.5l34 82q45 -16 72 -23.5t62 -7.5q18 0 38.5 3.5t38 12.5t28.5 26.5t11 43.5q0 25 -11 40.5t-26.5 24.5t-33 12t-27.5 3q-14 0 -30.5 -3t-49.5 -13l-35 39l97 131 q-37 4 -84.5 18.5t-97.5 46t-98 87t-86 141.5t-60.5 206.5t-22.5 282.5z" />
<glyph unicode="&#xc8;" horiz-adv-x="1366" d="M246 0v1503h934v-184h-719v-436h530v-191h-526v-502h754v-190h-973zM401 1896h224l182 -288h-137z" />
<glyph unicode="&#xc9;" horiz-adv-x="1366" d="M246 0v1503h934v-184h-719v-436h530v-191h-526v-502h754v-190h-973zM537 1608l182 288h223l-268 -288h-137z" />
<glyph unicode="&#xca;" horiz-adv-x="1366" d="M246 0v1503h934v-184h-719v-436h530v-191h-526v-502h754v-190h-973zM385 1608l205 288h188l205 -288h-164l-135 192l-135 -192h-164z" />
<glyph unicode="&#xcb;" horiz-adv-x="1366" d="M246 0v1503h934v-184h-719v-436h530v-191h-526v-502h754v-190h-973zM426 1632v209h188v-209h-188zM756 1632v209h186v-209h-186z" />
<glyph unicode="&#xcc;" horiz-adv-x="796" d="M117 1896h223l182 -288h-137zM162 0v133h127v1233h-127v137h473v-137h-133v-1233h133v-133h-473z" />
<glyph unicode="&#xcd;" horiz-adv-x="796" d="M162 0v133h127v1233h-127v137h473v-137h-133v-1233h133v-133h-473zM252 1608l182 288h223l-268 -288h-137z" />
<glyph unicode="&#xce;" horiz-adv-x="796" d="M100 1608l205 288h189l204 -288h-163l-136 192l-135 -192h-164zM162 0v133h127v1233h-127v137h473v-137h-133v-1233h133v-133h-473z" />
<glyph unicode="&#xcf;" horiz-adv-x="796" d="M141 1632v209h189v-209h-189zM162 0v133h127v1233h-127v137h473v-137h-133v-1233h133v-133h-473zM471 1632v209h186v-209h-186z" />
<glyph unicode="&#xd0;" horiz-adv-x="1366" d="M74 692v180h139v631h326q186 0 318 -52t217 -152.5t124 -244t39 -323.5q0 -37 -4 -88t-15.5 -109.5t-32 -122t-55.5 -124.5q-25 -43 -63.5 -93.5t-106 -93.5t-169 -71.5t-250.5 -28.5h-328v692h-139zM422 190h156q135 0 220 48.5t134 128t67.5 181t18.5 206.5 q0 51 -5 108.5t-18.5 113.5t-36 110.5t-59.5 97.5q-61 74 -149 101.5t-228 27.5h-100v-441h237v-180h-237v-502z" />
<glyph unicode="&#xd1;" horiz-adv-x="1478" d="M238 0v1503h266l436 -966l9 -24t20.5 -51.5t21.5 -51.5l10 -23q4 -10 13.5 -34.5t18.5 -51.5t17.5 -51.5t12.5 -32.5q4 0 6 -1t6 -1q6 6 7 10t1 21q0 8 -1 29.5t-3 44t-3 43t-1 28.5q-4 72 -4 128v95v889h172v-1503h-262l-438 977q-20 47 -41 98t-37 96.5t-27.5 79 t-15.5 45.5q-2 2 -5 2t-5 2q-10 -8 -11.5 -11t-1.5 -11q0 -16 2 -60t3.5 -91.5t3.5 -85t2 -42.5v-999h-172zM391 1626q8 68 31.5 111t53.5 67.5t63.5 33.5t64.5 9q45 0 87 -13t95 -36q23 -10 36.5 -15t23.5 -7t18 -3t19 -1q47 0 70.5 23.5t29.5 68.5h104q-8 -72 -33.5 -115 t-57 -67.5t-63.5 -33t-52 -8.5q-29 0 -66 11.5t-106 34.5q-35 12 -54.5 18t-33 9t-21.5 4t-16 1q-27 0 -44.5 -10t-28.5 -23.5t-16.5 -30l-9.5 -28.5h-94z" />
<glyph unicode="&#xd2;" horiz-adv-x="1251" d="M119 727q0 174 28.5 322.5t94.5 253.5q47 76 97 119.5t100 66t98.5 30t89.5 7.5q94 0 167.5 -32t128 -83t92.5 -116.5t60 -133.5q16 -49 27.5 -105.5t17.5 -111.5t9.5 -106.5t3.5 -89.5q0 -135 -23 -275.5t-79 -255.5t-154.5 -188.5t-249.5 -73.5q-139 0 -235.5 64.5 t-157 171t-88 245.5t-27.5 291zM334 733q0 -72 8 -173t38 -194.5t87 -159t156 -65.5q160 0 227.5 156.5t67.5 443.5q0 49 -3.5 114t-12.5 131.5t-27.5 131t-50 115.5t-79 82t-114.5 31q-98 0 -158.5 -62.5t-93.5 -169.5q-23 -68 -34 -165t-11 -216zM344 1896h223l183 -288 h-138z" />
<glyph unicode="&#xd3;" horiz-adv-x="1251" d="M119 727q0 174 28.5 322.5t94.5 253.5q47 76 97 119.5t100 66t98.5 30t89.5 7.5q94 0 167.5 -32t128 -83t92.5 -116.5t60 -133.5q16 -49 27.5 -105.5t17.5 -111.5t9.5 -106.5t3.5 -89.5q0 -135 -23 -275.5t-79 -255.5t-154.5 -188.5t-249.5 -73.5q-139 0 -235.5 64.5 t-157 171t-88 245.5t-27.5 291zM334 733q0 -72 8 -173t38 -194.5t87 -159t156 -65.5q160 0 227.5 156.5t67.5 443.5q0 49 -3.5 114t-12.5 131.5t-27.5 131t-50 115.5t-79 82t-114.5 31q-98 0 -158.5 -62.5t-93.5 -169.5q-23 -68 -34 -165t-11 -216zM479 1608l183 288h223 l-269 -288h-137z" />
<glyph unicode="&#xd4;" horiz-adv-x="1251" d="M119 727q0 174 28.5 322.5t94.5 253.5q47 76 97 119.5t100 66t98.5 30t89.5 7.5q94 0 167.5 -32t128 -83t92.5 -116.5t60 -133.5q16 -49 27.5 -105.5t17.5 -111.5t9.5 -106.5t3.5 -89.5q0 -135 -23 -275.5t-79 -255.5t-154.5 -188.5t-249.5 -73.5q-139 0 -235.5 64.5 t-157 171t-88 245.5t-27.5 291zM328 1608l204 288h189l205 -288h-164l-135 192l-135 -192h-164zM334 733q0 -72 8 -173t38 -194.5t87 -159t156 -65.5q160 0 227.5 156.5t67.5 443.5q0 49 -3.5 114t-12.5 131.5t-27.5 131t-50 115.5t-79 82t-114.5 31q-98 0 -158.5 -62.5 t-93.5 -169.5q-23 -68 -34 -165t-11 -216z" />
<glyph unicode="&#xd5;" horiz-adv-x="1251" d="M119 727q0 174 28.5 322.5t94.5 253.5q47 76 97 119.5t100 66t98.5 30t89.5 7.5q94 0 167.5 -32t128 -83t92.5 -116.5t60 -133.5q16 -49 27.5 -105.5t17.5 -111.5t9.5 -106.5t3.5 -89.5q0 -135 -23 -275.5t-79 -255.5t-154.5 -188.5t-249.5 -73.5q-139 0 -235.5 64.5 t-157 171t-88 245.5t-27.5 291zM279 1626q8 68 31.5 111t53 67.5t63.5 33.5t65 9q45 0 87 -13t95 -36q23 -10 36 -15t23 -7t18.5 -3t18.5 -1q47 0 70.5 23.5t29.5 68.5h105q-8 -72 -34 -115t-57.5 -67.5t-63.5 -33t-52 -8.5q-29 0 -65.5 11.5t-106.5 34.5q-35 12 -54.5 18 t-32.5 9t-21.5 4t-16.5 1q-27 0 -44 -10t-28.5 -23.5t-16.5 -30t-9 -28.5h-94zM334 733q0 -72 8 -173t38 -194.5t87 -159t156 -65.5q160 0 227.5 156.5t67.5 443.5q0 49 -3.5 114t-12.5 131.5t-27.5 131t-50 115.5t-79 82t-114.5 31q-98 0 -158.5 -62.5t-93.5 -169.5 q-23 -68 -34 -165t-11 -216z" />
<glyph unicode="&#xd6;" horiz-adv-x="1251" d="M119 727q0 174 28.5 322.5t94.5 253.5q47 76 97 119.5t100 66t98.5 30t89.5 7.5q94 0 167.5 -32t128 -83t92.5 -116.5t60 -133.5q16 -49 27.5 -105.5t17.5 -111.5t9.5 -106.5t3.5 -89.5q0 -135 -23 -275.5t-79 -255.5t-154.5 -188.5t-249.5 -73.5q-139 0 -235.5 64.5 t-157 171t-88 245.5t-27.5 291zM334 733q0 -72 8 -173t38 -194.5t87 -159t156 -65.5q160 0 227.5 156.5t67.5 443.5q0 49 -3.5 114t-12.5 131.5t-27.5 131t-50 115.5t-79 82t-114.5 31q-98 0 -158.5 -62.5t-93.5 -169.5q-23 -68 -34 -165t-11 -216zM369 1632v209h188v-209 h-188zM698 1632v209h187v-209h-187z" />
<glyph unicode="&#xd7;" horiz-adv-x="1228" d="M133 152l367 366l-367 367l115 114l364 -366l369 366l115 -114l-369 -367l369 -366l-115 -115l-369 369l-364 -369z" />
<glyph unicode="&#xd8;" horiz-adv-x="1251" d="M57 -193l191 363q-68 109 -98.5 253t-30.5 304q0 174 28.5 322.5t94.5 253.5q47 76 97 119.5t100 66t98.5 30t89.5 7.5q88 0 155.5 -26.5t120.5 -72.5l103 197h161l-163 -313q47 -72 71 -150q16 -49 27.5 -105.5t17.5 -111.5t9.5 -106.5t3.5 -89.5q0 -135 -23 -275.5 t-79 -255.5t-154.5 -188.5t-249.5 -73.5q-86 0 -157 25.5t-124 72.5l-127 -246h-162zM334 733q0 -66 6 -155t29 -175l442 848q-31 43 -75 69t-105 26q-98 0 -158.5 -62.5t-93.5 -169.5q-23 -68 -34 -165t-11 -216zM442 236q33 -43 77 -69t104 -26q160 0 227.5 157t67.5 443 q0 68 -6.5 160t-28.5 180z" />
<glyph unicode="&#xd9;" horiz-adv-x="1478" d="M262 512v991h209v-1001q0 -61 9 -124t40 -115t86.5 -85t147.5 -33q53 0 120.5 28t108.5 101q31 61 38 139.5t7 139.5v950h189v-1009q0 -111 -28 -218.5t-106 -185.5q-45 -47 -94 -73.5t-98 -41t-96 -17.5t-88 -3q-29 0 -72 6t-91 24.5t-97.5 53.5t-88.5 92 q-63 92 -79.5 185.5t-16.5 195.5zM457 1896h223l182 -288h-137z" />
<glyph unicode="&#xda;" horiz-adv-x="1478" d="M262 512v991h209v-1001q0 -61 9 -124t40 -115t86.5 -85t147.5 -33q53 0 120.5 28t108.5 101q31 61 38 139.5t7 139.5v950h189v-1009q0 -111 -28 -218.5t-106 -185.5q-45 -47 -94 -73.5t-98 -41t-96 -17.5t-88 -3q-29 0 -72 6t-91 24.5t-97.5 53.5t-88.5 92 q-63 92 -79.5 185.5t-16.5 195.5zM592 1608l182 288h223l-268 -288h-137z" />
<glyph unicode="&#xdb;" horiz-adv-x="1478" d="M262 512v991h209v-1001q0 -61 9 -124t40 -115t86.5 -85t147.5 -33q53 0 120.5 28t108.5 101q31 61 38 139.5t7 139.5v950h189v-1009q0 -111 -28 -218.5t-106 -185.5q-45 -47 -94 -73.5t-98 -41t-96 -17.5t-88 -3q-29 0 -72 6t-91 24.5t-97.5 53.5t-88.5 92 q-63 92 -79.5 185.5t-16.5 195.5zM440 1608l205 288h189l204 -288h-164l-135 192l-135 -192h-164z" />
<glyph unicode="&#xdc;" horiz-adv-x="1478" d="M262 512v991h209v-1001q0 -61 9 -124t40 -115t86.5 -85t147.5 -33q53 0 120.5 28t108.5 101q31 61 38 139.5t7 139.5v950h189v-1009q0 -111 -28 -218.5t-106 -185.5q-45 -47 -94 -73.5t-98 -41t-96 -17.5t-88 -3q-29 0 -72 6t-91 24.5t-97.5 53.5t-88.5 92 q-63 92 -79.5 185.5t-16.5 195.5zM481 1632v209h189v-209h-189zM811 1632v209h186v-209h-186z" />
<glyph unicode="&#xdd;" horiz-adv-x="1366" d="M70 1501h245l318 -614q2 -4 9 -19.5t15.5 -33t15.5 -32.5l7 -14l14 -18h15q4 8 13 26.5t19.5 40t18.5 40t12 24.5l311 602h215l-495 -911v-592h-221v582zM537 1608l182 288h223l-268 -288h-137z" />
<glyph unicode="&#xde;" horiz-adv-x="1366" d="M252 0v1503h209v-256h117q61 0 121.5 -3t120 -14t114.5 -31.5t104 -55.5q184 -129 185 -355q0 -72 -15.5 -126t-39 -94t-50 -68.5t-49.5 -46.5q-49 -39 -101.5 -60.5t-107.5 -33t-110.5 -14.5t-106.5 -3h-182v-342h-209zM461 522q20 -2 39.5 -2h42.5q94 0 177 8.5 t144.5 37t97 81.5t35.5 146q0 104 -49 160.5t-115.5 83t-135 30.5t-107.5 4h-129v-549z" />
<glyph unicode="&#xdf;" horiz-adv-x="1138" d="M180 0l2 1038q0 43 2 91.5t13.5 96.5t33 95t60.5 90q41 43 108.5 78t167.5 35q68 0 135.5 -21.5t122 -66.5t87 -115t32.5 -166q0 -90 -31.5 -150.5t-71.5 -99.5t-76 -56.5t-46 -21.5v-4q10 -8 15 -10t30 -10q27 -8 73 -33t90 -74t76.5 -123.5t32.5 -183.5 q0 -92 -23.5 -169t-68.5 -132t-107.5 -85t-138.5 -30q-55 0 -90 8.5t-63 18.5v162q27 -14 49 -21.5t63 -7.5q59 0 97.5 25.5t59 65.5t27.5 89t7 95q0 92 -20.5 144t-45.5 81q-27 33 -57.5 51t-60 27.5t-57 11.5t-48.5 2v168q18 2 44 7t51.5 17.5t49 37t39.5 65.5 q10 25 16.5 56.5t6.5 60.5q0 43 -12.5 85t-37 74.5t-61.5 53t-86 20.5q-59 0 -99 -21.5t-63.5 -60.5t-32.5 -90t-9 -108v-1090h-185z" />
<glyph unicode="&#xe0;" d="M49 242q0 100 43 175t115 128q88 66 205.5 91.5t251.5 27.5v139q0 16 -3.5 40.5t-18.5 48t-49 41t-97 17.5q-80 0 -160 -34.5t-150 -77.5l-80 137q49 27 94.5 49.5t92.5 38.5t98 25.5t117 9.5q57 0 127 -16.5t119 -55.5q57 -45 77.5 -105.5t20.5 -140.5v-540q0 -20 1 -42 t10 -39.5t27.5 -27.5t53.5 -8v-146q-68 4 -118 14.5t-91 57.5q-12 12 -30.5 41t-22.5 66l-6 4q-4 -4 -14.5 -12.5t-20.5 -19.5t-19.5 -20.5t-13.5 -11.5q-47 -41 -86 -63.5t-73.5 -34.5t-68.5 -15t-71 -3q-57 0 -104 21.5t-82 58t-54.5 83.5t-19.5 99zM229 1464h224 l182 -288h-137zM236 279q0 -68 43 -118t116 -50q45 0 85 16t74 38.5t61.5 49.5t48.5 47v293q-84 0 -162 -17.5t-137.5 -51t-94 -86t-34.5 -121.5z" />
<glyph unicode="&#xe1;" d="M49 242q0 100 43 175t115 128q88 66 205.5 91.5t251.5 27.5v139q0 16 -3.5 40.5t-18.5 48t-49 41t-97 17.5q-80 0 -160 -34.5t-150 -77.5l-80 137q49 27 94.5 49.5t92.5 38.5t98 25.5t117 9.5q57 0 127 -16.5t119 -55.5q57 -45 77.5 -105.5t20.5 -140.5v-540q0 -20 1 -42 t10 -39.5t27.5 -27.5t53.5 -8v-146q-68 4 -118 14.5t-91 57.5q-12 12 -30.5 41t-22.5 66l-6 4q-4 -4 -14.5 -12.5t-20.5 -19.5t-19.5 -20.5t-13.5 -11.5q-47 -41 -86 -63.5t-73.5 -34.5t-68.5 -15t-71 -3q-57 0 -104 21.5t-82 58t-54.5 83.5t-19.5 99zM236 279 q0 -68 43 -118t116 -50q45 0 85 16t74 38.5t61.5 49.5t48.5 47v293q-84 0 -162 -17.5t-137.5 -51t-94 -86t-34.5 -121.5zM365 1176l182 288h223l-268 -288h-137z" />
<glyph unicode="&#xe2;" d="M49 242q0 100 43 175t115 128q88 66 205.5 91.5t251.5 27.5v139q0 16 -3.5 40.5t-18.5 48t-49 41t-97 17.5q-80 0 -160 -34.5t-150 -77.5l-80 137q49 27 94.5 49.5t92.5 38.5t98 25.5t117 9.5q57 0 127 -16.5t119 -55.5q57 -45 77.5 -105.5t20.5 -140.5v-540q0 -20 1 -42 t10 -39.5t27.5 -27.5t53.5 -8v-146q-68 4 -118 14.5t-91 57.5q-12 12 -30.5 41t-22.5 66l-6 4q-4 -4 -14.5 -12.5t-20.5 -19.5t-19.5 -20.5t-13.5 -11.5q-47 -41 -86 -63.5t-73.5 -34.5t-68.5 -15t-71 -3q-57 0 -104 21.5t-82 58t-54.5 83.5t-19.5 99zM213 1176l205 288h188 l205 -288h-164l-135 192l-135 -192h-164zM236 279q0 -68 43 -118t116 -50q45 0 85 16t74 38.5t61.5 49.5t48.5 47v293q-84 0 -162 -17.5t-137.5 -51t-94 -86t-34.5 -121.5z" />
<glyph unicode="&#xe3;" d="M49 242q0 100 43 175t115 128q88 66 205.5 91.5t251.5 27.5v139q0 16 -3.5 40.5t-18.5 48t-49 41t-97 17.5q-80 0 -160 -34.5t-150 -77.5l-80 137q49 27 94.5 49.5t92.5 38.5t98 25.5t117 9.5q57 0 127 -16.5t119 -55.5q57 -45 77.5 -105.5t20.5 -140.5v-540q0 -20 1 -42 t10 -39.5t27.5 -27.5t53.5 -8v-146q-68 4 -118 14.5t-91 57.5q-12 12 -30.5 41t-22.5 66l-6 4q-4 -4 -14.5 -12.5t-20.5 -19.5t-19.5 -20.5t-13.5 -11.5q-47 -41 -86 -63.5t-73.5 -34.5t-68.5 -15t-71 -3q-57 0 -104 21.5t-82 58t-54.5 83.5t-19.5 99zM164 1194 q8 68 31.5 111t53.5 67.5t63.5 33.5t64.5 9q45 0 87 -13t95 -36q23 -10 36 -15t23.5 -7.5t18.5 -3.5t18 -1q47 0 71 23.5t30 69.5h104q-8 -72 -33.5 -115t-57.5 -67.5t-63.5 -33t-52.5 -8.5q-29 0 -65.5 11.5t-106.5 33.5q-35 12 -54 18.5t-32.5 9.5t-21.5 4t-17 1 q-27 0 -44 -10t-28.5 -23.5t-16.5 -30t-9 -28.5h-94zM236 279q0 -68 43 -118t116 -50q45 0 85 16t74 38.5t61.5 49.5t48.5 47v293q-84 0 -162 -17.5t-137.5 -51t-94 -86t-34.5 -121.5z" />
<glyph unicode="&#xe4;" d="M49 242q0 100 43 175t115 128q88 66 205.5 91.5t251.5 27.5v139q0 16 -3.5 40.5t-18.5 48t-49 41t-97 17.5q-80 0 -160 -34.5t-150 -77.5l-80 137q49 27 94.5 49.5t92.5 38.5t98 25.5t117 9.5q57 0 127 -16.5t119 -55.5q57 -45 77.5 -105.5t20.5 -140.5v-540q0 -20 1 -42 t10 -39.5t27.5 -27.5t53.5 -8v-146q-68 4 -118 14.5t-91 57.5q-12 12 -30.5 41t-22.5 66l-6 4q-4 -4 -14.5 -12.5t-20.5 -19.5t-19.5 -20.5t-13.5 -11.5q-47 -41 -86 -63.5t-73.5 -34.5t-68.5 -15t-71 -3q-57 0 -104 21.5t-82 58t-54.5 83.5t-19.5 99zM236 279 q0 -68 43 -118t116 -50q45 0 85 16t74 38.5t61.5 49.5t48.5 47v293q-84 0 -162 -17.5t-137.5 -51t-94 -86t-34.5 -121.5zM254 1200v209h188v-209h-188zM584 1200v209h186v-209h-186z" />
<glyph unicode="&#xe5;" d="M49 242q0 100 43 175t115 128q88 66 205.5 91.5t251.5 27.5v139q0 16 -3.5 40.5t-18.5 48t-49 41t-97 17.5q-80 0 -160 -34.5t-150 -77.5l-80 137q49 27 94.5 49.5t92.5 38.5t98 25.5t117 9.5q57 0 127 -16.5t119 -55.5q57 -45 77.5 -105.5t20.5 -140.5v-540q0 -20 1 -42 t10 -39.5t27.5 -27.5t53.5 -8v-146q-68 4 -118 14.5t-91 57.5q-12 12 -30.5 41t-22.5 66l-6 4q-4 -4 -14.5 -12.5t-20.5 -19.5t-19.5 -20.5t-13.5 -11.5q-47 -41 -86 -63.5t-73.5 -34.5t-68.5 -15t-71 -3q-57 0 -104 21.5t-82 58t-54.5 83.5t-19.5 99zM236 279 q0 -68 43 -118t116 -50q45 0 85 16t74 38.5t61.5 49.5t48.5 47v293q-84 0 -162 -17.5t-137.5 -51t-94 -86t-34.5 -121.5zM332 1364q0 39 14 71.5t39 57.5t58.5 39t72.5 14q76 0 128 -52t52 -130t-52 -131t-128 -53q-39 0 -72.5 14t-58.5 38.5t-39 58.5t-14 73zM420 1364 q0 -39 27.5 -68.5t68.5 -29.5q37 0 64.5 29.5t27.5 68.5q0 41 -27.5 69.5t-64.5 28.5q-41 0 -68.5 -28.5t-27.5 -69.5z" />
<glyph unicode="&#xe6;" horiz-adv-x="1593" d="M96 258q0 76 27 132t62.5 96t69.5 63.5t50 32.5q92 47 193.5 62t206.5 20v139q0 14 -3.5 39.5t-18.5 49t-51 41t-100 17.5q-47 0 -124.5 -22.5t-171.5 -93.5l-82 141q86 49 165.5 84t188.5 35q70 0 147.5 -23.5t135.5 -64.5q8 -8 18 -9q6 0 22.5 12.5t20.5 16.5 q39 27 86 48.5t137 21.5q63 0 131 -24.5t129 -84.5q45 -45 73 -101.5t41 -109.5t18.5 -97t5.5 -65l2 -98h-635q-2 -82 12 -154.5t46 -127t84 -86t126 -31.5q55 0 109.5 23.5t95.5 66.5l106 -98q-18 -16 -47 -40t-70.5 -45.5t-98 -36t-128.5 -14.5q-70 0 -124 18.5t-94 45 t-64.5 52.5t-32.5 42q-4 8 -10.5 14.5t-10.5 6.5q-10 0 -14 -2q-86 -86 -173 -129.5t-183 -43.5q-12 0 -36 2.5t-50.5 10.5t-54 22.5t-50.5 36.5q-47 49 -64.5 107.5t-17.5 101.5zM285 283q0 -27 8 -56.5t26.5 -55.5t48 -43t74.5 -17t84 15t73 38.5t60.5 49.5t45.5 44v297 q-92 -2 -169 -20.5t-133.5 -54.5t-87 -85t-30.5 -112zM844 641h446q-4 66 -15 129.5t-58 120.5q-27 31 -63 50.5t-83 19.5q-80 0 -124 -41t-66.5 -94.5t-28.5 -106.5t-8 -78z" />
<glyph unicode="&#xe7;" horiz-adv-x="909" d="M72 518q0 39 2 88t12 104.5t31.5 115t62.5 114.5q35 49 74 79t78 46t73.5 22.5t63.5 6.5q16 0 49 -4.5t73 -16.5t81 -36.5t71 -67.5q29 -39 41.5 -58.5t28.5 -58.5l-156 -78q-6 18 -17 47t-32.5 56.5t-53.5 47t-79 19.5q-96 0 -159.5 -94t-63.5 -260q0 -68 6 -146.5 t27 -134.5q10 -29 27.5 -59.5t43 -56t59.5 -42t77 -16.5q84 0 127 61.5t55 143.5l164 -74q-14 -70 -45 -123t-88 -100q-23 -18 -53.5 -30.5t-59.5 -20.5t-54.5 -11.5t-39.5 -3.5l-78 -104q16 4 29.5 6t33.5 2q49 0 83 -14t53.5 -38t27.5 -50.5t8 -50.5q0 -86 -66.5 -137.5 t-174.5 -51.5q-61 0 -111.5 15.5t-87.5 29.5l35 82q45 -16 71.5 -23.5t61.5 -7.5q18 0 38.5 3.5t38 12.5t29 26.5t11.5 43.5q0 25 -11.5 40.5t-27 24.5t-32.5 12t-28 3q-14 0 -30.5 -3t-48.5 -13l-35 39l119 162q-82 14 -138.5 56t-93.5 96.5t-57.5 115.5t-30.5 115.5 t-12 94.5t-2 54z" />
<glyph unicode="&#xe8;" d="M86 506q0 135 24.5 232.5t63.5 163t86 104t94 58t87 26t65 6.5q96 0 170 -38t125 -104.5t77.5 -153.5t28.5 -186l2 -98h-635q0 -90 13.5 -163.5t44 -126t80 -81t120.5 -28.5q47 0 82 10t61.5 23.5t44 29t30.5 27.5l106 -98q-27 -23 -56.5 -47.5t-70.5 -44t-94 -32 t-127 -12.5q-92 0 -170 36t-134.5 104.5t-87 167t-30.5 225.5zM229 1464h224l182 -288h-137zM281 641h444q0 70 -13.5 128t-40 101t-66.5 68t-95 25q-66 0 -116 -37t-77 -99q-25 -59 -29.5 -108t-6.5 -78z" />
<glyph unicode="&#xe9;" d="M86 506q0 135 24.5 232.5t63.5 163t86 104t94 58t87 26t65 6.5q96 0 170 -38t125 -104.5t77.5 -153.5t28.5 -186l2 -98h-635q0 -90 13.5 -163.5t44 -126t80 -81t120.5 -28.5q47 0 82 10t61.5 23.5t44 29t30.5 27.5l106 -98q-27 -23 -56.5 -47.5t-70.5 -44t-94 -32 t-127 -12.5q-92 0 -170 36t-134.5 104.5t-87 167t-30.5 225.5zM281 641h444q0 70 -13.5 128t-40 101t-66.5 68t-95 25q-66 0 -116 -37t-77 -99q-25 -59 -29.5 -108t-6.5 -78zM365 1176l182 288h223l-268 -288h-137z" />
<glyph unicode="&#xea;" d="M86 506q0 135 24.5 232.5t63.5 163t86 104t94 58t87 26t65 6.5q96 0 170 -38t125 -104.5t77.5 -153.5t28.5 -186l2 -98h-635q0 -90 13.5 -163.5t44 -126t80 -81t120.5 -28.5q47 0 82 10t61.5 23.5t44 29t30.5 27.5l106 -98q-27 -23 -56.5 -47.5t-70.5 -44t-94 -32 t-127 -12.5q-92 0 -170 36t-134.5 104.5t-87 167t-30.5 225.5zM213 1176l205 288h188l205 -288h-164l-135 192l-135 -192h-164zM281 641h444q0 70 -13.5 128t-40 101t-66.5 68t-95 25q-66 0 -116 -37t-77 -99q-25 -59 -29.5 -108t-6.5 -78z" />
<glyph unicode="&#xeb;" d="M86 506q0 135 24.5 232.5t63.5 163t86 104t94 58t87 26t65 6.5q96 0 170 -38t125 -104.5t77.5 -153.5t28.5 -186l2 -98h-635q0 -90 13.5 -163.5t44 -126t80 -81t120.5 -28.5q47 0 82 10t61.5 23.5t44 29t30.5 27.5l106 -98q-27 -23 -56.5 -47.5t-70.5 -44t-94 -32 t-127 -12.5q-92 0 -170 36t-134.5 104.5t-87 167t-30.5 225.5zM254 1200v209h188v-209h-188zM281 641h444q0 70 -13.5 128t-40 101t-66.5 68t-95 25q-66 0 -116 -37t-77 -99q-25 -59 -29.5 -108t-6.5 -78zM584 1200v209h186v-209h-186z" />
<glyph unicode="&#xec;" horiz-adv-x="569" d="M2 1464h223l183 -288h-138zM193 0v1071h184v-1071h-184z" />
<glyph unicode="&#xed;" horiz-adv-x="569" d="M137 1176l182 288h224l-269 -288h-137zM193 0v1071h184v-1071h-184z" />
<glyph unicode="&#xee;" horiz-adv-x="569" d="M-14 1176l204 288h189l205 -288h-164l-135 192l-135 -192h-164zM193 0v1071h184v-1071h-184z" />
<glyph unicode="&#xef;" horiz-adv-x="569" d="M27 1200v209h188v-209h-188zM193 0v1071h184v-1071h-184zM356 1200v209h187v-209h-187z" />
<glyph unicode="&#xf0;" d="M88 555q0 139 33 241.5t90 169t131 99.5t158 33q70 0 118 -34t87 -87q6 -6 12 -6q8 0 8 8q-23 86 -49.5 165t-67.5 148l-239 -86l-41 72l237 86q-33 47 -68.5 88t-70.5 80l125 37q80 -78 141 -158l234 82l41 -72l-226 -80q49 -78 86 -172t61.5 -199.5t36 -217 t11.5 -222.5q0 -27 -4 -78t-19.5 -112t-44 -125.5t-76 -117t-117 -86.5t-167.5 -34q-70 0 -121 15.5t-87 39t-59.5 49t-37.5 44.5q-43 53 -66.5 116.5t-34 124t-12.5 110.5t-2 79zM268 522q0 -31 8.5 -95.5t33 -129t72.5 -112.5t128 -48q74 0 119 41t70.5 102.5t33.5 132 t8 128.5q0 27 -2 60.5t-7 67t-12 66.5t-15 60q-18 53 -50 85.5t-69 49.5q-35 14 -78 14q-76 0 -123 -43t-72.5 -106.5t-35 -137t-9.5 -135.5z" />
<glyph unicode="&#xf1;" d="M145 0v1030l168 68v-209q0 -6 4.5 -13.5t12.5 -7.5t17 9.5t18 19.5l41 55q47 66 111.5 102t146.5 36q37 0 72.5 -9.5t66.5 -31.5q16 -10 30.5 -26.5t24.5 -42.5t16.5 -66t6.5 -97v-817h-181v813q0 10 -2 33.5t-11 47.5t-31.5 42t-61.5 18q-37 0 -68.5 -16t-56.5 -36.5 t-40 -39t-19 -22.5q-47 -63 -63.5 -88t-16.5 -27v-725h-185zM164 1194q8 68 31.5 111t53.5 67.5t63.5 33.5t64.5 9q45 0 87 -13t95 -36q23 -10 36 -15t23.5 -7.5t18.5 -3.5t18 -1q47 0 71 23.5t30 69.5h104q-8 -72 -33.5 -115t-57.5 -67.5t-63.5 -33t-52.5 -8.5 q-29 0 -65.5 11.5t-106.5 33.5q-35 12 -54 18.5t-32.5 9.5t-21.5 4t-17 1q-27 0 -44 -10t-28.5 -23.5t-16.5 -30t-9 -28.5h-94z" />
<glyph unicode="&#xf2;" d="M88 555q0 139 33 241.5t90 169t131 99.5t158 33q76 0 133 -18.5t100 -48.5t73 -67.5t50 -76.5q18 -35 32.5 -81t26 -94t16.5 -95.5t5 -86.5q0 -121 -29.5 -222t-85 -175t-135.5 -115t-178 -41q-70 0 -121 15.5t-87 39t-59.5 49t-37.5 44.5q-59 76 -87 183.5t-28 246.5z M229 1464h224l182 -288h-137zM268 522q0 -31 8.5 -95.5t33 -129t72.5 -112.5t128 -48q74 0 119 41t70.5 102.5t33.5 132t8 128.5q0 27 -2 60.5t-7 67t-12 66.5t-15 60q-18 53 -50 85.5t-69 49.5q-35 14 -78 14q-76 0 -123 -43t-72.5 -106.5t-35 -137t-9.5 -135.5z" />
<glyph unicode="&#xf3;" d="M88 555q0 139 33 241.5t90 169t131 99.5t158 33q76 0 133 -18.5t100 -48.5t73 -67.5t50 -76.5q18 -35 32.5 -81t26 -94t16.5 -95.5t5 -86.5q0 -121 -29.5 -222t-85 -175t-135.5 -115t-178 -41q-70 0 -121 15.5t-87 39t-59.5 49t-37.5 44.5q-59 76 -87 183.5t-28 246.5z M268 522q0 -31 8.5 -95.5t33 -129t72.5 -112.5t128 -48q74 0 119 41t70.5 102.5t33.5 132t8 128.5q0 27 -2 60.5t-7 67t-12 66.5t-15 60q-18 53 -50 85.5t-69 49.5q-35 14 -78 14q-76 0 -123 -43t-72.5 -106.5t-35 -137t-9.5 -135.5zM365 1176l182 288h223l-268 -288h-137z " />
<glyph unicode="&#xf4;" d="M88 555q0 139 33 241.5t90 169t131 99.5t158 33q76 0 133 -18.5t100 -48.5t73 -67.5t50 -76.5q18 -35 32.5 -81t26 -94t16.5 -95.5t5 -86.5q0 -121 -29.5 -222t-85 -175t-135.5 -115t-178 -41q-70 0 -121 15.5t-87 39t-59.5 49t-37.5 44.5q-59 76 -87 183.5t-28 246.5z M213 1176l205 288h188l205 -288h-164l-135 192l-135 -192h-164zM268 522q0 -31 8.5 -95.5t33 -129t72.5 -112.5t128 -48q74 0 119 41t70.5 102.5t33.5 132t8 128.5q0 27 -2 60.5t-7 67t-12 66.5t-15 60q-18 53 -50 85.5t-69 49.5q-35 14 -78 14q-76 0 -123 -43t-72.5 -106.5 t-35 -137t-9.5 -135.5z" />
<glyph unicode="&#xf5;" d="M88 555q0 139 33 241.5t90 169t131 99.5t158 33q76 0 133 -18.5t100 -48.5t73 -67.5t50 -76.5q18 -35 32.5 -81t26 -94t16.5 -95.5t5 -86.5q0 -121 -29.5 -222t-85 -175t-135.5 -115t-178 -41q-70 0 -121 15.5t-87 39t-59.5 49t-37.5 44.5q-59 76 -87 183.5t-28 246.5z M164 1194q8 68 31.5 111t53.5 67.5t63.5 33.5t64.5 9q45 0 87 -13t95 -36q23 -10 36 -15t23.5 -7.5t18.5 -3.5t18 -1q47 0 71 23.5t30 69.5h104q-8 -72 -33.5 -115t-57.5 -67.5t-63.5 -33t-52.5 -8.5q-29 0 -65.5 11.5t-106.5 33.5q-35 12 -54 18.5t-32.5 9.5t-21.5 4t-17 1 q-27 0 -44 -10t-28.5 -23.5t-16.5 -30t-9 -28.5h-94zM268 522q0 -31 8.5 -95.5t33 -129t72.5 -112.5t128 -48q74 0 119 41t70.5 102.5t33.5 132t8 128.5q0 27 -2 60.5t-7 67t-12 66.5t-15 60q-18 53 -50 85.5t-69 49.5q-35 14 -78 14q-76 0 -123 -43t-72.5 -106.5t-35 -137 t-9.5 -135.5z" />
<glyph unicode="&#xf6;" d="M88 555q0 139 33 241.5t90 169t131 99.5t158 33q76 0 133 -18.5t100 -48.5t73 -67.5t50 -76.5q18 -35 32.5 -81t26 -94t16.5 -95.5t5 -86.5q0 -121 -29.5 -222t-85 -175t-135.5 -115t-178 -41q-70 0 -121 15.5t-87 39t-59.5 49t-37.5 44.5q-59 76 -87 183.5t-28 246.5z M254 1200v209h188v-209h-188zM268 522q0 -31 8.5 -95.5t33 -129t72.5 -112.5t128 -48q74 0 119 41t70.5 102.5t33.5 132t8 128.5q0 27 -2 60.5t-7 67t-12 66.5t-15 60q-18 53 -50 85.5t-69 49.5q-35 14 -78 14q-76 0 -123 -43t-72.5 -106.5t-35 -137t-9.5 -135.5zM584 1200 v209h186v-209h-186z" />
<glyph unicode="&#xf7;" horiz-adv-x="1228" d="M98 434v168h1032v-168h-1032zM467 94q0 61 44 104.5t103 43.5t103.5 -44t44.5 -104q0 -29 -12.5 -54.5t-32 -47t-46 -33.5t-55.5 -12q-59 0 -104 44t-45 103zM467 942q0 61 44 104.5t103 43.5t103.5 -44.5t44.5 -103.5q0 -29 -12.5 -54.5t-32 -47t-46 -33.5t-55.5 -12 q-59 0 -104 44t-45 103z" />
<glyph unicode="&#xf8;" d="M47 -121l156 246q-43 53 -66.5 116.5t-34 124t-12.5 110.5t-2 79q0 139 33 241.5t90 169t131 99.5t158 33q90 0 152.5 -24.5t107.5 -63.5l96 151h162l-168 -264q4 -4 4 -6t2 -4q18 -35 33.5 -81t26 -94t15.5 -95.5t5 -86.5q0 -27 -4 -78t-19.5 -112t-44 -125.5t-76 -117 t-117 -86.5t-167.5 -34q-70 0 -121 16.5t-86 39.5l-98 -154h-156zM268 522q0 -31 8.5 -95.5t34.5 -129.5l357 565q-33 47 -82 68q-35 14 -78 14q-76 0 -123 -43t-72.5 -106.5t-35 -137t-9.5 -135.5zM393 178q51 -41 117 -41q74 0 119 41t70.5 102.5t33.5 132t8 128.5 q0 35 -3 78t-11 83z" />
<glyph unicode="&#xf9;" d="M147 246v825h185v-772q0 -20 2 -52t12 -62.5t32.5 -52t63.5 -21.5q68 0 124.5 64.5t133.5 174.5v721h179v-1036l-170 -62v199q0 6 -3.5 16.5t-9.5 10.5q-12 0 -18 -6q-18 -20 -41 -52t-45 -59q-47 -51 -105.5 -79t-124.5 -28q-43 0 -82.5 14.5t-68.5 47.5t-46.5 84 t-17.5 125zM229 1464h224l182 -288h-137z" />
<glyph unicode="&#xfa;" d="M147 246v825h185v-772q0 -20 2 -52t12 -62.5t32.5 -52t63.5 -21.5q68 0 124.5 64.5t133.5 174.5v721h179v-1036l-170 -62v199q0 6 -3.5 16.5t-9.5 10.5q-12 0 -18 -6q-18 -20 -41 -52t-45 -59q-47 -51 -105.5 -79t-124.5 -28q-43 0 -82.5 14.5t-68.5 47.5t-46.5 84 t-17.5 125zM365 1176l182 288h223l-268 -288h-137z" />
<glyph unicode="&#xfb;" d="M147 246v825h185v-772q0 -20 2 -52t12 -62.5t32.5 -52t63.5 -21.5q68 0 124.5 64.5t133.5 174.5v721h179v-1036l-170 -62v199q0 6 -3.5 16.5t-9.5 10.5q-12 0 -18 -6q-18 -20 -41 -52t-45 -59q-47 -51 -105.5 -79t-124.5 -28q-43 0 -82.5 14.5t-68.5 47.5t-46.5 84 t-17.5 125zM213 1176l205 288h188l205 -288h-164l-135 192l-135 -192h-164z" />
<glyph unicode="&#xfc;" d="M147 246v825h185v-772q0 -20 2 -52t12 -62.5t32.5 -52t63.5 -21.5q68 0 124.5 64.5t133.5 174.5v721h179v-1036l-170 -62v199q0 6 -3.5 16.5t-9.5 10.5q-12 0 -18 -6q-18 -20 -41 -52t-45 -59q-47 -51 -105.5 -79t-124.5 -28q-43 0 -82.5 14.5t-68.5 47.5t-46.5 84 t-17.5 125zM254 1200v209h188v-209h-188zM584 1200v209h186v-209h-186z" />
<glyph unicode="&#xfd;" horiz-adv-x="909" d="M37 1071h194l160 -496q2 -10 9.5 -31.5t13.5 -45t12 -45t8 -29.5q8 -29 15.5 -52.5t13.5 -27.5l12 6q8 39 16.5 69t14.5 55.5t13 51t18 56.5l147 489h180l-338 -1057q-37 -117 -71.5 -190.5t-75.5 -113.5t-91 -54t-118 -14q-35 0 -59.5 4t-61.5 14v201h37q8 -10 30.5 -32 t76.5 -22q35 0 59 14.5t44.5 46.5t40 83t46.5 127zM307 1176l182 288h224l-269 -288h-137z" />
<glyph unicode="&#xfe;" d="M125 -358v1816l162 72v-639q0 -12 5 -18.5t9 -6.5q8 0 14 6q8 6 22.5 43t45.5 80t81 78t128 35q88 0 155.5 -48t104.5 -118q45 -84 66.5 -190.5t21.5 -198.5q0 -141 -27.5 -247.5t-74.5 -177.5t-110.5 -106.5t-133.5 -35.5q-53 0 -119.5 32.5t-114.5 104.5 q-23 35 -30.5 43t-14.5 8q-6 0 -8 -10t-2 -19v-503h-180zM299 551q0 -121 23.5 -199t61.5 -125t83 -65.5t88 -18.5q33 0 68.5 17.5t64.5 64.5t47.5 128t18.5 208q0 43 -5.5 109.5t-27 130t-63.5 109.5t-113 46q-59 0 -105.5 -37.5t-77 -96t-47 -131.5t-16.5 -140z" />
<glyph unicode="&#xff;" horiz-adv-x="909" d="M37 1071h194l160 -496q2 -10 9.5 -31.5t13.5 -45t12 -45t8 -29.5q8 -29 15.5 -52.5t13.5 -27.5l12 6q8 39 16.5 69t14.5 55.5t13 51t18 56.5l147 489h180l-338 -1057q-37 -117 -71.5 -190.5t-75.5 -113.5t-91 -54t-118 -14q-35 0 -59.5 4t-61.5 14v201h37q8 -10 30.5 -32 t76.5 -22q35 0 59 14.5t44.5 46.5t40 83t46.5 127zM197 1200v209h188v-209h-188zM526 1200v209h187v-209h-187z" />
<glyph unicode="&#x152;" horiz-adv-x="1933" d="M82 717q0 55 4 147t28.5 193.5t79 199t152.5 162.5q49 31 93 48.5t85 25.5t82 9t82 1h1114v-184h-692v-442h498v-185h-498v-502h721v-190h-1196q-158 0 -276.5 75t-188.5 212q-27 51 -44 113.5t-26.5 122t-13.5 110.5t-4 84zM299 719q0 -37 3 -81t9 -88t16.5 -87 t24.5 -78q12 -31 36 -64.5t59.5 -63.5t87 -48.5t118.5 -18.5q133 0 188.5 51.5t55.5 178.5v696q0 106 -56.5 150.5t-160.5 44.5q-137 0 -214 -60.5t-114 -149.5t-45 -192.5t-8 -189.5z" />
<glyph unicode="&#x153;" horiz-adv-x="1593" d="M104 518q0 39 2.5 96.5t15.5 121t42 128t82 117.5q68 68 141.5 93.5t144.5 25.5q86 0 161 -35t112 -82q12 -16 16 -18t8 -2q2 0 11 4q41 47 117.5 88t170.5 41q39 0 84 -10.5t90.5 -34t85 -60.5t68.5 -90q25 -49 39 -90t22.5 -85t10.5 -94t6 -116h-635 q-2 -78 10.5 -150.5t42 -128t79.5 -88t124 -32.5q43 0 77 9t60.5 22.5t46 30t33.5 28.5l107 -98q-25 -23 -55.5 -46.5t-69.5 -44t-91.5 -33t-119.5 -12.5q-84 0 -165 33t-132 86q-10 10 -14.5 13.5t-8.5 3.5h-4q-25 -29 -58.5 -55.5t-72.5 -43.5q-37 -16 -79 -24.5t-95 -8.5 q-98 0 -175 41t-129 113t-79 171t-27 216zM287 520q0 -33 6 -95.5t30.5 -124.5t75 -108.5t136.5 -46.5q78 0 122.5 46.5t66 110t27 128.5t5.5 102q0 84 -10.5 159t-37 131.5t-71.5 89t-113 32.5q-76 0 -116.5 -37t-63.5 -78t-34 -85t-16 -86t-6 -77.5t-1 -60.5zM903 641h447 q-4 53 -9.5 93t-13.5 72t-23.5 56.5t-39.5 46.5q-29 27 -63 39.5t-66 12.5q-35 0 -74 -16.5t-73 -54.5t-58.5 -99.5t-26.5 -149.5z" />
<glyph unicode="&#x178;" horiz-adv-x="1366" d="M70 1501h245l318 -614q2 -4 9 -19.5t15.5 -33t15.5 -32.5l7 -14l14 -18h15q4 8 13 26.5t19.5 40t18.5 40t12 24.5l311 602h215l-495 -911v-592h-221v582zM426 1632v209h188v-209h-188zM756 1632v209h186v-209h-186z" />
<glyph unicode="&#x2c6;" horiz-adv-x="569" d="M-14 1176l204 288h189l205 -288h-164l-135 192l-135 -192h-164z" />
<glyph unicode="&#x2dc;" horiz-adv-x="569" d="M-63 1194q8 68 31.5 111t53 67.5t63.5 33.5t65 9q45 0 87 -13t95 -36q23 -10 36 -15t23 -7.5t18.5 -3.5t18.5 -1q47 0 70.5 23.5t29.5 69.5h105q-8 -72 -34 -115t-57.5 -67.5t-63.5 -33t-52 -8.5q-29 0 -65.5 11.5t-106.5 33.5q-35 12 -54.5 18.5t-32.5 9.5t-21.5 4 t-16.5 1q-27 0 -44 -10t-28.5 -23.5t-16.5 -30t-9 -28.5h-94z" />
<glyph unicode="&#x2000;" horiz-adv-x="989" />
<glyph unicode="&#x2001;" horiz-adv-x="1978" />
<glyph unicode="&#x2002;" horiz-adv-x="989" />
<glyph unicode="&#x2003;" horiz-adv-x="1978" />
<glyph unicode="&#x2004;" horiz-adv-x="659" />
<glyph unicode="&#x2005;" horiz-adv-x="494" />
<glyph unicode="&#x2006;" horiz-adv-x="329" />
<glyph unicode="&#x2007;" horiz-adv-x="329" />
<glyph unicode="&#x2008;" horiz-adv-x="247" />
<glyph unicode="&#x2009;" horiz-adv-x="395" />
<glyph unicode="&#x200a;" horiz-adv-x="109" />
<glyph unicode="&#x2010;" horiz-adv-x="681" d="M76 442v172h530v-172h-530z" />
<glyph unicode="&#x2011;" horiz-adv-x="681" d="M76 442v172h530v-172h-530z" />
<glyph unicode="&#x2012;" horiz-adv-x="681" d="M76 442v172h530v-172h-530z" />
<glyph unicode="&#x2013;" d="M-2 465v123h1026v-123h-1026z" />
<glyph unicode="&#x2014;" horiz-adv-x="2048" d="M256 465v123h1536v-123h-1536z" />
<glyph unicode="&#x2018;" horiz-adv-x="569" d="M96 1526h176l236 -654h-170z" />
<glyph unicode="&#x2019;" horiz-adv-x="569" d="M61 872l236 654h176l-242 -654h-170z" />
<glyph unicode="&#x201a;" horiz-adv-x="569" d="M96 0l236 653h176l-242 -653h-170z" />
<glyph unicode="&#x201c;" horiz-adv-x="1138" d="M154 1526h176l233 -654h-168zM641 1526h174l236 -654h-168z" />
<glyph unicode="&#x201d;" horiz-adv-x="1138" d="M88 872l234 654h176l-242 -654h-168zM573 872l236 654h174l-242 -654h-168z" />
<glyph unicode="&#x201e;" horiz-adv-x="1138" d="M88 -440l234 653h176l-242 -653h-168zM573 -440l236 653h174l-242 -653h-168z" />
<glyph unicode="&#x2022;" d="M215 717q0 61 23.5 114.5t63.5 93.5t94.5 62.5t115.5 22.5t115.5 -22.5t94.5 -62.5t63.5 -93.5t23.5 -114.5q0 -63 -23.5 -117.5t-63.5 -95.5t-94.5 -64.5t-115.5 -23.5t-115.5 22.5t-94.5 63.5t-63.5 95t-23.5 120z" />
<glyph unicode="&#x2026;" horiz-adv-x="2048" d="M199 121q0 59 43 99t98 40q63 0 104 -42t41 -99q0 -20 -8 -44t-25.5 -43.5t-45 -32.5t-66.5 -13q-59 0 -100 37.5t-41 97.5zM881 121q0 59 43 99t98 40q63 0 104 -42t41 -99q0 -20 -8 -44t-25.5 -43.5t-45 -32.5t-66.5 -13q-59 0 -100 37.5t-41 97.5zM1563 121 q0 59 43 99t98 40q63 0 104 -42t41 -99q0 -20 -8 -44t-25.5 -43.5t-45 -32.5t-66.5 -13q-59 0 -100 37.5t-41 97.5z" />
<glyph unicode="&#x202f;" horiz-adv-x="395" />
<glyph unicode="&#x2039;" horiz-adv-x="796" d="M199 543l266 315h176l-270 -313l250 -320v-8h-170z" />
<glyph unicode="&#x203a;" horiz-adv-x="796" d="M156 217l270 313l-254 328h174l252 -326l-266 -315h-176z" />
<glyph unicode="&#x205f;" horiz-adv-x="494" />
<glyph unicode="&#x20ac;" horiz-adv-x="1138" d="M49 532l49 148h95q-2 16 -3.5 37.5t-1.5 42.5q0 20 1 39.5t4 36.5h-144l49 147h107q16 123 54 225.5t101.5 175t153.5 112.5t211 40q117 0 200 -28.5t124 -57.5v-188q-43 41 -116 70.5t-181 29.5q-82 0 -144.5 -27.5t-105.5 -78t-69.5 -120t-35.5 -153.5h568l-50 -147 h-536q0 -16 -1 -37t-1 -39q0 -23 1 -43.5t1 -36.5h483l-49 -148h-416q23 -193 112 -290t243 -97q109 0 179 30t118 71v-191q-35 -29 -117 -54.5t-207 -25.5q-213 0 -347 133.5t-171 423.5h-158z" />
<glyph unicode="&#x2122;" horiz-adv-x="2027" d="M119 1372v131h680v-131h-256v-713h-168v713h-256zM971 659v844h239l232 -598l229 598h238v-844h-156v664h-4l-252 -664h-115l-252 664h-4v-664h-155z" />
<glyph unicode="&#x25fc;" horiz-adv-x="1075" d="M0 0v1075h1075v-1075h-1075z" />
</font>
</defs>
</svg>
