<?xml version="1.0" standalone="no"?>
<!DOCTYPE svg PUBLIC "-//W3C//DTD SVG 1.1//EN" "http://www.w3.org/Graphics/SVG/1.1/DTD/svg11.dtd" >
<svg xmlns="http://www.w3.org/2000/svg">
<metadata></metadata>
<defs>
<font id="bellgothic_btroman" horiz-adv-x="1024" >
<font-face units-per-em="2048" ascent="1556" descent="-492" />
<missing-glyph horiz-adv-x="569" />
<glyph horiz-adv-x="2048" />
<glyph horiz-adv-x="2048" />
<glyph unicode="&#xd;" horiz-adv-x="569" />
<glyph unicode=" "  horiz-adv-x="569" />
<glyph unicode="&#x09;" horiz-adv-x="569" />
<glyph unicode="&#xa0;" horiz-adv-x="569" />
<glyph unicode="!" horiz-adv-x="797" d="M274 113q0 49 37 84.5t86 35.5q51 0 86 -35t35 -85t-36 -85.5t-85 -35.5t-86 36t-37 85zM324 1360h145l-27 -916h-92z" />
<glyph unicode="&#x22;" horiz-adv-x="551" d="M100 881v553h86v-553h-86zM365 881v553h86v-553h-86z" />
<glyph unicode="#" horiz-adv-x="1575" d="M129 494l31 90h336l100 282h-360l28 90h365l176 498h110l-174 -498h271l176 498h110l-174 -498h322l-31 -90h-323l-101 -282h348l-30 -90h-351l-174 -494h-112l176 494h-270l-179 -494h-110l174 494h-334zM610 584h269l100 282h-270z" />
<glyph unicode="$" horiz-adv-x="1139" d="M135 168l70 111q74 -73 151 -111.5t160 -44.5v498q-178 65 -261 148.5t-83 197.5q0 122 93 202.5t251 92.5v170h111v-170q92 -10 169.5 -43.5t145.5 -94.5l-65 -94q-59 54 -120 83.5t-130 37.5v-430q170 -42 265 -139t95 -228q0 -132 -94.5 -225t-265.5 -129v-266h-111 v266q-115 11 -209.5 52.5t-171.5 115.5zM299 977q0 -70 53 -123.5t164 -95.5v393q-104 -8 -160.5 -53.5t-56.5 -120.5zM627 123q110 23 166.5 80t56.5 145q0 81 -59.5 144.5t-163.5 93.5v-463z" />
<glyph unicode="%" horiz-adv-x="1720" d="M141 973q0 120 84.5 204.5t204.5 84.5q121 0 205 -84.5t84 -204.5q0 -121 -83.5 -205t-205.5 -84q-120 0 -204.5 84.5t-84.5 204.5zM250 973q0 -75 53 -128.5t127 -53.5q75 0 127.5 53t52.5 129q0 75 -52.5 127.5t-127.5 52.5t-127.5 -52.5t-52.5 -127.5zM393 -33 l824 1327h110l-823 -1327h-111zM1001 291q0 120 84.5 204.5t204.5 84.5q121 0 206 -84.5t85 -204.5q0 -121 -84.5 -206t-206.5 -85q-119 0 -204 85.5t-85 205.5zM1110 289q0 -75 53 -127.5t127 -52.5q76 0 129.5 52.5t53.5 127.5t-53.5 128.5t-129.5 53.5 q-75 0 -127.5 -53.5t-52.5 -128.5z" />
<glyph unicode="&#x26;" horiz-adv-x="1479" d="M176 367q0 139 77 244.5t241 191.5q-57 95 -84 170t-27 137q0 130 79 209.5t206 79.5t203.5 -73t76.5 -193q0 -106 -71.5 -199.5t-208.5 -167.5q75 -117 158 -226t173 -212q74 91 121.5 184t71.5 193l115 -46q-40 -129 -99 -232t-137 -183q65 -81 116.5 -114.5 t106.5 -33.5q22 0 49.5 6.5t61.5 18.5v-127q-30 -15 -56.5 -22t-54.5 -7q-80 0 -153.5 43.5t-151.5 136.5q-92 -90 -196 -137t-211 -47q-175 0 -290.5 115t-115.5 291zM319 379q0 -122 82 -207.5t195 -85.5q74 0 155.5 38t153.5 107q-84 97 -168 209t-182 258 q-121 -65 -178.5 -142.5t-57.5 -176.5zM514 1112q0 -46 25 -105.5t75 -136.5q104 55 155.5 119.5t51.5 140.5q0 73 -42 118.5t-107 45.5q-71 0 -114.5 -49.5t-43.5 -132.5z" />
<glyph unicode="'" horiz-adv-x="285" d="M100 881v553h86v-553h-86z" />
<glyph unicode="(" horiz-adv-x="682" d="M174 643q0 189 68.5 365t210.5 352h137q-148 -197 -219.5 -373t-71.5 -344t71.5 -345t219.5 -374h-137q-142 176 -210.5 353t-68.5 366z" />
<glyph unicode=")" horiz-adv-x="682" d="M82 -76q148 197 219.5 374t71.5 345t-71.5 344t-219.5 373h137q141 -175 209 -350.5t68 -366.5t-68 -367.5t-209 -351.5h-137z" />
<glyph unicode="*" horiz-adv-x="1139" d="M197 1047l47 141l299 -144l-45 316h149l-45 -316l297 144l47 -141l-330 -64l238 -233l-109 -88l-176 284l-170 -284l-108 88l235 233z" />
<glyph unicode="+" horiz-adv-x="1706" d="M254 569v82h559v570h80v-570h559v-82h-559v-569h-80v569h-559z" />
<glyph unicode="," horiz-adv-x="569" d="M45 -385l234 600h131l-232 -600h-133z" />
<glyph unicode="-" horiz-adv-x="682" d="M109 428v119h450v-119h-450z" />
<glyph unicode="." horiz-adv-x="569" d="M154 113q0 49 35.5 84.5t84.5 35.5q51 0 86 -35t35 -85t-35.5 -85.5t-85.5 -35.5q-49 0 -84.5 35.5t-35.5 85.5z" />
<glyph unicode="/" horiz-adv-x="569" d="M-41 -190l539 1550h112l-538 -1550h-113z" />
<glyph unicode="0" horiz-adv-x="1139" d="M158 631q0 313 109.5 488t301.5 175q194 0 302 -174t108 -489t-108 -489.5t-302 -174.5t-302.5 175t-108.5 489zM301 629q0 -264 69 -402.5t199 -138.5q131 0 200 138.5t69 402.5q0 263 -69.5 402.5t-199.5 139.5t-199 -139t-69 -403z" />
<glyph unicode="1" horiz-adv-x="1139" d="M209 1139v123h469v-1139h270v-123h-696v123h283v1016h-326z" />
<glyph unicode="2" horiz-adv-x="1139" d="M172 0q17 141 66 249.5t133 188.5q53 52 160 137t145 117q66 56 103.5 124t37.5 132q0 96 -67 159.5t-168 63.5q-105 0 -180.5 -57.5t-116.5 -169.5l-111 72q65 140 165 209t239 69q169 0 276 -96.5t107 -249.5q0 -71 -25.5 -138t-75.5 -126q-59 -71 -191 -175 q-37 -29 -55 -44q-140 -113 -190.5 -184t-69.5 -158h621v-123h-803z" />
<glyph unicode="3" horiz-adv-x="1139" d="M100 -33l1 123q319 7 517.5 114t198.5 265q0 84 -58.5 134t-156.5 50q-50 0 -100 -8.5t-103 -26.5l-34 105q196 75 287 150.5t91 162.5q0 68 -41 107t-114 39q-86 0 -172.5 -39t-173.5 -117l-76 88q115 93 216 136.5t200 43.5q134 0 218.5 -71t84.5 -183 q0 -77 -58.5 -147t-177.5 -135q156 -22 232.5 -92.5t76.5 -192.5q0 -221 -231 -359t-627 -147z" />
<glyph unicode="4" horiz-adv-x="1139" d="M121 365v184l510 713h227v-775h160v-122h-160v-365h-133v365h-604zM244 487h481v693l-481 -662v-31z" />
<glyph unicode="5" horiz-adv-x="1139" d="M125 37l33 125q88 -36 163.5 -54t141.5 -18q186 0 292.5 96t106.5 263q0 128 -74.5 197t-214.5 69q-69 0 -138.5 -25t-137.5 -76h-102l73 648h652v-123h-539l-45 -363q65 34 127.5 51t124.5 17q186 0 301 -108t115 -283q0 -226 -144.5 -356t-396.5 -130q-97 0 -180 17 t-158 53z" />
<glyph unicode="6" horiz-adv-x="1139" d="M160 485q0 190 91 390t277 419h179q-204 -227 -305.5 -402.5t-108.5 -311.5q64 102 149.5 153t192.5 51q181 0 296.5 -113t115.5 -292t-122 -295.5t-309 -116.5q-206 0 -331 141.5t-125 376.5zM326 377q0 -131 78 -210t208 -79t211.5 80.5t81.5 208.5t-78 206.5 t-206 78.5q-127 0 -211 -81.5t-84 -203.5z" />
<glyph unicode="7" horiz-adv-x="1139" d="M156 1139v123h835v-48q-171 -307 -291.5 -609.5t-193.5 -604.5h-168q91 292 215 577t281 562h-678z" />
<glyph unicode="8" horiz-adv-x="1139" d="M133 344q0 123 67.5 208.5t200.5 129.5q-119 42 -178 113.5t-59 173.5q0 136 116 230.5t289 94.5q174 0 290 -94.5t116 -230.5q0 -102 -60 -173.5t-180 -113.5q134 -45 202.5 -130t68.5 -208q0 -176 -116 -276.5t-321 -100.5q-204 0 -320 100.5t-116 276.5zM274 354 q0 -116 82.5 -190t212.5 -74q133 0 214 73t81 191q0 120 -80.5 193.5t-214.5 73.5q-131 0 -213 -74t-82 -193zM301 956q0 -93 74.5 -153t193.5 -60q121 0 195 59t74 154q0 96 -74 155.5t-195 59.5q-118 0 -193 -60.5t-75 -154.5z" />
<glyph unicode="9" horiz-adv-x="1139" d="M115 883q0 179 121.5 295t308.5 116q206 0 331 -141t125 -377q0 -190 -91 -389.5t-277 -419.5h-178q203 228 304.5 403.5t108.5 310.5q-64 -102 -150 -154t-192 -52q-181 0 -296 114t-115 294zM256 885q0 -129 78.5 -208t206.5 -79q126 0 210.5 82t84.5 205 q0 131 -78.5 210t-208.5 79t-211.5 -80.5t-81.5 -208.5z" />
<glyph unicode=":" horiz-adv-x="569" d="M156 879q0 49 35.5 84.5t84.5 35.5q51 0 86 -35t35 -85t-35.5 -85.5t-85.5 -35.5q-49 0 -84.5 35.5t-35.5 85.5zM164 113q0 49 36 84.5t85 35.5q50 0 85.5 -35t35.5 -85t-36 -85.5t-85 -35.5t-85 35.5t-36 85.5z" />
<glyph unicode=";" horiz-adv-x="569" d="M-23 -385l234 600h133l-233 -600h-134zM158 879q0 49 36 85.5t85 36.5q50 0 85 -35.5t35 -86.5q0 -50 -36 -87.5t-84 -37.5q-49 0 -85 37.5t-36 87.5z" />
<glyph unicode="&#x3c;" horiz-adv-x="1706" d="M264 580v61l1178 483v-90l-1045 -424l1045 -424v-88z" />
<glyph unicode="=" horiz-adv-x="1706" d="M254 387v82h1198v-82h-1198zM254 752v79h1198v-79h-1198z" />
<glyph unicode="&#x3e;" horiz-adv-x="1706" d="M264 98v88l1045 424l-1045 424v90l1178 -483v-61z" />
<glyph unicode="?" d="M100 1159q66 120 160 180t215 60q151 0 247.5 -84.5t96.5 -214.5q0 -69 -27 -128t-118 -157q-11 -12 -30 -32q-138 -148 -142 -236v-72h-129v98q0 51 29 106.5t89 120.5q12 13 35 39q150 161 150 261q0 85 -55.5 132.5t-153.5 47.5q-83 0 -142.5 -43.5t-99.5 -132.5z M324 113q0 49 35.5 84.5t84.5 35.5q51 0 86 -35t35 -85t-35.5 -85.5t-85.5 -35.5q-49 0 -84.5 35.5t-35.5 85.5z" />
<glyph unicode="@" horiz-adv-x="2048" d="M121 522q0 162 50.5 307t147.5 265q144 175 345.5 265.5t449.5 90.5q160 0 304.5 -44t248.5 -124q128 -98 194 -226.5t66 -277.5q0 -169 -63 -308t-181 -232q-67 -54 -145.5 -82.5t-159.5 -28.5q-95 0 -143.5 36.5t-48.5 108.5q0 12 3 34q1 3 1 5q-49 -88 -125 -136 t-166 -48q-154 0 -233.5 83t-79.5 243q0 228 134.5 386t326.5 158q95 0 160 -43t96 -127l61 129h80l-137 -553q-10 -36 -15.5 -64.5t-5.5 -43.5q0 -44 30.5 -68t86.5 -24q48 0 100 19.5t103 56.5q101 74 162 207t61 282q0 273 -199.5 439.5t-525.5 166.5q-168 0 -310.5 -48 t-258.5 -144q-154 -128 -232 -297t-78 -375q0 -327 221.5 -522t591.5 -195q161 0 324 50.5t299 142.5l29 -45q-146 -110 -308.5 -165t-339.5 -55q-187 0 -343 46.5t-277 138.5q-152 115 -226.5 267.5t-74.5 348.5zM690 446q0 -115 57.5 -180t159.5 -65q111 0 196 72.5 t116 193.5l63 254q-22 99 -81.5 151t-151.5 52q-152 0 -255.5 -138t-103.5 -340z" />
<glyph unicode="A" horiz-adv-x="1366" d="M55 0l545 1360h162l543 -1360h-144l-129 326h-702l-129 -326h-146zM379 449h604l-289 731h-26z" />
<glyph unicode="B" horiz-adv-x="1366" d="M240 0v1360h419q225 0 340 -85t115 -251q0 -95 -57 -160.5t-185 -115.5v-19q148 -35 221.5 -118.5t73.5 -215.5q0 -183 -120.5 -289t-329.5 -106h-477zM377 123h305q169 0 256.5 70t87.5 204q0 138 -92.5 206.5t-278.5 68.5h-278v-549zM377 795h264q178 0 256 51.5 t78 167.5q0 119 -76.5 171t-257.5 52h-264v-442z" />
<glyph unicode="C" horiz-adv-x="1251" d="M190 680q0 347 122.5 533t349.5 186q176 0 288.5 -100t128.5 -273l-131 -59q-12 157 -80.5 234t-195.5 77q-172 0 -257 -149t-85 -449q0 -297 85 -447.5t253 -150.5q138 0 219.5 86t83.5 235l131 -32q-12 -186 -130.5 -298t-299.5 -112q-236 0 -359 183.5t-123 535.5z " />
<glyph unicode="D" horiz-adv-x="1323" d="M201 0v1360h348q293 0 443.5 -172.5t150.5 -507.5t-150.5 -507.5t-443.5 -172.5h-348zM338 123h201q236 0 348 135.5t112 421.5t-112 421.5t-348 135.5h-201v-1114z" />
<glyph unicode="E" horiz-adv-x="1366" d="M313 0v1360h848v-123h-710v-463h612v-123h-612v-528h733v-123h-871z" />
<glyph unicode="F" horiz-adv-x="1186" d="M248 0v1360h850v-123h-713v-434h600v-123h-600v-680h-137z" />
<glyph unicode="G" horiz-adv-x="1366" d="M184 680q0 353 123.5 536t362.5 183q162 0 268.5 -89.5t136.5 -250.5l-119 -51q-27 136 -97.5 203t-186.5 67q-176 0 -261 -147.5t-85 -450.5q0 -311 88 -454.5t278 -143.5q149 0 229 106t93 318h-355v123h467v-668h-53l-31 205h-18q-63 -106 -145.5 -155.5t-196.5 -49.5 q-248 0 -373 180.5t-125 538.5z" />
<glyph unicode="H" horiz-adv-x="1479" d="M301 0v1360h137v-588h598v588h138v-1360h-138v649h-598v-649h-137z" />
<glyph unicode="I" horiz-adv-x="797" d="M188 0v80h144v1200h-144v80h428v-80h-143v-1200h143v-80h-428z" />
<glyph unicode="J" d="M20 328l130 57q0 -141 58 -220t163 -79q115 0 180 79t65 220v975h138v-1000q0 -184 -104.5 -291.5t-280.5 -107.5q-157 0 -249.5 97.5t-99.5 269.5z" />
<glyph unicode="K" horiz-adv-x="1366" d="M266 0v1360h137v-1360h-137zM467 733l633 627h168l-625 -621l668 -739h-189z" />
<glyph unicode="L" horiz-adv-x="1208" d="M291 0v1360h137v-1237h700v-123h-837z" />
<glyph unicode="M" horiz-adv-x="1821" d="M276 0v1360h279l332 -1237h43l332 1237h276v-1360h-137v1278h-43l-336 -1278h-227l-338 1278h-41v-1278h-140z" />
<glyph unicode="N" horiz-adv-x="1479" d="M268 0v1360h256l508 -1223h37v1223h137v-1360h-254l-510 1223h-36v-1223h-138z" />
<glyph unicode="O" horiz-adv-x="1251" d="M125 700q0 333 124 516t347 183q227 0 349 -186t122 -533t-122 -533t-349 -186q-230 0 -350.5 189t-120.5 550zM266 680q0 -298 82.5 -447t247.5 -149t248.5 149.5t83.5 446.5t-83.5 447.5t-248.5 150.5q-164 0 -247 -150t-83 -448z" />
<glyph unicode="P" horiz-adv-x="1276" d="M264 0v1360h387q229 0 355.5 -106.5t126.5 -297.5q0 -190 -126.5 -296.5t-355.5 -106.5h-250v-553h-137zM401 680h203q200 0 293.5 67.5t93.5 210.5q0 144 -93.5 211.5t-293.5 67.5h-203v-557z" />
<glyph unicode="Q" horiz-adv-x="1251" d="M125 680q0 347 122 533t349 186t349 -186t122 -533q0 -235 -51.5 -390t-155.5 -235l47 -78q24 -38 61 -57.5t85 -19.5q17 0 33.5 2t31.5 6v-125q-22 -5 -41 -7.5t-37 -2.5q-69 0 -125.5 35t-101.5 106l-53 86q-35 -20 -75.5 -29.5t-88.5 -9.5q-227 0 -349 186t-122 533z M266 680q0 -298 82.5 -447t247.5 -149q30 0 55.5 5.5t46.5 17.5q-32 57 -71.5 111t-85.5 106l86 65q47 -56 88.5 -111.5t79.5 -111.5q70 72 101.5 180.5t31.5 286.5q0 333 -80.5 489t-251.5 156q-164 0 -247 -150t-83 -448z" />
<glyph unicode="R" horiz-adv-x="1366" d="M276 0v1360h386q222 0 352.5 -103.5t130.5 -277.5q0 -151 -98 -251t-271 -126l410 -602h-158l-401 592h-213v-592h-138zM414 719h200q193 0 290 65t97 195q0 129 -96.5 193.5t-290.5 64.5h-200v-518z" />
<glyph unicode="S" horiz-adv-x="1251" d="M154 281l129 57q42 -126 128 -190t214 -64q122 0 194 71.5t72 192.5q0 86 -45.5 146t-140.5 100l-226 94q-142 60 -208 147t-66 216q0 160 101.5 253t277.5 93q137 0 237 -67.5t172 -209.5l-121 -59q-47 109 -125.5 165t-183.5 56q-102 0 -166.5 -63t-64.5 -162 q0 -72 44 -131t124 -95l231 -102q164 -71 229.5 -155.5t65.5 -219.5q0 -178 -111.5 -283.5t-302.5 -105.5q-170 0 -286 80t-172 236z" />
<glyph unicode="T" horiz-adv-x="1114" d="M51 1237v123h1012v-123h-436v-1237h-140v1237h-436z" />
<glyph unicode="U" horiz-adv-x="1479" d="M301 395v965h139v-950q0 -175 69.5 -249.5t231.5 -74.5q109 0 174 36t103 116q19 40 28 95t9 154v86v787h119v-877q0 -263 -107.5 -392.5t-325.5 -129.5q-220 0 -330 108.5t-110 325.5z" />
<glyph unicode="V" horiz-adv-x="1366" d="M111 1360h145l414 -1190h22l412 1190h147l-493 -1360h-156z" />
<glyph unicode="W" horiz-adv-x="1933" d="M115 1360h139l205 -748q27 -97 52 -213t52 -266h31l283 1227h180l280 -1227h31q24 135 50.5 254t56.5 225l202 748h142l-369 -1360h-195l-274 1169h-31l-272 -1169h-197z" />
<glyph unicode="X" horiz-adv-x="1366" d="M115 0l491 694l-452 666h159l375 -557l369 557h147l-446 -653l493 -707h-164l-409 590l-410 -590h-153z" />
<glyph unicode="Y" horiz-adv-x="1366" d="M111 1360h149l408 -707h24l408 707h151l-501 -873v-487h-138v487z" />
<glyph unicode="Z" horiz-adv-x="1251" d="M154 0v94l755 1143h-723v123h901v-94l-753 -1143h760v-123h-940z" />
<glyph unicode="[" horiz-adv-x="797" d="M178 -76v1436h567v-80h-438v-1276h438v-80h-567z" />
<glyph unicode="\" horiz-adv-x="569" d="M-41 1360h111l538 -1550h-112z" />
<glyph unicode="]" horiz-adv-x="797" d="M45 4h440v1276h-440v80h567v-1436h-567v80z" />
<glyph unicode="^" horiz-adv-x="2048" d="M424 901l539 557h118l541 -557h-125l-473 469l-475 -469h-125z" />
<glyph unicode="_" d="M0 -403h1024v-80h-1024v80z" />
<glyph unicode="`" d="M262 1460h178l209 -348h-106z" />
<glyph unicode="a" d="M84 260q0 162 150.5 252t424.5 90h43v129q0 82 -43.5 118t-144.5 36q-73 0 -145.5 -24.5t-145.5 -74.5l-61 123q95 46 186 68t180 22q96 0 168 -29t107 -81q16 -23 23.5 -65.5t7.5 -121.5v-483q0 -61 26 -89t88 -32v-120q-109 4 -171 55t-68 141h-23q-83 -98 -168 -148.5 t-170 -50.5q-117 0 -190.5 79t-73.5 206zM221 260q0 -74 41.5 -118t110.5 -44q66 0 153.5 47t175.5 131v238h-26q-218 0 -336.5 -66.5t-118.5 -187.5z" />
<glyph unicode="b" d="M147 47v1331l134 58v-645h16q66 104 141.5 157t157.5 53q157 0 242.5 -133t85.5 -381q0 -243 -86 -375t-242 -132q-82 0 -157.5 53t-141.5 157h-16v-215zM281 487q0 -74 24.5 -148.5t71.5 -137.5q36 -48 83 -75.5t93 -27.5q112 0 172.5 101t60.5 288q0 188 -60.5 290 t-172.5 102q-45 0 -92.5 -28t-83.5 -77q-47 -63 -71.5 -137.5t-24.5 -149.5z" />
<glyph unicode="c" horiz-adv-x="909" d="M131 487q0 235 101.5 374.5t269.5 139.5q101 0 180.5 -45t151.5 -143l-129 -63q-39 65 -90 99t-113 34q-108 0 -171 -105.5t-63 -290.5q0 -192 66 -292.5t192 -100.5q62 0 109 34t88 108l123 -58q-55 -104 -137.5 -153.5t-200.5 -49.5q-178 0 -277.5 135t-99.5 377z" />
<glyph unicode="d" d="M111 487q0 248 85 381t242 133q83 0 158.5 -53t140.5 -157h19v587l131 58v-1389l-131 -47v190h-19q-66 -104 -141.5 -157t-157.5 -53q-156 0 -241.5 132t-85.5 375zM250 487q0 -187 60.5 -288t172.5 -101q46 0 93.5 27.5t82.5 75.5q47 63 72 137.5t25 148.5 q0 75 -25 149.5t-72 137.5q-36 49 -83 77t-93 28q-111 0 -172 -102t-61 -290z" />
<glyph unicode="e" horiz-adv-x="909" d="M92 494q0 234 99 369.5t268 135.5q168 0 264 -127t96 -352v-20h-590v-47q0 -183 61 -271t187 -88q54 0 108.5 28.5t106.5 84.5l96 -78q-62 -75 -146.5 -114.5t-182.5 -39.5q-177 0 -272 134.5t-95 384.5zM229 608l453 1q-5 134 -61.5 204t-161.5 70q-104 0 -161.5 -69.5 t-68.5 -205.5z" />
<glyph unicode="f" horiz-adv-x="653" d="M61 838v106h189v158q0 160 69.5 246t198.5 86q31 0 64.5 -5.5t68.5 -15.5v-135q-31 16 -61.5 24.5t-59.5 8.5q-82 0 -114.5 -49t-32.5 -195v-123h235v-106h-235v-838h-133v838h-189z" />
<glyph unicode="g" d="M115 545q0 203 95 328.5t247 125.5q80 0 152.5 -49t121.5 -139h17v168h133v-893q0 -183 -105.5 -290t-283.5 -107q-66 0 -127 14.5t-121 44.5v125h49q26 -33 73 -49.5t115 -16.5q129 0 198 66.5t69 189.5v216h-17q-49 -90 -121.5 -139.5t-152.5 -49.5q-152 0 -247 125.5 t-95 329.5zM252 545q0 -160 58 -250t159 -90q118 0 198.5 96.5t80.5 243.5t-80.5 244.5t-198.5 97.5q-101 0 -159 -91t-58 -251z" />
<glyph unicode="h" d="M160 0v1378l131 58v-654h18q86 111 169.5 165t168.5 54q117 0 177.5 -79t60.5 -234v-688h-133v666q0 121 -32.5 171t-109.5 50q-75 0 -156.5 -59.5t-162.5 -174.5v-653h-131z" />
<glyph unicode="i" horiz-adv-x="569" d="M195 1176v202h180v-202h-180zM221 0v979h127v-979h-127z" />
<glyph unicode="j" horiz-adv-x="569" d="M1 -283l5 136q39 -22 68.5 -32.5t52.5 -10.5q55 0 78.5 36.5t23.5 126.5v1006h129v-1042q0 -119 -58.5 -182.5t-168.5 -63.5q-31 0 -63.5 6.5t-66.5 19.5zM205 1176v202h180v-202h-180z" />
<glyph unicode="k" d="M205 0v1378l133 58v-1436h-133zM379 500l444 479h152l-436 -479l434 -500h-158z" />
<glyph unicode="l" horiz-adv-x="569" d="M217 0v1378l133 58v-1436h-133z" />
<glyph unicode="m" horiz-adv-x="1593" d="M137 0v942l131 59v-219h19q86 111 168 165t166 54q103 0 166.5 -58t72.5 -160l21 -1q86 112 168.5 165.5t167.5 53.5q117 0 178 -79.5t61 -233.5v-688h-133v666q0 121 -32.5 171t-108.5 50t-157 -59.5t-163 -174.5v-653h-133v666q0 121 -32 171t-109 50 q-75 0 -156.5 -59.5t-163.5 -174.5v-653h-131z" />
<glyph unicode="n" d="M150 0v942l133 59v-219h16q86 111 169.5 165t168.5 54q118 0 179 -79.5t61 -233.5v-688h-134v666q0 121 -32 171t-109 50q-75 0 -156.5 -59.5t-162.5 -174.5v-653h-133z" />
<glyph unicode="o" horiz-adv-x="995" d="M121 487q0 237 102 374.5t275 137.5q172 0 274 -137.5t102 -374.5q0 -236 -102 -374t-274 -138q-173 0 -275 138t-102 374zM258 487q0 -186 63.5 -289.5t176.5 -103.5t176 103.5t63 289.5q0 187 -63 291.5t-176 104.5t-176.5 -104.5t-63.5 -291.5z" />
<glyph unicode="p" d="M133 -356v1298l133 59v-210h17q65 104 141 157t158 53q157 0 242 -133t85 -381q0 -243 -85.5 -375t-241.5 -132q-82 0 -158 53t-141 157h-17v-546h-133zM266 487q0 -76 24.5 -150t69.5 -136q36 -48 83.5 -75.5t93.5 -27.5q111 0 172 101t61 288q0 188 -61 290t-172 102 q-46 0 -93 -28t-84 -77q-45 -62 -69.5 -136t-24.5 -151z" />
<glyph unicode="q" d="M109 487q0 248 84.5 381t240.5 133q82 0 157.5 -53t141.5 -157h19v210l131 -59v-1298h-131v546h-19q-66 -104 -141.5 -157t-157.5 -53q-156 0 -240.5 132t-84.5 375zM246 487q0 -187 60.5 -288t172.5 -101q46 0 93.5 27.5t82.5 75.5q47 63 72 137.5t25 148.5 q0 75 -25 149.5t-72 137.5q-36 49 -83.5 77t-92.5 28q-112 0 -172.5 -102t-60.5 -290z" />
<glyph unicode="r" horiz-adv-x="797" d="M213 0v942l133 57v-370h19q115 171 213 263t182 107v-241h-12q-118 0 -216 -61t-186 -189v-508h-133z" />
<glyph unicode="s" horiz-adv-x="797" d="M86 94l55 111q75 -58 139 -85.5t121 -27.5q89 0 147 50.5t58 125.5q0 51 -28 84.5t-95 61.5l-188 78q-92 38 -139 102.5t-47 150.5q0 112 88.5 184t228.5 72q64 0 128 -18.5t136 -58.5l-49 -115q-68 41 -125 60.5t-106 19.5q-80 0 -129.5 -37t-49.5 -96q0 -51 31.5 -88 t97.5 -64l146 -57q119 -47 172 -111t53 -160q0 -131 -91 -216t-232 -85q-92 0 -173 30t-149 89z" />
<glyph unicode="t" horiz-adv-x="682" d="M59 836v106h179v234l131 159v-393h225v-106h-225v-631q0 -54 27.5 -80.5t82.5 -26.5q32 0 78 17t115 55v-129q-66 -33 -120.5 -49.5t-98.5 -16.5q-46 0 -88 17.5t-74 50.5q-29 28 -41 68t-12 139v586h-179z" />
<glyph unicode="u" d="M150 311v668h133v-645q0 -122 32 -171.5t109 -49.5q75 0 156 60t163 175v631h134v-922l-134 -57v217h-18q-86 -111 -169 -165t-167 -54q-118 0 -178.5 79.5t-60.5 233.5z" />
<glyph unicode="v" horiz-adv-x="909" d="M53 979h133l258 -838h21l258 838h135l-313 -979h-178z" />
<glyph unicode="w" horiz-adv-x="1366" d="M0 979h135l246 -838h20l205 838h152l207 -838h20l246 838h133l-295 -979h-176l-201 819h-20l-199 -819h-176z" />
<glyph unicode="x" d="M86 0l352 498l-338 481h156l256 -393l256 393h156l-338 -481l352 -498h-164l-262 403l-262 -403h-164z" />
<glyph unicode="y" horiz-adv-x="909" d="M39 -143h49q26 -31 55.5 -46.5t61.5 -15.5q54 0 89 37.5t71 134.5l32 96l-342 916h138l260 -723h16l264 723h139l-401 -1085q-44 -115 -110.5 -166.5t-172.5 -51.5q-32 0 -70.5 5t-78.5 14v162z" />
<glyph unicode="z" horiz-adv-x="909" d="M113 0v131l536 723h-518v119h674v-125l-539 -723h539v-125h-692z" />
<glyph unicode="{" d="M176 485v90q10 -1 20.5 -1.5t28.5 -0.5q139 0 196.5 64.5t57.5 222.5v240q0 227 68.5 302t257.5 75h43v-88h-37q-135 0 -182 -51.5t-47 -213.5v-241q0 -175 -43 -248t-152 -105q109 -32 152 -104t43 -248v-241q0 -162 46.5 -212.5t180.5 -50.5h39v-88h-43 q-189 0 -257.5 74.5t-68.5 300.5v240q0 158 -58 222t-200 64q-7 0 -21.5 -1t-23.5 -1z" />
<glyph unicode="|" d="M467 -483v2048h90v-2048h-90z" />
<glyph unicode="}" d="M176 -326h39q134 0 180.5 50.5t46.5 212.5v241q0 174 43.5 247t153.5 105q-110 32 -153.5 105t-43.5 248v241q0 162 -47 213.5t-182 51.5h-37v88h43q189 0 257.5 -75t68.5 -302v-240q0 -158 58 -222.5t200 -64.5q7 0 21.5 1t23.5 1v-90q-9 0 -23.5 1t-21.5 1 q-142 0 -200 -64t-58 -222v-240q0 -226 -68.5 -300.5t-257.5 -74.5h-43v88z" />
<glyph unicode="~" horiz-adv-x="1706" d="M178 481v92q105 74 201 110t186 36q100 0 271 -61q12 -5 19 -7q8 -3 27 -10q168 -61 261 -61q83 0 175 37.5t212 121.5v-92q-106 -74 -202 -110.5t-185 -36.5q-99 0 -266 61q-16 6 -22 8q-12 4 -33 12q-167 60 -257 60q-83 0 -175 -37.5t-212 -122.5z" />
<glyph unicode="&#xa1;" horiz-adv-x="797" d="M274 1247q0 49 37 85t86 36t85 -36t36 -85q0 -50 -35 -85.5t-86 -35.5q-49 0 -86 36t-37 85zM324 0l26 918h92l27 -918h-145z" />
<glyph unicode="&#xa2;" horiz-adv-x="1139" d="M219 -285l146 355q-71 79 -103.5 178.5t-32.5 238.5q0 233 102 373.5t265 140.5q32 0 66 -6t67 -18l115 285h86l-127 -316q24 -16 57.5 -51t71.5 -82l-129 -63q-16 26 -28 43.5t-23 29.5l-277 -684q30 -23 61.5 -34t69.5 -11q76 0 123.5 31.5t91.5 110.5l123 -58 q-55 -103 -136 -153t-194 -50q-50 0 -95.5 13t-88.5 39l-125 -312h-86zM367 444q0 -75 11.5 -134.5t35.5 -110.5l270 667q-21 9 -41 13t-41 4q-114 0 -174.5 -113t-60.5 -326z" />
<glyph unicode="&#xa3;" horiz-adv-x="1139" d="M123 594v90h225q-20 62 -30.5 120.5t-10.5 115.5q0 172 97 273t262 101q89 0 169.5 -34.5t161.5 -108.5l-69 -102q-66 70 -123.5 101.5t-120.5 31.5q-115 0 -178.5 -69t-63.5 -193q0 -53 11.5 -112.5t33.5 -123.5h326v-90h-307q6 -42 9 -80t3 -68q0 -59 -11.5 -117.5 t-35.5 -115.5q94 -57 167.5 -85t131.5 -28q91 0 143 49.5t62 145.5h92q-13 -149 -93 -237.5t-200 -88.5q-69 0 -156.5 39t-193.5 117q-45 -62 -104 -100.5t-136 -57.5v160q107 25 154 99t47 218q0 32 -4 68t-12 82h-246z" />
<glyph unicode="&#xa4;" horiz-adv-x="1139" d="M86 473l23 86h124q-1 14 -1.5 28t-0.5 44q0 31 0.5 45.5t1.5 27.5l-147 1l23 86h131q25 242 131 372.5t274 130.5q133 0 229.5 -89t131.5 -226l-125 -59q-26 119 -87 185t-143 66q-114 0 -182 -96t-86 -284h469l-23 -86l-452 -1q-1 -12 -1.5 -27t-0.5 -46t0.5 -45.5 t1.5 -26.5h407l-22 -86h-381q18 -194 85 -289.5t185 -95.5q84 0 145.5 70.5t84.5 179.5l129 -41q-30 -136 -127.5 -233t-227.5 -97q-177 0 -284.5 129.5t-130.5 376.5h-154z" />
<glyph unicode="&#xa5;" horiz-adv-x="1366" d="M127 1266h145l379 -658h23l379 658h145l-422 -727h338v-90h-387v-449h-129v449h-387v90h338z" />
<glyph unicode="&#xa6;" d="M467 -350v758h90v-758h-90zM467 674v758h90v-758h-90z" />
<glyph unicode="&#xa7;" horiz-adv-x="1139" d="M197 698q0 106 60.5 166t168.5 60q-61 63 -91 122t-30 117q0 103 72.5 169.5t185.5 66.5q87 0 162.5 -45.5t122.5 -126.5l-100 -72q-40 61 -87 95t-92 34q-57 0 -95 -33.5t-38 -85.5q0 -39 34 -89t157 -173l9 -9q304 -301 304 -460q0 -89 -62 -146t-167 -65 q60 -63 90 -129t30 -133q0 -111 -73.5 -181.5t-188.5 -70.5q-93 0 -175.5 47.5t-135.5 132.5l102 74q45 -63 97 -98t102 -35q62 0 102.5 36.5t40.5 90.5q0 86 -168 265l-8 7q-23 25 -67 70q-262 270 -262 399zM326 717q0 -37 25 -82t95 -127q80 -91 141 -134.5t107 -43.5 q50 0 81.5 29t31.5 75q0 43 -31 95t-110 139q-75 82 -127.5 118.5t-96.5 36.5q-46 0 -81 -31t-35 -75z" />
<glyph unicode="&#xa8;" d="M272 1176v188h160v-188h-160zM592 1176v188h160v-188h-160z" />
<glyph unicode="&#xa9;" horiz-adv-x="1706" d="M123 721q0 145 56 279t161 241q101 103 232 157t280 54t282.5 -55t237.5 -160q103 -102 157 -235t54 -281q0 -150 -53.5 -280t-157.5 -232q-107 -106 -241.5 -162.5t-278.5 -56.5q-145 0 -277 55.5t-237 161.5q-105 104 -160 236t-55 278zM195 721q0 -130 50 -249.5 t144 -213.5t213.5 -144.5t249.5 -50.5t251.5 51t217.5 146q93 92 141.5 209.5t48.5 251.5q0 133 -49 252.5t-141 212.5q-95 95 -215 144.5t-254 49.5q-133 0 -251.5 -49t-209.5 -141q-95 -97 -145.5 -218t-50.5 -251zM471 725q0 205 107 328t282 123q132 0 222.5 -72 t103.5 -186h-105q-20 81 -79.5 126.5t-147.5 45.5q-126 0 -196 -97.5t-70 -273.5q0 -169 71.5 -267t194.5 -98q91 0 156 52.5t84 140.5h102q-11 -123 -108 -201t-240 -78q-173 0 -275 123.5t-102 333.5z" />
<glyph unicode="&#xaa;" horiz-adv-x="768" d="M63 858q0 114 113.5 177t319.5 63h30v90q0 57 -32 81.5t-109 24.5q-55 0 -109 -16.5t-108 -50.5l-47 86q73 32 141.5 47.5t134.5 15.5q72 0 126 -20.5t79 -57.5q12 -16 17.5 -45.5t5.5 -85.5v-338q0 -43 20 -62.5t66 -21.5v-85q-82 3 -127.5 38.5t-51.5 100.5h-18 q-61 -69 -125 -104.5t-127 -35.5q-89 0 -144 55t-55 144zM166 858q0 -52 31 -82.5t84 -30.5q50 0 115 33t130 92v166h-18q-164 0 -253 -46.5t-89 -131.5z" />
<glyph unicode="&#xab;" d="M121 483l262 324h137l-264 -324l264 -323h-137zM467 483l264 324h137l-264 -324l264 -323h-137z" />
<glyph unicode="&#xac;" horiz-adv-x="1706" d="M254 774v82h1198v-502h-78v420h-1120z" />
<glyph unicode="&#xad;" horiz-adv-x="682" d="M109 428v119h450v-119h-450z" />
<glyph unicode="&#xae;" horiz-adv-x="1706" d="M123 721q0 145 56 279t161 241q101 103 232 157t280 54t282.5 -55t237.5 -160q103 -102 157 -235t54 -281q0 -150 -53.5 -280t-157.5 -232q-107 -106 -241.5 -162.5t-278.5 -56.5q-145 0 -277 55.5t-237 161.5q-105 104 -160 236t-55 278zM195 721q0 -130 50 -249.5 t144 -213.5t213.5 -144.5t249.5 -50.5t251.5 51t217.5 146q93 92 141.5 209.5t48.5 251.5q0 133 -49 252.5t-141 212.5q-95 95 -215 144.5t-254 49.5q-133 0 -251.5 -49t-209.5 -141q-95 -97 -145.5 -218t-50.5 -251zM569 309v846h305q180 0 264.5 -56.5t84.5 -176.5 q0 -89 -55.5 -149t-147.5 -71l190 -393h-131l-182 377h-213v-377h-115zM684 764h168q145 0 199.5 36t54.5 126q0 78 -61.5 114.5t-192.5 36.5h-168v-313z" />
<glyph unicode="&#xaf;" d="M254 1206v125h516v-125h-516z" />
<glyph unicode="&#xb0;" horiz-adv-x="674" d="M63 1176q0 114 80.5 194t194.5 80q112 0 192 -80.5t80 -193.5q0 -114 -80 -193.5t-194 -79.5q-115 0 -194 79t-79 194zM125 1176q0 -89 62.5 -151t150.5 -62t150.5 62t62.5 151q0 87 -63 150t-150 63q-89 0 -151 -62t-62 -151z" />
<glyph unicode="&#xb1;" horiz-adv-x="1706" d="M254 59v82h1198v-82h-1198zM254 727v80h559v354h80v-354h559v-80h-559v-352h-80v352h-559z" />
<glyph unicode="&#xb2;" horiz-adv-x="752" d="M113 504q12 87 44.5 151.5t86.5 110.5q36 32 107 83.5t95 70.5q44 33 68.5 73.5t24.5 79.5q0 57 -44.5 95t-111.5 38q-68 0 -117.5 -34.5t-77.5 -100.5l-73 43q43 83 109.5 124.5t156.5 41.5q113 0 183.5 -58t70.5 -149q0 -42 -17.5 -82.5t-50.5 -77.5q-39 -44 -128 -107 q-23 -16 -34 -24q-94 -69 -126.5 -111t-45.5 -93h410v-74h-530z" />
<glyph unicode="&#xb3;" horiz-adv-x="752" d="M66 483v74q212 4 342.5 68t130.5 159q0 51 -38.5 81t-103.5 30q-38 0 -70 -5t-63 -16l-24 64q131 45 191.5 90t60.5 98q0 41 -28 63.5t-77 22.5q-57 0 -113.5 -23t-113.5 -69l-51 51q77 57 143 83t131 26q89 0 145 -42.5t56 -109.5q0 -47 -38.5 -89t-117.5 -81 q103 -12 154 -54t51 -116q0 -134 -152.5 -216.5t-414.5 -88.5z" />
<glyph unicode="&#xb4;" d="M375 1112l209 348h178l-281 -348h-106z" />
<glyph unicode="&#xb5;" horiz-adv-x="1094" d="M-111 -424l316 1487h121l-123 -590q-9 -43 -13 -77t-4 -64q0 -126 60 -192t174 -66q127 0 219.5 109t136.5 313l125 567h121l-166 -786q-2 -9 -5 -24q-20 -92 -20 -112q0 -31 17.5 -47t50.5 -16q9 0 18.5 0.5t20.5 1.5l-18 -96q-3 -1 -8 -2q-49 -11 -68 -11 q-68 0 -100.5 31.5t-32.5 95.5q0 7 0.5 16t3.5 29q-43 -83 -123.5 -127.5t-188.5 -44.5q-97 0 -169.5 45.5t-104.5 126.5l-119 -567h-121z" />
<glyph unicode="&#xb6;" d="M90 1130q0 157 108.5 253t286.5 96h447v-64h-129v-1415h-70v1415h-192v-1415h-70v782q-175 8 -278 102.5t-103 245.5z" />
<glyph unicode="&#xb7;" horiz-adv-x="569" d="M162 614q0 50 36 87.5t85 37.5q50 0 85 -36.5t35 -88.5q0 -49 -36 -85.5t-84 -36.5q-49 0 -85 36.5t-36 85.5z" />
<glyph unicode="&#xb8;" d="M299 -336q74 -17 136.5 -26t109.5 -9q60 0 90.5 20.5t30.5 61.5q0 52 -33 75.5t-107 23.5q-20 0 -30.5 -0.5t-20.5 -1.5v192h74v-106h22q112 0 169 -45t57 -132q0 -89 -62.5 -135.5t-183.5 -46.5q-45 0 -104.5 10t-147.5 33v86z" />
<glyph unicode="&#xb9;" horiz-adv-x="752" d="M137 1188v74h309v-684h181v-74h-461v74h186v610h-215z" />
<glyph unicode="&#xba;" horiz-adv-x="748" d="M90 1018q0 164 77 261t206 97t205.5 -96.5t76.5 -261.5q0 -166 -76.5 -262.5t-205.5 -96.5t-206 97t-77 262zM195 1018q0 -132 46.5 -204.5t131.5 -72.5t132.5 73t47.5 204q0 130 -48 203t-132 73t-131 -73t-47 -203z" />
<glyph unicode="&#xbb;" d="M135 160l264 323l-264 324h137l265 -324l-265 -323h-137zM483 160l262 323l-262 324h135l265 -324l-265 -323h-135z" />
<glyph unicode="&#xbc;" horiz-adv-x="1776" d="M131 1192v70h297v-637h170v-70h-440v70h178v567h-205zM375 -33l915 1327h109l-914 -1327h-110zM1135 205v102l321 400h143v-435h101v-67h-101v-205h-83v205h-381zM1212 272h304v390l-304 -371v-19z" />
<glyph unicode="&#xbd;" horiz-adv-x="1776" d="M131 1192v70h297v-637h170v-70h-440v70h178v567h-205zM375 -33l915 1327h109l-914 -1327h-110zM1167 0q11 80 42 140.5t83 105.5q33 27 100 74t93 67q41 33 64.5 70.5t23.5 72.5q0 55 -42 90t-106 35q-66 0 -113 -32t-73 -95l-70 41q40 79 103.5 117.5t150.5 38.5 q107 0 173.5 -54t66.5 -141q0 -40 -15.5 -77.5t-45.5 -69.5q-40 -41 -126 -102l-30 -21q-87 -62 -119.5 -102t-44.5 -88h391v-70h-506z" />
<glyph unicode="&#xbe;" horiz-adv-x="1778" d="M63 537l1 69q199 3 324.5 63t125.5 148q0 47 -37 76t-98 29q-30 0 -62 -5.5t-65 -15.5l-23 60q125 41 182.5 83t57.5 91q0 38 -26 60t-72 22q-55 0 -109.5 -21.5t-109.5 -65.5l-48 50q73 51 137 75.5t126 24.5q85 0 137.5 -40t52.5 -103q0 -43 -36.5 -82t-110.5 -76 q98 -13 146 -52.5t48 -107.5q0 -123 -146 -200.5t-395 -81.5zM375 -33l915 1327h109l-914 -1327h-110zM1135 205v102l321 400h143v-435h101v-67h-101v-205h-83v205h-381zM1212 272h304v390l-304 -371v-19z" />
<glyph unicode="&#xbf;" d="M164 260q0 69 27 128t118 157q10 10 30 32q138 148 142 236v72h127v-99q0 -51 -28.5 -107t-87.5 -120q-14 -14 -39 -41q-146 -158 -146 -256q0 -86 55 -134t152 -48q83 0 143.5 43.5t100.5 132.5l125 -53q-67 -121 -161 -181.5t-214 -60.5q-151 0 -247.5 84t-96.5 215z M416 1247q0 49 35.5 85t85.5 36q49 0 84.5 -36t35.5 -85t-35.5 -85t-84.5 -36q-51 0 -86 35.5t-35 85.5z" />
<glyph unicode="&#xc0;" horiz-adv-x="1366" d="M55 0l545 1360h162l543 -1360h-144l-129 326h-702l-129 -326h-146zM379 449h604l-289 731h-26zM434 1857h178l209 -348h-106z" />
<glyph unicode="&#xc1;" horiz-adv-x="1366" d="M55 0l545 1360h162l543 -1360h-144l-129 326h-702l-129 -326h-146zM379 449h604l-289 731h-26zM547 1509l209 348h178l-281 -348h-106z" />
<glyph unicode="&#xc2;" horiz-adv-x="1366" d="M55 0l545 1360h162l543 -1360h-144l-129 326h-702l-129 -326h-146zM379 449h604l-289 731h-26zM397 1509l197 348h178l197 -348h-107l-178 242l-180 -242h-107z" />
<glyph unicode="&#xc3;" horiz-adv-x="1366" d="M55 0l545 1360h162l543 -1360h-144l-129 326h-702l-129 -326h-146zM379 449h604l-289 731h-26zM393 1566q22 92 72.5 139.5t126.5 47.5q14 0 29.5 -3t30.5 -8l77 -26q13 -4 29 -6t32 -2q37 0 61 16.5t36 50.5h88q-24 -92 -75 -141t-124 -49q-17 0 -32.5 2.5t-32.5 7.5 l-80 27q-12 4 -25.5 6t-27.5 2q-35 0 -58.5 -15.5t-38.5 -48.5h-88z" />
<glyph unicode="&#xc4;" horiz-adv-x="1366" d="M55 0l545 1360h162l543 -1360h-144l-129 326h-702l-129 -326h-146zM379 449h604l-289 731h-26zM444 1573v188h160v-188h-160zM764 1573v188h160v-188h-160z" />
<glyph unicode="&#xc5;" horiz-adv-x="1366" d="M55 0l545 1360h162l543 -1360h-144l-129 326h-702l-129 -326h-146zM379 449h604l-289 731h-26zM432 1704q0 104 71.5 176t176.5 72q104 0 176 -72t72 -176q0 -105 -72 -176.5t-176 -71.5q-105 0 -176.5 71.5t-71.5 176.5zM539 1702q0 -60 41.5 -100.5t101.5 -40.5 t100.5 40.5t40.5 100.5t-40.5 101.5t-100.5 41.5q-61 0 -102 -41.5t-41 -101.5z" />
<glyph unicode="&#xc6;" horiz-adv-x="1976" d="M59 0l672 1360h1043v-123h-711v-463h612v-123h-612v-528h733v-123h-872v381h-531l-188 -381h-146zM455 504h469v776h-86z" />
<glyph unicode="&#xc7;" horiz-adv-x="1251" d="M190 680q0 347 122.5 533t349.5 186q176 0 288.5 -100t128.5 -273l-131 -59q-12 157 -80.5 234t-195.5 77q-172 0 -257 -149t-85 -449q0 -297 85 -447.5t253 -150.5q138 0 219.5 86t83.5 235l131 -32q-12 -186 -130.5 -298t-299.5 -112q-236 0 -359 183.5t-123 535.5z M461 -336q74 -17 136.5 -26t109.5 -9q60 0 90.5 20.5t30.5 61.5q0 52 -33 75.5t-107 23.5q-20 0 -30.5 -0.5t-20.5 -1.5v192h74v-106h22q112 0 169 -45t57 -132q0 -89 -62.5 -135.5t-183.5 -46.5q-45 0 -104.5 10t-147.5 33v86z" />
<glyph unicode="&#xc8;" horiz-adv-x="1366" d="M313 0v1360h848v-123h-710v-463h612v-123h-612v-528h733v-123h-871zM500 1857h178l209 -348h-106z" />
<glyph unicode="&#xc9;" horiz-adv-x="1366" d="M313 0v1360h848v-123h-710v-463h612v-123h-612v-528h733v-123h-871zM613 1509l209 348h178l-281 -348h-106z" />
<glyph unicode="&#xca;" horiz-adv-x="1366" d="M313 0v1360h848v-123h-710v-463h612v-123h-612v-528h733v-123h-871zM463 1509l197 348h178l197 -348h-107l-178 242l-180 -242h-107z" />
<glyph unicode="&#xcb;" horiz-adv-x="1366" d="M313 0v1360h848v-123h-710v-463h612v-123h-612v-528h733v-123h-871zM510 1573v188h160v-188h-160zM830 1573v188h160v-188h-160z" />
<glyph unicode="&#xcc;" horiz-adv-x="797" d="M149 1857h178l209 -348h-106zM188 0v80h144v1200h-144v80h428v-80h-143v-1200h143v-80h-428z" />
<glyph unicode="&#xcd;" horiz-adv-x="797" d="M188 0v80h144v1200h-144v80h428v-80h-143v-1200h143v-80h-428zM262 1509l209 348h178l-281 -348h-106z" />
<glyph unicode="&#xce;" horiz-adv-x="797" d="M112 1509l197 348h178l197 -348h-107l-178 242l-180 -242h-107zM188 0v80h144v1200h-144v80h428v-80h-143v-1200h143v-80h-428z" />
<glyph unicode="&#xcf;" horiz-adv-x="797" d="M159 1573v188h160v-188h-160zM188 0v80h144v1200h-144v80h428v-80h-143v-1200h143v-80h-428zM479 1573v188h160v-188h-160z" />
<glyph unicode="&#xd0;" horiz-adv-x="1323" d="M0 666v122h201v572h348q292 0 443 -173t151 -507t-151 -507t-443 -173h-348v666h-201zM338 123h201q228 0 344 140.5t116 416.5q0 275 -116 416t-344 141h-201v-449h256v-122h-256v-543z" />
<glyph unicode="&#xd1;" horiz-adv-x="1479" d="M268 0v1360h256l508 -1223h37v1223h137v-1360h-254l-510 1223h-36v-1223h-138zM448 1566q22 92 72.5 139.5t126.5 47.5q14 0 29.5 -3t30.5 -8l77 -26q13 -4 29 -6t32 -2q37 0 61 16.5t36 50.5h88q-24 -92 -75 -141t-124 -49q-17 0 -32.5 2.5t-32.5 7.5l-80 27 q-12 4 -25.5 6t-27.5 2q-35 0 -58.5 -15.5t-38.5 -48.5h-88z" />
<glyph unicode="&#xd2;" horiz-adv-x="1251" d="M125 700q0 333 124 516t347 183q227 0 349 -186t122 -533t-122 -533t-349 -186q-230 0 -350.5 189t-120.5 550zM266 680q0 -298 82.5 -447t247.5 -149t248.5 149.5t83.5 446.5t-83.5 447.5t-248.5 150.5q-164 0 -247 -150t-83 -448zM319 1857h178l209 -348h-106z" />
<glyph unicode="&#xd3;" horiz-adv-x="1251" d="M125 700q0 333 124 516t347 183q227 0 349 -186t122 -533t-122 -533t-349 -186q-230 0 -350.5 189t-120.5 550zM266 680q0 -298 82.5 -447t247.5 -149t248.5 149.5t83.5 446.5t-83.5 447.5t-248.5 150.5q-164 0 -247 -150t-83 -448zM432 1509l209 348h178l-281 -348h-106 z" />
<glyph unicode="&#xd4;" horiz-adv-x="1251" d="M125 700q0 333 124 516t347 183q227 0 349 -186t122 -533t-122 -533t-349 -186q-230 0 -350.5 189t-120.5 550zM266 680q0 -298 82.5 -447t247.5 -149t248.5 149.5t83.5 446.5t-83.5 447.5t-248.5 150.5q-164 0 -247 -150t-83 -448zM282 1509l197 348h178l197 -348h-107 l-178 242l-180 -242h-107z" />
<glyph unicode="&#xd5;" horiz-adv-x="1251" d="M125 700q0 333 124 516t347 183q227 0 349 -186t122 -533t-122 -533t-349 -186q-230 0 -350.5 189t-120.5 550zM266 680q0 -298 82.5 -447t247.5 -149t248.5 149.5t83.5 446.5t-83.5 447.5t-248.5 150.5q-164 0 -247 -150t-83 -448zM278 1566q22 92 72.5 139.5 t126.5 47.5q14 0 29.5 -3t30.5 -8l77 -26q13 -4 29 -6t32 -2q37 0 61 16.5t36 50.5h88q-24 -92 -75 -141t-124 -49q-17 0 -32.5 2.5t-32.5 7.5l-80 27q-12 4 -25.5 6t-27.5 2q-35 0 -58.5 -15.5t-38.5 -48.5h-88z" />
<glyph unicode="&#xd6;" horiz-adv-x="1251" d="M125 700q0 333 124 516t347 183q227 0 349 -186t122 -533t-122 -533t-349 -186q-230 0 -350.5 189t-120.5 550zM266 680q0 -298 82.5 -447t247.5 -149t248.5 149.5t83.5 446.5t-83.5 447.5t-248.5 150.5q-164 0 -247 -150t-83 -448zM329 1573v188h160v-188h-160z M649 1573v188h160v-188h-160z" />
<glyph unicode="&#xd7;" horiz-adv-x="1706" d="M309 123l488 487l-488 488l58 57l487 -487l487 487l58 -57l-488 -488l488 -487l-58 -57l-487 487l-487 -487z" />
<glyph unicode="&#xd8;" horiz-adv-x="1251" d="M119 -336l176 412q-88 118 -129 263t-41 341q0 347 122 533t349 186q60 0 116 -17t113 -53l111 262h92l-133 -311q87 -94 129.5 -243t42.5 -357q0 -347 -122 -533t-349 -186q-58 0 -114.5 17.5t-114.5 54.5l-156 -369h-92zM266 647q0 -140 20 -249t60 -191l432 1005 q-42 33 -87.5 49.5t-94.5 16.5q-166 0 -248 -156t-82 -475zM414 147q34 -33 76.5 -49t95.5 -16q175 0 258.5 154.5t83.5 482.5q0 133 -21.5 236.5t-66.5 189.5z" />
<glyph unicode="&#xd9;" horiz-adv-x="1479" d="M301 395v965h139v-950q0 -175 69.5 -249.5t231.5 -74.5q109 0 174 36t103 116q19 40 28 95t9 154v86v787h119v-877q0 -263 -107.5 -392.5t-325.5 -129.5q-220 0 -330 108.5t-110 325.5zM489 1857h178l209 -348h-106z" />
<glyph unicode="&#xda;" horiz-adv-x="1479" d="M301 395v965h139v-950q0 -175 69.5 -249.5t231.5 -74.5q109 0 174 36t103 116q19 40 28 95t9 154v86v787h119v-877q0 -263 -107.5 -392.5t-325.5 -129.5q-220 0 -330 108.5t-110 325.5zM602 1509l209 348h178l-281 -348h-106z" />
<glyph unicode="&#xdb;" horiz-adv-x="1479" d="M301 395v965h139v-950q0 -175 69.5 -249.5t231.5 -74.5q109 0 174 36t103 116q19 40 28 95t9 154v86v787h119v-877q0 -263 -107.5 -392.5t-325.5 -129.5q-220 0 -330 108.5t-110 325.5zM452 1509l197 348h178l197 -348h-107l-178 242l-180 -242h-107z" />
<glyph unicode="&#xdc;" horiz-adv-x="1479" d="M301 395v965h139v-950q0 -175 69.5 -249.5t231.5 -74.5q109 0 174 36t103 116q19 40 28 95t9 154v86v787h119v-877q0 -263 -107.5 -392.5t-325.5 -129.5q-220 0 -330 108.5t-110 325.5zM499 1573v188h160v-188h-160zM819 1573v188h160v-188h-160z" />
<glyph unicode="&#xdd;" horiz-adv-x="1366" d="M111 1360h149l408 -707h24l408 707h151l-501 -873v-487h-138v487zM547 1509l209 348h178l-281 -348h-106z" />
<glyph unicode="&#xde;" horiz-adv-x="1276" d="M264 0v1360h137v-264h250q229 0 355.5 -106.5t126.5 -297.5t-126.5 -297t-355.5 -106h-250v-289h-137zM401 416h203q200 0 293.5 67.5t93.5 210.5q0 144 -93.5 211.5t-293.5 67.5h-203v-557z" />
<glyph unicode="&#xdf;" horiz-adv-x="1139" d="M186 0v915q0 142 21 219.5t69 137.5q52 62 123 94.5t156 32.5q154 0 255 -97t101 -245q0 -111 -59.5 -188t-179.5 -121q162 -43 240.5 -142.5t78.5 -261.5q0 -161 -96 -271t-236 -110q-38 0 -75.5 9.5t-75.5 29.5v115q37 -17 69.5 -25t59.5 -8q95 0 154 78.5t59 208.5 q0 137 -80 215.5t-235 93.5v119q118 18 184.5 86t66.5 172q0 97 -62.5 158t-160.5 61q-72 0 -126 -32t-85 -93q-15 -31 -21.5 -81t-6.5 -187v-883h-138z" />
<glyph unicode="&#xe0;" d="M84 260q0 162 150.5 252t424.5 90h43v129q0 82 -43.5 118t-144.5 36q-73 0 -145.5 -24.5t-145.5 -74.5l-61 123q95 46 186 68t180 22q96 0 168 -29t107 -81q16 -23 23.5 -65.5t7.5 -121.5v-483q0 -61 26 -89t88 -32v-120q-109 4 -171 55t-68 141h-23q-83 -98 -168 -148.5 t-170 -50.5q-117 0 -190.5 79t-73.5 206zM221 260q0 -74 41.5 -118t110.5 -44q66 0 153.5 47t175.5 131v238h-26q-218 0 -336.5 -66.5t-118.5 -187.5zM262 1460h178l209 -348h-106z" />
<glyph unicode="&#xe1;" d="M84 260q0 162 150.5 252t424.5 90h43v129q0 82 -43.5 118t-144.5 36q-73 0 -145.5 -24.5t-145.5 -74.5l-61 123q95 46 186 68t180 22q96 0 168 -29t107 -81q16 -23 23.5 -65.5t7.5 -121.5v-483q0 -61 26 -89t88 -32v-120q-109 4 -171 55t-68 141h-23q-83 -98 -168 -148.5 t-170 -50.5q-117 0 -190.5 79t-73.5 206zM221 260q0 -74 41.5 -118t110.5 -44q66 0 153.5 47t175.5 131v238h-26q-218 0 -336.5 -66.5t-118.5 -187.5zM375 1112l209 348h178l-281 -348h-106z" />
<glyph unicode="&#xe2;" d="M84 260q0 162 150.5 252t424.5 90h43v129q0 82 -43.5 118t-144.5 36q-73 0 -145.5 -24.5t-145.5 -74.5l-61 123q95 46 186 68t180 22q96 0 168 -29t107 -81q16 -23 23.5 -65.5t7.5 -121.5v-483q0 -61 26 -89t88 -32v-120q-109 4 -171 55t-68 141h-23q-83 -98 -168 -148.5 t-170 -50.5q-117 0 -190.5 79t-73.5 206zM221 260q0 -74 41.5 -118t110.5 -44q66 0 153.5 47t175.5 131v238h-26q-218 0 -336.5 -66.5t-118.5 -187.5zM225 1112l197 348h178l197 -348h-107l-178 242l-180 -242h-107z" />
<glyph unicode="&#xe3;" d="M84 260q0 162 150.5 252t424.5 90h43v129q0 82 -43.5 118t-144.5 36q-73 0 -145.5 -24.5t-145.5 -74.5l-61 123q95 46 186 68t180 22q96 0 168 -29t107 -81q16 -23 23.5 -65.5t7.5 -121.5v-483q0 -61 26 -89t88 -32v-120q-109 4 -171 55t-68 141h-23q-83 -98 -168 -148.5 t-170 -50.5q-117 0 -190.5 79t-73.5 206zM221 260q0 -74 41.5 -118t110.5 -44q66 0 153.5 47t175.5 131v238h-26q-218 0 -336.5 -66.5t-118.5 -187.5zM221 1169q22 92 72.5 139.5t126.5 47.5q14 0 29.5 -3t30.5 -8l77 -26q13 -4 29 -6t32 -2q37 0 61 16.5t36 50.5h88 q-24 -92 -75 -141t-124 -49q-17 0 -32.5 2.5t-32.5 7.5l-80 27q-12 4 -25.5 6t-27.5 2q-35 0 -58.5 -15.5t-38.5 -48.5h-88z" />
<glyph unicode="&#xe4;" d="M84 260q0 162 150.5 252t424.5 90h43v129q0 82 -43.5 118t-144.5 36q-73 0 -145.5 -24.5t-145.5 -74.5l-61 123q95 46 186 68t180 22q96 0 168 -29t107 -81q16 -23 23.5 -65.5t7.5 -121.5v-483q0 -61 26 -89t88 -32v-120q-109 4 -171 55t-68 141h-23q-83 -98 -168 -148.5 t-170 -50.5q-117 0 -190.5 79t-73.5 206zM221 260q0 -74 41.5 -118t110.5 -44q66 0 153.5 47t175.5 131v238h-26q-218 0 -336.5 -66.5t-118.5 -187.5zM272 1176v188h160v-188h-160zM592 1176v188h160v-188h-160z" />
<glyph unicode="&#xe5;" d="M84 260q0 162 150.5 252t424.5 90h43v129q0 82 -43.5 118t-144.5 36q-73 0 -145.5 -24.5t-145.5 -74.5l-61 123q95 46 186 68t180 22q96 0 168 -29t107 -81q16 -23 23.5 -65.5t7.5 -121.5v-483q0 -61 26 -89t88 -32v-120q-109 4 -171 55t-68 141h-23q-83 -98 -168 -148.5 t-170 -50.5q-117 0 -190.5 79t-73.5 206zM221 260q0 -74 41.5 -118t110.5 -44q66 0 153.5 47t175.5 131v238h-26q-218 0 -336.5 -66.5t-118.5 -187.5zM254 1339q0 105 71.5 176.5t176.5 71.5q104 0 176 -71.5t72 -176.5q0 -104 -72 -175.5t-176 -71.5q-105 0 -176.5 71.5 t-71.5 175.5zM358 1339q0 -60 42 -101.5t102 -41.5q59 0 100 41.5t41 101.5q0 61 -41 102.5t-100 41.5q-61 0 -102.5 -41.5t-41.5 -102.5z" />
<glyph unicode="&#xe6;" horiz-adv-x="1507" d="M84 260q0 162 150.5 252t424.5 90h43v129q0 72 -49.5 113t-138.5 41q-73 0 -145.5 -24.5t-145.5 -74.5l-61 123q101 46 188.5 68t163.5 22q109 0 180.5 -38t104.5 -113q49 76 114 113.5t148 37.5q168 0 264 -126.5t96 -350.5v-26h-590v-39q0 -187 60.5 -275t187.5 -88 q54 0 108.5 28.5t106.5 84.5l95 -78q-64 -76 -147 -115t-181 -39q-122 0 -203.5 62t-124.5 186q-88 -119 -188 -183.5t-197 -64.5q-117 0 -190.5 79t-73.5 206zM221 260q0 -74 41.5 -118t110.5 -44q66 0 153.5 47t175.5 131v238h-26q-218 0 -336.5 -66.5t-118.5 -187.5z M834 602l450 1q-5 136 -62.5 208t-162.5 72t-163 -72.5t-62 -208.5z" />
<glyph unicode="&#xe7;" horiz-adv-x="909" d="M131 487q0 235 101.5 374.5t269.5 139.5q101 0 180.5 -45t151.5 -143l-129 -63q-39 65 -90 99t-113 34q-108 0 -171 -105.5t-63 -290.5q0 -192 66 -292.5t192 -100.5q62 0 109 34t88 108l123 -58q-55 -104 -137.5 -153.5t-200.5 -49.5q-178 0 -277.5 135t-99.5 377z M246 -336q74 -17 136.5 -26t109.5 -9q60 0 90.5 20.5t30.5 61.5q0 52 -33 75.5t-107 23.5q-20 0 -30.5 -0.5t-20.5 -1.5v192h74v-106h22q112 0 169 -45t57 -132q0 -89 -62.5 -135.5t-183.5 -46.5q-45 0 -104.5 10t-147.5 33v86z" />
<glyph unicode="&#xe8;" horiz-adv-x="909" d="M92 494q0 234 99 369.5t268 135.5q168 0 264 -127t96 -352v-20h-590v-47q0 -183 61 -271t187 -88q54 0 108.5 28.5t106.5 84.5l96 -78q-62 -75 -146.5 -114.5t-182.5 -39.5q-177 0 -272 134.5t-95 384.5zM217 1460h178l209 -348h-106zM229 608l453 1q-5 134 -61.5 204 t-161.5 70q-104 0 -161.5 -69.5t-68.5 -205.5z" />
<glyph unicode="&#xe9;" horiz-adv-x="909" d="M92 494q0 234 99 369.5t268 135.5q168 0 264 -127t96 -352v-20h-590v-47q0 -183 61 -271t187 -88q54 0 108.5 28.5t106.5 84.5l96 -78q-62 -75 -146.5 -114.5t-182.5 -39.5q-177 0 -272 134.5t-95 384.5zM229 608l453 1q-5 134 -61.5 204t-161.5 70q-104 0 -161.5 -69.5 t-68.5 -205.5zM330 1112l209 348h178l-281 -348h-106z" />
<glyph unicode="&#xea;" horiz-adv-x="909" d="M92 494q0 234 99 369.5t268 135.5q168 0 264 -127t96 -352v-20h-590v-47q0 -183 61 -271t187 -88q54 0 108.5 28.5t106.5 84.5l96 -78q-62 -75 -146.5 -114.5t-182.5 -39.5q-177 0 -272 134.5t-95 384.5zM180 1112l197 348h178l197 -348h-107l-178 242l-180 -242h-107z M229 608l453 1q-5 134 -61.5 204t-161.5 70q-104 0 -161.5 -69.5t-68.5 -205.5z" />
<glyph unicode="&#xeb;" horiz-adv-x="909" d="M92 494q0 234 99 369.5t268 135.5q168 0 264 -127t96 -352v-20h-590v-47q0 -183 61 -271t187 -88q54 0 108.5 28.5t106.5 84.5l96 -78q-62 -75 -146.5 -114.5t-182.5 -39.5q-177 0 -272 134.5t-95 384.5zM227 1176v188h160v-188h-160zM229 608l453 1q-5 134 -61.5 204 t-161.5 70q-104 0 -161.5 -69.5t-68.5 -205.5zM547 1176v188h160v-188h-160z" />
<glyph unicode="&#xec;" horiz-adv-x="569" d="M35 1460h178l209 -348h-106zM221 0v979h127v-979h-127z" />
<glyph unicode="&#xed;" horiz-adv-x="569" d="M148 1112l209 348h178l-281 -348h-106zM221 0v979h127v-979h-127z" />
<glyph unicode="&#xee;" horiz-adv-x="569" d="M-2 1112l197 348h178l197 -348h-107l-178 242l-180 -242h-107zM221 0v979h127v-979h-127z" />
<glyph unicode="&#xef;" horiz-adv-x="569" d="M45 1176v188h160v-188h-160zM221 0v979h127v-979h-127zM365 1176v188h160v-188h-160z" />
<glyph unicode="&#xf0;" horiz-adv-x="995" d="M125 483q0 227 96 363.5t252 136.5q48 0 90.5 -17.5t83.5 -54.5l15 11q-28 74 -62.5 136.5t-75.5 110.5l-245 -96l-29 84l217 84q-39 36 -74.5 64.5t-66.5 50.5l55 86q47 -22 98 -60.5t109 -95.5l229 90l29 -82l-199 -80q111 -143 168 -327.5t57 -399.5q0 -236 -101 -374 t-273 -138q-171 0 -272 137.5t-101 370.5zM262 483q0 -185 62 -287t174 -102t174.5 102.5t62.5 286.5q0 185 -62.5 287t-174.5 102t-174 -102t-62 -287z" />
<glyph unicode="&#xf1;" d="M150 0v942l133 59v-219h16q86 111 169.5 165t168.5 54q118 0 179 -79.5t61 -233.5v-688h-134v666q0 121 -32 171t-109 50q-75 0 -156.5 -59.5t-162.5 -174.5v-653h-133zM221 1169q22 92 72.5 139.5t126.5 47.5q14 0 29.5 -3t30.5 -8l77 -26q13 -4 29 -6t32 -2 q37 0 61 16.5t36 50.5h88q-24 -92 -75 -141t-124 -49q-17 0 -32.5 2.5t-32.5 7.5l-80 27q-12 4 -25.5 6t-27.5 2q-35 0 -58.5 -15.5t-38.5 -48.5h-88z" />
<glyph unicode="&#xf2;" horiz-adv-x="995" d="M121 487q0 237 102 374.5t275 137.5q172 0 274 -137.5t102 -374.5q0 -236 -102 -374t-274 -138q-173 0 -275 138t-102 374zM248 1460h178l209 -348h-106zM258 487q0 -186 63.5 -289.5t176.5 -103.5t176 103.5t63 289.5q0 187 -63 291.5t-176 104.5t-176.5 -104.5 t-63.5 -291.5z" />
<glyph unicode="&#xf3;" horiz-adv-x="995" d="M121 487q0 237 102 374.5t275 137.5q172 0 274 -137.5t102 -374.5q0 -236 -102 -374t-274 -138q-173 0 -275 138t-102 374zM258 487q0 -186 63.5 -289.5t176.5 -103.5t176 103.5t63 289.5q0 187 -63 291.5t-176 104.5t-176.5 -104.5t-63.5 -291.5zM361 1112l209 348h178 l-281 -348h-106z" />
<glyph unicode="&#xf4;" horiz-adv-x="995" d="M121 487q0 237 102 374.5t275 137.5q172 0 274 -137.5t102 -374.5q0 -236 -102 -374t-274 -138q-173 0 -275 138t-102 374zM211 1112l197 348h178l197 -348h-107l-178 242l-180 -242h-107zM258 487q0 -186 63.5 -289.5t176.5 -103.5t176 103.5t63 289.5q0 187 -63 291.5 t-176 104.5t-176.5 -104.5t-63.5 -291.5z" />
<glyph unicode="&#xf5;" horiz-adv-x="995" d="M121 487q0 237 102 374.5t275 137.5q172 0 274 -137.5t102 -374.5q0 -236 -102 -374t-274 -138q-173 0 -275 138t-102 374zM207 1169q22 92 72.5 139.5t126.5 47.5q14 0 29.5 -3t30.5 -8l77 -26q13 -4 29 -6t32 -2q37 0 61 16.5t36 50.5h88q-24 -92 -75 -141t-124 -49 q-17 0 -32.5 2.5t-32.5 7.5l-80 27q-12 4 -25.5 6t-27.5 2q-35 0 -58.5 -15.5t-38.5 -48.5h-88zM258 487q0 -186 63.5 -289.5t176.5 -103.5t176 103.5t63 289.5q0 187 -63 291.5t-176 104.5t-176.5 -104.5t-63.5 -291.5z" />
<glyph unicode="&#xf6;" horiz-adv-x="995" d="M121 487q0 237 102 374.5t275 137.5q172 0 274 -137.5t102 -374.5q0 -236 -102 -374t-274 -138q-173 0 -275 138t-102 374zM258 487q0 -186 63.5 -289.5t176.5 -103.5t176 103.5t63 289.5q0 187 -63 291.5t-176 104.5t-176.5 -104.5t-63.5 -291.5zM258 1176v188h160v-188 h-160zM578 1176v188h160v-188h-160z" />
<glyph unicode="&#xf7;" horiz-adv-x="1706" d="M254 569v82h1198v-82h-1198zM756 264q0 41 29 71t69 30q41 0 69.5 -29.5t28.5 -71.5q0 -40 -28.5 -69t-69.5 -29t-69.5 28.5t-28.5 69.5zM756 956q0 41 28.5 70t69.5 29t69.5 -28.5t28.5 -70.5q0 -40 -28.5 -70t-69.5 -30t-69.5 29.5t-28.5 70.5z" />
<glyph unicode="&#xf8;" horiz-adv-x="995" d="M82 -283l176 359q-68 66 -102.5 169.5t-34.5 241.5q0 233 101 373.5t265 140.5q52 0 99.5 -14t93.5 -43l145 303h90l-170 -350q65 -71 97 -174t32 -236q0 -236 -102 -374t-274 -138q-43 0 -85.5 13.5t-86.5 40.5l-154 -312h-90zM258 487q0 -98 13.5 -166t43.5 -122 l312 641q-32 22 -63.5 32.5t-65.5 10.5q-113 0 -176.5 -104.5t-63.5 -291.5zM373 135q28 -21 58.5 -31t66.5 -10q113 0 176 103.5t63 289.5q0 118 -14.5 185.5t-46.5 103.5z" />
<glyph unicode="&#xf9;" d="M150 311v668h133v-645q0 -122 32 -171.5t109 -49.5q75 0 156 60t163 175v631h134v-922l-134 -57v217h-18q-86 -111 -169 -165t-167 -54q-118 0 -178.5 79.5t-60.5 233.5zM262 1460h178l209 -348h-106z" />
<glyph unicode="&#xfa;" d="M150 311v668h133v-645q0 -122 32 -171.5t109 -49.5q75 0 156 60t163 175v631h134v-922l-134 -57v217h-18q-86 -111 -169 -165t-167 -54q-118 0 -178.5 79.5t-60.5 233.5zM375 1112l209 348h178l-281 -348h-106z" />
<glyph unicode="&#xfb;" d="M150 311v668h133v-645q0 -122 32 -171.5t109 -49.5q75 0 156 60t163 175v631h134v-922l-134 -57v217h-18q-86 -111 -169 -165t-167 -54q-118 0 -178.5 79.5t-60.5 233.5zM225 1112l197 348h178l197 -348h-107l-178 242l-180 -242h-107z" />
<glyph unicode="&#xfc;" d="M150 311v668h133v-645q0 -122 32 -171.5t109 -49.5q75 0 156 60t163 175v631h134v-922l-134 -57v217h-18q-86 -111 -169 -165t-167 -54q-118 0 -178.5 79.5t-60.5 233.5zM272 1176v188h160v-188h-160zM592 1176v188h160v-188h-160z" />
<glyph unicode="&#xfd;" horiz-adv-x="909" d="M39 -143h49q26 -31 55.5 -46.5t61.5 -15.5q54 0 89 37.5t71 134.5l32 96l-342 916h138l260 -723h16l264 723h139l-401 -1085q-44 -115 -110.5 -166.5t-172.5 -51.5q-32 0 -70.5 5t-78.5 14v162zM318 1112l209 348h178l-281 -348h-106z" />
<glyph unicode="&#xfe;" d="M133 -356v1734l133 58v-645h17q65 104 141 157t158 53q156 0 241.5 -133.5t85.5 -380.5q0 -243 -85.5 -375t-241.5 -132q-82 0 -158 53t-141 157h-17v-546h-133zM266 487q0 -76 24.5 -150t69.5 -136q36 -48 83.5 -75.5t93.5 -27.5q111 0 172 101t61 288q0 188 -61 290 t-172 102q-46 0 -93 -28t-84 -77q-45 -62 -69.5 -136t-24.5 -151z" />
<glyph unicode="&#xff;" horiz-adv-x="909" d="M39 -143h49q26 -31 55.5 -46.5t61.5 -15.5q54 0 89 37.5t71 134.5l32 96l-342 916h138l260 -723h16l264 723h139l-401 -1085q-44 -115 -110.5 -166.5t-172.5 -51.5q-32 0 -70.5 5t-78.5 14v162zM215 1176v188h160v-188h-160zM535 1176v188h160v-188h-160z" />
<glyph unicode="&#x152;" horiz-adv-x="1982" d="M123 680q0 341 138.5 510.5t416.5 169.5h1100v-123h-711v-463h612v-123h-612v-528h733v-123h-1122q-278 0 -416.5 169.5t-138.5 510.5zM264 680q0 -299 105 -428t348 -129q116 0 164.5 34.5t48.5 114.5v818q0 80 -48.5 114.5t-164.5 34.5q-242 0 -347.5 -130t-105.5 -429 z" />
<glyph unicode="&#x153;" horiz-adv-x="1554" d="M121 487q0 237 102 374.5t275 137.5q105 0 177 -49t130 -162q41 103 118 157t181 54q168 0 264 -127t96 -352v-20h-590v-47q0 -183 61 -271t187 -88q54 0 108.5 28.5t106.5 84.5l97 -78q-63 -75 -147.5 -114.5t-182.5 -39.5q-112 0 -187 50t-112 149q-51 -99 -127.5 -149 t-179.5 -50q-173 0 -275 138t-102 374zM258 487q0 -186 63.5 -289.5t176.5 -103.5t176 103.5t63 289.5q0 187 -63 291.5t-176 104.5t-176.5 -104.5t-63.5 -291.5zM874 608h453q-6 136 -63 205.5t-162 69.5q-103 0 -160 -69t-68 -206z" />
<glyph unicode="&#x178;" horiz-adv-x="1366" d="M111 1360h149l408 -707h24l408 707h151l-501 -873v-487h-138v487zM444 1573v188h160v-188h-160zM764 1573v188h160v-188h-160z" />
<glyph unicode="&#x2c6;" d="M225 1112l197 348h178l197 -348h-107l-178 242l-180 -242h-107z" />
<glyph unicode="&#x2dc;" d="M221 1169q22 92 72.5 139.5t126.5 47.5q14 0 29.5 -3t30.5 -8l77 -26q13 -4 29 -6t32 -2q37 0 61 16.5t36 50.5h88q-24 -92 -75 -141t-124 -49q-17 0 -32.5 2.5t-32.5 7.5l-80 27q-12 4 -25.5 6t-27.5 2q-35 0 -58.5 -15.5t-38.5 -48.5h-88z" />
<glyph unicode="&#x2000;" horiz-adv-x="976" />
<glyph unicode="&#x2001;" horiz-adv-x="1952" />
<glyph unicode="&#x2002;" horiz-adv-x="976" />
<glyph unicode="&#x2003;" horiz-adv-x="1952" />
<glyph unicode="&#x2004;" horiz-adv-x="650" />
<glyph unicode="&#x2005;" horiz-adv-x="488" />
<glyph unicode="&#x2006;" horiz-adv-x="325" />
<glyph unicode="&#x2007;" horiz-adv-x="325" />
<glyph unicode="&#x2008;" horiz-adv-x="244" />
<glyph unicode="&#x2009;" horiz-adv-x="390" />
<glyph unicode="&#x200a;" horiz-adv-x="108" />
<glyph unicode="&#x2010;" horiz-adv-x="682" d="M109 428v119h450v-119h-450z" />
<glyph unicode="&#x2011;" horiz-adv-x="682" d="M109 428v119h450v-119h-450z" />
<glyph unicode="&#x2012;" horiz-adv-x="682" d="M109 428v119h450v-119h-450z" />
<glyph unicode="&#x2013;" d="M0 442v90h1024v-90h-1024z" />
<glyph unicode="&#x2014;" horiz-adv-x="2048" d="M0 442v90h2048v-90h-2048z" />
<glyph unicode="&#x2018;" horiz-adv-x="569" d="M100 1360h131l234 -600h-133z" />
<glyph unicode="&#x2019;" horiz-adv-x="569" d="M100 760l232 600h133l-234 -600h-131z" />
<glyph unicode="&#x201a;" horiz-adv-x="569" d="M45 -385l234 600h131l-232 -600h-133z" />
<glyph unicode="&#x201c;" horiz-adv-x="1139" d="M143 1360h133l234 -600h-133zM625 1360h133l233 -600h-133z" />
<glyph unicode="&#x201d;" horiz-adv-x="1139" d="M143 760l234 600h133l-234 -600h-133zM625 760l233 600h133l-233 -600h-133z" />
<glyph unicode="&#x201e;" horiz-adv-x="1139" d="M88 -385l234 600h133l-234 -600h-133zM569 -385l234 600h133l-234 -600h-133z" />
<glyph unicode="&#x2022;" horiz-adv-x="1208" d="M307 762q0 123 87 209t210 86q122 0 208.5 -86.5t86.5 -208.5t-87.5 -209.5t-209.5 -87.5q-123 0 -209 87t-86 210z" />
<glyph unicode="&#x2026;" horiz-adv-x="2048" d="M211 113q0 49 35.5 84.5t84.5 35.5q51 0 86 -35t35 -85t-35.5 -85.5t-85.5 -35.5q-49 0 -84.5 35.5t-35.5 85.5zM893 113q0 49 35.5 84.5t84.5 35.5q51 0 86 -35t35 -85t-35.5 -85.5t-85.5 -35.5q-49 0 -84.5 35.5t-35.5 85.5zM1577 113q0 49 35.5 84.5t84.5 35.5 q51 0 86 -35t35 -85t-35.5 -85.5t-85.5 -35.5q-49 0 -84.5 35.5t-35.5 85.5z" />
<glyph unicode="&#x202f;" horiz-adv-x="390" />
<glyph unicode="&#x2039;" horiz-adv-x="682" d="M100 483l262 324h138l-264 -324l264 -323h-138z" />
<glyph unicode="&#x203a;" horiz-adv-x="682" d="M182 160l264 323l-264 324h137l265 -324l-265 -323h-137z" />
<glyph unicode="&#x205f;" horiz-adv-x="488" />
<glyph unicode="&#x20ac;" horiz-adv-x="1139" d="M86 473l23 86h124q-1 14 -1.5 28t-0.5 44q0 31 0.5 45.5t1.5 27.5l-147 1l23 86h131q25 242 131 372.5t274 130.5q133 0 229.5 -89t131.5 -226l-125 -59q-26 119 -87 185t-143 66q-114 0 -182 -96t-86 -284h469l-23 -86l-452 -1q-1 -12 -1.5 -27t-0.5 -46t0.5 -45.5 t1.5 -26.5h407l-22 -86h-381q18 -194 85 -289.5t185 -95.5q84 0 145.5 70.5t84.5 179.5l129 -41q-30 -136 -127.5 -233t-227.5 -97q-177 0 -284.5 129.5t-130.5 376.5h-154z" />
<glyph unicode="&#x2122;" horiz-adv-x="1706" d="M274 1403v51h420v-51h-174v-479h-67v479h-179zM825 924v530h101l174 -440l162 440h102v-530h-59v479l-181 -479h-49l-190 479v-479h-60z" />
<glyph unicode="&#x25fc;" horiz-adv-x="980" d="M0 0v980h980v-980h-980z" />
</font>
</defs>
</svg>
